G04*
G04 #@! TF.GenerationSoftware,Altium Limited,Altium Designer,24.0.1 (36)*
G04*
G04 Layer_Color=32896*
%FSLAX44Y44*%
%MOMM*%
G71*
G04*
G04 #@! TF.SameCoordinates,B3AD537C-9D1A-4887-B287-0D13266BF09F*
G04*
G04*
G04 #@! TF.FilePolarity,Positive*
G04*
G01*
G75*
%ADD14C,0.2000*%
%ADD17C,0.2540*%
D14*
X1602050Y2340150D02*
Y2341650D01*
X1616550Y2340150D02*
Y2341650D01*
X1583350Y2358750D02*
Y2360250D01*
X1597850Y2358750D02*
Y2360250D01*
X1583350D02*
Y2373450D01*
X1584500Y2374600D01*
X1596400D01*
X1597850Y2373150D01*
Y2360250D02*
Y2373150D01*
Y2360250D02*
X1597900Y2360200D01*
Y2345700D02*
Y2360200D01*
X1597000Y2344800D02*
X1597900Y2345700D01*
X1583350Y2345350D02*
Y2359500D01*
Y2344800D02*
X1597000D01*
X1583350D02*
Y2345350D01*
X1602050Y2341650D02*
Y2354350D01*
X1603700Y2356000D01*
X1615500D01*
X1616550Y2354950D01*
Y2340150D02*
Y2354950D01*
X1616500Y2340100D02*
X1616550Y2340150D01*
X1616500Y2327400D02*
Y2340100D01*
X1615100Y2326000D02*
X1616500Y2327400D01*
X1603300Y2326000D02*
X1615100D01*
X1602050Y2327250D02*
X1603300Y2326000D01*
X1602050Y2327250D02*
Y2340150D01*
X1185370Y3044230D02*
X1186870D01*
X1185370Y3029730D02*
X1186870D01*
X2087274Y2342378D02*
X2088334Y2341318D01*
X2077021Y2332125D02*
X2078081Y2331064D01*
X2006108Y2542981D02*
Y2544481D01*
X1991608Y2542981D02*
Y2544481D01*
X2140470Y3151350D02*
X2141970D01*
X2140470Y3136850D02*
X2141970D01*
D17*
X2634463Y1992460D02*
X2642794D01*
X2644460Y1990794D01*
Y1987462D01*
X2642794Y1985795D01*
X2634463D01*
X2644460Y1982463D02*
X2634463D01*
X2644460Y1975799D01*
X2634463D01*
X2644460Y1972466D02*
X2634463D01*
X2637795Y1969134D01*
X2634463Y1965802D01*
X2644460D01*
X2634463Y1962470D02*
X2644460D01*
Y1957471D01*
X2642794Y1955805D01*
X2636129D01*
X2634463Y1957471D01*
Y1962470D01*
X2644460Y1952473D02*
X2634463D01*
Y1947475D01*
X2636129Y1945808D01*
X2639462D01*
X2641128Y1947475D01*
Y1952473D01*
X2639462Y1932479D02*
Y1925815D01*
X2634463Y1912486D02*
X2644460D01*
Y1905821D01*
Y1902489D02*
X2637795D01*
X2634463Y1899157D01*
X2637795Y1895824D01*
X2644460D01*
X2639462D01*
Y1902489D01*
X2636129Y1885828D02*
X2634463Y1887494D01*
Y1890826D01*
X2636129Y1892492D01*
X2642794D01*
X2644460Y1890826D01*
Y1887494D01*
X2642794Y1885828D01*
X2644460Y1865834D02*
Y1872499D01*
X2637795Y1865834D01*
X2636129D01*
X2634463Y1867500D01*
Y1870833D01*
X2636129Y1872499D01*
Y1862502D02*
X2634463Y1860836D01*
Y1857504D01*
X2636129Y1855837D01*
X2642794D01*
X2644460Y1857504D01*
Y1860836D01*
X2642794Y1862502D01*
X2636129D01*
X2644460Y1845841D02*
Y1852505D01*
X2637795Y1845841D01*
X2636129D01*
X2634463Y1847507D01*
Y1850839D01*
X2636129Y1852505D01*
X2644460Y1837510D02*
X2634463D01*
X2639462Y1842508D01*
Y1835844D01*
X2612003Y1993000D02*
X2618668D01*
X2622000Y1989668D01*
X2618668Y1986335D01*
X2612003D01*
X2622000Y1983003D02*
X2615335D01*
X2612003Y1979671D01*
X2615335Y1976339D01*
X2622000D01*
X2617002D01*
Y1983003D01*
X2612003Y1973006D02*
Y1966342D01*
X2613669D01*
X2620334Y1973006D01*
X2622000D01*
Y1966342D01*
X2620334Y1956345D02*
X2613669D01*
X2612003Y1958011D01*
Y1961344D01*
X2613669Y1963010D01*
X2620334D01*
X2622000Y1961344D01*
Y1958011D01*
X2618668Y1959677D02*
X2622000Y1956345D01*
Y1958011D02*
X2620334Y1956345D01*
X2612003Y1953013D02*
X2620334D01*
X2622000Y1951347D01*
Y1948015D01*
X2620334Y1946348D01*
X2612003D01*
Y1936352D02*
Y1943016D01*
X2622000D01*
Y1936352D01*
X2617002Y1943016D02*
Y1939684D01*
X2612003Y1933019D02*
Y1926355D01*
X2613669D01*
X2620334Y1933019D01*
X2622000D01*
Y1926355D01*
X2612003Y1913026D02*
X2622000D01*
Y1906361D01*
X2612003Y1896364D02*
Y1903029D01*
X2622000D01*
Y1896364D01*
X2617002Y1903029D02*
Y1899697D01*
X2612003Y1888034D02*
Y1891366D01*
X2613669Y1893032D01*
X2620334D01*
X2622000Y1891366D01*
Y1888034D01*
X2620334Y1886368D01*
X2613669D01*
X2612003Y1888034D01*
X2622000Y1883035D02*
X2612003D01*
X2622000Y1876371D01*
X2612003D01*
X2622000Y1873039D02*
X2615335D01*
X2612003Y1869706D01*
X2615335Y1866374D01*
X2622000D01*
X2617002D01*
Y1873039D01*
X2622000Y1863042D02*
X2612003D01*
Y1858044D01*
X2613669Y1856377D01*
X2617002D01*
X2618668Y1858044D01*
Y1863042D01*
Y1859710D02*
X2622000Y1856377D01*
X2612003Y1853045D02*
X2622000D01*
Y1848047D01*
X2620334Y1846381D01*
X2613669D01*
X2612003Y1848047D01*
Y1853045D01*
Y1838050D02*
Y1841382D01*
X2613669Y1843048D01*
X2620334D01*
X2622000Y1841382D01*
Y1838050D01*
X2620334Y1836384D01*
X2613669D01*
X2612003Y1838050D01*
X2030462Y1933537D02*
X2036460D01*
Y1929039D01*
X2033461D01*
X2036460D01*
Y1924540D01*
X2027463D02*
Y1933537D01*
X2022964D01*
X2021465Y1932038D01*
Y1929039D01*
X2022964Y1927539D01*
X2027463D01*
X2024464D02*
X2021465Y1924540D01*
X2018466Y1929039D02*
X2012468D01*
X2004970Y1924540D02*
Y1933537D01*
X2009469Y1929039D01*
X2003471D01*
X1019003Y2230000D02*
X1025668D01*
X1029000Y2226668D01*
X1025668Y2223336D01*
X1019003D01*
X1029000Y2220003D02*
X1022336D01*
X1019003Y2216671D01*
X1022336Y2213339D01*
X1029000D01*
X1024002D01*
Y2220003D01*
X1019003Y2210007D02*
Y2203342D01*
X1020669D01*
X1027334Y2210007D01*
X1029000D01*
Y2203342D01*
X1027334Y2193345D02*
X1020669D01*
X1019003Y2195011D01*
Y2198344D01*
X1020669Y2200010D01*
X1027334D01*
X1029000Y2198344D01*
Y2195011D01*
X1025668Y2196677D02*
X1029000Y2193345D01*
Y2195011D02*
X1027334Y2193345D01*
X1019003Y2190013D02*
X1027334D01*
X1029000Y2188347D01*
Y2185014D01*
X1027334Y2183348D01*
X1019003D01*
Y2173352D02*
Y2180016D01*
X1029000D01*
Y2173352D01*
X1024002Y2180016D02*
Y2176684D01*
X1019003Y2170019D02*
Y2163355D01*
X1020669D01*
X1027334Y2170019D01*
X1029000D01*
Y2163355D01*
X1019003Y2150026D02*
X1029000D01*
Y2143361D01*
X1019003Y2133365D02*
Y2140029D01*
X1029000D01*
Y2133365D01*
X1024002Y2140029D02*
Y2136697D01*
X1019003Y2125034D02*
Y2128366D01*
X1020669Y2130032D01*
X1027334D01*
X1029000Y2128366D01*
Y2125034D01*
X1027334Y2123368D01*
X1020669D01*
X1019003Y2125034D01*
X1029000Y2120035D02*
X1019003D01*
X1029000Y2113371D01*
X1019003D01*
X1029000Y2110039D02*
X1022336D01*
X1019003Y2106706D01*
X1022336Y2103374D01*
X1029000D01*
X1024002D01*
Y2110039D01*
X1029000Y2100042D02*
X1019003D01*
Y2095043D01*
X1020669Y2093377D01*
X1024002D01*
X1025668Y2095043D01*
Y2100042D01*
Y2096710D02*
X1029000Y2093377D01*
X1019003Y2090045D02*
X1029000D01*
Y2085047D01*
X1027334Y2083381D01*
X1020669D01*
X1019003Y2085047D01*
Y2090045D01*
Y2075050D02*
Y2078382D01*
X1020669Y2080048D01*
X1027334D01*
X1029000Y2078382D01*
Y2075050D01*
X1027334Y2073384D01*
X1020669D01*
X1019003Y2075050D01*
X1041463Y2229460D02*
X1049794D01*
X1051460Y2227794D01*
Y2224462D01*
X1049794Y2222796D01*
X1041463D01*
X1051460Y2219463D02*
X1041463D01*
X1051460Y2212799D01*
X1041463D01*
X1051460Y2209467D02*
X1041463D01*
X1044795Y2206134D01*
X1041463Y2202802D01*
X1051460D01*
X1041463Y2199470D02*
X1051460D01*
Y2194471D01*
X1049794Y2192805D01*
X1043129D01*
X1041463Y2194471D01*
Y2199470D01*
X1051460Y2189473D02*
X1041463D01*
Y2184474D01*
X1043129Y2182808D01*
X1046462D01*
X1048128Y2184474D01*
Y2189473D01*
X1046462Y2169479D02*
Y2162815D01*
X1041463Y2149486D02*
X1051460D01*
Y2142821D01*
Y2139489D02*
X1044795D01*
X1041463Y2136157D01*
X1044795Y2132825D01*
X1051460D01*
X1046462D01*
Y2139489D01*
X1043129Y2122828D02*
X1041463Y2124494D01*
Y2127826D01*
X1043129Y2129492D01*
X1049794D01*
X1051460Y2127826D01*
Y2124494D01*
X1049794Y2122828D01*
X1051460Y2102834D02*
Y2109499D01*
X1044795Y2102834D01*
X1043129D01*
X1041463Y2104500D01*
Y2107833D01*
X1043129Y2109499D01*
Y2099502D02*
X1041463Y2097836D01*
Y2094503D01*
X1043129Y2092837D01*
X1049794D01*
X1051460Y2094503D01*
Y2097836D01*
X1049794Y2099502D01*
X1043129D01*
X1051460Y2082841D02*
Y2089505D01*
X1044795Y2082841D01*
X1043129D01*
X1041463Y2084507D01*
Y2087839D01*
X1043129Y2089505D01*
X1051460Y2074510D02*
X1041463D01*
X1046462Y2079508D01*
Y2072844D01*
X1019004Y2775667D02*
X1025669D01*
X1029001Y2772334D01*
X1025669Y2769002D01*
X1019004D01*
X1029001Y2765670D02*
X1022337D01*
X1019004Y2762337D01*
X1022337Y2759005D01*
X1029001D01*
X1024003D01*
Y2765670D01*
X1019004Y2755673D02*
Y2749008D01*
X1020670D01*
X1027335Y2755673D01*
X1029001D01*
Y2749008D01*
X1027335Y2739012D02*
X1020670D01*
X1019004Y2740678D01*
Y2744010D01*
X1020670Y2745676D01*
X1027335D01*
X1029001Y2744010D01*
Y2740678D01*
X1025669Y2742344D02*
X1029001Y2739012D01*
Y2740678D02*
X1027335Y2739012D01*
X1019004Y2735679D02*
X1027335D01*
X1029001Y2734013D01*
Y2730681D01*
X1027335Y2729015D01*
X1019004D01*
Y2719018D02*
Y2725683D01*
X1029001D01*
Y2719018D01*
X1024003Y2725683D02*
Y2722350D01*
X1019004Y2715686D02*
Y2709021D01*
X1020670D01*
X1027335Y2715686D01*
X1029001D01*
Y2709021D01*
X1019004Y2695692D02*
X1029001D01*
Y2689028D01*
X1019004Y2679031D02*
Y2685695D01*
X1029001D01*
Y2679031D01*
X1024003Y2685695D02*
Y2682363D01*
X1019004Y2670700D02*
Y2674033D01*
X1020670Y2675699D01*
X1027335D01*
X1029001Y2674033D01*
Y2670700D01*
X1027335Y2669034D01*
X1020670D01*
X1019004Y2670700D01*
X1029001Y2665702D02*
X1019004D01*
X1029001Y2659037D01*
X1019004D01*
X1029001Y2655705D02*
X1022337D01*
X1019004Y2652373D01*
X1022337Y2649041D01*
X1029001D01*
X1024003D01*
Y2655705D01*
X1029001Y2645708D02*
X1019004D01*
Y2640710D01*
X1020670Y2639044D01*
X1024003D01*
X1025669Y2640710D01*
Y2645708D01*
Y2642376D02*
X1029001Y2639044D01*
X1019004Y2635711D02*
X1029001D01*
Y2630713D01*
X1027335Y2629047D01*
X1020670D01*
X1019004Y2630713D01*
Y2635711D01*
Y2620716D02*
Y2624048D01*
X1020670Y2625715D01*
X1027335D01*
X1029001Y2624048D01*
Y2620716D01*
X1027335Y2619050D01*
X1020670D01*
X1019004Y2620716D01*
X1041464Y2775127D02*
X1049795D01*
X1051461Y2773460D01*
Y2770128D01*
X1049795Y2768462D01*
X1041464D01*
X1051461Y2765130D02*
X1041464D01*
X1051461Y2758465D01*
X1041464D01*
X1051461Y2755133D02*
X1041464D01*
X1044797Y2751801D01*
X1041464Y2748468D01*
X1051461D01*
X1041464Y2745136D02*
X1051461D01*
Y2740138D01*
X1049795Y2738472D01*
X1043130D01*
X1041464Y2740138D01*
Y2745136D01*
X1051461Y2735139D02*
X1041464D01*
Y2730141D01*
X1043130Y2728475D01*
X1046463D01*
X1048129Y2730141D01*
Y2735139D01*
X1046463Y2715146D02*
Y2708481D01*
X1041464Y2695152D02*
X1051461D01*
Y2688488D01*
Y2685156D02*
X1044797D01*
X1041464Y2681823D01*
X1044797Y2678491D01*
X1051461D01*
X1046463D01*
Y2685156D01*
X1043130Y2668494D02*
X1041464Y2670160D01*
Y2673492D01*
X1043130Y2675159D01*
X1049795D01*
X1051461Y2673492D01*
Y2670160D01*
X1049795Y2668494D01*
X1051461Y2648501D02*
Y2655165D01*
X1044797Y2648501D01*
X1043130D01*
X1041464Y2650167D01*
Y2653499D01*
X1043130Y2655165D01*
Y2645168D02*
X1041464Y2643502D01*
Y2640170D01*
X1043130Y2638504D01*
X1049795D01*
X1051461Y2640170D01*
Y2643502D01*
X1049795Y2645168D01*
X1043130D01*
X1051461Y2628507D02*
Y2635172D01*
X1044797Y2628507D01*
X1043130D01*
X1041464Y2630173D01*
Y2633505D01*
X1043130Y2635172D01*
X1051461Y2620176D02*
X1041464D01*
X1046463Y2625175D01*
Y2618510D01*
X1019003Y3321000D02*
X1025668D01*
X1029000Y3317668D01*
X1025668Y3314336D01*
X1019003D01*
X1029000Y3311003D02*
X1022336D01*
X1019003Y3307671D01*
X1022336Y3304339D01*
X1029000D01*
X1024002D01*
Y3311003D01*
X1019003Y3301006D02*
Y3294342D01*
X1020669D01*
X1027334Y3301006D01*
X1029000D01*
Y3294342D01*
X1027334Y3284345D02*
X1020669D01*
X1019003Y3286011D01*
Y3289344D01*
X1020669Y3291010D01*
X1027334D01*
X1029000Y3289344D01*
Y3286011D01*
X1025668Y3287677D02*
X1029000Y3284345D01*
Y3286011D02*
X1027334Y3284345D01*
X1019003Y3281013D02*
X1027334D01*
X1029000Y3279347D01*
Y3276014D01*
X1027334Y3274348D01*
X1019003D01*
Y3264352D02*
Y3271016D01*
X1029000D01*
Y3264352D01*
X1024002Y3271016D02*
Y3267684D01*
X1019003Y3261019D02*
Y3254355D01*
X1020669D01*
X1027334Y3261019D01*
X1029000D01*
Y3254355D01*
X1019003Y3241026D02*
X1029000D01*
Y3234361D01*
X1019003Y3224365D02*
Y3231029D01*
X1029000D01*
Y3224365D01*
X1024002Y3231029D02*
Y3227697D01*
X1019003Y3216034D02*
Y3219366D01*
X1020669Y3221032D01*
X1027334D01*
X1029000Y3219366D01*
Y3216034D01*
X1027334Y3214368D01*
X1020669D01*
X1019003Y3216034D01*
X1029000Y3211035D02*
X1019003D01*
X1029000Y3204371D01*
X1019003D01*
X1029000Y3201039D02*
X1022336D01*
X1019003Y3197706D01*
X1022336Y3194374D01*
X1029000D01*
X1024002D01*
Y3201039D01*
X1029000Y3191042D02*
X1019003D01*
Y3186043D01*
X1020669Y3184377D01*
X1024002D01*
X1025668Y3186043D01*
Y3191042D01*
Y3187710D02*
X1029000Y3184377D01*
X1019003Y3181045D02*
X1029000D01*
Y3176047D01*
X1027334Y3174380D01*
X1020669D01*
X1019003Y3176047D01*
Y3181045D01*
Y3166050D02*
Y3169382D01*
X1020669Y3171048D01*
X1027334D01*
X1029000Y3169382D01*
Y3166050D01*
X1027334Y3164384D01*
X1020669D01*
X1019003Y3166050D01*
X1041463Y3320460D02*
X1049794D01*
X1051460Y3318794D01*
Y3315462D01*
X1049794Y3313795D01*
X1041463D01*
X1051460Y3310463D02*
X1041463D01*
X1051460Y3303799D01*
X1041463D01*
X1051460Y3300467D02*
X1041463D01*
X1044795Y3297134D01*
X1041463Y3293802D01*
X1051460D01*
X1041463Y3290470D02*
X1051460D01*
Y3285471D01*
X1049794Y3283805D01*
X1043129D01*
X1041463Y3285471D01*
Y3290470D01*
X1051460Y3280473D02*
X1041463D01*
Y3275475D01*
X1043129Y3273808D01*
X1046462D01*
X1048128Y3275475D01*
Y3280473D01*
X1046462Y3260479D02*
Y3253815D01*
X1041463Y3240486D02*
X1051460D01*
Y3233821D01*
Y3230489D02*
X1044795D01*
X1041463Y3227157D01*
X1044795Y3223824D01*
X1051460D01*
X1046462D01*
Y3230489D01*
X1043129Y3213828D02*
X1041463Y3215494D01*
Y3218826D01*
X1043129Y3220492D01*
X1049794D01*
X1051460Y3218826D01*
Y3215494D01*
X1049794Y3213828D01*
X1051460Y3193834D02*
Y3200499D01*
X1044795Y3193834D01*
X1043129D01*
X1041463Y3195500D01*
Y3198833D01*
X1043129Y3200499D01*
Y3190502D02*
X1041463Y3188836D01*
Y3185504D01*
X1043129Y3183837D01*
X1049794D01*
X1051460Y3185504D01*
Y3188836D01*
X1049794Y3190502D01*
X1043129D01*
X1051460Y3173841D02*
Y3180505D01*
X1044795Y3173841D01*
X1043129D01*
X1041463Y3175507D01*
Y3178839D01*
X1043129Y3180505D01*
X1051460Y3165510D02*
X1041463D01*
X1046462Y3170508D01*
Y3163844D01*
X2614003Y2482000D02*
X2620668D01*
X2624000Y2478668D01*
X2620668Y2475336D01*
X2614003D01*
X2624000Y2472003D02*
X2617336D01*
X2614003Y2468671D01*
X2617336Y2465339D01*
X2624000D01*
X2619001D01*
Y2472003D01*
X2614003Y2462006D02*
Y2455342D01*
X2615669D01*
X2622334Y2462006D01*
X2624000D01*
Y2455342D01*
X2622334Y2445345D02*
X2615669D01*
X2614003Y2447011D01*
Y2450343D01*
X2615669Y2452010D01*
X2622334D01*
X2624000Y2450343D01*
Y2447011D01*
X2620668Y2448677D02*
X2624000Y2445345D01*
Y2447011D02*
X2622334Y2445345D01*
X2614003Y2442013D02*
X2622334D01*
X2624000Y2440347D01*
Y2437014D01*
X2622334Y2435348D01*
X2614003D01*
Y2425352D02*
Y2432016D01*
X2624000D01*
Y2425352D01*
X2619001Y2432016D02*
Y2428684D01*
X2614003Y2422019D02*
Y2415355D01*
X2615669D01*
X2622334Y2422019D01*
X2624000D01*
Y2415355D01*
X2614003Y2402026D02*
X2624000D01*
Y2395361D01*
X2614003Y2385365D02*
Y2392029D01*
X2624000D01*
Y2385365D01*
X2619001Y2392029D02*
Y2388697D01*
X2614003Y2377034D02*
Y2380366D01*
X2615669Y2382032D01*
X2622334D01*
X2624000Y2380366D01*
Y2377034D01*
X2622334Y2375368D01*
X2615669D01*
X2614003Y2377034D01*
X2624000Y2372035D02*
X2614003D01*
X2624000Y2365371D01*
X2614003D01*
X2624000Y2362039D02*
X2617336D01*
X2614003Y2358706D01*
X2617336Y2355374D01*
X2624000D01*
X2619001D01*
Y2362039D01*
X2624000Y2352042D02*
X2614003D01*
Y2347043D01*
X2615669Y2345377D01*
X2619001D01*
X2620668Y2347043D01*
Y2352042D01*
Y2348710D02*
X2624000Y2345377D01*
X2614003Y2342045D02*
X2624000D01*
Y2337047D01*
X2622334Y2335381D01*
X2615669D01*
X2614003Y2337047D01*
Y2342045D01*
Y2327050D02*
Y2330382D01*
X2615669Y2332048D01*
X2622334D01*
X2624000Y2330382D01*
Y2327050D01*
X2622334Y2325384D01*
X2615669D01*
X2614003Y2327050D01*
X2636463Y2481460D02*
X2644794D01*
X2646460Y2479794D01*
Y2476462D01*
X2644794Y2474796D01*
X2636463D01*
X2646460Y2471463D02*
X2636463D01*
X2646460Y2464799D01*
X2636463D01*
X2646460Y2461467D02*
X2636463D01*
X2639796Y2458134D01*
X2636463Y2454802D01*
X2646460D01*
X2636463Y2451470D02*
X2646460D01*
Y2446471D01*
X2644794Y2444805D01*
X2638129D01*
X2636463Y2446471D01*
Y2451470D01*
X2646460Y2441473D02*
X2636463D01*
Y2436474D01*
X2638129Y2434808D01*
X2641461D01*
X2643128Y2436474D01*
Y2441473D01*
X2641461Y2421479D02*
Y2414815D01*
X2636463Y2401486D02*
X2646460D01*
Y2394821D01*
Y2391489D02*
X2639796D01*
X2636463Y2388157D01*
X2639796Y2384825D01*
X2646460D01*
X2641461D01*
Y2391489D01*
X2638129Y2374828D02*
X2636463Y2376494D01*
Y2379826D01*
X2638129Y2381492D01*
X2644794D01*
X2646460Y2379826D01*
Y2376494D01*
X2644794Y2374828D01*
X2646460Y2354834D02*
Y2361499D01*
X2639796Y2354834D01*
X2638129D01*
X2636463Y2356500D01*
Y2359832D01*
X2638129Y2361499D01*
Y2351502D02*
X2636463Y2349836D01*
Y2346503D01*
X2638129Y2344837D01*
X2644794D01*
X2646460Y2346503D01*
Y2349836D01*
X2644794Y2351502D01*
X2638129D01*
X2646460Y2334841D02*
Y2341505D01*
X2639796Y2334841D01*
X2638129D01*
X2636463Y2336507D01*
Y2339839D01*
X2638129Y2341505D01*
X2646460Y2326510D02*
X2636463D01*
X2641461Y2331508D01*
Y2324844D01*
X2471791Y2179891D02*
X2480121D01*
X2481788Y2178225D01*
Y2174893D01*
X2480121Y2173227D01*
X2471791D01*
X2481788Y2169895D02*
X2471791D01*
X2481788Y2163230D01*
X2471791D01*
X2481788Y2159898D02*
X2471791D01*
X2475123Y2156566D01*
X2471791Y2153233D01*
X2481788D01*
X2471791Y2149901D02*
X2481788D01*
Y2144903D01*
X2480121Y2143237D01*
X2473457D01*
X2471791Y2144903D01*
Y2149901D01*
X2481788Y2139904D02*
X2471791D01*
Y2134906D01*
X2473457Y2133240D01*
X2476789D01*
X2478455Y2134906D01*
Y2139904D01*
X2476789Y2119911D02*
Y2113246D01*
X2471791Y2099917D02*
X2481788D01*
Y2093253D01*
Y2089920D02*
X2475123D01*
X2471791Y2086588D01*
X2475123Y2083256D01*
X2481788D01*
X2476789D01*
Y2089920D01*
X2473457Y2073259D02*
X2471791Y2074925D01*
Y2078257D01*
X2473457Y2079924D01*
X2480121D01*
X2481788Y2078257D01*
Y2074925D01*
X2480121Y2073259D01*
X2481788Y2053266D02*
Y2059930D01*
X2475123Y2053266D01*
X2473457D01*
X2471791Y2054932D01*
Y2058264D01*
X2473457Y2059930D01*
Y2049933D02*
X2471791Y2048267D01*
Y2044935D01*
X2473457Y2043269D01*
X2480121D01*
X2481788Y2044935D01*
Y2048267D01*
X2480121Y2049933D01*
X2473457D01*
X2481788Y2033272D02*
Y2039937D01*
X2475123Y2033272D01*
X2473457D01*
X2471791Y2034938D01*
Y2038270D01*
X2473457Y2039937D01*
X2481788Y2024941D02*
X2471791D01*
X2476789Y2029940D01*
Y2023275D01*
X2449331Y2180431D02*
X2455995D01*
X2459328Y2177099D01*
X2455995Y2173767D01*
X2449331D01*
X2459328Y2170435D02*
X2452663D01*
X2449331Y2167102D01*
X2452663Y2163770D01*
X2459328D01*
X2454329D01*
Y2170435D01*
X2449331Y2160438D02*
Y2153773D01*
X2450997D01*
X2457661Y2160438D01*
X2459328D01*
Y2153773D01*
X2457661Y2143777D02*
X2450997D01*
X2449331Y2145443D01*
Y2148775D01*
X2450997Y2150441D01*
X2457661D01*
X2459328Y2148775D01*
Y2145443D01*
X2455995Y2147109D02*
X2459328Y2143777D01*
Y2145443D02*
X2457661Y2143777D01*
X2449331Y2140444D02*
X2457661D01*
X2459328Y2138778D01*
Y2135446D01*
X2457661Y2133780D01*
X2449331D01*
Y2123783D02*
Y2130448D01*
X2459328D01*
Y2123783D01*
X2454329Y2130448D02*
Y2127115D01*
X2449331Y2120451D02*
Y2113786D01*
X2450997D01*
X2457661Y2120451D01*
X2459328D01*
Y2113786D01*
X2449331Y2100457D02*
X2459328D01*
Y2093793D01*
X2449331Y2083796D02*
Y2090460D01*
X2459328D01*
Y2083796D01*
X2454329Y2090460D02*
Y2087128D01*
X2449331Y2075465D02*
Y2078797D01*
X2450997Y2080464D01*
X2457661D01*
X2459328Y2078797D01*
Y2075465D01*
X2457661Y2073799D01*
X2450997D01*
X2449331Y2075465D01*
X2459328Y2070467D02*
X2449331D01*
X2459328Y2063802D01*
X2449331D01*
X2459328Y2060470D02*
X2452663D01*
X2449331Y2057138D01*
X2452663Y2053806D01*
X2459328D01*
X2454329D01*
Y2060470D01*
X2459328Y2050473D02*
X2449331D01*
Y2045475D01*
X2450997Y2043809D01*
X2454329D01*
X2455995Y2045475D01*
Y2050473D01*
Y2047141D02*
X2459328Y2043809D01*
X2449331Y2040477D02*
X2459328D01*
Y2035478D01*
X2457661Y2033812D01*
X2450997D01*
X2449331Y2035478D01*
Y2040477D01*
Y2025481D02*
Y2028814D01*
X2450997Y2030480D01*
X2457661D01*
X2459328Y2028814D01*
Y2025481D01*
X2457661Y2023815D01*
X2450997D01*
X2449331Y2025481D01*
X1432960Y2603139D02*
Y2611137D01*
X1428961Y2615135D01*
X1424963Y2611137D01*
Y2603139D01*
Y2609138D01*
X1432960D01*
X1420964Y2615135D02*
Y2603139D01*
X1414966D01*
X1412966Y2605139D01*
Y2613136D01*
X1414966Y2615135D01*
X1420964D01*
X1400970D02*
X1408968D01*
Y2609138D01*
X1404969D01*
X1408968D01*
Y2603139D01*
X1390974D02*
Y2615135D01*
X1396972Y2609138D01*
X1388974D01*
X1384976Y2613136D02*
X1382976Y2615135D01*
X1378978D01*
X1376978Y2613136D01*
Y2611137D01*
X1378978Y2609138D01*
X1380977D01*
X1378978D01*
X1376978Y2607138D01*
Y2605139D01*
X1378978Y2603139D01*
X1382976D01*
X1384976Y2605139D01*
X1364982Y2615135D02*
X1372979D01*
Y2609138D01*
X1368981Y2611137D01*
X1366981D01*
X1364982Y2609138D01*
Y2605139D01*
X1366981Y2603139D01*
X1370980D01*
X1372979Y2605139D01*
X1360983Y2603139D02*
X1356985D01*
X1358984D01*
Y2615135D01*
X1360983Y2613136D01*
X1350987Y2601140D02*
X1342989D01*
X1338990Y2603139D02*
X1334992D01*
X1336991D01*
Y2615135D01*
X1338990Y2613136D01*
X1328994D02*
X1326994Y2615135D01*
X1322996D01*
X1320996Y2613136D01*
Y2605139D01*
X1322996Y2603139D01*
X1326994D01*
X1328994Y2605139D01*
Y2613136D01*
X1316998Y2615135D02*
X1309000Y2603139D01*
Y2615135D02*
X1316998Y2603139D01*
X1297004D02*
X1305001D01*
X1297004Y2611137D01*
Y2613136D01*
X1299003Y2615135D01*
X1303002D01*
X1305001Y2613136D01*
X1281009Y2615135D02*
Y2607138D01*
X1277010Y2603139D01*
X1273012Y2607138D01*
Y2615135D01*
X1269013Y2603139D02*
X1265014D01*
X1267014D01*
Y2615135D01*
X1269013Y2613136D01*
X1259016Y2603139D02*
Y2605139D01*
X1257017D01*
Y2603139D01*
X1259016D01*
X1241022D02*
X1249019D01*
X1241022Y2611137D01*
Y2613136D01*
X1243021Y2615135D01*
X1247020D01*
X1249019Y2613136D01*
X1189163Y2233660D02*
X1195828D01*
X1199160Y2230328D01*
X1195828Y2226996D01*
X1189163D01*
X1199160Y2223663D02*
X1192495D01*
X1189163Y2220331D01*
X1192495Y2216999D01*
X1199160D01*
X1194162D01*
Y2223663D01*
X1189163Y2213667D02*
Y2207002D01*
X1190829D01*
X1197494Y2213667D01*
X1199160D01*
Y2207002D01*
X1197494Y2197005D02*
X1190829D01*
X1189163Y2198671D01*
Y2202003D01*
X1190829Y2203670D01*
X1197494D01*
X1199160Y2202003D01*
Y2198671D01*
X1195828Y2200337D02*
X1199160Y2197005D01*
Y2198671D02*
X1197494Y2197005D01*
X1189163Y2193673D02*
X1197494D01*
X1199160Y2192007D01*
Y2188674D01*
X1197494Y2187008D01*
X1189163D01*
Y2177012D02*
Y2183676D01*
X1199160D01*
Y2177012D01*
X1194162Y2183676D02*
Y2180344D01*
X1189163Y2173679D02*
Y2167015D01*
X1190829D01*
X1197494Y2173679D01*
X1199160D01*
Y2167015D01*
X1189163Y2153686D02*
X1199160D01*
Y2147021D01*
X1189163Y2137025D02*
Y2143689D01*
X1199160D01*
Y2137025D01*
X1194162Y2143689D02*
Y2140357D01*
X1189163Y2128694D02*
Y2132026D01*
X1190829Y2133692D01*
X1197494D01*
X1199160Y2132026D01*
Y2128694D01*
X1197494Y2127028D01*
X1190829D01*
X1189163Y2128694D01*
X1199160Y2123695D02*
X1189163D01*
X1199160Y2117031D01*
X1189163D01*
X1199160Y2113699D02*
X1192495D01*
X1189163Y2110366D01*
X1192495Y2107034D01*
X1199160D01*
X1194162D01*
Y2113699D01*
X1199160Y2103702D02*
X1189163D01*
Y2098703D01*
X1190829Y2097037D01*
X1194162D01*
X1195828Y2098703D01*
Y2103702D01*
Y2100370D02*
X1199160Y2097037D01*
X1189163Y2093705D02*
X1199160D01*
Y2088707D01*
X1197494Y2087041D01*
X1190829D01*
X1189163Y2088707D01*
Y2093705D01*
Y2078710D02*
Y2082042D01*
X1190829Y2083708D01*
X1197494D01*
X1199160Y2082042D01*
Y2078710D01*
X1197494Y2077044D01*
X1190829D01*
X1189163Y2078710D01*
X1210763Y2233260D02*
X1219094D01*
X1220760Y2231594D01*
Y2228262D01*
X1219094Y2226595D01*
X1210763D01*
X1220760Y2223263D02*
X1210763D01*
X1220760Y2216599D01*
X1210763D01*
X1220760Y2213266D02*
X1210763D01*
X1214096Y2209934D01*
X1210763Y2206602D01*
X1220760D01*
X1210763Y2203270D02*
X1220760D01*
Y2198271D01*
X1219094Y2196605D01*
X1212429D01*
X1210763Y2198271D01*
Y2203270D01*
X1220760Y2193273D02*
X1210763D01*
Y2188275D01*
X1212429Y2186608D01*
X1215762D01*
X1217428Y2188275D01*
Y2193273D01*
X1215762Y2173279D02*
Y2166615D01*
X1210763Y2153286D02*
X1220760D01*
Y2146621D01*
Y2143289D02*
X1214096D01*
X1210763Y2139957D01*
X1214096Y2136624D01*
X1220760D01*
X1215762D01*
Y2143289D01*
X1212429Y2126628D02*
X1210763Y2128294D01*
Y2131626D01*
X1212429Y2133292D01*
X1219094D01*
X1220760Y2131626D01*
Y2128294D01*
X1219094Y2126628D01*
X1220760Y2106634D02*
Y2113299D01*
X1214096Y2106634D01*
X1212429D01*
X1210763Y2108300D01*
Y2111633D01*
X1212429Y2113299D01*
Y2103302D02*
X1210763Y2101636D01*
Y2098304D01*
X1212429Y2096637D01*
X1219094D01*
X1220760Y2098304D01*
Y2101636D01*
X1219094Y2103302D01*
X1212429D01*
X1220760Y2086641D02*
Y2093305D01*
X1214096Y2086641D01*
X1212429D01*
X1210763Y2088307D01*
Y2091639D01*
X1212429Y2093305D01*
X1220760Y2078310D02*
X1210763D01*
X1215762Y2083308D01*
Y2076644D01*
X1615000Y2852003D02*
Y2858668D01*
X1618332Y2862000D01*
X1621664Y2858668D01*
Y2852003D01*
X1624997Y2862000D02*
Y2855335D01*
X1628329Y2852003D01*
X1631661Y2855335D01*
Y2862000D01*
Y2857002D01*
X1624997D01*
X1634994Y2852003D02*
X1641658D01*
Y2853669D01*
X1634994Y2860334D01*
Y2862000D01*
X1641658D01*
X1651655Y2860334D02*
Y2853669D01*
X1649989Y2852003D01*
X1646656D01*
X1644990Y2853669D01*
Y2860334D01*
X1646656Y2862000D01*
X1649989D01*
X1648323Y2858668D02*
X1651655Y2862000D01*
X1649989D02*
X1651655Y2860334D01*
X1654987Y2852003D02*
Y2860334D01*
X1656653Y2862000D01*
X1659986D01*
X1661652Y2860334D01*
Y2852003D01*
X1671648D02*
X1664984D01*
Y2862000D01*
X1671648D01*
X1664984Y2857002D02*
X1668316D01*
X1674981Y2852003D02*
X1681645D01*
Y2853669D01*
X1674981Y2860334D01*
Y2862000D01*
X1681645D01*
X1694974Y2852003D02*
Y2862000D01*
X1701639D01*
X1711635Y2852003D02*
X1704971D01*
Y2862000D01*
X1711635D01*
X1704971Y2857002D02*
X1708303D01*
X1719966Y2852003D02*
X1716634D01*
X1714968Y2853669D01*
Y2860334D01*
X1716634Y2862000D01*
X1719966D01*
X1721632Y2860334D01*
Y2853669D01*
X1719966Y2852003D01*
X1724965Y2862000D02*
Y2852003D01*
X1731629Y2862000D01*
Y2852003D01*
X1734961Y2862000D02*
Y2855335D01*
X1738294Y2852003D01*
X1741626Y2855335D01*
Y2862000D01*
Y2857002D01*
X1734961D01*
X1744958Y2862000D02*
Y2852003D01*
X1749957D01*
X1751623Y2853669D01*
Y2857002D01*
X1749957Y2858668D01*
X1744958D01*
X1748290D02*
X1751623Y2862000D01*
X1754955Y2852003D02*
Y2862000D01*
X1759953D01*
X1761619Y2860334D01*
Y2853669D01*
X1759953Y2852003D01*
X1754955D01*
X1769950D02*
X1766618D01*
X1764952Y2853669D01*
Y2860334D01*
X1766618Y2862000D01*
X1769950D01*
X1771616Y2860334D01*
Y2853669D01*
X1769950Y2852003D01*
X1614000Y2873003D02*
Y2881334D01*
X1615666Y2883000D01*
X1618998D01*
X1620665Y2881334D01*
Y2873003D01*
X1623997Y2883000D02*
Y2873003D01*
X1630661Y2883000D01*
Y2873003D01*
X1633994Y2883000D02*
Y2873003D01*
X1637326Y2876335D01*
X1640658Y2873003D01*
Y2883000D01*
X1643990Y2873003D02*
Y2883000D01*
X1648989D01*
X1650655Y2881334D01*
Y2874669D01*
X1648989Y2873003D01*
X1643990D01*
X1653987Y2883000D02*
Y2873003D01*
X1658985D01*
X1660652Y2874669D01*
Y2878002D01*
X1658985Y2879668D01*
X1653987D01*
X1673981Y2878002D02*
X1680645D01*
X1693974Y2873003D02*
Y2883000D01*
X1700639D01*
X1703971D02*
Y2876335D01*
X1707303Y2873003D01*
X1710636Y2876335D01*
Y2883000D01*
Y2878002D01*
X1703971D01*
X1720632Y2874669D02*
X1718966Y2873003D01*
X1715634D01*
X1713968Y2874669D01*
Y2881334D01*
X1715634Y2883000D01*
X1718966D01*
X1720632Y2881334D01*
X1740626Y2883000D02*
X1733961D01*
X1740626Y2876335D01*
Y2874669D01*
X1738960Y2873003D01*
X1735627D01*
X1733961Y2874669D01*
X1743958D02*
X1745624Y2873003D01*
X1748956D01*
X1750623Y2874669D01*
Y2881334D01*
X1748956Y2883000D01*
X1745624D01*
X1743958Y2881334D01*
Y2874669D01*
X1760619Y2883000D02*
X1753955D01*
X1760619Y2876335D01*
Y2874669D01*
X1758953Y2873003D01*
X1755621D01*
X1753955Y2874669D01*
X1768950Y2883000D02*
Y2873003D01*
X1763952Y2878002D01*
X1770616D01*
X1614000Y2905000D02*
Y2895003D01*
X1618998D01*
X1620665Y2896669D01*
Y2900002D01*
X1618998Y2901668D01*
X1614000D01*
X1617332D02*
X1620665Y2905000D01*
X1623997D02*
Y2895003D01*
X1628995D01*
X1630661Y2896669D01*
Y2900002D01*
X1628995Y2901668D01*
X1623997D01*
X1627329D02*
X1630661Y2905000D01*
X1633994Y2906666D02*
X1640658D01*
X1648989Y2905000D02*
Y2895003D01*
X1643990Y2900002D01*
X1650655D01*
X1653987Y2905000D02*
Y2895003D01*
X1657319Y2898336D01*
X1660652Y2895003D01*
Y2905000D01*
X1663984Y2895003D02*
X1670648Y2905000D01*
Y2895003D02*
X1663984Y2905000D01*
X1673981D02*
Y2895003D01*
X1678979D01*
X1680645Y2896669D01*
Y2900002D01*
X1678979Y2901668D01*
X1673981D01*
X1677313D02*
X1680645Y2905000D01*
X1683978Y2900002D02*
X1690642D01*
X1693974Y2898336D02*
X1697307Y2905000D01*
X1700639Y2898336D01*
X1703971Y2905000D02*
X1707303D01*
X1705637D01*
Y2895003D01*
X1703971Y2896669D01*
X1712302Y2905000D02*
Y2903334D01*
X1713968D01*
Y2905000D01*
X1712302D01*
X1720632D02*
X1723965D01*
X1722298D01*
Y2895003D01*
X1720632Y2896669D01*
X2011366Y3180767D02*
X2018030D01*
Y3175768D01*
X2014698Y3177434D01*
X2013032D01*
X2011366Y3175768D01*
Y3172436D01*
X2013032Y3170770D01*
X2016364D01*
X2018030Y3172436D01*
X2008033Y3180767D02*
Y3174102D01*
X2004701Y3170770D01*
X2001369Y3174102D01*
Y3180767D01*
X2011366Y3147747D02*
X2018030D01*
Y3142748D01*
X2014698Y3144414D01*
X2013032D01*
X2011366Y3142748D01*
Y3139416D01*
X2013032Y3137750D01*
X2016364D01*
X2018030Y3139416D01*
X2008033Y3147747D02*
Y3141082D01*
X2004701Y3137750D01*
X2001369Y3141082D01*
Y3147747D01*
X2062166Y3408260D02*
X2068830D01*
X2065498D01*
X2063832Y3406594D01*
X2062166Y3404928D01*
Y3403262D01*
X2068830Y3393265D02*
Y3396597D01*
X2067164Y3398263D01*
X2063832D01*
X2062166Y3396597D01*
Y3393265D01*
X2063832Y3391599D01*
X2065498D01*
Y3398263D01*
X2062166Y3388267D02*
X2068830Y3384934D01*
X2062166Y3381602D01*
X2068830Y3378270D02*
Y3374937D01*
Y3376603D01*
X2058833D01*
X2060499Y3378270D01*
X2033829Y3393976D02*
X2032163Y3395641D01*
Y3398974D01*
X2033829Y3400640D01*
X2040494D01*
X2042160Y3398974D01*
Y3395641D01*
X2040494Y3393976D01*
X2037162D01*
Y3397308D01*
X2042160Y3390643D02*
X2032163D01*
X2042160Y3383979D01*
X2032163D01*
Y3380646D02*
X2042160D01*
Y3375648D01*
X2040494Y3373982D01*
X2033829D01*
X2032163Y3375648D01*
Y3380646D01*
X2085025Y3413340D02*
X2091690D01*
X2088358D01*
X2086692Y3411674D01*
X2085025Y3410008D01*
Y3408342D01*
X2091690Y3398345D02*
Y3401677D01*
X2090024Y3403343D01*
X2086692D01*
X2085025Y3401677D01*
Y3398345D01*
X2086692Y3396679D01*
X2088358D01*
Y3403343D01*
X2085025Y3393347D02*
X2091690Y3390014D01*
X2085025Y3386682D01*
X2091690Y3376685D02*
Y3383350D01*
X2085025Y3376685D01*
X2083359D01*
X2081693Y3378351D01*
Y3381683D01*
X2083359Y3383350D01*
X2111299Y3395245D02*
X2109633Y3396912D01*
Y3400244D01*
X2111299Y3401910D01*
X2117964D01*
X2119630Y3400244D01*
Y3396912D01*
X2117964Y3395245D01*
X2114632D01*
Y3398578D01*
X2119630Y3391913D02*
X2109633D01*
X2119630Y3385249D01*
X2109633D01*
Y3381917D02*
X2119630D01*
Y3376918D01*
X2117964Y3375252D01*
X2111299D01*
X2109633Y3376918D01*
Y3381917D01*
X2526589Y3515814D02*
X2528255D01*
Y3517480D01*
Y3514148D01*
Y3515814D01*
X2533254D01*
X2534920Y3514148D01*
X2528255Y3509149D02*
X2534920Y3502485D01*
X2531588Y3505817D01*
X2528255Y3502485D01*
X2534920Y3509149D01*
X2487616Y3038690D02*
X2494280D01*
X2490948D01*
X2489282Y3037024D01*
X2487616Y3035358D01*
Y3033692D01*
Y3028693D02*
X2494280Y3022029D01*
X2490948Y3025361D01*
X2487616Y3022029D01*
X2494280Y3028693D01*
X2520950Y3039960D02*
Y3036628D01*
Y3038294D01*
X2514285D01*
Y3039960D01*
Y3031629D02*
X2520950Y3024965D01*
X2517618Y3028297D01*
X2514285Y3024965D01*
X2520950Y3031629D01*
X2511349Y3444694D02*
X2513015D01*
Y3446360D01*
Y3443028D01*
Y3444694D01*
X2518014D01*
X2519680Y3443028D01*
X2513015Y3438029D02*
X2519680Y3431365D01*
X2516348Y3434697D01*
X2513015Y3431365D01*
X2519680Y3438029D01*
X2482850Y3517480D02*
Y3514148D01*
Y3515814D01*
X2476185D01*
Y3517480D01*
Y3509149D02*
X2482850Y3502485D01*
X2479518Y3505817D01*
X2476185Y3502485D01*
X2482850Y3509149D01*
X2496820Y3445090D02*
Y3441758D01*
Y3443424D01*
X2490155D01*
Y3445090D01*
Y3436759D02*
X2496820Y3430095D01*
X2493488Y3433427D01*
X2490155Y3430095D01*
X2496820Y3436759D01*
X2551989Y3517166D02*
X2550323Y3518831D01*
Y3522164D01*
X2551989Y3523830D01*
X2558654D01*
X2560320Y3522164D01*
Y3518831D01*
X2558654Y3517166D01*
X2555322D01*
Y3520498D01*
X2560320Y3513833D02*
X2550323D01*
X2560320Y3507169D01*
X2550323D01*
Y3503836D02*
X2560320D01*
Y3498838D01*
X2558654Y3497172D01*
X2551989D01*
X2550323Y3498838D01*
Y3503836D01*
X2501189Y3517166D02*
X2499523Y3518831D01*
Y3522164D01*
X2501189Y3523830D01*
X2507854D01*
X2509520Y3522164D01*
Y3518831D01*
X2507854Y3517166D01*
X2504522D01*
Y3520498D01*
X2509520Y3513833D02*
X2499523D01*
X2509520Y3507169D01*
X2499523D01*
Y3503836D02*
X2509520D01*
Y3498838D01*
X2507854Y3497172D01*
X2501189D01*
X2499523Y3498838D01*
Y3503836D01*
X2216660Y3441470D02*
Y3448134D01*
X2213328Y3451467D01*
X2209996Y3448134D01*
Y3441470D01*
Y3446468D01*
X2216660D01*
X2206663Y3448134D02*
Y3443136D01*
X2204997Y3441470D01*
X2199999D01*
Y3448134D01*
X2190002Y3451467D02*
Y3441470D01*
X2195000D01*
X2196666Y3443136D01*
Y3446468D01*
X2195000Y3448134D01*
X2190002D01*
X2186670Y3441470D02*
X2183337D01*
X2185004D01*
Y3448134D01*
X2186670D01*
X2176673Y3441470D02*
X2173341D01*
X2171674Y3443136D01*
Y3446468D01*
X2173341Y3448134D01*
X2176673D01*
X2178339Y3446468D01*
Y3443136D01*
X2176673Y3441470D01*
X2151681Y3449801D02*
X2153347Y3451467D01*
X2156679D01*
X2158345Y3449801D01*
Y3443136D01*
X2156679Y3441470D01*
X2153347D01*
X2151681Y3443136D01*
X2146682Y3441470D02*
X2143350D01*
X2141684Y3443136D01*
Y3446468D01*
X2143350Y3448134D01*
X2146682D01*
X2148349Y3446468D01*
Y3443136D01*
X2146682Y3441470D01*
X2131687Y3451467D02*
Y3441470D01*
X2136686D01*
X2138352Y3443136D01*
Y3446468D01*
X2136686Y3448134D01*
X2131687D01*
X2123357Y3441470D02*
X2126689D01*
X2128355Y3443136D01*
Y3446468D01*
X2126689Y3448134D01*
X2123357D01*
X2121691Y3446468D01*
Y3444802D01*
X2128355D01*
X2111694Y3448134D02*
X2116692D01*
X2118358Y3446468D01*
Y3443136D01*
X2116692Y3441470D01*
X2111694D01*
X2108362D02*
X2103363D01*
X2101697Y3443136D01*
X2103363Y3444802D01*
X2106695D01*
X2108362Y3446468D01*
X2106695Y3448134D01*
X2101697D01*
X2088368Y3446468D02*
X2081703D01*
X2068374Y3448134D02*
X2065042Y3441470D01*
X2061710Y3448134D01*
X2058378Y3441470D02*
X2055045D01*
X2056711D01*
Y3451467D01*
X2058378Y3449801D01*
X2050047Y3441470D02*
Y3443136D01*
X2048381D01*
Y3441470D01*
X2050047D01*
X2041716Y3449801D02*
X2040050Y3451467D01*
X2036718D01*
X2035052Y3449801D01*
Y3443136D01*
X2036718Y3441470D01*
X2040050D01*
X2041716Y3443136D01*
Y3449801D01*
X2202690Y3497187D02*
Y3490522D01*
X2199358Y3487190D01*
X2196026Y3490522D01*
Y3497187D01*
X2192693Y3487190D02*
Y3493854D01*
X2189361Y3497187D01*
X2186029Y3493854D01*
Y3487190D01*
Y3492188D01*
X2192693D01*
X2182696Y3497187D02*
X2176032D01*
Y3495521D01*
X2182696Y3488856D01*
Y3487190D01*
X2176032D01*
X2166035Y3488856D02*
Y3495521D01*
X2167701Y3497187D01*
X2171033D01*
X2172700Y3495521D01*
Y3488856D01*
X2171033Y3487190D01*
X2167701D01*
X2169367Y3490522D02*
X2166035Y3487190D01*
X2167701D02*
X2166035Y3488856D01*
X2162703Y3497187D02*
Y3488856D01*
X2161037Y3487190D01*
X2157704D01*
X2156038Y3488856D01*
Y3497187D01*
X2146042D02*
X2152706D01*
Y3487190D01*
X2146042D01*
X2152706Y3492188D02*
X2149374D01*
X2142709Y3497187D02*
X2136045D01*
Y3495521D01*
X2142709Y3488856D01*
Y3487190D01*
X2136045D01*
X2122716Y3497187D02*
Y3487190D01*
X2116051D01*
X2106055Y3497187D02*
X2112719D01*
Y3487190D01*
X2106055D01*
X2112719Y3492188D02*
X2109387D01*
X2097724Y3497187D02*
X2101056D01*
X2102722Y3495521D01*
Y3488856D01*
X2101056Y3487190D01*
X2097724D01*
X2096058Y3488856D01*
Y3495521D01*
X2097724Y3497187D01*
X2092725Y3487190D02*
Y3497187D01*
X2086061Y3487190D01*
Y3497187D01*
X2082729Y3487190D02*
Y3493854D01*
X2079396Y3497187D01*
X2076064Y3493854D01*
Y3487190D01*
Y3492188D01*
X2082729D01*
X2072732Y3487190D02*
Y3497187D01*
X2067733D01*
X2066067Y3495521D01*
Y3492188D01*
X2067733Y3490522D01*
X2072732D01*
X2069400D02*
X2066067Y3487190D01*
X2062735Y3497187D02*
Y3487190D01*
X2057737D01*
X2056071Y3488856D01*
Y3495521D01*
X2057737Y3497187D01*
X2062735D01*
X2047740D02*
X2051072D01*
X2052738Y3495521D01*
Y3488856D01*
X2051072Y3487190D01*
X2047740D01*
X2046074Y3488856D01*
Y3495521D01*
X2047740Y3497187D01*
X2202690Y3474327D02*
Y3465996D01*
X2201024Y3464330D01*
X2197692D01*
X2196026Y3465996D01*
Y3474327D01*
X2192693Y3464330D02*
Y3474327D01*
X2186029Y3464330D01*
Y3474327D01*
X2182696Y3464330D02*
Y3474327D01*
X2179364Y3470995D01*
X2176032Y3474327D01*
Y3464330D01*
X2172700Y3474327D02*
Y3464330D01*
X2167701D01*
X2166035Y3465996D01*
Y3472661D01*
X2167701Y3474327D01*
X2172700D01*
X2162703Y3464330D02*
Y3474327D01*
X2157704D01*
X2156038Y3472661D01*
Y3469328D01*
X2157704Y3467662D01*
X2162703D01*
X2142709Y3469328D02*
X2136045D01*
X2122716Y3474327D02*
Y3464330D01*
X2116051D01*
X2112719D02*
Y3470995D01*
X2109387Y3474327D01*
X2106055Y3470995D01*
Y3464330D01*
Y3469328D01*
X2112719D01*
X2096058Y3472661D02*
X2097724Y3474327D01*
X2101056D01*
X2102722Y3472661D01*
Y3465996D01*
X2101056Y3464330D01*
X2097724D01*
X2096058Y3465996D01*
X2076064Y3464330D02*
X2082729D01*
X2076064Y3470995D01*
Y3472661D01*
X2077730Y3474327D01*
X2081062D01*
X2082729Y3472661D01*
X2072732D02*
X2071066Y3474327D01*
X2067733D01*
X2066067Y3472661D01*
Y3465996D01*
X2067733Y3464330D01*
X2071066D01*
X2072732Y3465996D01*
Y3472661D01*
X2056071Y3464330D02*
X2062735D01*
X2056071Y3470995D01*
Y3472661D01*
X2057737Y3474327D01*
X2061069D01*
X2062735Y3472661D01*
X2047740Y3464330D02*
Y3474327D01*
X2052738Y3469328D01*
X2046074D01*
X2081530Y3056784D02*
Y3050120D01*
Y3053452D01*
X2079864Y3055118D01*
X2078198Y3056784D01*
X2076532D01*
X2071533D02*
X2064869Y3050120D01*
X2068201Y3053452D01*
X2064869Y3056784D01*
X2071533Y3050120D01*
X2061537Y3053452D02*
X2054872D01*
X2061537Y3056784D02*
X2054872D01*
X2051540D02*
Y3050120D01*
Y3053452D01*
X2049874Y3055118D01*
X2048207Y3056784D01*
X2046541D01*
X2036544Y3050120D02*
X2039877D01*
X2041543Y3051786D01*
Y3055118D01*
X2039877Y3056784D01*
X2036544D01*
X2034878Y3055118D01*
Y3053452D01*
X2041543D01*
X2031546Y3056784D02*
X2028214Y3050120D01*
X2024882Y3056784D01*
X2021549Y3050120D02*
X2018217D01*
X2019883D01*
Y3060117D01*
X2021549Y3058451D01*
X2013219Y3055118D02*
X2006554D01*
X2003222Y3056784D02*
Y3050120D01*
Y3053452D01*
X2001556Y3055118D01*
X1999890Y3056784D01*
X1998224D01*
X1988227Y3050120D02*
X1991559D01*
X1993225Y3051786D01*
Y3055118D01*
X1991559Y3056784D01*
X1988227D01*
X1986561Y3055118D01*
Y3053452D01*
X1993225D01*
X1983228Y3056784D02*
X1979896Y3050120D01*
X1976564Y3056784D01*
X1966567Y3050120D02*
X1973232D01*
X1966567Y3056784D01*
Y3058451D01*
X1968233Y3060117D01*
X1971565D01*
X1973232Y3058451D01*
X1943129Y3115796D02*
X1941463Y3117462D01*
Y3120794D01*
X1943129Y3122460D01*
X1949794D01*
X1951460Y3120794D01*
Y3117462D01*
X1949794Y3115796D01*
X1946462D01*
Y3119128D01*
X1951460Y3112463D02*
X1941463D01*
X1951460Y3105799D01*
X1941463D01*
Y3102466D02*
X1951460D01*
Y3097468D01*
X1949794Y3095802D01*
X1943129D01*
X1941463Y3097468D01*
Y3102466D01*
X2664146Y3364521D02*
X2665811Y3366187D01*
X2669144D01*
X2670810Y3364521D01*
Y3362855D01*
X2669144Y3361188D01*
X2665811D01*
X2664146Y3359522D01*
Y3357856D01*
X2665811Y3356190D01*
X2669144D01*
X2670810Y3357856D01*
X2654149Y3356190D02*
X2660813D01*
X2654149Y3362855D01*
Y3364521D01*
X2655815Y3366187D01*
X2659147D01*
X2660813Y3364521D01*
X2650817Y3356190D02*
X2647484D01*
X2649150D01*
Y3366187D01*
X2650817Y3364521D01*
X2632489Y3356190D02*
X2625825Y3362855D01*
X2605831Y3364521D02*
X2607497Y3366187D01*
X2610829D01*
X2612495Y3364521D01*
Y3362855D01*
X2610829Y3361188D01*
X2607497D01*
X2605831Y3359522D01*
Y3357856D01*
X2607497Y3356190D01*
X2610829D01*
X2612495Y3357856D01*
X2602499Y3356190D02*
X2599167D01*
X2600833D01*
Y3366187D01*
X2602499Y3364521D01*
X2587504Y3356190D02*
X2594168D01*
X2587504Y3362855D01*
Y3364521D01*
X2589170Y3366187D01*
X2592502D01*
X2594168Y3364521D01*
X2655255Y2961931D02*
X2656922Y2963597D01*
X2660254D01*
X2661920Y2961931D01*
Y2960265D01*
X2660254Y2958598D01*
X2656922D01*
X2655255Y2956932D01*
Y2955266D01*
X2656922Y2953600D01*
X2660254D01*
X2661920Y2955266D01*
X2651923Y2953600D02*
X2648591D01*
X2650257D01*
Y2963597D01*
X2651923Y2961931D01*
X2643593Y2953600D02*
X2640260D01*
X2641927D01*
Y2963597D01*
X2643593Y2961931D01*
X2625265Y2953600D02*
X2618601Y2960265D01*
X2598607Y2961931D02*
X2600273Y2963597D01*
X2603606D01*
X2605272Y2961931D01*
Y2960265D01*
X2603606Y2958598D01*
X2600273D01*
X2598607Y2956932D01*
Y2955266D01*
X2600273Y2953600D01*
X2603606D01*
X2605272Y2955266D01*
X2588610Y2953600D02*
X2595275D01*
X2588610Y2960265D01*
Y2961931D01*
X2590276Y2963597D01*
X2593609D01*
X2595275Y2961931D01*
X2578614Y2953600D02*
X2585278D01*
X2578614Y2960265D01*
Y2961931D01*
X2580280Y2963597D01*
X2583612D01*
X2585278Y2961931D01*
X1606401Y2312898D02*
X1604901Y2314398D01*
Y2317397D01*
X1606401Y2318896D01*
X1612399D01*
X1613899Y2317397D01*
Y2314398D01*
X1612399Y2312898D01*
X1606401Y2309899D02*
X1604901Y2308400D01*
Y2305401D01*
X1606401Y2303901D01*
X1612399D01*
X1613899Y2305401D01*
Y2308400D01*
X1612399Y2309899D01*
X1606401D01*
Y2300902D02*
X1604901Y2299402D01*
Y2296403D01*
X1606401Y2294904D01*
X1607901D01*
X1609400Y2296403D01*
X1610900Y2294904D01*
X1612399D01*
X1613899Y2296403D01*
Y2299402D01*
X1612399Y2300902D01*
X1610900D01*
X1609400Y2299402D01*
X1607901Y2300902D01*
X1606401D01*
X1609400Y2299402D02*
Y2296403D01*
X1587501Y2398398D02*
X1586001Y2399898D01*
Y2402897D01*
X1587501Y2404396D01*
X1593499D01*
X1594998Y2402897D01*
Y2399898D01*
X1593499Y2398398D01*
X1587501Y2395399D02*
X1586001Y2393900D01*
Y2390901D01*
X1587501Y2389401D01*
X1593499D01*
X1594998Y2390901D01*
Y2393900D01*
X1593499Y2395399D01*
X1587501D01*
X1593499Y2386402D02*
X1594998Y2384902D01*
Y2381903D01*
X1593499Y2380404D01*
X1587501D01*
X1586001Y2381903D01*
Y2384902D01*
X1587501Y2386402D01*
X1589001D01*
X1590500Y2384902D01*
Y2380404D01*
X1154783Y3051761D02*
X1153284Y3050262D01*
X1150285D01*
X1148785Y3051761D01*
Y3057759D01*
X1150285Y3059258D01*
X1153284D01*
X1154783Y3057759D01*
X1157782Y3059258D02*
Y3050262D01*
X1160781Y3053260D01*
X1163780Y3050262D01*
Y3059258D01*
X1166779D02*
X1169778D01*
X1168279D01*
Y3050262D01*
X1166779Y3051761D01*
X1180275Y3050262D02*
X1174277D01*
Y3054760D01*
X1177276Y3053260D01*
X1178775D01*
X1180275Y3054760D01*
Y3057759D01*
X1178775Y3059258D01*
X1175776D01*
X1174277Y3057759D01*
X2073773Y2319334D02*
X2075894D01*
X2078014Y2317214D01*
Y2315093D01*
X2073773Y2310852D01*
X2071652D01*
X2069532Y2312972D01*
Y2315093D01*
X2066351Y2316153D02*
X2072713Y2322515D01*
X2069532Y2325696D01*
X2067411D01*
X2065291Y2323576D01*
Y2321455D01*
X2068472Y2318274D01*
X2065291Y2327817D02*
Y2329937D01*
X2063170Y2332058D01*
X2061049D01*
X2059989Y2330998D01*
Y2328877D01*
X2061049Y2327817D01*
X2059989Y2328877D01*
X2057868D01*
X2056808Y2327817D01*
Y2325696D01*
X2058929Y2323576D01*
X2061049D01*
X2418539Y2442835D02*
X2427536D01*
Y2447334D01*
X2426037Y2448833D01*
X2423038D01*
X2421538Y2447334D01*
Y2442835D01*
Y2445834D02*
X2418539Y2448833D01*
Y2451832D02*
X2427536D01*
Y2456331D01*
X2426037Y2457830D01*
X2423038D01*
X2421538Y2456331D01*
Y2451832D01*
X2427536Y2466828D02*
Y2460829D01*
X2423038D01*
X2424537Y2463828D01*
Y2465328D01*
X2423038Y2466828D01*
X2420039D01*
X2418539Y2465328D01*
Y2462329D01*
X2420039Y2460829D01*
X2426266Y2362688D02*
X2417269D01*
Y2358189D01*
X2418769Y2356689D01*
X2421768D01*
X2423267Y2358189D01*
Y2362688D01*
Y2359689D02*
X2426266Y2356689D01*
Y2353690D02*
X2417269D01*
Y2349192D01*
X2418769Y2347692D01*
X2421768D01*
X2423267Y2349192D01*
Y2353690D01*
X2417269Y2338695D02*
X2418769Y2341694D01*
X2421768Y2344693D01*
X2424767D01*
X2426266Y2343194D01*
Y2340195D01*
X2424767Y2338695D01*
X2423267D01*
X2421768Y2340195D01*
Y2344693D01*
X1980267Y2537733D02*
X1981766Y2536234D01*
Y2533235D01*
X1980267Y2531735D01*
X1974269D01*
X1972769Y2533235D01*
Y2536234D01*
X1974269Y2537733D01*
X1972769Y2540732D02*
X1981766D01*
Y2545231D01*
X1980267Y2546730D01*
X1977268D01*
X1975768Y2545231D01*
Y2540732D01*
X1981766Y2549729D02*
Y2555728D01*
X1980267D01*
X1974269Y2549729D01*
X1972769D01*
X2169512Y3141101D02*
X2168012Y3139601D01*
X2165013D01*
X2163514Y3141101D01*
Y3147099D01*
X2165013Y3148599D01*
X2168012D01*
X2169512Y3147099D01*
X2178509Y3141101D02*
X2177009Y3139601D01*
X2174010D01*
X2172511Y3141101D01*
Y3147099D01*
X2174010Y3148599D01*
X2177009D01*
X2178509Y3147099D01*
X2181508Y3141101D02*
X2183008Y3139601D01*
X2186007D01*
X2187506Y3141101D01*
Y3142600D01*
X2186007Y3144100D01*
X2184507D01*
X2186007D01*
X2187506Y3145599D01*
Y3147099D01*
X2186007Y3148599D01*
X2183008D01*
X2181508Y3147099D01*
M02*
