G04*
G04 #@! TF.GenerationSoftware,Altium Limited,Altium Designer,24.0.1 (36)*
G04*
G04 Layer_Color=12632256*
%FSLAX44Y44*%
%MOMM*%
G71*
G04*
G04 #@! TF.SameCoordinates,B3AD537C-9D1A-4887-B287-0D13266BF09F*
G04*
G04*
G04 #@! TF.FilePolarity,Positive*
G04*
G01*
G75*
%ADD127R,1.1500X1.1500*%
%ADD128C,1.1500*%
%ADD129R,1.1500X1.1500*%
%ADD138C,1.5000*%
%ADD139R,1.5000X1.5000*%
%ADD140C,1.3000*%
%ADD141O,1.9000X1.5000*%
G04:AMPARAMS|DCode=142|XSize=2.54mm|YSize=1.524mm|CornerRadius=0mm|HoleSize=0mm|Usage=FLASHONLY|Rotation=270.000|XOffset=0mm|YOffset=0mm|HoleType=Round|Shape=Octagon|*
%AMOCTAGOND142*
4,1,8,-0.3810,-1.2700,0.3810,-1.2700,0.7620,-0.8890,0.7620,0.8890,0.3810,1.2700,-0.3810,1.2700,-0.7620,0.8890,-0.7620,-0.8890,-0.3810,-1.2700,0.0*
%
%ADD142OCTAGOND142*%

%ADD143O,1.5240X2.5400*%
%ADD144R,1.2000X1.2000*%
%ADD145C,1.2000*%
%ADD146R,1.5000X1.5000*%
%ADD147R,1.8500X1.8500*%
%ADD148C,1.8500*%
%ADD149R,1.2000X1.2000*%
D127*
X2338470Y3377780D02*
D03*
Y2975190D02*
D03*
D128*
X2363470Y3377780D02*
D03*
X2424430Y3363810D02*
D03*
Y2961220D02*
D03*
X2363470Y2975190D02*
D03*
D129*
X2424430Y3388810D02*
D03*
Y2986220D02*
D03*
D138*
X1849060Y3125880D02*
D03*
X1231100Y2380400D02*
D03*
X1231300Y2349600D02*
D03*
X1355030Y3125880D02*
D03*
X1503620Y3123340D02*
D03*
X1691580Y3127150D02*
D03*
X1196280Y2989990D02*
D03*
X1160720D02*
D03*
X2080138Y2077641D02*
D03*
X2105538D02*
D03*
X2130938D02*
D03*
X2359538Y2505631D02*
D03*
X2334138D02*
D03*
X2308738D02*
D03*
X2054738Y2393871D02*
D03*
Y2419271D02*
D03*
Y2444671D02*
D03*
Y2180511D02*
D03*
Y2205911D02*
D03*
Y2231311D02*
D03*
Y2287191D02*
D03*
Y2312591D02*
D03*
Y2337991D02*
D03*
Y2501821D02*
D03*
Y2527221D02*
D03*
Y2552621D02*
D03*
X2359538Y2404641D02*
D03*
Y2430041D02*
D03*
Y2455441D02*
D03*
X2390018Y2322091D02*
D03*
Y2296691D02*
D03*
Y2271291D02*
D03*
Y2214141D02*
D03*
Y2188741D02*
D03*
Y2163341D02*
D03*
X2255398Y2048431D02*
D03*
X2229998D02*
D03*
X2204598D02*
D03*
X2359538Y2536111D02*
D03*
X2334138D02*
D03*
X2308738D02*
D03*
X2255741Y2079321D02*
D03*
X2230341D02*
D03*
X2204941D02*
D03*
X2364618Y2078911D02*
D03*
X2339218D02*
D03*
X2313818D02*
D03*
X2022988Y2501821D02*
D03*
Y2527221D02*
D03*
Y2552621D02*
D03*
Y2393871D02*
D03*
Y2419271D02*
D03*
Y2444671D02*
D03*
X2080138Y2047161D02*
D03*
X2105538D02*
D03*
X2130938D02*
D03*
X2364618Y2048431D02*
D03*
X2339218D02*
D03*
X2313818D02*
D03*
X2359538Y2214141D02*
D03*
Y2188741D02*
D03*
Y2163341D02*
D03*
X2022988Y2287191D02*
D03*
Y2312591D02*
D03*
Y2337991D02*
D03*
X2359538Y2271291D02*
D03*
Y2296691D02*
D03*
Y2322091D02*
D03*
X2390018Y2404641D02*
D03*
Y2430041D02*
D03*
Y2455441D02*
D03*
X2022988Y2180511D02*
D03*
Y2205911D02*
D03*
Y2231311D02*
D03*
X2504440Y3484460D02*
D03*
X2529840D02*
D03*
X2555240D02*
D03*
X2062480Y3353650D02*
D03*
X2087880D02*
D03*
X2113280D02*
D03*
X2087880Y3198710D02*
D03*
X2062480D02*
D03*
X2037080D02*
D03*
X2113280Y3122510D02*
D03*
X2087880D02*
D03*
X2062480D02*
D03*
X2037080D02*
D03*
X1972310Y3174580D02*
D03*
Y3141560D02*
D03*
X2646102Y2681752D02*
D03*
X2620702D02*
D03*
X2623226Y3084131D02*
D03*
X2648626D02*
D03*
D139*
X1849060Y3100480D02*
D03*
X1231100Y2405800D02*
D03*
X1231300Y2324200D02*
D03*
X1355030Y3100480D02*
D03*
X1503620Y3097940D02*
D03*
X1691580Y3101750D02*
D03*
X1196280Y2964590D02*
D03*
X1160720D02*
D03*
X2054738Y2368471D02*
D03*
Y2155111D02*
D03*
Y2261791D02*
D03*
Y2476421D02*
D03*
X2359538Y2379241D02*
D03*
X2390018Y2347491D02*
D03*
Y2239541D02*
D03*
X2022988Y2476421D02*
D03*
Y2368471D02*
D03*
X2359538Y2239541D02*
D03*
X2022988Y2261791D02*
D03*
X2359538Y2347491D02*
D03*
X2390018Y2379241D02*
D03*
X2022988Y2155111D02*
D03*
X2113280Y3198710D02*
D03*
D140*
X2657000Y2802910D02*
D03*
Y2857910D02*
D03*
Y3205500D02*
D03*
Y3260500D02*
D03*
D141*
X1767000Y2372520D02*
D03*
Y2397920D02*
D03*
Y2423320D02*
D03*
Y2448720D02*
D03*
Y2474120D02*
D03*
X1797000Y2372520D02*
D03*
Y2397920D02*
D03*
Y2423320D02*
D03*
Y2448720D02*
D03*
Y2474120D02*
D03*
X1419100Y2135700D02*
D03*
Y2161100D02*
D03*
Y2186500D02*
D03*
Y2211900D02*
D03*
Y2237300D02*
D03*
D142*
X1339000Y2219600D02*
D03*
D143*
X1288600D02*
D03*
D144*
X2158608Y2503091D02*
D03*
D145*
X2207408D02*
D03*
X2261870Y3231460D02*
D03*
Y2828870D02*
D03*
D146*
X2054738Y2077641D02*
D03*
X2283338Y2505631D02*
D03*
X2280798Y2048431D02*
D03*
X2283338Y2536111D02*
D03*
X2281141Y2079321D02*
D03*
X2390018Y2078911D02*
D03*
X2054738Y2047161D02*
D03*
X2390018Y2048431D02*
D03*
X2479040Y3484460D02*
D03*
X2037080Y3353650D02*
D03*
X1946910Y3174580D02*
D03*
Y3141560D02*
D03*
D147*
X2452248Y2235121D02*
D03*
D148*
Y2285921D02*
D03*
D149*
X2261870Y3280260D02*
D03*
Y2877670D02*
D03*
M02*
