G04*
G04 #@! TF.GenerationSoftware,Altium Limited,Altium Designer,24.0.1 (36)*
G04*
G04 Layer_Color=8388736*
%FSLAX44Y44*%
%MOMM*%
G71*
G04*
G04 #@! TF.SameCoordinates,B3AD537C-9D1A-4887-B287-0D13266BF09F*
G04*
G04*
G04 #@! TF.FilePolarity,Negative*
G04*
G01*
G75*
%ADD21R,5.0800X2.0530*%
%ADD22R,5.0800X2.4130*%
%ADD23R,2.0530X5.0800*%
%ADD24R,2.4130X5.0800*%
%ADD29R,0.9500X1.4000*%
%ADD30R,1.4000X0.9500*%
G04:AMPARAMS|DCode=32|XSize=1.0546mm|YSize=1.3562mm|CornerRadius=0mm|HoleSize=0mm|Usage=FLASHONLY|Rotation=135.000|XOffset=0mm|YOffset=0mm|HoleType=Round|Shape=Rectangle|*
%AMROTATEDRECTD32*
4,1,4,0.8524,0.1066,-0.1066,-0.8524,-0.8524,-0.1066,0.1066,0.8524,0.8524,0.1066,0.0*
%
%ADD32ROTATEDRECTD32*%

%ADD35R,1.3562X1.0546*%
%ADD36R,1.0546X1.3562*%
G04:AMPARAMS|DCode=37|XSize=1.0546mm|YSize=1.3562mm|CornerRadius=0mm|HoleSize=0mm|Usage=FLASHONLY|Rotation=225.000|XOffset=0mm|YOffset=0mm|HoleType=Round|Shape=Rectangle|*
%AMROTATEDRECTD37*
4,1,4,-0.1066,0.8524,0.8524,-0.1066,0.1066,-0.8524,-0.8524,0.1066,-0.1066,0.8524,0.0*
%
%ADD37ROTATEDRECTD37*%

G04:AMPARAMS|DCode=39|XSize=0.95mm|YSize=1.4mm|CornerRadius=0mm|HoleSize=0mm|Usage=FLASHONLY|Rotation=45.000|XOffset=0mm|YOffset=0mm|HoleType=Round|Shape=Rectangle|*
%AMROTATEDRECTD39*
4,1,4,0.1591,-0.8309,-0.8309,0.1591,-0.1591,0.8309,0.8309,-0.1591,0.1591,-0.8309,0.0*
%
%ADD39ROTATEDRECTD39*%

G04:AMPARAMS|DCode=40|XSize=0.95mm|YSize=1.4mm|CornerRadius=0mm|HoleSize=0mm|Usage=FLASHONLY|Rotation=135.000|XOffset=0mm|YOffset=0mm|HoleType=Round|Shape=Rectangle|*
%AMROTATEDRECTD40*
4,1,4,0.8309,0.1591,-0.1591,-0.8309,-0.8309,-0.1591,0.1591,0.8309,0.8309,0.1591,0.0*
%
%ADD40ROTATEDRECTD40*%

G04:AMPARAMS|DCode=42|XSize=1.6587mm|YSize=0.6268mm|CornerRadius=0.3134mm|HoleSize=0mm|Usage=FLASHONLY|Rotation=90.000|XOffset=0mm|YOffset=0mm|HoleType=Round|Shape=RoundedRectangle|*
%AMROUNDEDRECTD42*
21,1,1.6587,0.0000,0,0,90.0*
21,1,1.0319,0.6268,0,0,90.0*
1,1,0.6268,0.0000,0.5159*
1,1,0.6268,0.0000,-0.5159*
1,1,0.6268,0.0000,-0.5159*
1,1,0.6268,0.0000,0.5159*
%
%ADD42ROUNDEDRECTD42*%
%ADD43R,0.6268X1.6587*%
G04:AMPARAMS|DCode=44|XSize=1.6587mm|YSize=0.627mm|CornerRadius=0.3135mm|HoleSize=0mm|Usage=FLASHONLY|Rotation=90.000|XOffset=0mm|YOffset=0mm|HoleType=Round|Shape=RoundedRectangle|*
%AMROUNDEDRECTD44*
21,1,1.6587,0.0000,0,0,90.0*
21,1,1.0317,0.6270,0,0,90.0*
1,1,0.6270,0.0000,0.5159*
1,1,0.6270,0.0000,-0.5159*
1,1,0.6270,0.0000,-0.5159*
1,1,0.6270,0.0000,0.5159*
%
%ADD44ROUNDEDRECTD44*%
%ADD55R,0.9500X1.3500*%
G04:AMPARAMS|DCode=62|XSize=0.95mm|YSize=1.4mm|CornerRadius=0mm|HoleSize=0mm|Usage=FLASHONLY|Rotation=240.000|XOffset=0mm|YOffset=0mm|HoleType=Round|Shape=Rectangle|*
%AMROTATEDRECTD62*
4,1,4,-0.3687,0.7614,0.8437,0.0614,0.3687,-0.7614,-0.8437,-0.0614,-0.3687,0.7614,0.0*
%
%ADD62ROTATEDRECTD62*%

G04:AMPARAMS|DCode=63|XSize=0.95mm|YSize=1.4mm|CornerRadius=0mm|HoleSize=0mm|Usage=FLASHONLY|Rotation=300.000|XOffset=0mm|YOffset=0mm|HoleType=Round|Shape=Rectangle|*
%AMROTATEDRECTD63*
4,1,4,-0.8437,0.0614,0.3687,0.7614,0.8437,-0.0614,-0.3687,-0.7614,-0.8437,0.0614,0.0*
%
%ADD63ROTATEDRECTD63*%

G04:AMPARAMS|DCode=76|XSize=2.3528mm|YSize=0.4949mm|CornerRadius=0.2475mm|HoleSize=0mm|Usage=FLASHONLY|Rotation=180.000|XOffset=0mm|YOffset=0mm|HoleType=Round|Shape=RoundedRectangle|*
%AMROUNDEDRECTD76*
21,1,2.3528,0.0000,0,0,180.0*
21,1,1.8579,0.4949,0,0,180.0*
1,1,0.4949,-0.9290,0.0000*
1,1,0.4949,0.9290,0.0000*
1,1,0.4949,0.9290,0.0000*
1,1,0.4949,-0.9290,0.0000*
%
%ADD76ROUNDEDRECTD76*%
%ADD77R,2.3528X0.4949*%
%ADD78R,1.7532X1.6032*%
%ADD79R,3.2032X0.9032*%
%ADD80R,6.2432X3.6032*%
%ADD81R,1.6032X1.7532*%
%ADD82R,1.7532X1.7032*%
%ADD83R,1.6532X1.4532*%
%ADD84R,1.7032X1.7532*%
%ADD85R,1.6532X1.5532*%
%ADD86R,1.5032X1.3032*%
%ADD87R,1.5532X1.2032*%
%ADD88R,1.2032X1.5532*%
%ADD89R,1.6532X1.3532*%
%ADD90R,1.7532X1.5532*%
%ADD91R,1.5532X1.7532*%
G04:AMPARAMS|DCode=92|XSize=1.7532mm|YSize=1.6032mm|CornerRadius=0mm|HoleSize=0mm|Usage=FLASHONLY|Rotation=135.000|XOffset=0mm|YOffset=0mm|HoleType=Round|Shape=Rectangle|*
%AMROTATEDRECTD92*
4,1,4,1.1867,-0.0530,0.0530,-1.1867,-1.1867,0.0530,-0.0530,1.1867,1.1867,-0.0530,0.0*
%
%ADD92ROTATEDRECTD92*%

G04:AMPARAMS|DCode=93|XSize=1.7532mm|YSize=1.6032mm|CornerRadius=0mm|HoleSize=0mm|Usage=FLASHONLY|Rotation=45.000|XOffset=0mm|YOffset=0mm|HoleType=Round|Shape=Rectangle|*
%AMROTATEDRECTD93*
4,1,4,-0.0530,-1.1867,-1.1867,-0.0530,0.0530,1.1867,1.1867,0.0530,-0.0530,-1.1867,0.0*
%
%ADD93ROTATEDRECTD93*%

%ADD94O,1.0032X0.4532*%
%ADD95O,0.4532X1.0032*%
%ADD96R,3.3032X3.3032*%
%ADD97R,3.5032X2.4032*%
%ADD98R,1.2032X2.4032*%
G04:AMPARAMS|DCode=99|XSize=1.7532mm|YSize=1.6032mm|CornerRadius=0mm|HoleSize=0mm|Usage=FLASHONLY|Rotation=150.000|XOffset=0mm|YOffset=0mm|HoleType=Round|Shape=Rectangle|*
%AMROTATEDRECTD99*
4,1,4,1.1600,0.2559,0.3584,-1.1325,-1.1600,-0.2559,-0.3584,1.1325,1.1600,0.2559,0.0*
%
%ADD99ROTATEDRECTD99*%

G04:AMPARAMS|DCode=100|XSize=1.7532mm|YSize=1.6032mm|CornerRadius=0mm|HoleSize=0mm|Usage=FLASHONLY|Rotation=210.000|XOffset=0mm|YOffset=0mm|HoleType=Round|Shape=Rectangle|*
%AMROTATEDRECTD100*
4,1,4,0.3584,1.1325,1.1600,-0.2559,-0.3584,-1.1325,-1.1600,0.2559,0.3584,1.1325,0.0*
%
%ADD100ROTATEDRECTD100*%

G04:AMPARAMS|DCode=101|XSize=2.2562mm|YSize=1.6032mm|CornerRadius=0mm|HoleSize=0mm|Usage=FLASHONLY|Rotation=210.000|XOffset=0mm|YOffset=0mm|HoleType=Round|Shape=Rectangle|*
%AMROTATEDRECTD101*
4,1,4,0.5762,1.2583,1.3778,-0.1302,-0.5762,-1.2583,-1.3778,0.1302,0.5762,1.2583,0.0*
%
%ADD101ROTATEDRECTD101*%

G04:AMPARAMS|DCode=102|XSize=2.2562mm|YSize=1.4532mm|CornerRadius=0mm|HoleSize=0mm|Usage=FLASHONLY|Rotation=210.000|XOffset=0mm|YOffset=0mm|HoleType=Round|Shape=Rectangle|*
%AMROTATEDRECTD102*
4,1,4,0.6137,1.1933,1.3403,-0.0652,-0.6137,-1.1933,-1.3403,0.0652,0.6137,1.1933,0.0*
%
%ADD102ROTATEDRECTD102*%

%ADD103O,0.8032X1.7032*%
G04:AMPARAMS|DCode=104|XSize=1.7532mm|YSize=1.6032mm|CornerRadius=0mm|HoleSize=0mm|Usage=FLASHONLY|Rotation=300.000|XOffset=0mm|YOffset=0mm|HoleType=Round|Shape=Rectangle|*
%AMROTATEDRECTD104*
4,1,4,-1.1325,0.3584,0.2559,1.1600,1.1325,-0.3584,-0.2559,-1.1600,-1.1325,0.3584,0.0*
%
%ADD104ROTATEDRECTD104*%

G04:AMPARAMS|DCode=105|XSize=2.2562mm|YSize=1.6032mm|CornerRadius=0mm|HoleSize=0mm|Usage=FLASHONLY|Rotation=150.000|XOffset=0mm|YOffset=0mm|HoleType=Round|Shape=Rectangle|*
%AMROTATEDRECTD105*
4,1,4,1.3778,0.1302,0.5762,-1.2583,-1.3778,-0.1302,-0.5762,1.2583,1.3778,0.1302,0.0*
%
%ADD105ROTATEDRECTD105*%

G04:AMPARAMS|DCode=106|XSize=2.2562mm|YSize=1.4532mm|CornerRadius=0mm|HoleSize=0mm|Usage=FLASHONLY|Rotation=150.000|XOffset=0mm|YOffset=0mm|HoleType=Round|Shape=Rectangle|*
%AMROTATEDRECTD106*
4,1,4,1.3403,0.0652,0.6137,-1.1933,-1.3403,-0.0652,-0.6137,1.1933,1.3403,0.0652,0.0*
%
%ADD106ROTATEDRECTD106*%

G04:AMPARAMS|DCode=107|XSize=1.7532mm|YSize=1.6032mm|CornerRadius=0mm|HoleSize=0mm|Usage=FLASHONLY|Rotation=60.000|XOffset=0mm|YOffset=0mm|HoleType=Round|Shape=Rectangle|*
%AMROTATEDRECTD107*
4,1,4,0.2559,-1.1600,-1.1325,-0.3584,-0.2559,1.1600,1.1325,0.3584,0.2559,-1.1600,0.0*
%
%ADD107ROTATEDRECTD107*%

G04:AMPARAMS|DCode=108|XSize=1.7532mm|YSize=1.5032mm|CornerRadius=0mm|HoleSize=0mm|Usage=FLASHONLY|Rotation=240.000|XOffset=0mm|YOffset=0mm|HoleType=Round|Shape=Rectangle|*
%AMROTATEDRECTD108*
4,1,4,-0.2126,1.1350,1.0892,0.3834,0.2126,-1.1350,-1.0892,-0.3834,-0.2126,1.1350,0.0*
%
%ADD108ROTATEDRECTD108*%

G04:AMPARAMS|DCode=109|XSize=1.7532mm|YSize=1.5532mm|CornerRadius=0mm|HoleSize=0mm|Usage=FLASHONLY|Rotation=240.000|XOffset=0mm|YOffset=0mm|HoleType=Round|Shape=Rectangle|*
%AMROTATEDRECTD109*
4,1,4,-0.2343,1.1475,1.1109,0.3709,0.2343,-1.1475,-1.1109,-0.3709,-0.2343,1.1475,0.0*
%
%ADD109ROTATEDRECTD109*%

G04:AMPARAMS|DCode=110|XSize=2.2032mm|YSize=1.6032mm|CornerRadius=0mm|HoleSize=0mm|Usage=FLASHONLY|Rotation=240.000|XOffset=0mm|YOffset=0mm|HoleType=Round|Shape=Rectangle|*
%AMROTATEDRECTD110*
4,1,4,-0.1434,1.3548,1.2450,0.5532,0.1434,-1.3548,-1.2450,-0.5532,-0.1434,1.3548,0.0*
%
%ADD110ROTATEDRECTD110*%

G04:AMPARAMS|DCode=111|XSize=1.7532mm|YSize=1.6032mm|CornerRadius=0mm|HoleSize=0mm|Usage=FLASHONLY|Rotation=140.000|XOffset=0mm|YOffset=0mm|HoleType=Round|Shape=Rectangle|*
%AMROTATEDRECTD111*
4,1,4,1.1868,0.0506,0.1563,-1.1775,-1.1868,-0.0506,-0.1563,1.1775,1.1868,0.0506,0.0*
%
%ADD111ROTATEDRECTD111*%

%ADD112R,1.3032X1.5032*%
%ADD113O,2.2532X0.8032*%
%ADD114O,0.8032X2.2532*%
%ADD115C,1.7032*%
%ADD116R,1.7032X1.7032*%
%ADD117C,1.5032*%
%ADD118O,2.1032X1.7032*%
G04:AMPARAMS|DCode=119|XSize=2.7432mm|YSize=1.7272mm|CornerRadius=0mm|HoleSize=0mm|Usage=FLASHONLY|Rotation=270.000|XOffset=0mm|YOffset=0mm|HoleType=Round|Shape=Octagon|*
%AMOCTAGOND119*
4,1,8,-0.4318,-1.3716,0.4318,-1.3716,0.8636,-0.9398,0.8636,0.9398,0.4318,1.3716,-0.4318,1.3716,-0.8636,0.9398,-0.8636,-0.9398,-0.4318,-1.3716,0.0*
%
%ADD119OCTAGOND119*%

%ADD120O,1.7272X2.7432*%
%ADD121R,1.4032X1.4032*%
%ADD122C,1.4032*%
%ADD123R,1.7032X1.7032*%
%ADD124R,2.0532X2.0532*%
%ADD125C,2.0532*%
%ADD126R,1.4032X1.4032*%
%ADD127R,1.1500X1.1500*%
%ADD128C,1.1500*%
%ADD129R,1.1500X1.1500*%
%ADD130C,1.0032*%
%ADD131C,0.8032*%
%ADD132C,5.2032*%
%ADD133C,1.2032*%
%ADD134C,1.4732*%
D21*
X1140400Y3447190D02*
D03*
D22*
Y3491005D02*
D03*
Y3403375D02*
D03*
D23*
X2627000Y1793766D02*
D03*
X2628000Y2275766D02*
D03*
X1685000Y2016900D02*
D03*
X1516100Y2616100D02*
D03*
X1516320Y2838606D02*
D03*
X1765240Y3541000D02*
D03*
X1597575D02*
D03*
D24*
X2583185Y1793766D02*
D03*
X2670815D02*
D03*
X2584185Y2275766D02*
D03*
X2671815D02*
D03*
X1641185Y2016900D02*
D03*
X1728815D02*
D03*
X1559915Y2616100D02*
D03*
X1472285D02*
D03*
X1472505Y2838606D02*
D03*
X1560135D02*
D03*
X1809055Y3541000D02*
D03*
X1721425D02*
D03*
X1641390D02*
D03*
X1553760D02*
D03*
D29*
X1307250Y2381000D02*
D03*
X1288750D02*
D03*
X1416050Y2317700D02*
D03*
X1434550D02*
D03*
X1313480Y3096670D02*
D03*
X1294980D02*
D03*
X1463340D02*
D03*
X1444840D02*
D03*
X1807510Y3101750D02*
D03*
X1789010D02*
D03*
X1651300Y3100480D02*
D03*
X1632800D02*
D03*
X1356660Y3155090D02*
D03*
X1338160D02*
D03*
X1503980D02*
D03*
X1485480D02*
D03*
X1691940Y3157630D02*
D03*
X1673440D02*
D03*
X1848150Y3156360D02*
D03*
X1829650D02*
D03*
X2226548Y2467531D02*
D03*
X2208048D02*
D03*
X2139468D02*
D03*
X2157968D02*
D03*
X2192808Y2153841D02*
D03*
X2211308D02*
D03*
X2235798Y2133521D02*
D03*
X2217298D02*
D03*
X2235438Y2153841D02*
D03*
X2216938D02*
D03*
X2192808Y2133521D02*
D03*
X2211308D02*
D03*
X2393590Y3168230D02*
D03*
X2412090D02*
D03*
X2521310Y3277450D02*
D03*
X2502810D02*
D03*
Y2874860D02*
D03*
X2521310D02*
D03*
X2412090Y2765640D02*
D03*
X2393590D02*
D03*
D30*
X1369000Y2392150D02*
D03*
Y2410650D02*
D03*
X1328000Y2370650D02*
D03*
Y2352150D02*
D03*
X1583000Y2531050D02*
D03*
Y2512550D02*
D03*
X1598100Y2512450D02*
D03*
Y2530950D02*
D03*
X1587400Y2101750D02*
D03*
Y2120250D02*
D03*
X1602900Y2101750D02*
D03*
Y2120250D02*
D03*
X1618100Y2120150D02*
D03*
Y2101650D02*
D03*
X1613600Y2512450D02*
D03*
Y2530950D02*
D03*
X1364300Y2153450D02*
D03*
Y2171950D02*
D03*
X1791100Y2317150D02*
D03*
Y2298650D02*
D03*
X1271210Y3100840D02*
D03*
Y3082340D02*
D03*
Y3206800D02*
D03*
Y3225300D02*
D03*
X1609030Y3104650D02*
D03*
Y3086150D02*
D03*
X1765240Y3106830D02*
D03*
Y3088330D02*
D03*
X1765240Y3206800D02*
D03*
Y3225300D02*
D03*
X1421070Y3084880D02*
D03*
Y3103380D02*
D03*
X2217298Y2427801D02*
D03*
Y2446301D02*
D03*
X2493010Y3384490D02*
D03*
Y3365990D02*
D03*
X2517140Y3384490D02*
D03*
Y3365990D02*
D03*
X2059729Y3328156D02*
D03*
Y3309656D02*
D03*
X2090420Y3328610D02*
D03*
Y3310110D02*
D03*
X2346960Y3327340D02*
D03*
Y3308840D02*
D03*
X2298700Y3213590D02*
D03*
Y3232090D02*
D03*
Y3299400D02*
D03*
Y3280900D02*
D03*
X2322830Y3318450D02*
D03*
Y3299950D02*
D03*
X2321560Y3194540D02*
D03*
Y3213040D02*
D03*
X2298700Y2829500D02*
D03*
Y2811000D02*
D03*
Y2878310D02*
D03*
Y2896810D02*
D03*
X2493010Y2963400D02*
D03*
Y2981900D02*
D03*
X2517140Y2963400D02*
D03*
Y2981900D02*
D03*
X2540000Y2741150D02*
D03*
Y2759650D02*
D03*
X2322830Y2897360D02*
D03*
Y2915860D02*
D03*
X2346960Y2906250D02*
D03*
Y2924750D02*
D03*
X2321560Y2810450D02*
D03*
Y2791950D02*
D03*
X2540000Y3162240D02*
D03*
Y3143740D02*
D03*
X1972310Y3096750D02*
D03*
Y3115250D02*
D03*
D32*
X1680032Y2487668D02*
D03*
X1669768Y2497932D02*
D03*
X1647768Y2475832D02*
D03*
X1658032Y2465568D02*
D03*
X1658468Y2486732D02*
D03*
X1668732Y2476468D02*
D03*
X1691532Y2498668D02*
D03*
X1681268Y2508932D02*
D03*
X1541732Y2149268D02*
D03*
X1531468Y2159532D02*
D03*
X1530032Y2137868D02*
D03*
X1519768Y2148132D02*
D03*
X1552932Y2159868D02*
D03*
X1542668Y2170132D02*
D03*
X1508968Y2137132D02*
D03*
X1519232Y2126868D02*
D03*
D35*
X1521000Y2478258D02*
D03*
Y2463742D02*
D03*
X1656000Y2392758D02*
D03*
Y2378242D02*
D03*
X1505900Y2478258D02*
D03*
Y2463742D02*
D03*
X1695100Y2168958D02*
D03*
Y2154442D02*
D03*
X1559700Y2254858D02*
D03*
Y2240342D02*
D03*
X1544600D02*
D03*
Y2254858D02*
D03*
X1680000Y2168958D02*
D03*
Y2154442D02*
D03*
X1640000Y2378742D02*
D03*
Y2393258D02*
D03*
D36*
X1535442Y2445900D02*
D03*
X1549958D02*
D03*
X1516058Y2396500D02*
D03*
X1501542D02*
D03*
X1515758Y2411900D02*
D03*
X1501242D02*
D03*
X1535442Y2461200D02*
D03*
X1549958D02*
D03*
X1666358Y2171100D02*
D03*
X1651842D02*
D03*
X1684742Y2222300D02*
D03*
X1699258D02*
D03*
X1684842Y2237900D02*
D03*
X1699358D02*
D03*
X1666458Y2186600D02*
D03*
X1651942D02*
D03*
D37*
X1566788Y2400654D02*
D03*
X1556524Y2390390D02*
D03*
X1530401Y2367263D02*
D03*
X1540665Y2377527D02*
D03*
X1541368Y2356268D02*
D03*
X1551632Y2366532D02*
D03*
X1555632Y2411932D02*
D03*
X1545368Y2401668D02*
D03*
X1646268Y2220268D02*
D03*
X1656532Y2230532D02*
D03*
X1658954Y2273848D02*
D03*
X1648690Y2263583D02*
D03*
X1670833Y2262251D02*
D03*
X1660569Y2251987D02*
D03*
X1634368Y2231868D02*
D03*
X1644632Y2242132D02*
D03*
D39*
X1641041Y2508041D02*
D03*
X1627959Y2494959D02*
D03*
X1558359Y2124159D02*
D03*
X1571441Y2137241D02*
D03*
D40*
X1555359Y2507641D02*
D03*
X1568441Y2494559D02*
D03*
X1632559Y2138141D02*
D03*
X1645641Y2125059D02*
D03*
D42*
X1358790Y2337137D02*
D03*
X1367940Y2317603D02*
D03*
X1402230D02*
D03*
D43*
X1349640D02*
D03*
X1383930D02*
D03*
D44*
X1393080Y2337137D02*
D03*
D55*
X1507100Y2449700D02*
D03*
X1522100D02*
D03*
X1693900Y2183000D02*
D03*
X1678900D02*
D03*
D62*
X1429145Y3211849D02*
D03*
X1438395Y3227871D02*
D03*
D63*
X1591705Y3227871D02*
D03*
X1600955Y3211849D02*
D03*
D76*
X2374439Y3228030D02*
D03*
Y3286530D02*
D03*
Y3293030D02*
D03*
X2443941Y3247530D02*
D03*
Y3241030D02*
D03*
Y3234530D02*
D03*
Y3215030D02*
D03*
Y3221530D02*
D03*
Y3228030D02*
D03*
Y3254030D02*
D03*
Y3260530D02*
D03*
Y3267030D02*
D03*
Y3273530D02*
D03*
Y3280030D02*
D03*
Y3286530D02*
D03*
Y3293030D02*
D03*
X2374439Y3280030D02*
D03*
Y3273530D02*
D03*
Y3267030D02*
D03*
Y3260530D02*
D03*
Y3254030D02*
D03*
Y3247530D02*
D03*
Y3241030D02*
D03*
Y3234530D02*
D03*
Y3221530D02*
D03*
Y3215030D02*
D03*
Y3208530D02*
D03*
Y2805940D02*
D03*
Y2812440D02*
D03*
Y2818940D02*
D03*
Y2825440D02*
D03*
Y2831940D02*
D03*
Y2838440D02*
D03*
Y2844940D02*
D03*
Y2851440D02*
D03*
Y2857940D02*
D03*
Y2864440D02*
D03*
Y2870940D02*
D03*
Y2877440D02*
D03*
Y2883940D02*
D03*
Y2890440D02*
D03*
X2443941D02*
D03*
Y2883940D02*
D03*
Y2877440D02*
D03*
Y2870940D02*
D03*
Y2864440D02*
D03*
Y2857940D02*
D03*
Y2851440D02*
D03*
Y2844940D02*
D03*
Y2838440D02*
D03*
Y2831940D02*
D03*
Y2825440D02*
D03*
Y2818940D02*
D03*
Y2812440D02*
D03*
D77*
Y3208530D02*
D03*
Y2805940D02*
D03*
D78*
X2627000Y2039500D02*
D03*
Y2020500D02*
D03*
X2001000Y3260500D02*
D03*
Y3279500D02*
D03*
Y3311788D02*
D03*
Y3292788D02*
D03*
X2628000Y2502500D02*
D03*
Y2521500D02*
D03*
X1413200Y2445600D02*
D03*
Y2464600D02*
D03*
X1260590Y2349980D02*
D03*
Y2330980D02*
D03*
X1705800Y2398100D02*
D03*
X1705800Y2379100D02*
D03*
X1685600Y2415200D02*
D03*
Y2434200D02*
D03*
X1706000Y2462700D02*
D03*
Y2443700D02*
D03*
X1479000Y2172600D02*
D03*
Y2153600D02*
D03*
X1498700Y2178500D02*
D03*
Y2197500D02*
D03*
X1478800Y2230900D02*
D03*
X1478800Y2211900D02*
D03*
X1786700Y2167800D02*
D03*
Y2186800D02*
D03*
X1461500Y2121200D02*
D03*
Y2102200D02*
D03*
X1725000Y2507500D02*
D03*
Y2488500D02*
D03*
X1516320Y2923290D02*
D03*
Y2904290D02*
D03*
X1513780Y3350060D02*
D03*
Y3369060D02*
D03*
X1967108Y2294201D02*
D03*
Y2313201D02*
D03*
Y2357651D02*
D03*
Y2338651D02*
D03*
X2453038Y2346771D02*
D03*
Y2327771D02*
D03*
X1969770Y3250120D02*
D03*
Y3231120D02*
D03*
X2061210Y3283140D02*
D03*
Y3264140D02*
D03*
X2089150D02*
D03*
Y3283140D02*
D03*
X2322830Y3247630D02*
D03*
Y3266630D02*
D03*
X2540000Y3190480D02*
D03*
Y3209480D02*
D03*
Y2787890D02*
D03*
Y2806890D02*
D03*
X2322830Y2845040D02*
D03*
Y2864040D02*
D03*
D79*
X2587000Y2824160D02*
D03*
Y2836660D02*
D03*
Y2811660D02*
D03*
Y2849160D02*
D03*
Y3251750D02*
D03*
Y3226750D02*
D03*
Y3214250D02*
D03*
Y3239250D02*
D03*
D80*
X2651000Y2898410D02*
D03*
Y2762410D02*
D03*
Y3301000D02*
D03*
Y3165000D02*
D03*
D81*
X2042820Y3236810D02*
D03*
X2061820D02*
D03*
X1743800Y2476400D02*
D03*
X1724800D02*
D03*
X1290840Y2349100D02*
D03*
X1309840D02*
D03*
X1743400Y2398000D02*
D03*
X1724400D02*
D03*
X1724300Y2418100D02*
D03*
X1743300D02*
D03*
X1724700Y2437000D02*
D03*
X1743700D02*
D03*
X1460800Y2154600D02*
D03*
X1441800D02*
D03*
X1460600Y2173400D02*
D03*
X1441600D02*
D03*
X1461100Y2193000D02*
D03*
X1442100D02*
D03*
Y2212000D02*
D03*
X1461100D02*
D03*
X1461200Y2133700D02*
D03*
X1442200D02*
D03*
X1656400Y2358300D02*
D03*
X1675400D02*
D03*
X1526300Y2267800D02*
D03*
X1507300D02*
D03*
X1744000Y2456600D02*
D03*
X1725000D02*
D03*
X1504500Y3313000D02*
D03*
X1523500D02*
D03*
X1499150Y2929030D02*
D03*
X1480150D02*
D03*
X1552490D02*
D03*
X1533490D02*
D03*
X1180380Y3028090D02*
D03*
X1161380D02*
D03*
X1356910Y3181760D02*
D03*
X1337910D02*
D03*
X1504230D02*
D03*
X1485230D02*
D03*
X1692190Y3184300D02*
D03*
X1673190D02*
D03*
X1848400D02*
D03*
X1829400D02*
D03*
X2158268Y2078911D02*
D03*
X2177268D02*
D03*
X2108810Y3236810D02*
D03*
X2089810D02*
D03*
X2580654Y3084130D02*
D03*
X2561654D02*
D03*
X2502560Y3230460D02*
D03*
X2521560D02*
D03*
X2521560Y3207600D02*
D03*
X2502560D02*
D03*
X2521560Y3253320D02*
D03*
X2502560D02*
D03*
X2502560Y2827870D02*
D03*
X2521560D02*
D03*
X2521560Y2850730D02*
D03*
X2502560D02*
D03*
X2521560Y2805010D02*
D03*
X2502560D02*
D03*
X2576860Y2681750D02*
D03*
X2557860D02*
D03*
D82*
X1328310Y2295510D02*
D03*
Y2313510D02*
D03*
X1369000Y2295500D02*
D03*
Y2277500D02*
D03*
D83*
X1489800Y2462250D02*
D03*
Y2445750D02*
D03*
X1711200Y2170450D02*
D03*
Y2186950D02*
D03*
D84*
X1487800Y2433000D02*
D03*
X1469800D02*
D03*
X1731900Y2199700D02*
D03*
X1713900D02*
D03*
D85*
X1600400Y2393650D02*
D03*
Y2377150D02*
D03*
X1600885Y2256060D02*
D03*
Y2239560D02*
D03*
D86*
X1392100Y2444600D02*
D03*
Y2465600D02*
D03*
X1260400Y2300600D02*
D03*
Y2321600D02*
D03*
X1810300Y2167300D02*
D03*
Y2188300D02*
D03*
X1967108Y2251291D02*
D03*
Y2272291D02*
D03*
Y2400561D02*
D03*
Y2379561D02*
D03*
X1943100Y3232660D02*
D03*
Y3253660D02*
D03*
D87*
X1328310Y2342720D02*
D03*
Y2324720D02*
D03*
D88*
X1323300Y2277400D02*
D03*
X1305300D02*
D03*
D89*
X1400900Y2279150D02*
D03*
Y2296650D02*
D03*
X1349400D02*
D03*
Y2279150D02*
D03*
D90*
X1439000Y2464750D02*
D03*
Y2445250D02*
D03*
X1715700Y2236950D02*
D03*
Y2217450D02*
D03*
X1762000Y2186750D02*
D03*
Y2167250D02*
D03*
X1484600Y2416150D02*
D03*
Y2396650D02*
D03*
D91*
X1500950Y2433000D02*
D03*
X1520450D02*
D03*
X1459150D02*
D03*
X1439650D02*
D03*
X1741850Y2199700D02*
D03*
X1761350D02*
D03*
X1700050D02*
D03*
X1680550D02*
D03*
D92*
X1589418Y2500318D02*
D03*
X1575983Y2486882D02*
D03*
X1648282Y2515383D02*
D03*
X1661718Y2528817D02*
D03*
X1550117Y2116017D02*
D03*
X1536682Y2102583D02*
D03*
X1611582Y2132383D02*
D03*
X1625018Y2145818D02*
D03*
X1540818Y2962418D02*
D03*
X1527382Y2948983D02*
D03*
D93*
X1620117Y2487083D02*
D03*
X1606682Y2500517D02*
D03*
X1593118Y2132083D02*
D03*
X1579682Y2145518D02*
D03*
X1491822Y2962418D02*
D03*
X1505258Y2948983D02*
D03*
D94*
X1573575Y2455730D02*
D03*
X1621575Y2420730D02*
D03*
Y2425730D02*
D03*
Y2430730D02*
D03*
Y2435730D02*
D03*
Y2440730D02*
D03*
Y2445730D02*
D03*
Y2450730D02*
D03*
Y2455730D02*
D03*
X1573575Y2450730D02*
D03*
Y2445730D02*
D03*
Y2440730D02*
D03*
Y2435730D02*
D03*
Y2430730D02*
D03*
Y2425730D02*
D03*
Y2420730D02*
D03*
X1627425Y2211970D02*
D03*
Y2206970D02*
D03*
Y2201970D02*
D03*
Y2196970D02*
D03*
Y2191970D02*
D03*
Y2186970D02*
D03*
Y2181970D02*
D03*
X1579425Y2176970D02*
D03*
Y2181970D02*
D03*
Y2186970D02*
D03*
Y2191970D02*
D03*
Y2196970D02*
D03*
Y2201970D02*
D03*
Y2206970D02*
D03*
Y2211970D02*
D03*
X1627425Y2176970D02*
D03*
D95*
X1580075Y2462230D02*
D03*
X1615075D02*
D03*
X1610075D02*
D03*
X1605075D02*
D03*
X1600075D02*
D03*
X1595075D02*
D03*
X1590075D02*
D03*
X1585075D02*
D03*
X1580075Y2414230D02*
D03*
X1585075D02*
D03*
X1590075D02*
D03*
X1595075D02*
D03*
X1600075D02*
D03*
X1605075D02*
D03*
X1610075D02*
D03*
X1615075D02*
D03*
X1585925Y2218470D02*
D03*
X1590925D02*
D03*
X1595925D02*
D03*
X1600925D02*
D03*
X1605925D02*
D03*
X1610925D02*
D03*
X1615925D02*
D03*
X1620925D02*
D03*
X1615925Y2170470D02*
D03*
X1605925D02*
D03*
X1600925D02*
D03*
X1595925D02*
D03*
X1590925D02*
D03*
X1585925D02*
D03*
X1620925D02*
D03*
X1610925D02*
D03*
D96*
X1597575Y2438230D02*
D03*
X1603425Y2194470D02*
D03*
D97*
X1314800Y2471600D02*
D03*
D98*
X1337800Y2411600D02*
D03*
X1314800D02*
D03*
X1291800D02*
D03*
D99*
X1502850Y3339827D02*
D03*
X1493350Y3323373D02*
D03*
D100*
X1526250Y3339227D02*
D03*
X1535750Y3322773D02*
D03*
D101*
X1548850Y3301373D02*
D03*
D102*
X1539350Y3317827D02*
D03*
D103*
X1309310Y3181320D02*
D03*
X1296610D02*
D03*
X1283910D02*
D03*
X1271210D02*
D03*
X1309310Y3126320D02*
D03*
X1296610D02*
D03*
X1283910D02*
D03*
X1271210D02*
D03*
X1459170Y3181320D02*
D03*
X1446470D02*
D03*
X1433770D02*
D03*
X1421070D02*
D03*
X1459170Y3126320D02*
D03*
X1446470D02*
D03*
X1433770D02*
D03*
X1421070D02*
D03*
X1647130Y3183860D02*
D03*
X1634430D02*
D03*
X1621730D02*
D03*
X1609030D02*
D03*
X1647130Y3128860D02*
D03*
X1634430D02*
D03*
X1621730D02*
D03*
X1609030D02*
D03*
X1803340Y3183860D02*
D03*
X1790640D02*
D03*
X1777940D02*
D03*
X1765240D02*
D03*
X1803340Y3128860D02*
D03*
X1790640D02*
D03*
X1777940D02*
D03*
X1765240D02*
D03*
D104*
X1556327Y3282350D02*
D03*
X1539873Y3272850D02*
D03*
D105*
X1481090Y3301803D02*
D03*
X1445530Y3394513D02*
D03*
X1455030Y3410967D02*
D03*
D106*
X1490590Y3318257D02*
D03*
D107*
X1472533Y3281760D02*
D03*
X1488987Y3272260D02*
D03*
X1479490Y3327810D02*
D03*
X1463035Y3337310D02*
D03*
D108*
X1416653Y3389710D02*
D03*
D109*
X1433107Y3380210D02*
D03*
D110*
X1471263Y3407490D02*
D03*
X1487717Y3397990D02*
D03*
D111*
X1505133Y3390382D02*
D03*
X1517346Y3404937D02*
D03*
D112*
X1160380Y3057300D02*
D03*
X1181380D02*
D03*
X2178268Y2048431D02*
D03*
X2157268D02*
D03*
D113*
X2146328Y2256081D02*
D03*
Y2264081D02*
D03*
Y2272081D02*
D03*
Y2280081D02*
D03*
Y2288081D02*
D03*
Y2296081D02*
D03*
Y2304081D02*
D03*
Y2312081D02*
D03*
Y2320081D02*
D03*
Y2328081D02*
D03*
Y2336081D02*
D03*
X2260328D02*
D03*
Y2328081D02*
D03*
Y2320081D02*
D03*
Y2312081D02*
D03*
Y2304081D02*
D03*
Y2296081D02*
D03*
Y2288081D02*
D03*
Y2280081D02*
D03*
Y2272081D02*
D03*
Y2264081D02*
D03*
Y2256081D02*
D03*
D114*
X2163328Y2353081D02*
D03*
X2171328D02*
D03*
X2179328D02*
D03*
X2187328D02*
D03*
X2195328D02*
D03*
X2203328D02*
D03*
X2211328D02*
D03*
X2219328D02*
D03*
X2227328D02*
D03*
X2235328D02*
D03*
X2243328D02*
D03*
Y2239081D02*
D03*
X2235328D02*
D03*
X2227328D02*
D03*
X2219328D02*
D03*
X2211328D02*
D03*
X2203328D02*
D03*
X2195328D02*
D03*
X2187328D02*
D03*
X2179328D02*
D03*
X2171328D02*
D03*
X2163328D02*
D03*
D115*
X1849060Y3125880D02*
D03*
X1231100Y2380400D02*
D03*
X1231300Y2349600D02*
D03*
X1355030Y3125880D02*
D03*
X1503620Y3123340D02*
D03*
X1691580Y3127150D02*
D03*
X1196280Y2989990D02*
D03*
X1160720D02*
D03*
X2080138Y2077641D02*
D03*
X2105538D02*
D03*
X2130938D02*
D03*
X2359538Y2505631D02*
D03*
X2334138D02*
D03*
X2308738D02*
D03*
X2054738Y2393871D02*
D03*
Y2419271D02*
D03*
Y2444671D02*
D03*
Y2180511D02*
D03*
Y2205911D02*
D03*
Y2231311D02*
D03*
Y2287191D02*
D03*
Y2312591D02*
D03*
Y2337991D02*
D03*
Y2501821D02*
D03*
Y2527221D02*
D03*
Y2552621D02*
D03*
X2359538Y2404641D02*
D03*
Y2430041D02*
D03*
Y2455441D02*
D03*
X2390018Y2322091D02*
D03*
Y2296691D02*
D03*
Y2271291D02*
D03*
Y2214141D02*
D03*
Y2188741D02*
D03*
Y2163341D02*
D03*
X2255398Y2048431D02*
D03*
X2229998D02*
D03*
X2204598D02*
D03*
X2359538Y2536111D02*
D03*
X2334138D02*
D03*
X2308738D02*
D03*
X2255741Y2079321D02*
D03*
X2230341D02*
D03*
X2204941D02*
D03*
X2364618Y2078911D02*
D03*
X2339218D02*
D03*
X2313818D02*
D03*
X2022988Y2501821D02*
D03*
Y2527221D02*
D03*
Y2552621D02*
D03*
Y2393871D02*
D03*
Y2419271D02*
D03*
Y2444671D02*
D03*
X2080138Y2047161D02*
D03*
X2105538D02*
D03*
X2130938D02*
D03*
X2364618Y2048431D02*
D03*
X2339218D02*
D03*
X2313818D02*
D03*
X2359538Y2214141D02*
D03*
Y2188741D02*
D03*
Y2163341D02*
D03*
X2022988Y2287191D02*
D03*
Y2312591D02*
D03*
Y2337991D02*
D03*
X2359538Y2271291D02*
D03*
Y2296691D02*
D03*
Y2322091D02*
D03*
X2390018Y2404641D02*
D03*
Y2430041D02*
D03*
Y2455441D02*
D03*
X2022988Y2180511D02*
D03*
Y2205911D02*
D03*
Y2231311D02*
D03*
X2504440Y3484460D02*
D03*
X2529840D02*
D03*
X2555240D02*
D03*
X2062480Y3353650D02*
D03*
X2087880D02*
D03*
X2113280D02*
D03*
X2087880Y3198710D02*
D03*
X2062480D02*
D03*
X2037080D02*
D03*
X2113280Y3122510D02*
D03*
X2087880D02*
D03*
X2062480D02*
D03*
X2037080D02*
D03*
X1972310Y3174580D02*
D03*
Y3141560D02*
D03*
X2646102Y2681752D02*
D03*
X2620702D02*
D03*
X2623226Y3084131D02*
D03*
X2648626D02*
D03*
D116*
X1849060Y3100480D02*
D03*
X1231100Y2405800D02*
D03*
X1231300Y2324200D02*
D03*
X1355030Y3100480D02*
D03*
X1503620Y3097940D02*
D03*
X1691580Y3101750D02*
D03*
X1196280Y2964590D02*
D03*
X1160720D02*
D03*
X2054738Y2368471D02*
D03*
Y2155111D02*
D03*
Y2261791D02*
D03*
Y2476421D02*
D03*
X2359538Y2379241D02*
D03*
X2390018Y2347491D02*
D03*
Y2239541D02*
D03*
X2022988Y2476421D02*
D03*
Y2368471D02*
D03*
X2359538Y2239541D02*
D03*
X2022988Y2261791D02*
D03*
X2359538Y2347491D02*
D03*
X2390018Y2379241D02*
D03*
X2022988Y2155111D02*
D03*
X2113280Y3198710D02*
D03*
D117*
X2657000Y2802910D02*
D03*
Y2857910D02*
D03*
Y3205500D02*
D03*
Y3260500D02*
D03*
D118*
X1767000Y2372520D02*
D03*
Y2397920D02*
D03*
Y2423320D02*
D03*
Y2448720D02*
D03*
Y2474120D02*
D03*
X1797000Y2372520D02*
D03*
Y2397920D02*
D03*
Y2423320D02*
D03*
Y2448720D02*
D03*
Y2474120D02*
D03*
X1419100Y2135700D02*
D03*
Y2161100D02*
D03*
Y2186500D02*
D03*
Y2211900D02*
D03*
Y2237300D02*
D03*
D119*
X1339000Y2219600D02*
D03*
D120*
X1288600D02*
D03*
D121*
X2158608Y2503091D02*
D03*
D122*
X2207408D02*
D03*
X2261870Y3231460D02*
D03*
Y2828870D02*
D03*
D123*
X2054738Y2077641D02*
D03*
X2283338Y2505631D02*
D03*
X2280798Y2048431D02*
D03*
X2283338Y2536111D02*
D03*
X2281141Y2079321D02*
D03*
X2390018Y2078911D02*
D03*
X2054738Y2047161D02*
D03*
X2390018Y2048431D02*
D03*
X2479040Y3484460D02*
D03*
X2037080Y3353650D02*
D03*
X1946910Y3174580D02*
D03*
Y3141560D02*
D03*
D124*
X2452248Y2235121D02*
D03*
D125*
Y2285921D02*
D03*
D126*
X2261870Y3280260D02*
D03*
Y2877670D02*
D03*
D127*
X2338470Y3377780D02*
D03*
Y2975190D02*
D03*
D128*
X2363470Y3377780D02*
D03*
X2424430Y3363810D02*
D03*
Y2961220D02*
D03*
X2363470Y2975190D02*
D03*
D129*
X2424430Y3388810D02*
D03*
Y2986220D02*
D03*
D130*
X1550092Y1950473D02*
D03*
X1095584Y3102006D02*
D03*
X1307092Y1968560D02*
D03*
X1010527Y3173364D02*
D03*
X1118092Y1950473D02*
D03*
X1077560Y3183006D02*
D03*
X1095584Y2058005D02*
D03*
X1262092Y1950473D02*
D03*
X1169475Y3507774D02*
D03*
X1077560Y2355005D02*
D03*
X1010527Y2903363D02*
D03*
X1745924Y2033927D02*
D03*
X1316092Y1950473D02*
D03*
X1223475Y3471663D02*
D03*
X1385763Y3507629D02*
D03*
X1239681Y1865416D02*
D03*
X1719613Y2081895D02*
D03*
X1345326Y3404630D02*
D03*
X1059473Y3246006D02*
D03*
Y2652005D02*
D03*
X1489000Y3361000D02*
D03*
X1010527Y2075363D02*
D03*
X1104276Y1883862D02*
D03*
X1059473Y2670005D02*
D03*
X1627693Y1975523D02*
D03*
X1618020Y2059896D02*
D03*
X1419681Y1901528D02*
D03*
X1077560Y2103005D02*
D03*
X992440Y2048362D02*
D03*
X1047018Y1880630D02*
D03*
X1425316Y3415652D02*
D03*
X992440Y3344364D02*
D03*
X1419681Y1865416D02*
D03*
X974416Y3263364D02*
D03*
X1103416Y3488942D02*
D03*
X1158681Y1883440D02*
D03*
X997413Y1970572D02*
D03*
X992440Y2426363D02*
D03*
X1095584Y3030006D02*
D03*
X992440Y2210363D02*
D03*
X1059473Y3318006D02*
D03*
X1095584Y3228006D02*
D03*
X1563681Y1901528D02*
D03*
X992440Y3128363D02*
D03*
X1095584Y2868005D02*
D03*
X992440Y2156363D02*
D03*
X1010527Y3227364D02*
D03*
X1295475Y3507774D02*
D03*
X1478092Y1950473D02*
D03*
X1660527Y2004714D02*
D03*
X1610331Y1883739D02*
D03*
X1192326Y3386606D02*
D03*
X974416Y3353364D02*
D03*
X1095584Y2022005D02*
D03*
X1367476Y3507774D02*
D03*
X1026256Y1894332D02*
D03*
X974416Y2831363D02*
D03*
X1156326Y3422718D02*
D03*
X1300326Y3386606D02*
D03*
X974416Y3137363D02*
D03*
X1149681Y1901527D02*
D03*
X992440Y2822363D02*
D03*
X1347681Y1865416D02*
D03*
X1115476Y3471719D02*
D03*
X1709473Y2013328D02*
D03*
X1280092Y1950473D02*
D03*
X1010527Y2939363D02*
D03*
X974532Y2000469D02*
D03*
X992440Y2894363D02*
D03*
X1577092Y1968560D02*
D03*
X1379092D02*
D03*
X1059473Y3048006D02*
D03*
X1077560Y2913005D02*
D03*
X1205475Y3507774D02*
D03*
X1239681Y1901527D02*
D03*
X1581681Y1865416D02*
D03*
X1372326Y3422718D02*
D03*
X1370092Y1950473D02*
D03*
X992440Y2966363D02*
D03*
X1527681Y1865416D02*
D03*
X1010527Y3029363D02*
D03*
Y2021362D02*
D03*
X974416Y2597363D02*
D03*
X1061694Y1913624D02*
D03*
X1365681Y1901528D02*
D03*
X1059473Y2274005D02*
D03*
X992440Y2138363D02*
D03*
X1336326Y3386606D02*
D03*
X1415092Y1968560D02*
D03*
X1650833Y2075284D02*
D03*
X1545681Y1865416D02*
D03*
X974416Y3227363D02*
D03*
X1572681Y1883440D02*
D03*
X992440Y2102363D02*
D03*
X1059473Y3210006D02*
D03*
X974416Y2903363D02*
D03*
X1709709Y1907293D02*
D03*
X1190092Y1950473D02*
D03*
X1385475Y3471519D02*
D03*
X1520395Y3444810D02*
D03*
X1095584Y3336006D02*
D03*
X1532092Y1950473D02*
D03*
X1029001Y1916655D02*
D03*
X1131681Y1865416D02*
D03*
X1282326Y3386606D02*
D03*
X1095584Y2652005D02*
D03*
X992440Y2750363D02*
D03*
X1630359Y2104740D02*
D03*
X983920Y1952988D02*
D03*
X1013309Y3439602D02*
D03*
X1219325Y3404630D02*
D03*
X1044018Y3468790D02*
D03*
X1352092Y1950473D02*
D03*
X1651265Y1891287D02*
D03*
X1095584Y2382005D02*
D03*
X1702527Y1960193D02*
D03*
X1496092Y1950473D02*
D03*
X992440Y2462363D02*
D03*
X1217092Y1968560D02*
D03*
X1318326Y3386606D02*
D03*
X1059473Y3120006D02*
D03*
Y2706005D02*
D03*
X1077560Y2931006D02*
D03*
X1500681Y1883440D02*
D03*
X1077560Y2157005D02*
D03*
X1286476Y3489750D02*
D03*
X1630986Y1885876D02*
D03*
X1059473Y2922006D02*
D03*
X1095584Y3156006D02*
D03*
X1096674Y3470513D02*
D03*
X1468493Y3443896D02*
D03*
X974416Y2057363D02*
D03*
X1172092Y1950473D02*
D03*
X1298092D02*
D03*
X1077560Y3039006D02*
D03*
Y2805005D02*
D03*
X1397092Y1968560D02*
D03*
X1010527Y3011363D02*
D03*
X1354326Y3386606D02*
D03*
X1095584Y2724005D02*
D03*
X1257681Y1865416D02*
D03*
X1077560Y2481005D02*
D03*
X1059473Y2850005D02*
D03*
X1062568Y3459384D02*
D03*
X974416Y2039362D02*
D03*
X992440Y2066362D02*
D03*
X974416Y2435363D02*
D03*
X1102348Y3421899D02*
D03*
X1010527Y2399363D02*
D03*
X974416Y2795363D02*
D03*
X1059473Y2076005D02*
D03*
X1077560Y3309006D02*
D03*
X1327326Y3404630D02*
D03*
X992440Y2390363D02*
D03*
X1264326Y3422718D02*
D03*
X1077560Y2823005D02*
D03*
X992440Y2516363D02*
D03*
X1010527Y2291363D02*
D03*
X1095584Y2706005D02*
D03*
X974416Y2345363D02*
D03*
X1232476Y3489750D02*
D03*
X1437681Y1901528D02*
D03*
X1404731Y3506977D02*
D03*
X1059473Y3156006D02*
D03*
X1185681Y1865416D02*
D03*
X1059473Y2454005D02*
D03*
Y2526005D02*
D03*
X1723916Y2118992D02*
D03*
X1059473Y2148005D02*
D03*
X992440Y3254363D02*
D03*
X1454468Y3455178D02*
D03*
X1480172Y3430198D02*
D03*
X1451092Y1968560D02*
D03*
X1082324Y3485578D02*
D03*
X1095584Y2490005D02*
D03*
X1077560Y3147006D02*
D03*
X1010527Y2147363D02*
D03*
Y2813363D02*
D03*
X1095584Y2580005D02*
D03*
X992440Y2570363D02*
D03*
X1095584Y2328005D02*
D03*
X1077560Y2067005D02*
D03*
X992440Y2084362D02*
D03*
X1367476Y3471663D02*
D03*
X1077560Y2445005D02*
D03*
X974416Y3299363D02*
D03*
Y3011363D02*
D03*
X1691970Y2135159D02*
D03*
X974416Y2489363D02*
D03*
Y2993363D02*
D03*
X1289092Y1968560D02*
D03*
X1095584Y2166005D02*
D03*
X1275681Y1901527D02*
D03*
X1105867Y1970879D02*
D03*
X1010527Y2597363D02*
D03*
X974416Y2813363D02*
D03*
X1010527Y2111363D02*
D03*
X1081043Y3381918D02*
D03*
X1059473Y2058005D02*
D03*
X974416Y2561363D02*
D03*
X1059473Y2616005D02*
D03*
X1095584Y3210006D02*
D03*
X1077560Y2319005D02*
D03*
X1010527Y2453363D02*
D03*
X1059473Y2886006D02*
D03*
X1010527Y2867363D02*
D03*
X1660614Y2022714D02*
D03*
X1010527Y3137363D02*
D03*
X1361092Y1968560D02*
D03*
X1059473Y3030005D02*
D03*
X1264325Y3386606D02*
D03*
X1095584Y2598005D02*
D03*
X1275681Y1865416D02*
D03*
X1095584Y3138006D02*
D03*
X1259475Y3471663D02*
D03*
X974416Y3281364D02*
D03*
X975344Y3391116D02*
D03*
X1059473Y2976006D02*
D03*
Y2022005D02*
D03*
X1077560Y2535005D02*
D03*
X1095584Y3300006D02*
D03*
X974416Y2165363D02*
D03*
X1241475Y3507774D02*
D03*
X1010527Y2669363D02*
D03*
Y2651363D02*
D03*
X1095584Y2994006D02*
D03*
X1509595Y3423857D02*
D03*
X1010527Y3263364D02*
D03*
X1059473Y2796005D02*
D03*
X1010527Y2741363D02*
D03*
Y2957363D02*
D03*
X1077560Y2985005D02*
D03*
X1005266Y3459212D02*
D03*
X1388092Y1950473D02*
D03*
X1518681Y1883440D02*
D03*
X1095584Y2526005D02*
D03*
X974416Y2291363D02*
D03*
X1095584Y2364005D02*
D03*
X974416Y3155363D02*
D03*
X1113681Y1901527D02*
D03*
X1095584Y2274005D02*
D03*
X1536681Y1883440D02*
D03*
X992440Y3200363D02*
D03*
X1709473Y1995328D02*
D03*
X1078140Y1906309D02*
D03*
X1010527Y2975363D02*
D03*
X1541092Y1968560D02*
D03*
X1010527Y2687363D02*
D03*
X1002507Y3420959D02*
D03*
X974416Y2741363D02*
D03*
X1095584Y2112005D02*
D03*
Y2040005D02*
D03*
X1077560Y3003006D02*
D03*
X1010527Y2219363D02*
D03*
X1331476Y3507774D02*
D03*
X1059473Y2580005D02*
D03*
X1077560Y2949006D02*
D03*
X1491681Y1865416D02*
D03*
X1354326Y3422718D02*
D03*
X1059473Y2760005D02*
D03*
X1077560Y3237006D02*
D03*
X1210325Y3422718D02*
D03*
X1413717Y3487930D02*
D03*
X1471363Y3464585D02*
D03*
X1095584Y2346005D02*
D03*
X980550Y3415334D02*
D03*
X1079156Y3466373D02*
D03*
X1095584Y3012006D02*
D03*
X1343092Y1968560D02*
D03*
X1010527Y2723363D02*
D03*
X1668211Y1919386D02*
D03*
X1469092Y1968560D02*
D03*
X1059473Y3102006D02*
D03*
X1471294Y3487130D02*
D03*
X1061578Y3389882D02*
D03*
X1070425Y1970226D02*
D03*
X1059473Y2004005D02*
D03*
X1010527Y2237363D02*
D03*
Y3245363D02*
D03*
X1709907Y2031322D02*
D03*
X1070200Y1871082D02*
D03*
X1491681Y1901528D02*
D03*
X1340476Y3489750D02*
D03*
X1059473Y2832006D02*
D03*
X1010527Y2417363D02*
D03*
X1077560Y2211005D02*
D03*
X1563681Y1865416D02*
D03*
X974416Y2867363D02*
D03*
X1625413Y2080391D02*
D03*
X1600386Y1865423D02*
D03*
X1095584Y2940005D02*
D03*
X974416Y3065363D02*
D03*
X1077560Y2121005D02*
D03*
X992440Y2174363D02*
D03*
X1638372Y2053248D02*
D03*
X1077560Y2031005D02*
D03*
X1311681Y1865416D02*
D03*
X992440Y3038363D02*
D03*
X974416Y2687363D02*
D03*
X1059473Y2436005D02*
D03*
X992440Y3056363D02*
D03*
X1203681Y1865416D02*
D03*
X992469Y2011638D02*
D03*
X1660241Y2143382D02*
D03*
X1169475Y3471663D02*
D03*
X992440Y2930363D02*
D03*
X1682211Y1930700D02*
D03*
X1023157Y3476339D02*
D03*
X1347681Y1901527D02*
D03*
X992440Y3002363D02*
D03*
X1376548Y3489678D02*
D03*
X1401681Y1865416D02*
D03*
X974416Y2759363D02*
D03*
X1300326Y3422718D02*
D03*
X1473681Y1901528D02*
D03*
X1077560Y2625005D02*
D03*
X1010527Y2165363D02*
D03*
X1095584Y3369887D02*
D03*
X1004797Y1951020D02*
D03*
X1059473Y2220005D02*
D03*
X1010527Y2003362D02*
D03*
X1095584Y2634005D02*
D03*
X1011412Y3389342D02*
D03*
X992440Y3272364D02*
D03*
X1027477Y3455691D02*
D03*
X1604092Y1950473D02*
D03*
X1707792Y1977406D02*
D03*
X1504969Y3456773D02*
D03*
X1095584Y2292005D02*
D03*
X1669891Y1879073D02*
D03*
X1010527Y2561363D02*
D03*
Y2057363D02*
D03*
X1257681Y1901527D02*
D03*
X1365681Y1865416D02*
D03*
X1349476Y3507774D02*
D03*
X1533000Y3428000D02*
D03*
X1095584Y2796005D02*
D03*
X1494644Y3419494D02*
D03*
X1705388Y2066985D02*
D03*
X1226092Y1950473D02*
D03*
X1077560Y3093006D02*
D03*
X1095584Y2472005D02*
D03*
X974416Y2651363D02*
D03*
X1246326Y3422718D02*
D03*
X1138326Y3422804D02*
D03*
X1259475Y3507774D02*
D03*
X1282326Y3422718D02*
D03*
X1374681Y1883440D02*
D03*
X992440Y3290363D02*
D03*
X974416Y2669363D02*
D03*
X1010527Y2327363D02*
D03*
X1601983Y1969093D02*
D03*
X1122681Y1883440D02*
D03*
X992440Y3020363D02*
D03*
X1201326Y3404630D02*
D03*
X992440Y2318363D02*
D03*
X974416Y2219363D02*
D03*
X992440Y2408363D02*
D03*
Y2768363D02*
D03*
X1554681Y1883440D02*
D03*
X974416Y2543363D02*
D03*
X1136266Y1968560D02*
D03*
X1442092Y1950473D02*
D03*
X974416Y2021362D02*
D03*
Y2129363D02*
D03*
Y3317364D02*
D03*
X1700000Y2084160D02*
D03*
X1329681Y1901527D02*
D03*
X1136092Y1950473D02*
D03*
X1059473Y2094005D02*
D03*
Y2112005D02*
D03*
X1383681Y1901528D02*
D03*
X1059473Y3138006D02*
D03*
X1670383Y1900087D02*
D03*
X1015359Y1932866D02*
D03*
X1095584Y3174006D02*
D03*
X1394859Y3489284D02*
D03*
X1095584Y2904005D02*
D03*
X992440Y2732363D02*
D03*
X1277476Y3507774D02*
D03*
X974416Y3245363D02*
D03*
X1095584Y2886006D02*
D03*
X1059473Y2814005D02*
D03*
Y2346005D02*
D03*
X1726638Y1985101D02*
D03*
X1100105Y1951169D02*
D03*
X1568092Y1950473D02*
D03*
X974416Y2309363D02*
D03*
X1008513Y1911624D02*
D03*
X1077560Y2085005D02*
D03*
X1237326Y3404630D02*
D03*
X1455681Y1865416D02*
D03*
X1095584Y2850005D02*
D03*
Y3192006D02*
D03*
X1062445Y3478810D02*
D03*
X1095584Y2562005D02*
D03*
X1622043Y1951798D02*
D03*
X1410681Y1883440D02*
D03*
X1059473Y2400005D02*
D03*
Y2130005D02*
D03*
X1403464Y3470887D02*
D03*
X1034129Y3437510D02*
D03*
X1023311Y3423123D02*
D03*
X1133476Y3471576D02*
D03*
X1163092Y1968560D02*
D03*
X1059473Y2778005D02*
D03*
X1131681Y1901527D02*
D03*
X1295475Y3471663D02*
D03*
X1373000Y3405000D02*
D03*
X1059473Y2202005D02*
D03*
X1010527Y2579363D02*
D03*
X1077560Y2751005D02*
D03*
X1509681Y1901528D02*
D03*
X992440Y2696363D02*
D03*
X1401681Y1901528D02*
D03*
X1140681Y1883440D02*
D03*
X1059473Y2742005D02*
D03*
X1010527Y2543363D02*
D03*
X1088367Y3505656D02*
D03*
X1635437Y1904814D02*
D03*
X1077560Y2499005D02*
D03*
X1514092Y1950473D02*
D03*
X992440Y2480363D02*
D03*
X1194681Y1883440D02*
D03*
X1221681Y1865416D02*
D03*
X1095584Y2544005D02*
D03*
X992440Y2804363D02*
D03*
X974416Y2093363D02*
D03*
X990636Y3438498D02*
D03*
X992440Y2300363D02*
D03*
X1059473Y2166005D02*
D03*
X1293681Y1901527D02*
D03*
X1095584Y2616005D02*
D03*
X1523092Y1968560D02*
D03*
X1010527Y2183363D02*
D03*
X974416Y2615363D02*
D03*
X992440Y3308364D02*
D03*
X1255326Y3404630D02*
D03*
X1077560Y2787005D02*
D03*
X1174325Y3386606D02*
D03*
X1178475Y3489750D02*
D03*
X992440Y2786363D02*
D03*
X1059473Y3228006D02*
D03*
X1010527Y3191364D02*
D03*
Y3083363D02*
D03*
X1077560Y2373005D02*
D03*
X1277476Y3471663D02*
D03*
X1010527Y2849363D02*
D03*
X992440Y2840363D02*
D03*
Y2228363D02*
D03*
X1077560Y2769005D02*
D03*
X1322475Y3489750D02*
D03*
X1221681Y1901527D02*
D03*
X1010527Y3335363D02*
D03*
X1641839Y2090877D02*
D03*
X1095584Y2760005D02*
D03*
X974416Y3209363D02*
D03*
X974416Y2363363D02*
D03*
X1059473Y3372006D02*
D03*
X1509681Y1865416D02*
D03*
X1187476Y3507774D02*
D03*
X1167681Y1865416D02*
D03*
X1187476Y3471663D02*
D03*
X1599681Y1901528D02*
D03*
X1010527Y2993363D02*
D03*
X992440Y2534363D02*
D03*
X1223475Y3507774D02*
D03*
X1268475Y3489750D02*
D03*
X1464681Y1883440D02*
D03*
X1059473Y3336006D02*
D03*
X1248681Y1883440D02*
D03*
X1390323Y3422378D02*
D03*
X1059473Y2868005D02*
D03*
Y2634005D02*
D03*
X1559092Y1968560D02*
D03*
X974416Y2255363D02*
D03*
X1077560Y3273006D02*
D03*
X1428681Y1883440D02*
D03*
X1586092Y1950473D02*
D03*
X974416Y2975363D02*
D03*
X1077560Y2517005D02*
D03*
X1084518Y1886474D02*
D03*
X1077560Y2607005D02*
D03*
X1737059Y1949631D02*
D03*
X1095584Y3084006D02*
D03*
X1010527Y2525363D02*
D03*
X992440Y2660363D02*
D03*
X1010527Y2039362D02*
D03*
X974416Y2075363D02*
D03*
X1623567Y1866251D02*
D03*
X1672927Y2130612D02*
D03*
X1167681Y1901527D02*
D03*
X992440Y2444363D02*
D03*
X1482681Y1883440D02*
D03*
X1712646Y2137712D02*
D03*
X974416Y2849363D02*
D03*
X1077560Y2967006D02*
D03*
Y3201006D02*
D03*
Y3291006D02*
D03*
X1059473Y3012006D02*
D03*
X1095584Y2202005D02*
D03*
X1703284Y2118400D02*
D03*
X1077560Y2697005D02*
D03*
Y2643005D02*
D03*
X974416Y3101364D02*
D03*
Y2453363D02*
D03*
X1077560Y2409005D02*
D03*
X1228326Y3422718D02*
D03*
X1010527Y3047363D02*
D03*
X1095584Y2094005D02*
D03*
X1059473Y2418005D02*
D03*
X1652347Y1970331D02*
D03*
X1095584Y2742005D02*
D03*
X974416Y3083363D02*
D03*
X993513Y1991273D02*
D03*
X992440Y3074363D02*
D03*
X1077560Y2139005D02*
D03*
X1010527Y3119363D02*
D03*
X1077560Y2733005D02*
D03*
Y2229005D02*
D03*
X992440Y2912363D02*
D03*
X1095584Y2400005D02*
D03*
X1059473Y2184005D02*
D03*
Y2292005D02*
D03*
X1250475Y3489750D02*
D03*
X1403051Y3401951D02*
D03*
X1096959Y1997495D02*
D03*
X974416Y2237363D02*
D03*
X974416Y2327363D02*
D03*
X1077560Y2661005D02*
D03*
X1085334Y3416023D02*
D03*
X1273326Y3404630D02*
D03*
X1185681Y1901527D02*
D03*
X974416Y2705363D02*
D03*
X1581681Y1901528D02*
D03*
X1010527Y2435363D02*
D03*
X1095584Y2184005D02*
D03*
X1433092Y1968560D02*
D03*
X992440Y3146364D02*
D03*
X1010527Y3281364D02*
D03*
X1095584Y2922006D02*
D03*
X1016734Y1968062D02*
D03*
X1545681Y1901528D02*
D03*
X1077560Y2049005D02*
D03*
X1356681Y1883440D02*
D03*
X1739844Y2077795D02*
D03*
X1095584Y2454005D02*
D03*
X1042976Y3489719D02*
D03*
X1059473Y3084006D02*
D03*
Y2562005D02*
D03*
X1077560Y2679005D02*
D03*
X1311681Y1901527D02*
D03*
X1687782Y1912148D02*
D03*
X1010527Y2363363D02*
D03*
X992440Y2858363D02*
D03*
X1313476Y3471663D02*
D03*
X1638721Y1958570D02*
D03*
X1015648Y3406837D02*
D03*
X1714782Y1945310D02*
D03*
X1045461Y1903103D02*
D03*
X1499795Y3438050D02*
D03*
X1425307Y3504813D02*
D03*
X1095584Y2670005D02*
D03*
Y3246006D02*
D03*
X1199092Y1968560D02*
D03*
X1302681Y1883440D02*
D03*
X1010527Y3353364D02*
D03*
X992440Y2552363D02*
D03*
X1059473Y2508005D02*
D03*
X1077560Y2337005D02*
D03*
X1095584Y2436005D02*
D03*
X1617678Y1901879D02*
D03*
X1059473Y3282006D02*
D03*
X992440Y2948363D02*
D03*
X974416Y2417363D02*
D03*
X1059473Y2958006D02*
D03*
X1077560Y2301005D02*
D03*
X1491128Y3472032D02*
D03*
X1465265Y3383101D02*
D03*
X1077560Y2553005D02*
D03*
X1602545Y2081709D02*
D03*
X1077560Y3057006D02*
D03*
X992440Y3218364D02*
D03*
X1010527Y2921363D02*
D03*
X1059473Y2994006D02*
D03*
X992440Y2606363D02*
D03*
X1113681Y1865416D02*
D03*
X1205475Y3471663D02*
D03*
X1406092Y1950473D02*
D03*
X1010527Y2507363D02*
D03*
X1077560Y3075006D02*
D03*
X1095584Y3048006D02*
D03*
X992440Y2984363D02*
D03*
X1708609Y2049276D02*
D03*
X1120326Y3422804D02*
D03*
X1010527Y3371364D02*
D03*
X1095584Y2238005D02*
D03*
X1077560Y3255006D02*
D03*
X992440Y3164363D02*
D03*
X974416Y3335363D02*
D03*
X1059473Y2688005D02*
D03*
X1683666Y2116167D02*
D03*
X1059473Y2238005D02*
D03*
X1077560Y2391005D02*
D03*
X1338681Y1883440D02*
D03*
X1151475Y3471663D02*
D03*
X974416Y3371364D02*
D03*
X1077560Y2193005D02*
D03*
X992440Y2642363D02*
D03*
X1095584Y2130005D02*
D03*
X1077560Y3021006D02*
D03*
X974416Y2147363D02*
D03*
X1235092Y1968560D02*
D03*
X1244092Y1950473D02*
D03*
X1010527Y2255363D02*
D03*
X1724525Y2062455D02*
D03*
X1059473Y2364005D02*
D03*
X1690909Y1891300D02*
D03*
X1358476Y3489750D02*
D03*
X1059473Y3174006D02*
D03*
X1743745Y1974034D02*
D03*
X1095584Y2220005D02*
D03*
X1077560Y3111006D02*
D03*
X1433628Y3483865D02*
D03*
X1077560Y3165006D02*
D03*
X1590858Y1883442D02*
D03*
X992440Y2354363D02*
D03*
Y2264363D02*
D03*
X1010527Y2759363D02*
D03*
X1077560Y2571005D02*
D03*
X1505092Y1968560D02*
D03*
X1733101Y2098595D02*
D03*
X1486211Y3450749D02*
D03*
X1077560Y2715005D02*
D03*
X974416Y2183363D02*
D03*
X1059473Y3300006D02*
D03*
X992440Y2714363D02*
D03*
X1010527Y3101364D02*
D03*
X1246326Y3386606D02*
D03*
X1383681Y1865416D02*
D03*
X1010527Y3209363D02*
D03*
X1077560Y3353475D02*
D03*
X1095584Y3264006D02*
D03*
Y3120006D02*
D03*
X1176681Y1883440D02*
D03*
X1349476Y3471663D02*
D03*
X1077560Y2427005D02*
D03*
X1725550Y1927058D02*
D03*
X992440Y3236364D02*
D03*
X974416Y2201363D02*
D03*
X1174325Y3422718D02*
D03*
X974416Y2723363D02*
D03*
X1228326Y3386606D02*
D03*
X1438542Y3463565D02*
D03*
X1095584Y3282006D02*
D03*
X992440Y3110363D02*
D03*
X974416Y2579363D02*
D03*
X1062135Y1986203D02*
D03*
X1095584Y2976006D02*
D03*
X1149681Y1865416D02*
D03*
X1230681Y1883440D02*
D03*
X1077560Y3327006D02*
D03*
X994396Y1931386D02*
D03*
X1487092Y1968560D02*
D03*
X1693879Y1944407D02*
D03*
X974416Y2777363D02*
D03*
X974416Y2471363D02*
D03*
X1047448Y3449619D02*
D03*
X1095175Y3398428D02*
D03*
X1192326Y3422718D02*
D03*
X1077560Y2265005D02*
D03*
X974416Y3029363D02*
D03*
X1046938Y1923934D02*
D03*
X1083318Y1957664D02*
D03*
X1095584Y2418005D02*
D03*
X1208092Y1950473D02*
D03*
X1647231Y1870683D02*
D03*
X974416Y3119363D02*
D03*
X1095584Y2076005D02*
D03*
X974416Y2399363D02*
D03*
X1453408Y3476008D02*
D03*
X1077560Y2841006D02*
D03*
X1059473Y2328005D02*
D03*
X1652450Y1910693D02*
D03*
X1010527Y3317364D02*
D03*
X1304476Y3489750D02*
D03*
X992440Y2120363D02*
D03*
Y2282363D02*
D03*
X1010527Y2129363D02*
D03*
X1077560Y2283005D02*
D03*
X992440Y2246363D02*
D03*
Y2372363D02*
D03*
X1424092Y1950473D02*
D03*
X1059473Y2040005D02*
D03*
X1253092Y1968560D02*
D03*
X992440Y2624363D02*
D03*
Y3362364D02*
D03*
Y2030363D02*
D03*
X995707Y3400662D02*
D03*
X1095584Y3318006D02*
D03*
X974416Y2273363D02*
D03*
X1408302Y3421529D02*
D03*
X1010527Y3065363D02*
D03*
Y2309363D02*
D03*
X1059473Y3066006D02*
D03*
X974416Y2921363D02*
D03*
X974416Y3191364D02*
D03*
X1010527Y2345363D02*
D03*
X1077560Y2175005D02*
D03*
X1059473Y2940005D02*
D03*
X1010527Y2831363D02*
D03*
X1266681Y1883440D02*
D03*
X1210326Y3386606D02*
D03*
X1095584Y2814005D02*
D03*
X1010527Y2471363D02*
D03*
X974416Y3047363D02*
D03*
X1309326Y3404630D02*
D03*
X1421356Y3468918D02*
D03*
X1059473Y2544005D02*
D03*
X1455681Y1901528D02*
D03*
X1271092Y1968560D02*
D03*
X1095584Y3066006D02*
D03*
X1291326Y3404630D02*
D03*
X1241476Y3471663D02*
D03*
X1010527Y2489363D02*
D03*
X1064253Y1892882D02*
D03*
X1059473Y2472005D02*
D03*
X1010527Y3299364D02*
D03*
X1437681Y1865416D02*
D03*
X1059473Y2490005D02*
D03*
X1336326Y3422718D02*
D03*
X1077560Y2589005D02*
D03*
X1660414Y2040713D02*
D03*
X1154091Y1950473D02*
D03*
X974416Y2957363D02*
D03*
X1390000Y3391000D02*
D03*
X1293681Y1865416D02*
D03*
X1094047Y1866278D02*
D03*
X1183326Y3404630D02*
D03*
X1065136Y3499651D02*
D03*
X1692805Y2100659D02*
D03*
X1059473Y2382005D02*
D03*
X1325092Y1968560D02*
D03*
X1077560Y2877006D02*
D03*
X1095584Y2778005D02*
D03*
X977146Y1975862D02*
D03*
X1010527Y2615363D02*
D03*
X1059473Y2256005D02*
D03*
X992440Y2678363D02*
D03*
X1181092Y1968560D02*
D03*
X1070885Y3405290D02*
D03*
X1059473Y3192006D02*
D03*
X1010527Y2705363D02*
D03*
X1077560Y2247005D02*
D03*
X1095584Y2148005D02*
D03*
X1334092Y1950473D02*
D03*
X1010527Y2381363D02*
D03*
X1313475Y3507774D02*
D03*
X1095584Y2688005D02*
D03*
X1712483Y2100616D02*
D03*
X1059473Y2598005D02*
D03*
X1034377Y1936826D02*
D03*
X1077560Y3219006D02*
D03*
X1473681Y1865416D02*
D03*
X1392681Y1883440D02*
D03*
X1214475Y3489750D02*
D03*
X1527681Y1901528D02*
D03*
X974416Y2939363D02*
D03*
X1095584Y2256005D02*
D03*
X974416Y2633363D02*
D03*
X1077560Y2859005D02*
D03*
X1203681Y1901527D02*
D03*
X1024248Y1951706D02*
D03*
X1010527Y2633363D02*
D03*
X992440Y3092363D02*
D03*
X1095584Y2508005D02*
D03*
X1010527Y2093363D02*
D03*
X1446681Y1883440D02*
D03*
X974416Y2381363D02*
D03*
X1010527Y2201363D02*
D03*
Y2795363D02*
D03*
X1460092Y1950473D02*
D03*
X1077560Y2895005D02*
D03*
X992440Y3326364D02*
D03*
X1095700Y1902351D02*
D03*
X1320681Y1883440D02*
D03*
X992440Y3182363D02*
D03*
X1329681Y1865416D02*
D03*
X1077560Y2463005D02*
D03*
X1059473Y2310005D02*
D03*
X1702863Y1927347D02*
D03*
X992440Y2588363D02*
D03*
X1449281Y3498043D02*
D03*
X992440Y2498363D02*
D03*
X1059473Y3264006D02*
D03*
X1657070Y2058400D02*
D03*
X1331476Y3471663D02*
D03*
X1059473Y2904005D02*
D03*
X1722811Y1965310D02*
D03*
X974416Y3173364D02*
D03*
X1077560Y3129006D02*
D03*
X1078569Y2006932D02*
D03*
X992440Y2192363D02*
D03*
X1010527Y3155363D02*
D03*
X992440Y2876363D02*
D03*
X1011970Y1985420D02*
D03*
X1010527Y2273363D02*
D03*
X1284681Y1883440D02*
D03*
X1744137Y2055736D02*
D03*
X974416Y2111362D02*
D03*
X1212681Y1883440D02*
D03*
X974416Y2525363D02*
D03*
X1059473Y3354006D02*
D03*
X992893Y3380797D02*
D03*
X1095584Y2832006D02*
D03*
X974416Y2507363D02*
D03*
X1318326Y3422718D02*
D03*
X1010527Y2777363D02*
D03*
Y2885363D02*
D03*
X1196475Y3489750D02*
D03*
X1095584Y2958006D02*
D03*
X974416Y2885363D02*
D03*
X1059473Y2724005D02*
D03*
X992440Y2336363D02*
D03*
X1095584Y2310005D02*
D03*
X1086435Y1982529D02*
D03*
X2640000Y3012000D02*
D03*
X2590000D02*
D03*
X1443975Y2297483D02*
D03*
X1479622Y2301030D02*
D03*
X1468970Y2352457D02*
D03*
X1442741Y2228309D02*
D03*
X1359556Y2382025D02*
D03*
X1397444Y2384935D02*
D03*
X1435412Y2383378D02*
D03*
X1646727Y2323685D02*
D03*
X1663907Y2289791D02*
D03*
X1267063Y2212147D02*
D03*
X1240193Y2239017D02*
D03*
X1225965Y2274253D02*
D03*
X1252022Y2453912D02*
D03*
X1287535Y2467435D02*
D03*
X1617555Y2564804D02*
D03*
X1443790Y2503291D02*
D03*
X1408059Y2490356D02*
D03*
X1378865Y2466031D02*
D03*
X1371502Y2503311D02*
D03*
X1337748Y2520765D02*
D03*
X1299748D02*
D03*
X1261748D02*
D03*
X1227336Y2504646D02*
D03*
X1200466Y2477776D02*
D03*
X1174942Y2449624D02*
D03*
X1172635Y2411694D02*
D03*
Y2373694D02*
D03*
Y2335694D02*
D03*
Y2297694D02*
D03*
Y2259694D02*
D03*
X1181134Y2222656D02*
D03*
X1208004Y2195786D02*
D03*
X1234874Y2168916D02*
D03*
X1265396Y2146280D02*
D03*
X1303394Y2145935D02*
D03*
X1341394D02*
D03*
X1368790Y2119601D02*
D03*
X1395358Y2092432D02*
D03*
X1429394Y2075535D02*
D03*
X1467133Y2071084D02*
D03*
X1501424Y2054709D02*
D03*
X1539424D02*
D03*
X1574544Y2069219D02*
D03*
X1727731Y2128951D02*
D03*
X1765730D02*
D03*
X1797475Y2149838D02*
D03*
X1791283Y2224941D02*
D03*
X1769440Y2277730D02*
D03*
X1805546Y2289579D02*
D03*
X1837599Y2309989D02*
D03*
X1852315Y2345024D02*
D03*
Y2383024D02*
D03*
Y2421024D02*
D03*
X1852565Y2459023D02*
D03*
X1843972Y2496038D02*
D03*
X1813604Y2518881D02*
D03*
X1775605Y2519265D02*
D03*
X1741896Y2536806D02*
D03*
X1668000Y2665000D02*
D03*
X1618000D02*
D03*
X1818000D02*
D03*
X1768000D02*
D03*
X1718000D02*
D03*
X1684000Y2794000D02*
D03*
X1634000D02*
D03*
X1834000D02*
D03*
X1784000D02*
D03*
X1734000D02*
D03*
X1746000Y2703000D02*
D03*
X1796000D02*
D03*
X1846000D02*
D03*
X1646000D02*
D03*
X1696000D02*
D03*
X1716000Y2746000D02*
D03*
X1766000D02*
D03*
X1816000D02*
D03*
X1666000D02*
D03*
X1232000D02*
D03*
X1382000D02*
D03*
X1332000D02*
D03*
X1282000D02*
D03*
X1262000Y2703000D02*
D03*
X1212000D02*
D03*
X1412000D02*
D03*
X1362000D02*
D03*
X1312000D02*
D03*
X1300000Y2794000D02*
D03*
X1350000D02*
D03*
X1400000D02*
D03*
X1200000D02*
D03*
X1250000D02*
D03*
X1284000Y2665000D02*
D03*
X1334000D02*
D03*
X1384000D02*
D03*
X1184000D02*
D03*
X1234000D02*
D03*
X1831000Y2180000D02*
D03*
X1826000Y2248000D02*
D03*
X1833000Y2113000D02*
D03*
X1809000Y2006000D02*
D03*
X1787000Y2033000D02*
D03*
X1790000Y2089000D02*
D03*
X1314800Y2471600D02*
D03*
X1376000Y2362000D02*
D03*
X1319000Y2379000D02*
D03*
X1267000Y2277000D02*
D03*
X1703000Y2294000D02*
D03*
X1662000Y2307000D02*
D03*
X1517000Y2101000D02*
D03*
X1632407Y2527452D02*
D03*
X1673407Y2535452D02*
D03*
X1693407Y2522452D02*
D03*
X1670407Y2507452D02*
D03*
X1653407Y2489452D02*
D03*
X1635407Y2472452D02*
D03*
X1651407Y2539452D02*
D03*
X1498296Y2097295D02*
D03*
X1540000Y2092000D02*
D03*
X1572296Y2115295D02*
D03*
X1562296Y2161295D02*
D03*
X1538296Y2139295D02*
D03*
X1521000Y2120000D02*
D03*
X1489000Y2153000D02*
D03*
X1509000Y2181100D02*
D03*
X1476300Y2042829D02*
D03*
X1576300D02*
D03*
X1551000Y2259000D02*
D03*
X1673000Y2273000D02*
D03*
X1650000Y2375000D02*
D03*
X1529000Y2355000D02*
D03*
X1606000Y2538000D02*
D03*
X1589000D02*
D03*
X1612000Y2098000D02*
D03*
X1595000D02*
D03*
X1695000Y2177000D02*
D03*
X1666618Y2177100D02*
D03*
X1739000Y2165000D02*
D03*
X1705000Y2233000D02*
D03*
X1664000Y2230000D02*
D03*
X1689000Y2458000D02*
D03*
X1676000Y2433000D02*
D03*
X1505000Y2458000D02*
D03*
X1535000Y2453000D02*
D03*
X1463000Y2467000D02*
D03*
X1459000Y2416000D02*
D03*
X1494000Y2400000D02*
D03*
X1538000Y2401000D02*
D03*
D03*
X1800000Y2550000D02*
D03*
X1701000Y2553000D02*
D03*
X1726000Y2588000D02*
D03*
X1776000D02*
D03*
X1626000D02*
D03*
X1676000D02*
D03*
X1347000Y2576000D02*
D03*
X1397000D02*
D03*
X1247000D02*
D03*
X1297000D02*
D03*
X1373000Y2524000D02*
D03*
X1423000D02*
D03*
X1223000D02*
D03*
X1214000Y2159000D02*
D03*
X1272000Y2127000D02*
D03*
X1322000D02*
D03*
X1222000D02*
D03*
X1297000Y2087000D02*
D03*
X1347000D02*
D03*
X1197000D02*
D03*
X1247000D02*
D03*
X1324000Y2043000D02*
D03*
X1374000D02*
D03*
X1424000D02*
D03*
X1224000D02*
D03*
X1274000D02*
D03*
X1170653Y2178181D02*
D03*
Y2127182D02*
D03*
Y2490181D02*
D03*
X1140000Y2416000D02*
D03*
Y2366000D02*
D03*
Y2467000D02*
D03*
Y2518000D02*
D03*
Y2155000D02*
D03*
Y2105000D02*
D03*
Y2206000D02*
D03*
Y2257000D02*
D03*
Y2307000D02*
D03*
X1874000Y2134000D02*
D03*
Y2084000D02*
D03*
Y2185000D02*
D03*
Y2236000D02*
D03*
Y2286000D02*
D03*
Y2380000D02*
D03*
Y2330000D02*
D03*
Y2431000D02*
D03*
Y2482000D02*
D03*
Y2532000D02*
D03*
X1273000Y2626000D02*
D03*
X1223000D02*
D03*
X1423000D02*
D03*
X1373000D02*
D03*
X1323000D02*
D03*
X1651000Y2628000D02*
D03*
X1601000D02*
D03*
X1801000D02*
D03*
X1751000D02*
D03*
X1701000D02*
D03*
X1355000Y3037000D02*
D03*
X1372000Y3006000D02*
D03*
X1679000Y3039000D02*
D03*
X1657000Y3004000D02*
D03*
X1501000Y3052000D02*
D03*
X1535000Y3051000D02*
D03*
X1784000Y2932000D02*
D03*
X1772000Y2892000D02*
D03*
X1702000Y2834000D02*
D03*
X1752000D02*
D03*
X1802000D02*
D03*
X1602000D02*
D03*
X1652000D02*
D03*
X1676000Y2861000D02*
D03*
X1626000D02*
D03*
X1726000D02*
D03*
X1778000D02*
D03*
X1238000Y2945000D02*
D03*
X1238000Y2888000D02*
D03*
X1288000D02*
D03*
X1262000Y2915000D02*
D03*
X1414000Y2863000D02*
D03*
X1362000D02*
D03*
X1262000D02*
D03*
X1312000D02*
D03*
X1819000Y3018000D02*
D03*
Y2967000D02*
D03*
Y2916000D02*
D03*
X1852000Y3046000D02*
D03*
Y2995000D02*
D03*
Y2944000D02*
D03*
X1886000Y2916000D02*
D03*
Y2967000D02*
D03*
Y3018000D02*
D03*
Y3068000D02*
D03*
Y3118000D02*
D03*
X1858000Y3548000D02*
D03*
Y3498000D02*
D03*
Y3447000D02*
D03*
Y3245000D02*
D03*
Y3296000D02*
D03*
Y3346000D02*
D03*
Y3396000D02*
D03*
X1886000Y3522000D02*
D03*
Y3472000D02*
D03*
Y3422000D02*
D03*
Y3371000D02*
D03*
Y3169000D02*
D03*
Y3220000D02*
D03*
Y3270000D02*
D03*
Y3320000D02*
D03*
X1638714Y3293193D02*
D03*
X1662714Y3364193D02*
D03*
Y3314193D02*
D03*
Y3264193D02*
D03*
X1681714Y3391193D02*
D03*
Y3341193D02*
D03*
Y3291193D02*
D03*
Y3541193D02*
D03*
Y3491193D02*
D03*
Y3441193D02*
D03*
X1500000Y3508000D02*
D03*
X1515000Y3480000D02*
D03*
X1204000Y3533000D02*
D03*
X1304000D02*
D03*
X1254000D02*
D03*
X1454000D02*
D03*
X1504000D02*
D03*
X1404000D02*
D03*
X1354000D02*
D03*
X1154000D02*
D03*
X1821000Y3125000D02*
D03*
X1667000Y3128000D02*
D03*
X1480000Y3126000D02*
D03*
X1330000Y3124000D02*
D03*
X1395000Y3286000D02*
D03*
X1438000Y3307000D02*
D03*
X1362000Y3268000D02*
D03*
X1356000Y3239000D02*
D03*
X1216000Y3357000D02*
D03*
X1188000Y3320000D02*
D03*
X1181000Y3270000D02*
D03*
Y3219000D02*
D03*
Y3118000D02*
D03*
Y3168000D02*
D03*
X1129000Y3555000D02*
D03*
X1135000Y3168000D02*
D03*
Y3118000D02*
D03*
Y3068000D02*
D03*
Y3017000D02*
D03*
Y3219000D02*
D03*
X1598000Y2006000D02*
D03*
X1548000D02*
D03*
X1298000D02*
D03*
X1248000D02*
D03*
X1448000D02*
D03*
X1498000D02*
D03*
X1398000D02*
D03*
X1348000D02*
D03*
X1135000Y3270000D02*
D03*
Y3320000D02*
D03*
Y3370000D02*
D03*
X1528997Y3554774D02*
D03*
X1288000Y2836000D02*
D03*
X1238000D02*
D03*
X1438000D02*
D03*
X1388000D02*
D03*
X1338000D02*
D03*
X1329000Y3555000D02*
D03*
X1379000D02*
D03*
X1479000D02*
D03*
X1429000D02*
D03*
X1229000D02*
D03*
X1279000D02*
D03*
X1179000D02*
D03*
X2504000Y2944000D02*
D03*
Y3339000D02*
D03*
X2536916Y3394981D02*
D03*
X2536512Y3432979D02*
D03*
X2545903Y3469800D02*
D03*
X2533641Y3505767D02*
D03*
X2103294Y3214939D02*
D03*
X2126427Y3184792D02*
D03*
X2046417Y3103042D02*
D03*
X2054855Y3065990D02*
D03*
X2086249Y3044579D02*
D03*
X2124019Y3040407D02*
D03*
X2162019D02*
D03*
X2200019D02*
D03*
X2238019D02*
D03*
X2276019D02*
D03*
X2314019D02*
D03*
X2352019D02*
D03*
X2390019D02*
D03*
X2428019D02*
D03*
X2465720Y3035644D02*
D03*
X2473734Y2998498D02*
D03*
X2504000Y3027000D02*
D03*
X2223309Y3072533D02*
D03*
X2185309D02*
D03*
X2147309D02*
D03*
X2109601Y3077237D02*
D03*
X2190000Y3098000D02*
D03*
X2158553Y3123958D02*
D03*
Y3161958D02*
D03*
X2154000Y3224000D02*
D03*
X2119465Y3258200D02*
D03*
X2426495Y3500523D02*
D03*
X2388495D02*
D03*
X2350495D02*
D03*
X2312495D02*
D03*
X2274495D02*
D03*
X2236495D02*
D03*
X2198495Y3500396D02*
D03*
X2165362Y3481789D02*
D03*
X2150557Y3446792D02*
D03*
Y3408792D02*
D03*
Y3370792D02*
D03*
Y3332792D02*
D03*
Y3294792D02*
D03*
Y3256792D02*
D03*
X2188254Y3154359D02*
D03*
X2215124Y3127489D02*
D03*
X2241994Y3100619D02*
D03*
X2269707Y3074619D02*
D03*
X2537900Y2974407D02*
D03*
X2536553Y3012383D02*
D03*
X2526726Y3049090D02*
D03*
X2500596Y3076681D02*
D03*
X2466659Y3093777D02*
D03*
X2428661Y3094123D02*
D03*
X2390661D02*
D03*
X2352661D02*
D03*
X2314661D02*
D03*
X2279503Y3108543D02*
D03*
X2252633Y3135414D02*
D03*
X2225763Y3162284D02*
D03*
X2198893Y3189154D02*
D03*
X2182881Y3223616D02*
D03*
X2182683Y3261615D02*
D03*
Y3299615D02*
D03*
Y3337615D02*
D03*
Y3375615D02*
D03*
Y3413615D02*
D03*
X2182906Y3451614D02*
D03*
X2216999Y3468397D02*
D03*
X2254999D02*
D03*
X2292999D02*
D03*
X2330999D02*
D03*
X2368999D02*
D03*
X2406999D02*
D03*
X2444999D02*
D03*
X2469124Y3439037D02*
D03*
X2476170Y3401696D02*
D03*
X2505000Y3432000D02*
D03*
X2490195Y3505600D02*
D03*
X1588000Y3310000D02*
D03*
X1530615Y3248177D02*
D03*
X1523817Y3259857D02*
D03*
X1537413Y3236496D02*
D03*
X1547539Y3219526D02*
D03*
X1561901Y3201456D02*
D03*
X1579937Y3193390D02*
D03*
X1619403Y3221194D02*
D03*
X1629783Y3233297D02*
D03*
X1626467Y3251349D02*
D03*
X1617675Y3267865D02*
D03*
X1608587Y3283403D02*
D03*
X1599494Y3298951D02*
D03*
X1530408Y3284530D02*
D03*
X1548482Y3253397D02*
D03*
X1557570Y3237859D02*
D03*
X1566657Y3222321D02*
D03*
X1578596Y3208850D02*
D03*
X1614420Y3234750D02*
D03*
X1606606Y3250965D02*
D03*
X1597518Y3266503D02*
D03*
X1588431Y3282040D02*
D03*
X1579343Y3297578D02*
D03*
X1570235Y3313104D02*
D03*
X1477000Y3373000D02*
D03*
X1449711Y3323494D02*
D03*
X1428374Y3295629D02*
D03*
X1419374Y3280041D02*
D03*
X1409702Y3263011D02*
D03*
X1400934Y3241825D02*
D03*
X1402386Y3222164D02*
D03*
X1445526Y3200504D02*
D03*
X1475473Y3208783D02*
D03*
X1485671Y3224634D02*
D03*
X1494682Y3240240D02*
D03*
X1457539Y3309967D02*
D03*
X1448538Y3294379D02*
D03*
X1439538Y3278791D02*
D03*
X1430537Y3263203D02*
D03*
X1421536Y3247615D02*
D03*
X1415405Y3230691D02*
D03*
X1455053Y3211231D02*
D03*
X1465507Y3225884D02*
D03*
X1474508Y3241472D02*
D03*
X1483508Y3257060D02*
D03*
X1373000Y3390000D02*
D03*
X1292000Y3375000D02*
D03*
X1269022Y3364818D02*
D03*
X1255816Y3348979D02*
D03*
X1245178Y3331489D02*
D03*
X1237062Y3312604D02*
D03*
X1231747Y3292825D02*
D03*
X1229243Y3273252D02*
D03*
X1228652Y3254517D02*
D03*
X1229495Y3233110D02*
D03*
X1234161Y3211720D02*
D03*
X1245963Y3197748D02*
D03*
X1297986Y3198833D02*
D03*
X1309433Y3215970D02*
D03*
X1313603Y3236689D02*
D03*
X1314502Y3261873D02*
D03*
X1320156Y3288723D02*
D03*
X1336493Y3301418D02*
D03*
X1356930Y3303510D02*
D03*
X1375841Y3304058D02*
D03*
X1396484Y3305947D02*
D03*
X1417435Y3311268D02*
D03*
X1436804Y3320764D02*
D03*
X1468012Y3357199D02*
D03*
X1394862Y3373725D02*
D03*
X1377059Y3371072D02*
D03*
X1359064Y3370617D02*
D03*
X1341070Y3370163D02*
D03*
X1323076Y3369709D02*
D03*
X1305199Y3367608D02*
D03*
X1289117Y3359523D02*
D03*
X1276413Y3346771D02*
D03*
X1265887Y3332169D02*
D03*
X1257486Y3316250D02*
D03*
X1251398Y3299311D02*
D03*
X1247886Y3281657D02*
D03*
X1246738Y3263694D02*
D03*
Y3245693D02*
D03*
X1247089Y3227697D02*
D03*
X1288646Y3211153D02*
D03*
X1295352Y3227857D02*
D03*
X1295683Y3245854D02*
D03*
Y3263854D02*
D03*
X1297440Y3281768D02*
D03*
X1303290Y3298791D02*
D03*
X1312810Y3314068D02*
D03*
X1329459Y3320909D02*
D03*
X1347453Y3321364D02*
D03*
X1365447Y3321818D02*
D03*
X1383440Y3322319D02*
D03*
X1401295Y3324599D02*
D03*
X1418296Y3330512D02*
D03*
X1433714Y3339803D02*
D03*
X1446945Y3352007D02*
D03*
X1457458Y3366617D02*
D03*
X1537016Y3511963D02*
D03*
X1537016Y3493963D02*
D03*
X1537016Y3475963D02*
D03*
X1536788Y3442379D02*
D03*
X1547000Y3407000D02*
D03*
X1498663Y3259734D02*
D03*
X1513000Y3247000D02*
D03*
X1618745Y3319163D02*
D03*
X1629970Y3337577D02*
D03*
X1639229Y3356761D02*
D03*
X1646653Y3376563D02*
D03*
X1652348Y3397068D02*
D03*
X1656185Y3418310D02*
D03*
X1657892Y3438821D02*
D03*
X1658184Y3457395D02*
D03*
X1658184Y3475396D02*
D03*
X1658184Y3493395D02*
D03*
X1658184Y3511395D02*
D03*
X1555040Y3502963D02*
D03*
Y3484963D02*
D03*
X1554919Y3458568D02*
D03*
X1551980Y3425592D02*
D03*
X1541000Y3386000D02*
D03*
X1502731Y3283730D02*
D03*
X1516014Y3275483D02*
D03*
X1597591Y3320816D02*
D03*
X1608613Y3337098D02*
D03*
X1618093Y3354362D02*
D03*
X1625857Y3372353D02*
D03*
X1631979Y3390963D02*
D03*
X1636434Y3410152D02*
D03*
X1639050Y3429497D02*
D03*
X1640015Y3448252D02*
D03*
X1640160Y3466395D02*
D03*
Y3484395D02*
D03*
Y3502395D02*
D03*
X1573189Y3547963D02*
D03*
X1573127Y3529963D02*
D03*
Y3511963D02*
D03*
Y3493963D02*
D03*
Y3475963D02*
D03*
Y3457963D02*
D03*
X1572869Y3439965D02*
D03*
X1570728Y3422092D02*
D03*
X1566462Y3404605D02*
D03*
X1560012Y3387800D02*
D03*
X1551689Y3371840D02*
D03*
X1541323Y3357125D02*
D03*
X1516505Y3291129D02*
D03*
X1577274Y3323805D02*
D03*
X1588066Y3338211D02*
D03*
X1597560Y3353503D02*
D03*
X1605499Y3369658D02*
D03*
X1611928Y3386471D02*
D03*
X1616866Y3403780D02*
D03*
X1620212Y3421466D02*
D03*
X1621785Y3439398D02*
D03*
X1622072Y3457395D02*
D03*
Y3475396D02*
D03*
Y3493395D02*
D03*
Y3511395D02*
D03*
Y3529395D02*
D03*
X1621961Y3547395D02*
D03*
X1704656Y3502696D02*
D03*
X1704656Y3484696D02*
D03*
X1704656Y3466696D02*
D03*
X1704656Y3448696D02*
D03*
X1704656Y3430696D02*
D03*
X1704656Y3412696D02*
D03*
X1704656Y3394696D02*
D03*
X1704656Y3376696D02*
D03*
X1704656Y3358696D02*
D03*
X1704656Y3340696D02*
D03*
X1704656Y3322696D02*
D03*
X1704656Y3304696D02*
D03*
X1704656Y3286696D02*
D03*
X1704656Y3268696D02*
D03*
X1704656Y3250696D02*
D03*
X1705806Y3223655D02*
D03*
X1710397Y3205907D02*
D03*
X1720385Y3189258D02*
D03*
X1737782Y3179944D02*
D03*
X1824357Y3220712D02*
D03*
X1825824Y3241395D02*
D03*
X1825824Y3259395D02*
D03*
X1825824Y3277395D02*
D03*
X1825824Y3295395D02*
D03*
X1825824Y3313395D02*
D03*
X1825824Y3331395D02*
D03*
X1825824Y3349395D02*
D03*
X1825824Y3367395D02*
D03*
X1825824Y3385395D02*
D03*
X1825824Y3403395D02*
D03*
X1825824Y3421395D02*
D03*
X1825824Y3439395D02*
D03*
X1825824Y3457395D02*
D03*
X1825824Y3475395D02*
D03*
X1825824Y3493395D02*
D03*
X1825824Y3511395D02*
D03*
X1722680Y3493696D02*
D03*
Y3475696D02*
D03*
Y3457696D02*
D03*
Y3439696D02*
D03*
Y3421696D02*
D03*
Y3403696D02*
D03*
Y3385696D02*
D03*
Y3367696D02*
D03*
Y3349696D02*
D03*
Y3331696D02*
D03*
Y3313696D02*
D03*
Y3295696D02*
D03*
Y3277696D02*
D03*
Y3259696D02*
D03*
X1722968Y3239432D02*
D03*
X1725707Y3218915D02*
D03*
X1734839Y3203619D02*
D03*
X1800316Y3210349D02*
D03*
X1807092Y3231736D02*
D03*
X1807799Y3250395D02*
D03*
Y3268395D02*
D03*
Y3286395D02*
D03*
Y3304395D02*
D03*
Y3322395D02*
D03*
Y3340395D02*
D03*
Y3358395D02*
D03*
Y3376395D02*
D03*
Y3394395D02*
D03*
Y3412395D02*
D03*
Y3430395D02*
D03*
Y3448395D02*
D03*
Y3466395D02*
D03*
Y3484395D02*
D03*
Y3502395D02*
D03*
X1740854Y3556696D02*
D03*
Y3538696D02*
D03*
X1740767Y3520696D02*
D03*
Y3502696D02*
D03*
Y3484696D02*
D03*
Y3466696D02*
D03*
Y3448696D02*
D03*
Y3430696D02*
D03*
Y3412696D02*
D03*
Y3394696D02*
D03*
Y3376696D02*
D03*
Y3358696D02*
D03*
Y3340696D02*
D03*
Y3322696D02*
D03*
Y3304696D02*
D03*
Y3286696D02*
D03*
Y3268696D02*
D03*
Y3250696D02*
D03*
Y3232696D02*
D03*
X1745274Y3215269D02*
D03*
X1788349Y3223447D02*
D03*
X1789712Y3241395D02*
D03*
Y3259395D02*
D03*
Y3277395D02*
D03*
Y3295395D02*
D03*
Y3313395D02*
D03*
Y3331395D02*
D03*
Y3349395D02*
D03*
Y3367395D02*
D03*
Y3385395D02*
D03*
Y3403395D02*
D03*
Y3421395D02*
D03*
Y3439395D02*
D03*
Y3457395D02*
D03*
Y3475395D02*
D03*
Y3493395D02*
D03*
Y3511395D02*
D03*
Y3529395D02*
D03*
X1789626Y3547395D02*
D03*
X1572524Y2359816D02*
D03*
X1512834Y2352457D02*
D03*
X1494834D02*
D03*
X1437747Y2353482D02*
D03*
X1413689Y2348518D02*
D03*
X1436936Y2279398D02*
D03*
X1463580Y2281347D02*
D03*
X1488622Y2282943D02*
D03*
X1506622D02*
D03*
X1524622D02*
D03*
X1542622D02*
D03*
X1561000Y2279000D02*
D03*
X1637304Y2280570D02*
D03*
X1631738Y2305122D02*
D03*
X1575788Y2335663D02*
D03*
X1557834Y2334370D02*
D03*
X1539834D02*
D03*
X1521834D02*
D03*
X1503834D02*
D03*
X1485834D02*
D03*
X1467834D02*
D03*
X1449834D02*
D03*
X1432393Y2338821D02*
D03*
X1425978Y2297130D02*
D03*
X1461622Y2301030D02*
D03*
X1497622D02*
D03*
X1515622D02*
D03*
X1533622D02*
D03*
X1551622D02*
D03*
X1569622D02*
D03*
X1583832Y2289982D02*
D03*
X1583040Y2272000D02*
D03*
X1622000Y2332000D02*
D03*
X1617555Y2277535D02*
D03*
X1616821Y2295520D02*
D03*
X1609728Y2312063D02*
D03*
X1620541Y2364937D02*
D03*
X1574713Y3102915D02*
D03*
X1567065Y3082755D02*
D03*
X1561820Y3059332D02*
D03*
X1548203Y3032796D02*
D03*
X1533000Y3013000D02*
D03*
X1515937Y2971311D02*
D03*
X1567321Y2955277D02*
D03*
X1601000Y2966000D02*
D03*
X1613977Y2977122D02*
D03*
X1625804Y2993516D02*
D03*
X1635477Y3011183D02*
D03*
X1642946Y3029934D02*
D03*
X1648075Y3049456D02*
D03*
X1650728Y3068292D02*
D03*
X1585822Y3088906D02*
D03*
X1583993Y3070999D02*
D03*
X1577000Y3047000D02*
D03*
X1569000Y3031000D02*
D03*
X1559000Y3016000D02*
D03*
X1547000Y3002000D02*
D03*
X1534000Y2989000D02*
D03*
X1517000Y3028000D02*
D03*
X1581039Y2968030D02*
D03*
X1593657Y2980868D02*
D03*
X1605166Y2994708D02*
D03*
X1614885Y3009858D02*
D03*
X1622615Y3026114D02*
D03*
X1628424Y3043151D02*
D03*
X1631967Y3060799D02*
D03*
X1633436Y3078739D02*
D03*
X1380696Y3056377D02*
D03*
X1385022Y3036597D02*
D03*
X1391816Y3017489D02*
D03*
X1400994Y2999443D02*
D03*
X1412286Y2982791D02*
D03*
X1517000Y2992000D02*
D03*
X1500006Y3013153D02*
D03*
X1483000Y3035000D02*
D03*
X1465586Y3061039D02*
D03*
X1397000Y3108000D02*
D03*
X1397690Y3086992D02*
D03*
X1397039Y3069004D02*
D03*
X1399686Y3051200D02*
D03*
X1404453Y3033842D02*
D03*
X1411477Y3017270D02*
D03*
X1420509Y3001700D02*
D03*
X1431463Y2987417D02*
D03*
X1469576Y2949170D02*
D03*
X1499716Y2987863D02*
D03*
X1486988Y3000591D02*
D03*
X1474260Y3013319D02*
D03*
X1462470Y3026920D02*
D03*
X1453572Y3042567D02*
D03*
X1447895Y3059648D02*
D03*
X1540793Y2892558D02*
D03*
X1744025Y3120251D02*
D03*
X1729551Y3104382D02*
D03*
X1721302Y3076151D02*
D03*
X1713824Y3045025D02*
D03*
X1699209Y3017435D02*
D03*
X1678691Y2993688D02*
D03*
X1654464Y2978061D02*
D03*
X1632000Y2972000D02*
D03*
X1578151Y2887740D02*
D03*
X1596151D02*
D03*
X1614256Y2887741D02*
D03*
X1633299Y2887906D02*
D03*
X1653491Y2889362D02*
D03*
X1673728Y2893456D02*
D03*
X1693078Y2900494D02*
D03*
X1711143Y2910264D02*
D03*
X1727260Y2922127D02*
D03*
X1741396Y2935202D02*
D03*
X1754602Y2949294D02*
D03*
X1766916Y2964553D02*
D03*
X1777866Y2980971D02*
D03*
X1787168Y2998343D02*
D03*
X1794731Y3016438D02*
D03*
X1800649Y3035237D02*
D03*
X1804748Y3054508D02*
D03*
X1806948Y3073752D02*
D03*
X1741287Y3091241D02*
D03*
X1739943Y3073291D02*
D03*
X1736995Y3055534D02*
D03*
X1731667Y3038340D02*
D03*
X1724335Y3021902D02*
D03*
X1714943Y3006546D02*
D03*
X1703671Y2992513D02*
D03*
X1691080Y2979649D02*
D03*
X1677529Y2967801D02*
D03*
X1661560Y2959494D02*
D03*
X1644069Y2955247D02*
D03*
X1626075Y2954773D02*
D03*
X1608075D02*
D03*
X1590075D02*
D03*
X1551200Y2907159D02*
D03*
X1569151Y2905828D02*
D03*
X1587151D02*
D03*
X1605151D02*
D03*
X1623151D02*
D03*
X1641150Y2906037D02*
D03*
X1659030Y2908114D02*
D03*
X1676407Y2912806D02*
D03*
X1692874Y2920075D02*
D03*
X1708148Y2929600D02*
D03*
X1721881Y2941236D02*
D03*
X1734601Y2953972D02*
D03*
X1746566Y2967419D02*
D03*
X1757294Y2981873D02*
D03*
X1766657Y2997247D02*
D03*
X1774389Y3013501D02*
D03*
X1780652Y3030377D02*
D03*
X1785338Y3047756D02*
D03*
X1788273Y3065515D02*
D03*
X1789572Y3083468D02*
D03*
X1241786Y3106943D02*
D03*
X1231819Y3088979D02*
D03*
X1229353Y3067346D02*
D03*
X1231502Y3047814D02*
D03*
X1235471Y3028473D02*
D03*
X1241281Y3009668D02*
D03*
X1248825Y2991533D02*
D03*
X1258061Y2974081D02*
D03*
X1268916Y2957654D02*
D03*
X1281207Y2942411D02*
D03*
X1295118Y2928072D02*
D03*
X1310793Y2915161D02*
D03*
X1328129Y2904359D02*
D03*
X1346799Y2895998D02*
D03*
X1366387Y2890329D02*
D03*
X1386107Y2887334D02*
D03*
X1404850Y2886499D02*
D03*
X1422879Y2886470D02*
D03*
X1440879Y2886470D02*
D03*
X1460007Y2886541D02*
D03*
X1446810Y2971590D02*
D03*
X1420123D02*
D03*
X1387979Y2974058D02*
D03*
X1361729Y2984791D02*
D03*
X1340365Y3005443D02*
D03*
X1324653Y3032217D02*
D03*
X1313526Y3059967D02*
D03*
X1252172Y3095404D02*
D03*
X1246774Y3078232D02*
D03*
X1247871Y3060266D02*
D03*
X1250561Y3042468D02*
D03*
X1254941Y3025009D02*
D03*
X1261041Y3008074D02*
D03*
X1268623Y2991748D02*
D03*
X1277718Y2976215D02*
D03*
X1288329Y2961675D02*
D03*
X1300191Y2948137D02*
D03*
X1313199Y2935696D02*
D03*
X1327747Y2925095D02*
D03*
X1343523Y2916429D02*
D03*
X1360394Y2910155D02*
D03*
X1377945Y2906160D02*
D03*
X1395879Y2904615D02*
D03*
X1413879Y2904557D02*
D03*
X1431879D02*
D03*
X1449879D02*
D03*
X1467879D02*
D03*
X1485738Y2906803D02*
D03*
X1455810Y2953503D02*
D03*
X1437810D02*
D03*
X1419810D02*
D03*
X1401810D02*
D03*
X1383853Y2954745D02*
D03*
X1366551Y2959709D02*
D03*
X1350812Y2968443D02*
D03*
X1337167Y2980183D02*
D03*
X1325317Y2993731D02*
D03*
X1315188Y3008611D02*
D03*
X1307045Y3024664D02*
D03*
X1301083Y3041648D02*
D03*
X1297215Y3059228D02*
D03*
X1455516Y2804852D02*
D03*
X1455516Y2786852D02*
D03*
X1455516Y2768853D02*
D03*
X1455516Y2750852D02*
D03*
X1455516Y2732852D02*
D03*
X1455516Y2714852D02*
D03*
X1455516Y2696852D02*
D03*
X1455516Y2678852D02*
D03*
X1455516Y2660852D02*
D03*
X1456082Y2583471D02*
D03*
X1459581Y2561748D02*
D03*
X1465625Y2540145D02*
D03*
X1473989Y2519971D02*
D03*
X1484806Y2500285D02*
D03*
X1595047Y2553022D02*
D03*
X1584662Y2569627D02*
D03*
X1577214Y2591728D02*
D03*
X1576684Y2658558D02*
D03*
X1576684Y2676558D02*
D03*
X1576684Y2694558D02*
D03*
X1576684Y2712558D02*
D03*
X1576684Y2730558D02*
D03*
X1576684Y2748558D02*
D03*
X1576684Y2766558D02*
D03*
Y2802425D02*
D03*
X1473760Y2876906D02*
D03*
X1473540Y2795852D02*
D03*
Y2777852D02*
D03*
Y2759852D02*
D03*
Y2741852D02*
D03*
Y2723852D02*
D03*
Y2705852D02*
D03*
Y2687852D02*
D03*
Y2669852D02*
D03*
Y2651852D02*
D03*
X1475450Y2576275D02*
D03*
X1479667Y2556642D02*
D03*
X1486115Y2537673D02*
D03*
X1494715Y2519562D02*
D03*
X1573893Y2552855D02*
D03*
X1563997Y2575133D02*
D03*
X1558660Y2649558D02*
D03*
Y2667558D02*
D03*
Y2685558D02*
D03*
Y2703558D02*
D03*
Y2721558D02*
D03*
Y2739558D02*
D03*
Y2757558D02*
D03*
X1558660Y2784525D02*
D03*
X1558795Y2884792D02*
D03*
X1491848Y2894851D02*
D03*
Y2876851D02*
D03*
Y2858851D02*
D03*
X1491628Y2840852D02*
D03*
Y2822852D02*
D03*
Y2804852D02*
D03*
Y2786852D02*
D03*
Y2768853D02*
D03*
Y2750852D02*
D03*
Y2732852D02*
D03*
Y2714852D02*
D03*
Y2696852D02*
D03*
Y2678852D02*
D03*
Y2660852D02*
D03*
Y2642852D02*
D03*
Y2624852D02*
D03*
X1491714Y2606852D02*
D03*
X1491790Y2588853D02*
D03*
X1494472Y2571053D02*
D03*
X1499111Y2553661D02*
D03*
X1505848Y2536970D02*
D03*
X1514322Y2521089D02*
D03*
X1524692Y2506377D02*
D03*
X1536550Y2492834D02*
D03*
X1552828Y2485151D02*
D03*
X1562468Y2537445D02*
D03*
X1552695Y2552561D02*
D03*
X1545572Y2569091D02*
D03*
X1541298Y2586577D02*
D03*
X1540486Y2604558D02*
D03*
X1540573Y2622558D02*
D03*
Y2640558D02*
D03*
Y2658558D02*
D03*
Y2676558D02*
D03*
Y2694558D02*
D03*
Y2712558D02*
D03*
Y2730558D02*
D03*
Y2748558D02*
D03*
Y2766558D02*
D03*
Y2784558D02*
D03*
Y2802558D02*
D03*
X1540706Y2820558D02*
D03*
Y2838558D02*
D03*
X1540793Y2856558D02*
D03*
Y2874558D02*
D03*
X2612656Y2075732D02*
D03*
X2607000Y2058000D02*
D03*
X2580182Y2056600D02*
D03*
X2567547Y2025880D02*
D03*
X2566416Y2005770D02*
D03*
X2566416Y1987770D02*
D03*
X2566416Y1969770D02*
D03*
X2566416Y1951770D02*
D03*
X2566416Y1933770D02*
D03*
X2566416Y1915770D02*
D03*
X2566416Y1897770D02*
D03*
X2566416Y1879770D02*
D03*
X2566416Y1861770D02*
D03*
X2566416Y1843770D02*
D03*
X2566416Y1825770D02*
D03*
X2687584Y1828957D02*
D03*
X2687584Y1846957D02*
D03*
X2687584Y1864957D02*
D03*
X2687584Y1882957D02*
D03*
X2687584Y1900957D02*
D03*
X2687584Y1918957D02*
D03*
X2687584Y1936957D02*
D03*
X2687584Y1954957D02*
D03*
X2687584Y1972957D02*
D03*
X2687584Y1990957D02*
D03*
X2687325Y2013272D02*
D03*
X2685078Y2031883D02*
D03*
X2677319Y2049463D02*
D03*
X2632640Y2056929D02*
D03*
X2661051Y2060982D02*
D03*
X2642000Y2074000D02*
D03*
X2590815Y2036469D02*
D03*
X2584990Y2015291D02*
D03*
X2584440Y1996770D02*
D03*
X2584440Y1978770D02*
D03*
Y1960770D02*
D03*
Y1942770D02*
D03*
Y1924770D02*
D03*
Y1906770D02*
D03*
Y1888770D02*
D03*
Y1870770D02*
D03*
Y1852770D02*
D03*
Y1834770D02*
D03*
X2669560Y1837957D02*
D03*
Y1855957D02*
D03*
Y1873957D02*
D03*
Y1891957D02*
D03*
Y1909957D02*
D03*
Y1927957D02*
D03*
Y1945957D02*
D03*
Y1963957D02*
D03*
Y1981957D02*
D03*
X2669495Y2001038D02*
D03*
X2668220Y2020665D02*
D03*
X2661103Y2037073D02*
D03*
X2612055Y2039626D02*
D03*
X2603595Y2023738D02*
D03*
X2602527Y2005770D02*
D03*
Y1987770D02*
D03*
Y1969770D02*
D03*
Y1951770D02*
D03*
Y1933770D02*
D03*
Y1915770D02*
D03*
Y1897770D02*
D03*
Y1879770D02*
D03*
Y1861770D02*
D03*
Y1843770D02*
D03*
Y1825770D02*
D03*
Y1807770D02*
D03*
X2602614Y1789770D02*
D03*
X2603000Y1773000D02*
D03*
X2651386Y1774957D02*
D03*
Y1792957D02*
D03*
X2651472Y1810957D02*
D03*
Y1828957D02*
D03*
Y1846957D02*
D03*
Y1864957D02*
D03*
Y1882957D02*
D03*
Y1900957D02*
D03*
Y1918957D02*
D03*
Y1936957D02*
D03*
Y1954957D02*
D03*
Y1972957D02*
D03*
Y1990957D02*
D03*
Y2008957D02*
D03*
X2649322Y2026828D02*
D03*
X1445000Y3103000D02*
D03*
X1297000D02*
D03*
X1640000Y2256000D02*
D03*
X1789000Y3108000D02*
D03*
X1633000D02*
D03*
X1852947Y2895527D02*
D03*
X1853947Y2846527D02*
D03*
X1830947Y2882527D02*
D03*
X1873947Y2883528D02*
D03*
X1832400Y2858676D02*
D03*
X1873400Y2859676D02*
D03*
X1176947Y2891527D02*
D03*
X1177947Y2842527D02*
D03*
X1154947Y2878528D02*
D03*
X1197947Y2879527D02*
D03*
X1156400Y2854676D02*
D03*
X1197400Y2855676D02*
D03*
X1851947Y2619528D02*
D03*
X1852947Y2570527D02*
D03*
X1829947Y2606527D02*
D03*
X1872947Y2607527D02*
D03*
X1831400Y2582676D02*
D03*
X1872400Y2583676D02*
D03*
X1178947Y2604528D02*
D03*
X1179947Y2555527D02*
D03*
X1156947Y2591527D02*
D03*
X1199947Y2592527D02*
D03*
X1158400Y2567676D02*
D03*
X1199400Y2568676D02*
D03*
X1171947Y2067527D02*
D03*
X1172947Y2018527D02*
D03*
X1149947Y2054527D02*
D03*
X1192947Y2055527D02*
D03*
X1151400Y2030676D02*
D03*
X1192400Y2031676D02*
D03*
X1849947Y2062527D02*
D03*
X1850947Y2013527D02*
D03*
X1827947Y2049527D02*
D03*
X1870947Y2050527D02*
D03*
X1829400Y2025676D02*
D03*
X1870400Y2026676D02*
D03*
X1973947Y3534527D02*
D03*
X1974947Y3485527D02*
D03*
X1951947Y3521527D02*
D03*
X1994947Y3522527D02*
D03*
X1953400Y3497676D02*
D03*
X1994400Y3498676D02*
D03*
X2690947Y3515527D02*
D03*
X2691947Y3466527D02*
D03*
X2668947Y3502527D02*
D03*
X2711947Y3503528D02*
D03*
X2670400Y3478676D02*
D03*
X2711400Y3479676D02*
D03*
X2699947Y3034527D02*
D03*
X2700947Y2985527D02*
D03*
X2677947Y3021527D02*
D03*
X2720947Y3022527D02*
D03*
X2679400Y2997676D02*
D03*
X2720400Y2998676D02*
D03*
X2167947Y2703528D02*
D03*
X2168947Y2654527D02*
D03*
X2145947Y2690527D02*
D03*
X2188947Y2691527D02*
D03*
X2147400Y2666676D02*
D03*
X2188400Y2667676D02*
D03*
X2456947Y2568528D02*
D03*
X2457947Y2519527D02*
D03*
X2434947Y2555527D02*
D03*
X2477947Y2556527D02*
D03*
X2436400Y2531676D02*
D03*
X2477400Y2532676D02*
D03*
X1978947Y2064527D02*
D03*
X1979947Y2015527D02*
D03*
X1956947Y2051527D02*
D03*
X1999947Y2052527D02*
D03*
X1958400Y2027676D02*
D03*
X1999400Y2028676D02*
D03*
X1598000Y2482000D02*
D03*
X1642500Y2450700D02*
D03*
X1554500Y2181700D02*
D03*
X1558170Y2375830D02*
D03*
X1602900Y2149600D02*
D03*
D131*
X1592425Y2205470D02*
D03*
X1614425D02*
D03*
X1603425D02*
D03*
X1586575Y2438230D02*
D03*
X1608575Y2427230D02*
D03*
X1597575D02*
D03*
X1586575D02*
D03*
X1608575Y2438230D02*
D03*
X1597575D02*
D03*
X1608575Y2449230D02*
D03*
X1597575D02*
D03*
X1586575D02*
D03*
X1614425Y2183470D02*
D03*
X1603425D02*
D03*
X1592425D02*
D03*
X1614425Y2194470D02*
D03*
X1603425D02*
D03*
X1592425D02*
D03*
X1515000Y3329000D02*
D03*
D132*
X1852947Y2871527D02*
D03*
X1176947Y2867527D02*
D03*
X1851947Y2595527D02*
D03*
X1178947Y2580528D02*
D03*
X1171947Y2043527D02*
D03*
X1849947Y2038527D02*
D03*
X1973947Y3510527D02*
D03*
X2690947Y3491527D02*
D03*
X2699947Y3010527D02*
D03*
X2167947Y2679527D02*
D03*
X2456947Y2544527D02*
D03*
X1978947Y2040527D02*
D03*
D133*
X1730000Y2181100D02*
D03*
X1473495Y2451384D02*
D03*
X1413500Y2431060D02*
D03*
X1516100Y2381100D02*
D03*
X1688900Y2253900D02*
D03*
X1390200Y2172600D02*
D03*
X1771500Y2317500D02*
D03*
X1786300Y2204600D02*
D03*
D134*
X2454038Y2375271D02*
D03*
X2097918Y2320211D02*
D03*
X2517140Y3413340D02*
D03*
X2493010D02*
D03*
X2075180Y3069170D02*
D03*
X2517140Y3005670D02*
D03*
X2493010D02*
D03*
M02*
