G04*
G04 #@! TF.GenerationSoftware,Altium Limited,Altium Designer,24.0.1 (36)*
G04*
G04 Layer_Color=16711935*
%FSLAX44Y44*%
%MOMM*%
G71*
G04*
G04 #@! TF.SameCoordinates,B3AD537C-9D1A-4887-B287-0D13266BF09F*
G04*
G04*
G04 #@! TF.FilePolarity,Positive*
G04*
G01*
G75*
%ADD14C,0.2000*%
%ADD18C,0.1000*%
%ADD155C,0.0500*%
D14*
X1598800Y2324900D02*
Y2356900D01*
Y2324900D02*
X1619800D01*
Y2356900D01*
X1598800D02*
X1619800D01*
X1580100Y2343500D02*
Y2375500D01*
Y2343500D02*
X1601100D01*
Y2375500D01*
X1580100D02*
X1601100D01*
X1170120Y3047480D02*
X1202120D01*
X1170120D02*
X1170120Y3026480D01*
X1202120D01*
Y3047480D01*
X2063939Y2340611D02*
X2078788Y2355460D01*
X2101416Y2332832D01*
X2086567Y2317983D02*
X2101416Y2332832D01*
X2063939Y2340611D02*
X2086567Y2317983D01*
X1988358Y2559731D02*
X2009358D01*
Y2527731D02*
Y2559731D01*
X1988358Y2527731D02*
X2009358D01*
X1988358D02*
Y2559731D01*
X2125220Y3133600D02*
Y3154600D01*
X2157220D01*
Y3133600D02*
Y3154600D01*
X2125220Y3133600D02*
X2157220D01*
D18*
X2423038Y2413001D02*
Y2423001D01*
X2418038Y2418001D02*
X2428038D01*
X2423038Y2382521D02*
Y2392521D01*
X2418038Y2387521D02*
X2428038D01*
D155*
X2410038Y2396501D02*
X2436038D01*
X2410038Y2439501D02*
X2436038D01*
Y2396501D02*
Y2439501D01*
X2410038Y2396501D02*
Y2439501D01*
Y2366021D02*
X2436038D01*
X2410038Y2409021D02*
X2436038D01*
Y2366021D02*
Y2409021D01*
X2410038Y2366021D02*
Y2409021D01*
M02*
