G04*
G04 #@! TF.GenerationSoftware,Altium Limited,Altium Designer,24.0.1 (36)*
G04*
G04 Layer_Color=0*
%FSLAX44Y44*%
%MOMM*%
G71*
G04*
G04 #@! TF.SameCoordinates,B3AD537C-9D1A-4887-B287-0D13266BF09F*
G04*
G04*
G04 #@! TF.FilePolarity,Positive*
G04*
G01*
G75*
%ADD18C,0.1000*%
D18*
X1107634Y3442190D02*
Y3452190D01*
X1102634Y3447190D02*
X1112634D01*
X2622000Y1761000D02*
X2632000D01*
X2627000Y1756000D02*
Y1766000D01*
X2623000Y2243000D02*
X2633000D01*
X2628000Y2238000D02*
Y2248000D01*
X1293000Y2381000D02*
X1303000D01*
X1298000Y2376000D02*
Y2386000D01*
X1369000Y2396400D02*
Y2406400D01*
X1364000Y2401400D02*
X1374000D01*
X1680000Y1984134D02*
X1690000D01*
X1685000Y1979134D02*
Y1989134D01*
X1323000Y2361400D02*
X1333000D01*
X1328000Y2356400D02*
Y2366400D01*
X1420300Y2317700D02*
X1430300D01*
X1425300Y2312700D02*
Y2322700D01*
X1671364Y2496335D02*
X1678436Y2489265D01*
X1671364D02*
X1678436Y2496335D01*
X1649364Y2467164D02*
X1656436Y2474236D01*
X1649364D02*
X1656436Y2467164D01*
X1521000Y2466000D02*
Y2476000D01*
X1516000Y2471000D02*
X1526000D01*
X1542700Y2440900D02*
Y2450900D01*
X1537700Y2445900D02*
X1547700D01*
X1503800Y2396500D02*
X1513800D01*
X1508800Y2391500D02*
Y2401500D01*
X1558121Y2391987D02*
X1565192Y2399058D01*
X1558121D02*
X1565192Y2391987D01*
X1531998Y2375931D02*
X1539069Y2368860D01*
X1531998D02*
X1539069Y2375931D01*
X1656000Y2380500D02*
Y2390500D01*
X1651000Y2385500D02*
X1661000D01*
X1578000Y2521800D02*
X1588000D01*
X1583000Y2516800D02*
Y2526800D01*
X1630965Y2505036D02*
X1638036Y2497964D01*
X1630965D02*
X1638036Y2505036D01*
X1558365Y2497565D02*
X1565436Y2504636D01*
X1558365D02*
X1565436Y2497565D01*
X1511100Y2648866D02*
X1521100D01*
X1516100Y2643866D02*
Y2653866D01*
X1353790Y2327370D02*
X1363790D01*
X1358790Y2322370D02*
Y2332370D01*
X1388080Y2327370D02*
X1398080D01*
X1393080Y2322370D02*
Y2332370D01*
X1598100Y2516700D02*
Y2526700D01*
X1593100Y2521700D02*
X1603100D01*
X1514600Y2444700D02*
Y2454700D01*
X1509600Y2449700D02*
X1519600D01*
X1542964Y2364936D02*
X1550036Y2357865D01*
X1542964D02*
X1550036Y2364936D01*
X1546965Y2403264D02*
X1554036Y2410336D01*
X1546965D02*
X1554036Y2403264D01*
X1503500Y2411900D02*
X1513500D01*
X1508500Y2406900D02*
Y2416900D01*
X1542700Y2456200D02*
Y2466200D01*
X1537700Y2461200D02*
X1547700D01*
X1505900Y2466000D02*
Y2476000D01*
X1500900Y2471000D02*
X1510900D01*
X1660065Y2478065D02*
X1667136Y2485136D01*
X1660065D02*
X1667136Y2478065D01*
X1682865Y2507336D02*
X1689936Y2500264D01*
X1682865D02*
X1689936Y2507336D01*
X1533065Y2150865D02*
X1540136Y2157936D01*
X1533065D02*
X1540136Y2150865D01*
X1690100Y2161700D02*
X1700100D01*
X1695100Y2156700D02*
Y2166700D01*
X1659100Y2166100D02*
Y2176100D01*
X1654100Y2171100D02*
X1664100D01*
X1554700Y2247600D02*
X1564700D01*
X1559700Y2242600D02*
Y2252600D01*
X1687000Y2222300D02*
X1697000D01*
X1692000Y2217300D02*
Y2227300D01*
X1647865Y2221864D02*
X1654936Y2228936D01*
X1647865D02*
X1654936Y2221864D01*
X1650286Y2272251D02*
X1657357Y2265180D01*
X1650286D02*
X1657357Y2272251D01*
X1686400Y2178000D02*
Y2188000D01*
X1681400Y2183000D02*
X1691400D01*
X1582400Y2111000D02*
X1592400D01*
X1587400Y2106000D02*
Y2116000D01*
X1597900Y2111000D02*
X1607900D01*
X1602900Y2106000D02*
Y2116000D01*
X1635565Y2135135D02*
X1642636Y2128065D01*
X1635565D02*
X1642636Y2135136D01*
X1561364Y2134236D02*
X1568436Y2127164D01*
X1561364D02*
X1568436Y2134236D01*
X1618100Y2105900D02*
Y2115900D01*
X1613100Y2110900D02*
X1623100D01*
X1544600Y2242600D02*
Y2252600D01*
X1539600Y2247600D02*
X1549600D01*
X1662166Y2260654D02*
X1669237Y2253583D01*
X1662166D02*
X1669237Y2260654D01*
X1635965Y2233465D02*
X1643036Y2240535D01*
X1635965D02*
X1643036Y2233465D01*
X1687100Y2237900D02*
X1697100D01*
X1692100Y2232900D02*
Y2242900D01*
X1659200Y2181600D02*
Y2191600D01*
X1654200Y2186600D02*
X1664200D01*
X1675000Y2161700D02*
X1685000D01*
X1680000Y2156700D02*
Y2166700D01*
X1521364Y2139465D02*
X1528436Y2146536D01*
X1521364D02*
X1528436Y2139465D01*
X1544265Y2161465D02*
X1551336Y2168536D01*
X1544265D02*
X1551336Y2161465D01*
X1635000Y2386000D02*
X1645000D01*
X1640000Y2381000D02*
Y2391000D01*
X1510565Y2135536D02*
X1517635Y2128465D01*
X1510565D02*
X1517635Y2135536D01*
X1613600Y2516700D02*
Y2526700D01*
X1608600Y2521700D02*
X1618600D01*
X1359300Y2162700D02*
X1369300D01*
X1364300Y2157700D02*
Y2167700D01*
X1791100Y2302900D02*
Y2312900D01*
X1786100Y2307900D02*
X1796100D01*
X1266210Y3091590D02*
X1276210D01*
X1271210Y3086590D02*
Y3096590D01*
X1266210Y3216050D02*
X1276210D01*
X1271210Y3211050D02*
Y3221050D01*
X1304230Y3091670D02*
Y3101670D01*
X1299230Y3096670D02*
X1309230D01*
X1429440Y3222360D02*
X1438100Y3217360D01*
X1431270Y3215530D02*
X1436270Y3224190D01*
X1454090Y3091670D02*
Y3101670D01*
X1449090Y3096670D02*
X1459090D01*
X1604030Y3095400D02*
X1614030D01*
X1609030Y3090400D02*
Y3100400D01*
X1592000Y3217360D02*
X1600660Y3222360D01*
X1593830Y3224190D02*
X1598830Y3215529D01*
X1798260Y3096750D02*
Y3106750D01*
X1793260Y3101750D02*
X1803260D01*
X1760240Y3097580D02*
X1770240D01*
X1765240Y3092580D02*
Y3102580D01*
X1760240Y3216050D02*
X1770240D01*
X1765240Y3211050D02*
Y3221050D01*
X1642050Y3095479D02*
Y3105479D01*
X1637050Y3100480D02*
X1647050D01*
X1511320Y2805840D02*
X1521320D01*
X1516320Y2800840D02*
Y2810840D01*
X1347410Y3150090D02*
Y3160090D01*
X1342410Y3155090D02*
X1352410D01*
X1494730Y3150090D02*
Y3160090D01*
X1489730Y3155090D02*
X1499730D01*
X1682690Y3152630D02*
Y3162630D01*
X1677690Y3157630D02*
X1687690D01*
X1838900Y3151360D02*
Y3161360D01*
X1833900Y3156360D02*
X1843900D01*
X1421070Y3089130D02*
Y3099130D01*
X1416070Y3094130D02*
X1426070D01*
X1760240Y3573766D02*
X1770240D01*
X1765240Y3568766D02*
Y3578766D01*
X1592575Y3573766D02*
X1602575D01*
X1597575Y3568766D02*
Y3578766D01*
X2212298Y2467531D02*
X2222298D01*
X2217298Y2462531D02*
Y2472531D01*
X2143718Y2467531D02*
X2153718D01*
X2148718Y2462531D02*
Y2472531D01*
X2212298Y2437051D02*
X2222298D01*
X2217298Y2432051D02*
Y2442051D01*
X2197058Y2153841D02*
X2207058D01*
X2202058Y2148841D02*
Y2158841D01*
X2221548Y2133521D02*
X2231548D01*
X2226548Y2128521D02*
Y2138521D01*
X2221188Y2153841D02*
X2231188D01*
X2226188Y2148841D02*
Y2158841D01*
X2197058Y2133521D02*
X2207058D01*
X2202058Y2128521D02*
Y2138521D01*
X2350970Y3372780D02*
Y3382780D01*
X2345970Y3377780D02*
X2355970D01*
X2419430Y3376310D02*
X2429430D01*
X2424430Y3371310D02*
Y3381310D01*
X2419430Y2973720D02*
X2429430D01*
X2424430Y2968720D02*
Y2978720D01*
X2350970Y2970190D02*
Y2980190D01*
X2345970Y2975190D02*
X2355970D01*
X2488010Y3375240D02*
X2498010D01*
X2493010Y3370240D02*
Y3380240D01*
X2512140Y3375240D02*
X2522140D01*
X2517140Y3370240D02*
Y3380240D01*
X2059729Y3313906D02*
Y3323906D01*
X2054729Y3318906D02*
X2064729D01*
X2090420Y3314360D02*
Y3324360D01*
X2085420Y3319360D02*
X2095420D01*
X2341960Y3318090D02*
X2351960D01*
X2346960Y3313090D02*
Y3323090D01*
X2409190Y3245780D02*
Y3255780D01*
X2404190Y3250780D02*
X2414190D01*
X2293700Y3222840D02*
X2303700D01*
X2298700Y3217840D02*
Y3227840D01*
X2293700Y3290150D02*
X2303700D01*
X2298700Y3285150D02*
Y3295150D01*
X2317830Y3309200D02*
X2327830D01*
X2322830Y3304200D02*
Y3314200D01*
X2316560Y3203790D02*
X2326560D01*
X2321560Y3198790D02*
Y3208790D01*
X2409190Y2843190D02*
Y2853190D01*
X2404190Y2848190D02*
X2414190D01*
X2402840Y3163230D02*
Y3173230D01*
X2397840Y3168230D02*
X2407840D01*
X2512060Y3272450D02*
Y3282450D01*
X2507060Y3277450D02*
X2517060D01*
X2293700Y2820250D02*
X2303700D01*
X2298700Y2815250D02*
Y2825250D01*
X2293700Y2887560D02*
X2303700D01*
X2298700Y2882560D02*
Y2892560D01*
X2488010Y2972650D02*
X2498010D01*
X2493010Y2967650D02*
Y2977650D01*
X2512140Y2972650D02*
X2522140D01*
X2517140Y2967650D02*
Y2977650D01*
X2512060Y2869860D02*
Y2879860D01*
X2507060Y2874860D02*
X2517060D01*
X2535000Y2750400D02*
X2545000D01*
X2540000Y2745400D02*
Y2755400D01*
X2317830Y2906610D02*
X2327830D01*
X2322830Y2901610D02*
Y2911610D01*
X2341960Y2915500D02*
X2351960D01*
X2346960Y2910500D02*
Y2920500D01*
X2316560Y2801200D02*
X2326560D01*
X2321560Y2796200D02*
Y2806200D01*
X2402840Y2760640D02*
Y2770640D01*
X2397840Y2765640D02*
X2407840D01*
X2535000Y3152990D02*
X2545000D01*
X2540000Y3147990D02*
Y3157990D01*
X1972310Y3101000D02*
Y3111000D01*
X1967310Y3106000D02*
X1977310D01*
M02*
