G04*
G04 #@! TF.GenerationSoftware,Altium Limited,Altium Designer,24.0.1 (36)*
G04*
G04 Layer_Color=16711935*
%FSLAX44Y44*%
%MOMM*%
G71*
G04*
G04 #@! TF.SameCoordinates,B3AD537C-9D1A-4887-B287-0D13266BF09F*
G04*
G04*
G04 #@! TF.FilePolarity,Positive*
G04*
G01*
G75*
%ADD14C,0.2000*%
%ADD15C,0.1500*%
%ADD18C,0.1000*%
D14*
X1115000Y3390310D02*
Y3504070D01*
X1181548Y3398930D02*
Y3495450D01*
X1033720D02*
X1181548D01*
X1033720Y3398930D02*
Y3495450D01*
Y3398930D02*
X1181548D01*
X2570120Y1768366D02*
X2683880D01*
X2578740Y1834914D02*
X2675260D01*
X2578740Y1687086D02*
Y1834914D01*
Y1687086D02*
X2675260D01*
Y1834914D01*
X2571120Y2250366D02*
X2684880D01*
X2579740Y2316914D02*
X2676260D01*
X2579740Y2169086D02*
Y2316914D01*
Y2169086D02*
X2676260D01*
Y2316914D01*
X1287000Y2373750D02*
X1309000D01*
X1287000D02*
Y2388250D01*
X1309000D01*
Y2373750D02*
Y2388250D01*
X1361750Y2390400D02*
Y2412400D01*
X1376250D01*
Y2390400D02*
Y2412400D01*
X1361750Y2390400D02*
X1376250D01*
X1628120Y1991500D02*
X1741880D01*
X1636740Y2058048D02*
X1733260D01*
X1636740Y1910220D02*
Y2058048D01*
Y1910220D02*
X1733260D01*
Y2058048D01*
X1320750Y2350400D02*
X1335250D01*
Y2372400D01*
X1320750D02*
X1335250D01*
X1320750Y2350400D02*
Y2372400D01*
X1414300Y2324950D02*
X1436300D01*
Y2310450D02*
Y2324950D01*
X1414300Y2310450D02*
X1436300D01*
X1414300D02*
Y2324950D01*
X1663410Y2495452D02*
X1677552Y2481310D01*
X1663410Y2495452D02*
X1672248Y2504290D01*
X1686391Y2490148D01*
X1677552Y2481310D02*
X1686391Y2490148D01*
X1655552Y2459210D02*
X1664391Y2468048D01*
X1650248Y2482191D02*
X1664391Y2468048D01*
X1641409Y2473352D02*
X1650248Y2482191D01*
X1641409Y2473352D02*
X1655552Y2459210D01*
X1527250Y2461000D02*
Y2481000D01*
X1514750Y2461000D02*
X1527250D01*
X1514750D02*
Y2481000D01*
X1527250D01*
X1552700Y2439650D02*
Y2452150D01*
X1532700D02*
X1552700D01*
X1532700Y2439650D02*
Y2452150D01*
Y2439650D02*
X1552700D01*
X1498800Y2390250D02*
X1518800Y2390250D01*
X1498800Y2390250D02*
Y2402750D01*
X1518800D01*
Y2390250D02*
Y2402750D01*
X1559004Y2384032D02*
X1573147Y2398174D01*
X1550166Y2392871D02*
X1559004Y2384032D01*
X1550166Y2392871D02*
X1564308Y2407013D01*
X1573147Y2398174D01*
X1538185Y2383886D02*
X1547024Y2375047D01*
X1524043Y2369744D02*
X1538185Y2383886D01*
X1524043Y2369744D02*
X1532881Y2360905D01*
X1547024Y2375047D01*
X1662250Y2375500D02*
Y2395500D01*
X1649750Y2375500D02*
X1662250D01*
X1649750D02*
Y2395500D01*
X1662250D01*
X1575750Y2510800D02*
X1590250D01*
Y2532800D01*
X1575750D02*
X1590250D01*
X1575750Y2510800D02*
Y2532800D01*
X1621595Y2498848D02*
X1631848Y2488595D01*
X1647405Y2504152D01*
X1637152Y2514405D02*
X1647405Y2504152D01*
X1621595Y2498848D02*
X1637152Y2514405D01*
X1564552Y2488195D02*
X1574805Y2498448D01*
X1559248Y2514005D02*
X1574805Y2498448D01*
X1548995Y2503752D02*
X1559248Y2514005D01*
X1548995Y2503752D02*
X1564552Y2488195D01*
X1459220Y2641500D02*
X1572980D01*
X1467840Y2574952D02*
X1564360D01*
Y2722780D01*
X1467840D02*
X1564360D01*
X1467840Y2574952D02*
Y2722780D01*
X1344290Y2320870D02*
X1373290D01*
Y2333870D01*
X1344290D02*
X1373290D01*
X1344290Y2320870D02*
Y2333870D01*
X1378580Y2320870D02*
X1407580D01*
Y2333870D01*
X1378580D02*
X1407580D01*
X1378580Y2320870D02*
Y2333870D01*
X1590850Y2510700D02*
Y2532700D01*
X1605350D01*
Y2510700D02*
Y2532700D01*
X1590850Y2510700D02*
X1605350D01*
X1525600Y2442450D02*
Y2456950D01*
X1503600D02*
X1525600D01*
X1503600Y2442450D02*
Y2456950D01*
Y2442450D02*
X1525600D01*
X1549152Y2372890D02*
X1557991Y2364052D01*
X1535010Y2358748D02*
X1549152Y2372890D01*
X1535010Y2358748D02*
X1543848Y2349910D01*
X1557991Y2364052D01*
X1547848Y2395310D02*
X1561991Y2409452D01*
X1539010Y2404148D02*
X1547848Y2395310D01*
X1539010Y2404148D02*
X1553152Y2418291D01*
X1561991Y2409452D01*
X1498500Y2405650D02*
X1518500Y2405650D01*
X1498500Y2405650D02*
Y2418150D01*
X1518500D01*
Y2405650D02*
Y2418150D01*
X1552700Y2454950D02*
Y2467450D01*
X1532700D02*
X1552700D01*
X1532700Y2454950D02*
Y2467450D01*
Y2454950D02*
X1552700D01*
X1512150Y2461000D02*
Y2481000D01*
X1499650Y2461000D02*
X1512150D01*
X1499650D02*
Y2481000D01*
X1512150D01*
X1666252Y2470110D02*
X1675090Y2478948D01*
X1660948Y2493091D02*
X1675090Y2478948D01*
X1652110Y2484252D02*
X1660948Y2493091D01*
X1652110Y2484252D02*
X1666252Y2470110D01*
X1674910Y2506452D02*
X1689052Y2492310D01*
X1674910Y2506452D02*
X1683748Y2515291D01*
X1697890Y2501148D01*
X1689052Y2492310D02*
X1697890Y2501148D01*
X1525110Y2157052D02*
X1533948Y2165891D01*
X1525110Y2157052D02*
X1539252Y2142910D01*
X1548091Y2151748D01*
X1533948Y2165891D02*
X1548091Y2151748D01*
X1688850Y2151700D02*
X1701350D01*
Y2171700D01*
X1688850D02*
X1701350D01*
X1688850Y2151700D02*
Y2171700D01*
X1649100Y2164850D02*
Y2177350D01*
Y2164850D02*
X1669100D01*
Y2177350D01*
X1649100D02*
X1669100D01*
X1553450Y2237600D02*
X1565950D01*
Y2257600D01*
X1553450D02*
X1565950D01*
X1553450Y2237600D02*
Y2257600D01*
X1682000Y2228550D02*
X1702000Y2228550D01*
Y2216050D02*
Y2228550D01*
X1682000Y2216050D02*
X1702000D01*
X1682000D02*
Y2228550D01*
X1639910Y2222748D02*
X1654052Y2236891D01*
X1662890Y2228052D01*
X1648748Y2213909D02*
X1662890Y2228052D01*
X1639910Y2222748D02*
X1648748Y2213909D01*
X1642331Y2266064D02*
X1651170Y2257225D01*
X1665312Y2271367D01*
X1656474Y2280206D02*
X1665312Y2271367D01*
X1642331Y2266064D02*
X1656474Y2280206D01*
X1675400Y2175750D02*
Y2190250D01*
Y2175750D02*
X1697400D01*
Y2190250D01*
X1675400D02*
X1697400D01*
X1580150Y2122000D02*
X1594650D01*
X1580150Y2100000D02*
Y2122000D01*
Y2100000D02*
X1594650D01*
Y2122000D01*
X1595650D02*
X1610150D01*
X1595650Y2100000D02*
Y2122000D01*
Y2100000D02*
X1610150D01*
Y2122000D01*
X1636448Y2144505D02*
X1652005Y2128948D01*
X1641752Y2118695D02*
X1652005Y2128948D01*
X1626195Y2134252D02*
X1641752Y2118695D01*
X1626195Y2134252D02*
X1636448Y2144505D01*
X1567552Y2143605D02*
X1577805Y2133352D01*
X1551995Y2128048D02*
X1567552Y2143605D01*
X1551995Y2128048D02*
X1562248Y2117795D01*
X1577805Y2133352D01*
X1625350Y2099900D02*
Y2121900D01*
X1610850Y2099900D02*
X1625350D01*
X1610850D02*
Y2121900D01*
X1625350D01*
X1538350Y2237600D02*
Y2257600D01*
X1550850D01*
Y2237600D02*
Y2257600D01*
X1538350Y2237600D02*
X1550850D01*
X1654211Y2254467D02*
X1663050Y2245628D01*
X1677192Y2259771D01*
X1668353Y2268609D02*
X1677192Y2259771D01*
X1654211Y2254467D02*
X1668353Y2268609D01*
X1628010Y2234348D02*
X1642152Y2248490D01*
X1650990Y2239652D01*
X1636848Y2225509D02*
X1650990Y2239652D01*
X1628010Y2234348D02*
X1636848Y2225509D01*
X1682100Y2244150D02*
X1702100Y2244150D01*
Y2231650D02*
Y2244150D01*
X1682100Y2231650D02*
X1702100D01*
X1682100D02*
Y2244150D01*
X1649200Y2180350D02*
Y2192850D01*
Y2180350D02*
X1669200D01*
Y2192850D01*
X1649200D02*
X1669200D01*
X1673750Y2151700D02*
X1686250D01*
Y2171700D01*
X1673750D02*
X1686250D01*
X1673750Y2151700D02*
Y2171700D01*
X1513409Y2145652D02*
X1522248Y2154491D01*
X1513409Y2145652D02*
X1527552Y2131510D01*
X1536391Y2140348D01*
X1522248Y2154491D02*
X1536391Y2140348D01*
X1536310Y2167652D02*
X1545148Y2176490D01*
X1536310Y2167652D02*
X1550452Y2153510D01*
X1559290Y2162348D01*
X1545148Y2176490D02*
X1559290Y2162348D01*
X1633750Y2396000D02*
X1646250D01*
X1633750Y2376000D02*
Y2396000D01*
Y2376000D02*
X1646250D01*
Y2396000D01*
X1511448Y2143490D02*
X1525591Y2129348D01*
X1516752Y2120510D02*
X1525591Y2129348D01*
X1502610Y2134652D02*
X1516752Y2120510D01*
X1502610Y2134652D02*
X1511448Y2143490D01*
X1606350Y2510700D02*
Y2532700D01*
X1620850D01*
Y2510700D02*
Y2532700D01*
X1606350Y2510700D02*
X1620850D01*
X1357050Y2173700D02*
X1371550D01*
X1357050Y2151700D02*
Y2173700D01*
Y2151700D02*
X1371550D01*
Y2173700D01*
X1798350Y2296900D02*
Y2318900D01*
X1783850Y2296900D02*
X1798350D01*
X1783850D02*
Y2318900D01*
X1798350D01*
X1263960Y3080590D02*
X1278460D01*
Y3102590D01*
X1263960D02*
X1278460D01*
X1263960Y3080590D02*
Y3102590D01*
Y3227050D02*
X1278460Y3227050D01*
X1263960Y3205050D02*
Y3227050D01*
Y3205050D02*
X1278460D01*
Y3227050D01*
X1293230Y3089420D02*
Y3103920D01*
Y3089420D02*
X1315230D01*
Y3103920D01*
X1293230D02*
X1315230D01*
X1432991Y3233011D02*
X1445549Y3225761D01*
X1421991Y3213959D02*
X1432991Y3233011D01*
X1421991Y3213959D02*
X1434549Y3206708D01*
X1445549Y3225761D01*
X1443090Y3089420D02*
Y3103920D01*
Y3089420D02*
X1465090D01*
Y3103920D01*
X1443090D02*
X1465090D01*
X1601780Y3084400D02*
X1616281D01*
Y3106400D01*
X1601780D02*
X1616281D01*
X1601780Y3084400D02*
Y3106400D01*
X1584551Y3225761D02*
X1597108Y3233011D01*
X1584551Y3225761D02*
X1595551Y3206708D01*
X1608109Y3213958D01*
X1597108Y3233011D02*
X1608109Y3213958D01*
X1787260Y3094500D02*
Y3109000D01*
Y3094500D02*
X1809260D01*
Y3109000D01*
X1787260D02*
X1809260D01*
X1757990Y3086580D02*
X1772490D01*
Y3108580D01*
X1757990D02*
X1772490D01*
X1757990Y3086580D02*
Y3108580D01*
X1757990Y3227050D02*
X1772490D01*
X1757990Y3205050D02*
Y3227050D01*
Y3205050D02*
X1772490D01*
Y3227050D01*
X1631050Y3093230D02*
Y3107730D01*
Y3093230D02*
X1653050D01*
Y3107730D01*
X1631050D02*
X1653050D01*
X1459440Y2813206D02*
X1573200D01*
X1468060Y2879754D02*
X1564580D01*
X1468060Y2731926D02*
Y2879754D01*
Y2731926D02*
X1564580D01*
Y2879754D01*
X1336410Y3147840D02*
Y3162340D01*
Y3147840D02*
X1358410D01*
Y3162340D01*
X1336410D02*
X1358410D01*
X1483730Y3147840D02*
Y3162340D01*
Y3147840D02*
X1505730D01*
Y3162340D01*
X1483730D02*
X1505730D01*
X1671690Y3150380D02*
Y3164880D01*
Y3150380D02*
X1693690D01*
Y3164880D01*
X1671690D02*
X1693690D01*
X1827900Y3149110D02*
Y3163610D01*
Y3149110D02*
X1849900D01*
Y3163610D01*
X1827900D02*
X1849900D01*
X1413820Y3083130D02*
Y3105130D01*
X1428320D01*
Y3083130D02*
Y3105130D01*
X1413820Y3083130D02*
X1428320D01*
X1708360Y3566400D02*
X1822120D01*
X1716980Y3499852D02*
X1813500D01*
Y3647680D01*
X1716980D02*
X1813500D01*
X1716980Y3499852D02*
Y3647680D01*
X1540695Y3566400D02*
X1654455D01*
X1549315Y3499852D02*
X1645835D01*
Y3647680D01*
X1549315D02*
X1645835D01*
X1549315Y3499852D02*
Y3647680D01*
X2206298Y2460281D02*
X2228298D01*
X2206298D02*
Y2474781D01*
X2228298D01*
Y2460281D02*
Y2474781D01*
X2137718D02*
X2159718D01*
Y2460281D02*
Y2474781D01*
X2137718Y2460281D02*
X2159718D01*
X2137718D02*
Y2474781D01*
X2210048Y2448051D02*
X2224548D01*
X2210048Y2426051D02*
Y2448051D01*
Y2426051D02*
X2224548D01*
Y2448051D01*
X2191058Y2161091D02*
X2213058D01*
Y2146591D02*
Y2161091D01*
X2191058Y2146591D02*
X2213058D01*
X2191058D02*
Y2161091D01*
X2215548Y2126271D02*
X2237548D01*
X2215548D02*
Y2140771D01*
X2237548D01*
Y2126271D02*
Y2140771D01*
X2215188Y2146591D02*
X2237188D01*
X2215188D02*
Y2161091D01*
X2237188D01*
Y2146591D02*
Y2161091D01*
X2191058Y2140771D02*
X2213058D01*
Y2126271D02*
Y2140771D01*
X2191058Y2126271D02*
X2213058D01*
X2191058D02*
Y2140771D01*
X2485760Y3386240D02*
X2500260D01*
X2485760Y3364240D02*
Y3386240D01*
Y3364240D02*
X2500260D01*
Y3386240D01*
X2509890D02*
X2524390D01*
X2509890Y3364240D02*
Y3386240D01*
Y3364240D02*
X2524390D01*
Y3386240D01*
X2052479Y3307906D02*
Y3329906D01*
X2066979D01*
Y3307906D02*
Y3329906D01*
X2052479Y3307906D02*
X2066979D01*
X2083170Y3308360D02*
Y3330360D01*
X2097670D01*
Y3308360D02*
Y3330360D01*
X2083170Y3308360D02*
X2097670D01*
X2339710Y3329090D02*
X2354210D01*
X2339710Y3307090D02*
Y3329090D01*
Y3307090D02*
X2354210D01*
Y3329090D01*
X2435690Y3199780D02*
Y3301780D01*
X2382690D02*
X2435690D01*
X2382690Y3199780D02*
Y3301780D01*
Y3199780D02*
X2435690D01*
X2291450Y3211840D02*
X2305950D01*
Y3233840D01*
X2291450D02*
X2305950D01*
X2291450Y3211840D02*
Y3233840D01*
Y3301150D02*
X2305950D01*
X2291450Y3279150D02*
Y3301150D01*
Y3279150D02*
X2305950D01*
Y3301150D01*
X2315580Y3320200D02*
X2330080D01*
X2315580Y3298200D02*
Y3320200D01*
Y3298200D02*
X2330080D01*
Y3320200D01*
X2314310Y3192790D02*
X2328810D01*
Y3214790D01*
X2314310D02*
X2328810D01*
X2314310Y3192790D02*
Y3214790D01*
X2435690Y2797190D02*
Y2899190D01*
X2382690D02*
X2435690D01*
X2382690Y2797190D02*
Y2899190D01*
Y2797190D02*
X2435690D01*
X2391840Y3160980D02*
Y3175480D01*
Y3160980D02*
X2413840D01*
Y3175480D01*
X2391840D02*
X2413840D01*
X2523060Y3270200D02*
Y3284700D01*
X2501060D02*
X2523060D01*
X2501060Y3270200D02*
Y3284700D01*
Y3270200D02*
X2523060D01*
X2291450Y2809250D02*
X2305950D01*
Y2831250D01*
X2291450D02*
X2305950D01*
X2291450Y2809250D02*
Y2831250D01*
Y2898560D02*
X2305950D01*
X2291450Y2876560D02*
Y2898560D01*
Y2876560D02*
X2305950D01*
Y2898560D01*
X2485760Y2983650D02*
X2500260D01*
X2485760Y2961650D02*
Y2983650D01*
Y2961650D02*
X2500260D01*
Y2983650D01*
X2509890D02*
X2524390D01*
X2509890Y2961650D02*
Y2983650D01*
Y2961650D02*
X2524390D01*
Y2983650D01*
X2523060Y2867610D02*
Y2882110D01*
X2501060D02*
X2523060D01*
X2501060Y2867610D02*
Y2882110D01*
Y2867610D02*
X2523060D01*
X2532750Y2761400D02*
X2547250D01*
X2532750Y2739400D02*
Y2761400D01*
Y2739400D02*
X2547250D01*
Y2761400D01*
X2315580Y2917610D02*
X2330080D01*
X2315580Y2895610D02*
Y2917610D01*
Y2895610D02*
X2330080D01*
Y2917610D01*
X2339710Y2926500D02*
X2354210D01*
X2339710Y2904500D02*
Y2926500D01*
Y2904500D02*
X2354210D01*
Y2926500D01*
X2314310Y2790200D02*
X2328810D01*
Y2812200D01*
X2314310D02*
X2328810D01*
X2314310Y2790200D02*
Y2812200D01*
X2391840Y2758390D02*
Y2772890D01*
Y2758390D02*
X2413840D01*
Y2772890D01*
X2391840D02*
X2413840D01*
X2532750Y3163990D02*
X2547250D01*
X2532750Y3141990D02*
Y3163990D01*
Y3141990D02*
X2547250D01*
Y3163990D01*
X1979560Y3095000D02*
Y3117000D01*
X1965060Y3095000D02*
X1979560D01*
X1965060D02*
Y3117000D01*
X1979560D01*
D15*
X2384970Y3377780D02*
G03*
X2384970Y3377780I-34000J0D01*
G01*
X2458430Y3376310D02*
G03*
X2458430Y3376310I-34000J0D01*
G01*
Y2973720D02*
G03*
X2458430Y2973720I-34000J0D01*
G01*
X2384970Y2975190D02*
G03*
X2384970Y2975190I-34000J0D01*
G01*
D18*
X1619075Y2421730D02*
G03*
X1619075Y2421730I-5000J0D01*
G01*
X1591925Y2210970D02*
G03*
X1591925Y2210970I-5000J0D01*
G01*
X1311260Y3164820D02*
G03*
X1311260Y3164820I-5000J0D01*
G01*
X1461120D02*
G03*
X1461120Y3164820I-5000J0D01*
G01*
X1649080Y3167360D02*
G03*
X1649080Y3167360I-5000J0D01*
G01*
X1805290D02*
G03*
X1805290Y3167360I-5000J0D01*
G01*
X2134508Y2526342D02*
G03*
X2126258Y2518092I0J-8250D01*
G01*
X2126258Y2488092D02*
G03*
X2134508Y2479842I8250J0D01*
G01*
X2231508D02*
G03*
X2239758Y2488092I0J8250D01*
G01*
X2239758Y2518092D02*
G03*
X2231508Y2526342I-8250J0D01*
G01*
X2137258Y2521592D02*
G03*
X2132758Y2517092I0J-4500D01*
G01*
Y2489092D02*
G03*
X2137258Y2484592I4500J0D01*
G01*
X2228758D02*
G03*
X2233258Y2489092I0J4500D01*
G01*
Y2517092D02*
G03*
X2228758Y2521592I-4500J0D01*
G01*
X2167328Y2255081D02*
G03*
X2167328Y2255081I-5000J0D01*
G01*
X2285121Y3304359D02*
G03*
X2276871Y3312609I-8250J0D01*
G01*
X2246871Y3312609D02*
G03*
X2238621Y3304359I0J-8250D01*
G01*
Y3207359D02*
G03*
X2246871Y3199109I8250J-0D01*
G01*
X2276871Y3199109D02*
G03*
X2285121Y3207359I0J8250D01*
G01*
X2280371Y3301609D02*
G03*
X2275871Y3306109I-4500J0D01*
G01*
X2247871D02*
G03*
X2243371Y3301609I0J-4500D01*
G01*
Y3210109D02*
G03*
X2247871Y3205609I4500J0D01*
G01*
X2275871D02*
G03*
X2280371Y3210109I0J4500D01*
G01*
X2120180Y3187110D02*
G03*
X2120180Y3187110I-5000J0D01*
G01*
X2285121Y2901769D02*
G03*
X2276871Y2910019I-8250J0D01*
G01*
X2246871Y2910019D02*
G03*
X2238621Y2901769I0J-8250D01*
G01*
Y2804769D02*
G03*
X2246871Y2796519I8250J-0D01*
G01*
X2276871Y2796519D02*
G03*
X2285121Y2804769I0J8250D01*
G01*
X2280371Y2899019D02*
G03*
X2275871Y2903519I-4500J0D01*
G01*
X2247871D02*
G03*
X2243371Y2899019I0J-4500D01*
G01*
Y2807519D02*
G03*
X2247871Y2803019I4500J0D01*
G01*
X2275871D02*
G03*
X2280371Y2807519I0J4500D01*
G01*
X2619750Y2041000D02*
X2634250D01*
X2619750Y2019000D02*
X2634250D01*
Y2041000D01*
X2619750Y2019000D02*
Y2041000D01*
X2573100Y2846160D02*
X2587000D01*
X2573100D02*
Y2852160D01*
X2587000D01*
X2573100Y2833660D02*
X2587000D01*
X2573100D02*
Y2839660D01*
X2587000D01*
X2573100Y2808660D02*
X2587000D01*
X2573100D02*
Y2814660D01*
X2587000D01*
X2573100Y2827160D02*
X2587000D01*
X2573100Y2821160D02*
Y2827160D01*
Y2821160D02*
X2587000D01*
Y2770210D02*
X2747000D01*
X2587000D02*
Y2890410D01*
Y2890610D02*
X2747000D01*
Y2770210D02*
Y2890610D01*
X2627500Y2749410D02*
Y2770210D01*
Y2749410D02*
X2674500D01*
Y2770210D01*
Y2890610D02*
Y2911410D01*
X2627500D02*
X2674500D01*
X2627500Y2890610D02*
Y2911410D01*
X1993750Y3259000D02*
Y3281000D01*
X2008250Y3259000D02*
Y3281000D01*
X1993750Y3259000D02*
X2008250D01*
X1993750Y3281000D02*
X2008250D01*
Y3291288D02*
Y3313288D01*
X1993750Y3291288D02*
Y3313288D01*
X2008250D01*
X1993750Y3291288D02*
X2008250D01*
X2041320Y3244060D02*
X2063320D01*
X2041320Y3229560D02*
X2063320D01*
X2041320D02*
Y3244060D01*
X2063320Y3229560D02*
Y3244060D01*
X2620750Y2501000D02*
Y2523000D01*
X2635250Y2501000D02*
Y2523000D01*
X2620750Y2501000D02*
X2635250D01*
X2620750Y2523000D02*
X2635250D01*
X1723300Y2469150D02*
X1745300D01*
X1723300Y2483650D02*
X1745300D01*
Y2469150D02*
Y2483650D01*
X1723300Y2469150D02*
Y2483650D01*
X1321060Y2293510D02*
X1335560D01*
X1321060Y2315510D02*
X1335560D01*
X1321060Y2293510D02*
Y2315510D01*
X1335560Y2293510D02*
Y2315510D01*
X1376250Y2275500D02*
Y2297500D01*
X1361750Y2275500D02*
Y2297500D01*
X1376250D01*
X1361750Y2275500D02*
X1376250D01*
X1482550Y2465000D02*
X1497050D01*
X1482550Y2443000D02*
X1497050D01*
Y2465000D01*
X1482550Y2443000D02*
Y2465000D01*
X1467800Y2425750D02*
X1489800D01*
X1467800Y2440250D02*
X1489800D01*
Y2425750D02*
Y2440250D01*
X1467800Y2425750D02*
Y2440250D01*
X1607650Y2374350D02*
Y2396450D01*
X1593150Y2374350D02*
Y2396450D01*
X1607650D01*
X1593150Y2374350D02*
X1607650D01*
X1289340Y2356350D02*
X1311340D01*
X1289340Y2341850D02*
X1311340D01*
X1289340D02*
Y2356350D01*
X1311340Y2341850D02*
Y2356350D01*
X1335060Y2323220D02*
Y2344220D01*
X1321560Y2323220D02*
Y2344220D01*
X1335060D01*
X1321560Y2323220D02*
X1335060D01*
X1324800Y2270650D02*
Y2284150D01*
X1303800Y2270650D02*
Y2284150D01*
Y2270650D02*
X1324800D01*
X1303800Y2284150D02*
X1324800D01*
X1393650Y2276900D02*
X1408150D01*
X1393650Y2298900D02*
X1408150D01*
X1393650Y2276900D02*
Y2298900D01*
X1408150Y2276900D02*
Y2298900D01*
X1431750Y2466000D02*
X1446250D01*
X1431750Y2444000D02*
X1446250D01*
Y2466000D01*
X1431750Y2444000D02*
Y2466000D01*
X1499700Y2425750D02*
Y2440250D01*
X1521700Y2425750D02*
Y2440250D01*
X1499700D02*
X1521700D01*
X1499700Y2425750D02*
X1521700D01*
X1405950Y2444100D02*
Y2466100D01*
X1420450Y2444100D02*
Y2466100D01*
X1405950Y2444100D02*
X1420450D01*
X1405950Y2466100D02*
X1420450D01*
X1580048Y2480695D02*
X1595605Y2496252D01*
X1569795Y2490948D02*
X1585352Y2506505D01*
X1595605Y2496252D01*
X1569795Y2490948D02*
X1580048Y2480695D01*
X1600495Y2496452D02*
X1616052Y2480895D01*
X1610748Y2506705D02*
X1626305Y2491148D01*
X1616052Y2480895D02*
X1626305Y2491148D01*
X1600495Y2496452D02*
X1610748Y2506705D01*
X1267840Y2329480D02*
Y2351480D01*
X1253340Y2329480D02*
Y2351480D01*
X1267840D01*
X1253340Y2329480D02*
X1267840D01*
X1722900Y2390750D02*
X1744900D01*
X1722900Y2405250D02*
X1744900D01*
Y2390750D02*
Y2405250D01*
X1722900Y2390750D02*
Y2405250D01*
X1713050Y2377600D02*
X1713050Y2399600D01*
X1698550Y2377600D02*
Y2399600D01*
X1713050Y2399600D01*
X1698550Y2377600D02*
X1713050Y2377600D01*
X1722800Y2410850D02*
Y2425350D01*
X1744800Y2410850D02*
Y2425350D01*
X1722800D02*
X1744800D01*
X1722800Y2410850D02*
X1744800D01*
X1678350Y2413700D02*
Y2435700D01*
X1692850Y2413700D02*
Y2435700D01*
X1678350Y2413700D02*
X1692850D01*
X1678350Y2435700D02*
X1692850D01*
X1723200Y2429750D02*
Y2444250D01*
X1745200Y2429750D02*
Y2444250D01*
X1723200D02*
X1745200D01*
X1723200Y2429750D02*
X1745200D01*
X1698750Y2464200D02*
X1713250D01*
X1698750Y2442200D02*
X1713250D01*
Y2464200D01*
X1698750Y2442200D02*
Y2464200D01*
X1623075Y2412730D02*
Y2463730D01*
X1572075Y2412730D02*
Y2463730D01*
Y2412730D02*
X1623075D01*
X1572075Y2463730D02*
X1623075D01*
X1348300Y2423100D02*
Y2460100D01*
X1281300Y2423100D02*
Y2460100D01*
X1348300D01*
X1281300Y2423100D02*
X1348300D01*
X1438400Y2425750D02*
X1460400D01*
X1438400Y2440250D02*
X1460400D01*
Y2425750D02*
Y2440250D01*
X1438400Y2425750D02*
Y2440250D01*
X1642095Y2519448D02*
X1652348Y2509195D01*
X1657652Y2535005D02*
X1667905Y2524752D01*
X1642095Y2519448D02*
X1657652Y2535005D01*
X1652348Y2509195D02*
X1667905Y2524752D01*
X1546052Y2122205D02*
X1556305Y2111952D01*
X1530495Y2106648D02*
X1540748Y2096395D01*
X1556305Y2111952D01*
X1530495Y2106648D02*
X1546052Y2122205D01*
X1740600Y2206950D02*
X1762600D01*
X1740600Y2192450D02*
X1762600D01*
X1740600D02*
Y2206950D01*
X1762600Y2192450D02*
Y2206950D01*
X1722950Y2216200D02*
Y2238200D01*
X1708450Y2216200D02*
Y2238200D01*
X1722950D01*
X1708450Y2216200D02*
X1722950Y2216200D01*
X1462300Y2147350D02*
Y2161850D01*
X1440300Y2147350D02*
Y2161850D01*
Y2147350D02*
X1462300D01*
X1440300Y2161850D02*
X1462300D01*
X1486250Y2152100D02*
Y2174100D01*
X1471750Y2152100D02*
Y2174100D01*
X1486250D01*
X1471750Y2152100D02*
X1486250D01*
X1462100Y2166150D02*
Y2180650D01*
X1440100Y2166150D02*
Y2180650D01*
Y2166150D02*
X1462100D01*
X1440100Y2180650D02*
X1462100D01*
X1491450Y2177000D02*
X1505950D01*
X1491450Y2199000D02*
X1505950D01*
X1491450Y2177000D02*
Y2199000D01*
X1505950Y2177000D02*
Y2199000D01*
X1462600Y2185750D02*
Y2200250D01*
X1440600Y2185750D02*
Y2200250D01*
Y2185750D02*
X1462600D01*
X1440600Y2200250D02*
X1462600D01*
X1471550Y2232400D02*
X1486050Y2232400D01*
X1471550Y2210400D02*
X1486050Y2210400D01*
Y2232400D01*
X1471550Y2210400D02*
X1471550Y2232400D01*
X1440600Y2219250D02*
X1462600D01*
X1440600Y2204750D02*
X1462600D01*
X1440600D02*
Y2219250D01*
X1462600Y2204750D02*
Y2219250D01*
X1462700Y2126450D02*
Y2140950D01*
X1440700Y2126450D02*
Y2140950D01*
Y2126450D02*
X1462700D01*
X1440700Y2140950D02*
X1462700D01*
X1589052Y2125895D02*
X1599305Y2136148D01*
X1573495Y2141452D02*
X1583748Y2151705D01*
X1573495Y2141452D02*
X1589052Y2125895D01*
X1583748Y2151705D02*
X1599305Y2136148D01*
X1605395Y2136448D02*
X1620952Y2152005D01*
X1615648Y2126195D02*
X1631205Y2141752D01*
X1605395Y2136448D02*
X1615648Y2126195D01*
X1620952Y2152005D02*
X1631205Y2141752D01*
X1779450Y2166300D02*
X1793950D01*
X1779450Y2188300D02*
X1793950D01*
X1779450Y2166300D02*
Y2188300D01*
X1793950Y2166300D02*
Y2188300D01*
X1701300Y2192450D02*
Y2206950D01*
X1679300Y2192450D02*
Y2206950D01*
Y2192450D02*
X1701300D01*
X1679300Y2206950D02*
X1701300D01*
X1769250Y2166000D02*
Y2188000D01*
X1754750Y2166000D02*
Y2188000D01*
X1769250D01*
X1754750Y2166000D02*
X1769250D01*
X1593635Y2258860D02*
X1608135D01*
X1593635Y2236760D02*
X1608135D01*
Y2258860D01*
X1593635Y2236760D02*
Y2258860D01*
X1733900Y2192450D02*
Y2206950D01*
X1711900Y2192450D02*
Y2206950D01*
Y2192450D02*
X1733900D01*
X1711900Y2206950D02*
X1733900D01*
X1577925Y2168970D02*
X1628925D01*
X1577925Y2219970D02*
X1628925D01*
Y2168970D02*
Y2219970D01*
X1577925Y2168970D02*
Y2219970D01*
X1454250Y2122700D02*
X1468750D01*
X1454250Y2100700D02*
X1468750D01*
Y2122700D01*
X1454250Y2100700D02*
Y2122700D01*
X1703950Y2167700D02*
X1718450D01*
X1703950Y2189700D02*
X1718450D01*
X1703950Y2167700D02*
Y2189700D01*
X1718450Y2167700D02*
Y2189700D01*
X1356650Y2276900D02*
Y2298900D01*
X1342150Y2276900D02*
Y2298900D01*
X1356650D01*
X1342150Y2276900D02*
X1356650D01*
X1477350Y2417400D02*
X1491850Y2417400D01*
X1477350Y2395400D02*
X1491850D01*
Y2417400D01*
X1477350Y2395400D02*
Y2417400D01*
X1654900Y2351050D02*
Y2365550D01*
X1676900Y2351050D02*
Y2365550D01*
X1654900D02*
X1676900D01*
X1654900Y2351050D02*
X1676900D01*
X1527800Y2260550D02*
Y2275050D01*
X1505800Y2260550D02*
Y2275050D01*
Y2260550D02*
X1527800D01*
X1505800Y2275050D02*
X1527800D01*
X1732250Y2487000D02*
Y2509000D01*
X1717750Y2487000D02*
Y2509000D01*
X1732250D01*
X1717750Y2487000D02*
X1732250D01*
X1723500Y2449350D02*
X1745500D01*
X1723500Y2463850D02*
X1745500D01*
Y2449350D02*
Y2463850D01*
X1723500Y2449350D02*
Y2463850D01*
X1503000Y3320250D02*
X1525000D01*
X1503000Y3305750D02*
X1525000D01*
X1503000D02*
Y3320250D01*
X1525000Y3305750D02*
Y3320250D01*
X1498879Y3318448D02*
X1509879Y3337502D01*
X1486321Y3325699D02*
X1497322Y3344751D01*
X1509879Y3337502D01*
X1486321Y3325699D02*
X1498879Y3318448D01*
X1531779Y3344152D02*
X1542779Y3325099D01*
X1519221Y3336902D02*
X1530221Y3317849D01*
X1519221Y3336902D02*
X1531779Y3344152D01*
X1530221Y3317849D02*
X1542779Y3325099D01*
X1543321Y3296448D02*
X1555879Y3303699D01*
X1532321Y3315501D02*
X1544879Y3322751D01*
X1532321Y3315501D02*
X1543321Y3296448D01*
X1544879Y3322751D02*
X1555879Y3303699D01*
X1265260Y3173820D02*
X1315260D01*
X1265260Y3133820D02*
X1315260D01*
Y3173820D01*
X1265260Y3133820D02*
Y3173820D01*
X1415120D02*
X1465120D01*
X1415120Y3133820D02*
X1465120D01*
Y3173820D01*
X1415120Y3133820D02*
Y3173820D01*
X1603080Y3176360D02*
X1653080D01*
X1603080Y3136360D02*
X1653080D01*
Y3176360D01*
X1603080Y3136360D02*
Y3176360D01*
X1759290D02*
X1809290D01*
X1759290Y3136360D02*
X1809290D01*
Y3176360D01*
X1759290Y3136360D02*
Y3176360D01*
X1554001Y3289379D02*
X1561252Y3276821D01*
X1534948Y3278379D02*
X1542199Y3265821D01*
X1561252Y3276821D01*
X1534948Y3278379D02*
X1554001Y3289379D01*
X1474061Y3304129D02*
X1486619Y3296879D01*
X1485061Y3323181D02*
X1497619Y3315931D01*
X1474061Y3304129D02*
X1485061Y3323181D01*
X1486619Y3296879D02*
X1497619Y3315931D01*
X1467609Y3276231D02*
X1474859Y3288789D01*
X1486661Y3265231D02*
X1493911Y3277789D01*
X1474859Y3288789D02*
X1493911Y3277789D01*
X1467609Y3276231D02*
X1486661Y3265231D01*
X1477164Y3320782D02*
X1484414Y3333339D01*
X1458111Y3331782D02*
X1465361Y3344339D01*
X1458111Y3331782D02*
X1477164Y3320782D01*
X1465361Y3344339D02*
X1484414Y3333339D01*
X1478650Y2921780D02*
X1500650D01*
X1478650Y2936280D02*
X1500650D01*
Y2921780D02*
Y2936280D01*
X1478650Y2921780D02*
Y2936280D01*
X1485635Y2958352D02*
X1495888Y2968605D01*
X1501192Y2942795D02*
X1511445Y2953048D01*
X1495888Y2968605D02*
X1511445Y2953048D01*
X1485635Y2958352D02*
X1501192Y2942795D01*
X1536752Y2968605D02*
X1547005Y2958352D01*
X1521195Y2953048D02*
X1531448Y2942795D01*
X1547005Y2958352D01*
X1521195Y2953048D02*
X1536752Y2968605D01*
X1553990Y2921780D02*
Y2936280D01*
X1531990Y2921780D02*
Y2936280D01*
Y2921780D02*
X1553990D01*
X1531990Y2936280D02*
X1553990D01*
X1509070Y2924790D02*
X1523570D01*
X1509070Y2902790D02*
X1523570D01*
Y2924790D01*
X1509070Y2902790D02*
Y2924790D01*
X1506530Y3370560D02*
X1521030D01*
X1506530Y3348560D02*
X1521030D01*
Y3370560D01*
X1506530Y3348560D02*
Y3370560D01*
X1438501Y3396839D02*
X1451059Y3389589D01*
X1449501Y3415892D02*
X1462059Y3408641D01*
X1438501Y3396839D02*
X1449501Y3415892D01*
X1451059Y3389589D02*
X1462059Y3408641D01*
X1418979Y3396739D02*
X1438031Y3385739D01*
X1411729Y3384181D02*
X1430781Y3373181D01*
X1411729Y3384181D02*
X1418979Y3396739D01*
X1430781Y3373181D02*
X1438031Y3385739D01*
X1473589Y3414519D02*
X1492642Y3403519D01*
X1466339Y3401961D02*
X1485391Y3390961D01*
X1466339Y3401961D02*
X1473589Y3414519D01*
X1485391Y3390961D02*
X1492642Y3403519D01*
X1498616Y3393894D02*
X1509723Y3384573D01*
X1512757Y3410747D02*
X1523865Y3401426D01*
X1498616Y3393894D02*
X1512757Y3410747D01*
X1509723Y3384573D02*
X1523865Y3401426D01*
X1181880Y3020840D02*
Y3035340D01*
X1159880Y3020840D02*
Y3035340D01*
Y3020840D02*
X1181880D01*
X1159880Y3035340D02*
X1181880D01*
X1358410Y3174510D02*
Y3189010D01*
X1336410Y3174510D02*
Y3189010D01*
Y3174510D02*
X1358410D01*
X1336410Y3189010D02*
X1358410D01*
X1505730Y3174510D02*
Y3189010D01*
X1483730Y3174510D02*
Y3189010D01*
Y3174510D02*
X1505730D01*
X1483730Y3189010D02*
X1505730D01*
X1693690Y3177050D02*
Y3191550D01*
X1671690Y3177050D02*
Y3191550D01*
Y3177050D02*
X1693690D01*
X1671690Y3191550D02*
X1693690D01*
X1849900Y3177050D02*
Y3191550D01*
X1827900Y3177050D02*
Y3191550D01*
Y3177050D02*
X1849900D01*
X1827900Y3191550D02*
X1849900D01*
X2156768Y2071661D02*
Y2086161D01*
X2178768Y2071661D02*
Y2086161D01*
X2156768D02*
X2178768D01*
X2156768Y2071661D02*
X2178768D01*
X2134508Y2479842D02*
X2231508D01*
X2134508Y2526342D02*
X2231508D01*
X2137258Y2484592D02*
X2228758D01*
X2137258Y2521592D02*
X2228758D01*
X2233258Y2489092D02*
Y2517092D01*
X2239758Y2488092D02*
Y2518092D01*
X2132758Y2489092D02*
Y2517092D01*
X2126258Y2488092D02*
Y2518092D01*
X2126258Y2488092D02*
X2126258Y2488092D01*
X1959858Y2292701D02*
X1974358D01*
X1959858Y2314701D02*
X1974358D01*
X1959858Y2292701D02*
Y2314701D01*
X1974358Y2292701D02*
Y2314701D01*
X1959858Y2359151D02*
X1974358D01*
X1959858Y2337151D02*
X1974358D01*
Y2359151D01*
X1959858Y2337151D02*
Y2359151D01*
X2445788Y2348271D02*
X2460288D01*
X2445788Y2326271D02*
X2460288D01*
Y2348271D01*
X2445788Y2326271D02*
Y2348271D01*
X2253328Y2246081D02*
Y2346081D01*
X2153328Y2246081D02*
Y2346081D01*
X2253328D01*
X2153328Y2246081D02*
X2253328D01*
X2573100Y3248750D02*
X2587000D01*
X2573100D02*
Y3254750D01*
X2587000D01*
X2573100Y3236250D02*
X2587000D01*
X2573100D02*
Y3242250D01*
X2587000D01*
X2573100Y3211250D02*
X2587000D01*
X2573100D02*
Y3217250D01*
X2587000D01*
X2573100Y3229750D02*
X2587000D01*
X2573100Y3223750D02*
Y3229750D01*
Y3223750D02*
X2587000D01*
Y3172800D02*
X2747000D01*
X2587000D02*
Y3293000D01*
Y3293200D02*
X2747000D01*
Y3172800D02*
Y3293200D01*
X2627500Y3152000D02*
Y3172800D01*
Y3152000D02*
X2674500D01*
Y3172800D01*
Y3293200D02*
Y3314000D01*
X2627500D02*
X2674500D01*
X2627500Y3293200D02*
Y3314000D01*
X2238621Y3207359D02*
Y3304359D01*
X2285121Y3207359D02*
Y3304359D01*
X2243371Y3210110D02*
Y3301610D01*
X2280371Y3210110D02*
Y3301610D01*
X2247871Y3205609D02*
X2275871D01*
X2246871Y3199109D02*
X2276871D01*
X2247871Y3306109D02*
X2275871D01*
X2246871Y3312609D02*
X2276871D01*
X2246871Y3312609D02*
X2246871Y3312609D01*
X2026180Y3196110D02*
X2124180D01*
X2026180Y3125110D02*
X2124180D01*
Y3196110D01*
X2026180Y3125110D02*
Y3196110D01*
X2238621Y2804769D02*
Y2901769D01*
X2285121Y2804769D02*
Y2901769D01*
X2243371Y2807520D02*
Y2899020D01*
X2280371Y2807520D02*
Y2899020D01*
X2247871Y2803019D02*
X2275871D01*
X2246871Y2796519D02*
X2276871D01*
X2247871Y2903519D02*
X2275871D01*
X2246871Y2910019D02*
X2276871D01*
X2246871Y2910019D02*
X2246871Y2910019D01*
X1962520Y3251620D02*
X1977020D01*
X1962520Y3229620D02*
X1977020D01*
Y3251620D01*
X1962520Y3229620D02*
Y3251620D01*
X2110310Y3229560D02*
Y3244060D01*
X2088310Y3229560D02*
Y3244060D01*
Y3229560D02*
X2110310D01*
X2088310Y3244060D02*
X2110310D01*
X2068460Y3262640D02*
Y3284640D01*
X2053960Y3262640D02*
Y3284640D01*
X2068460D01*
X2053960Y3262640D02*
X2068460D01*
X2081900D02*
X2096400D01*
X2081900Y3284640D02*
X2096400D01*
X2081900Y3262640D02*
Y3284640D01*
X2096400Y3262640D02*
Y3284640D01*
X2315580Y3246130D02*
X2330080D01*
X2315580Y3268130D02*
X2330080D01*
X2315580Y3246130D02*
Y3268130D01*
X2330080Y3246130D02*
Y3268130D01*
X2582154Y3076880D02*
Y3091380D01*
X2560154Y3076880D02*
Y3091380D01*
Y3076880D02*
X2582154D01*
X2560154Y3091380D02*
X2582154D01*
X2532750Y3188980D02*
X2547250D01*
X2532750Y3210980D02*
X2547250D01*
X2532750Y3188980D02*
Y3210980D01*
X2547250Y3188980D02*
Y3210980D01*
X2501060Y3223210D02*
Y3237710D01*
X2523060Y3223210D02*
Y3237710D01*
X2501060D02*
X2523060D01*
X2501060Y3223210D02*
X2523060D01*
Y3200350D02*
Y3214850D01*
X2501060Y3200350D02*
Y3214850D01*
Y3200350D02*
X2523060D01*
X2501060Y3214850D02*
X2523060D01*
Y3246070D02*
Y3260570D01*
X2501060Y3246070D02*
Y3260570D01*
Y3246070D02*
X2523060D01*
X2501060Y3260570D02*
X2523060D01*
X2501060Y2820620D02*
Y2835120D01*
X2523060Y2820620D02*
Y2835120D01*
X2501060D02*
X2523060D01*
X2501060Y2820620D02*
X2523060D01*
Y2843480D02*
Y2857980D01*
X2501060Y2843480D02*
Y2857980D01*
Y2843480D02*
X2523060D01*
X2501060Y2857980D02*
X2523060D01*
Y2797760D02*
Y2812260D01*
X2501060Y2797760D02*
Y2812260D01*
Y2797760D02*
X2523060D01*
X2501060Y2812260D02*
X2523060D01*
X2532750Y2786390D02*
X2547250D01*
X2532750Y2808390D02*
X2547250D01*
X2532750Y2786390D02*
Y2808390D01*
X2547250Y2786390D02*
Y2808390D01*
X2315580Y2843540D02*
X2330080D01*
X2315580Y2865540D02*
X2330080D01*
X2315580Y2843540D02*
Y2865540D01*
X2330080Y2843540D02*
Y2865540D01*
X2578360Y2674500D02*
Y2689000D01*
X2556360Y2674500D02*
Y2689000D01*
Y2674500D02*
X2578360D01*
X2556360Y2689000D02*
X2578360D01*
M02*
