G04*
G04 #@! TF.GenerationSoftware,Altium Limited,Altium Designer,24.0.1 (36)*
G04*
G04 Layer_Color=32768*
%FSLAX44Y44*%
%MOMM*%
G71*
G04*
G04 #@! TF.SameCoordinates,B3AD537C-9D1A-4887-B287-0D13266BF09F*
G04*
G04*
G04 #@! TF.FilePolarity,Positive*
G04*
G01*
G75*
%ADD18C,0.1000*%
%ADD156R,1.2500X0.3000*%
%ADD157R,0.3000X1.2500*%
D18*
X2657890Y2698200D02*
G03*
X2657892Y2665305I-24489J-16449D01*
G01*
X2660414Y3100580D02*
G03*
X2660416Y3067685I-24489J-16449D01*
G01*
X2627500Y2890610D02*
Y2911410D01*
X2674500D01*
Y2890610D02*
Y2911410D01*
Y2749410D02*
Y2770210D01*
X2627500Y2749410D02*
X2674500D01*
X2627500D02*
Y2770210D01*
X2747000D02*
Y2890610D01*
X2587000D02*
X2747000D01*
X2587000Y2770210D02*
Y2890410D01*
Y2770210D02*
X2747000D01*
X2573100Y2821160D02*
X2587000D01*
X2573100D02*
Y2827160D01*
X2587000D01*
X2573100Y2814660D02*
X2587000D01*
X2573100Y2808660D02*
Y2814660D01*
Y2808660D02*
X2587000D01*
X2573100Y2839660D02*
X2587000D01*
X2573100Y2833660D02*
Y2839660D01*
Y2833660D02*
X2587000D01*
X2573100Y2852160D02*
X2587000D01*
X2573100Y2846160D02*
Y2852160D01*
Y2846160D02*
X2587000D01*
X1385850Y2465100D02*
X1398350D01*
Y2445100D02*
Y2465100D01*
X1385850Y2445100D02*
X1398350D01*
X1385850D02*
Y2465100D01*
X1254150Y2321100D02*
X1266650D01*
Y2301100D02*
Y2321100D01*
X1254150Y2301100D02*
X1266650D01*
X1254150D02*
Y2321100D01*
X1816550Y2167800D02*
Y2187800D01*
X1804050D02*
X1816550D01*
X1804050Y2167800D02*
Y2187800D01*
Y2167800D02*
X1816550D01*
X1180880Y3051050D02*
Y3063550D01*
X1160880Y3051050D02*
X1180880D01*
X1160880D02*
Y3063550D01*
X1180880D01*
X1960858Y2271791D02*
X1973358D01*
Y2251791D02*
Y2271791D01*
X1960858Y2251791D02*
X1973358D01*
X1960858D02*
Y2271791D01*
Y2380061D02*
X1973358D01*
X1960858D02*
Y2400061D01*
X1973358D01*
Y2380061D02*
Y2400061D01*
X2157768Y2042181D02*
Y2054681D01*
X2177768D01*
Y2042181D02*
Y2054681D01*
X2157768Y2042181D02*
X2177768D01*
X2627500Y3293200D02*
Y3314000D01*
X2674500D01*
Y3293200D02*
Y3314000D01*
Y3152000D02*
Y3172800D01*
X2627500Y3152000D02*
X2674500D01*
X2627500D02*
Y3172800D01*
X2747000D02*
Y3293200D01*
X2587000D02*
X2747000D01*
X2587000Y3172800D02*
Y3293000D01*
Y3172800D02*
X2747000D01*
X2573100Y3223750D02*
X2587000D01*
X2573100D02*
Y3229750D01*
X2587000D01*
X2573100Y3217250D02*
X2587000D01*
X2573100Y3211250D02*
Y3217250D01*
Y3211250D02*
X2587000D01*
X2573100Y3242250D02*
X2587000D01*
X2573100Y3236250D02*
Y3242250D01*
Y3236250D02*
X2587000D01*
X2573100Y3254750D02*
X2587000D01*
X2573100Y3248750D02*
Y3254750D01*
Y3248750D02*
X2587000D01*
X2657900Y2665300D02*
Y2698200D01*
X2660424Y3067680D02*
Y3100580D01*
X1936850Y3253160D02*
X1949350D01*
Y3233160D02*
Y3253160D01*
X1936850Y3233160D02*
X1949350D01*
X1936850D02*
Y3253160D01*
D156*
X1392098Y2446601D02*
D03*
X1260396Y2302596D02*
D03*
X1810302Y2186299D02*
D03*
X1967108Y2253291D02*
D03*
X1967108Y2398561D02*
D03*
X1943100Y3234660D02*
D03*
D157*
X1162380Y3057300D02*
D03*
X2176268Y2048431D02*
D03*
M02*
