G04*
G04 #@! TF.GenerationSoftware,Altium Limited,Altium Designer,24.0.1 (36)*
G04*
G04 Layer_Physical_Order=2*
G04 Layer_Color=16711680*
%FSLAX44Y44*%
%MOMM*%
G71*
G04*
G04 #@! TF.SameCoordinates,B3AD537C-9D1A-4887-B287-0D13266BF09F*
G04*
G04*
G04 #@! TF.FilePolarity,Positive*
G04*
G01*
G75*
%ADD13C,0.6000*%
%ADD16C,0.5000*%
%ADD17C,0.2540*%
%ADD22R,5.0800X2.4130*%
%ADD24R,2.4130X5.0800*%
%ADD25R,1.5500X1.4000*%
%ADD29R,0.9500X1.4000*%
%ADD30R,1.4000X0.9500*%
G04:AMPARAMS|DCode=40|XSize=0.95mm|YSize=1.4mm|CornerRadius=0mm|HoleSize=0mm|Usage=FLASHONLY|Rotation=135.000|XOffset=0mm|YOffset=0mm|HoleType=Round|Shape=Rectangle|*
%AMROTATEDRECTD40*
4,1,4,0.8309,0.1591,-0.1591,-0.8309,-0.8309,-0.1591,0.1591,0.8309,0.8309,0.1591,0.0*
%
%ADD40ROTATEDRECTD40*%

%ADD127R,1.1500X1.1500*%
%ADD128C,1.1500*%
%ADD129R,1.1500X1.1500*%
%ADD136C,0.3810*%
%ADD137C,1.0000*%
%ADD138C,1.5000*%
%ADD139R,1.5000X1.5000*%
%ADD140C,1.3000*%
%ADD141O,1.9000X1.5000*%
G04:AMPARAMS|DCode=142|XSize=2.54mm|YSize=1.524mm|CornerRadius=0mm|HoleSize=0mm|Usage=FLASHONLY|Rotation=270.000|XOffset=0mm|YOffset=0mm|HoleType=Round|Shape=Octagon|*
%AMOCTAGOND142*
4,1,8,-0.3810,-1.2700,0.3810,-1.2700,0.7620,-0.8890,0.7620,0.8890,0.3810,1.2700,-0.3810,1.2700,-0.7620,0.8890,-0.7620,-0.8890,-0.3810,-1.2700,0.0*
%
%ADD142OCTAGOND142*%

%ADD143O,1.5240X2.5400*%
%ADD144R,1.2000X1.2000*%
%ADD145C,1.2000*%
%ADD146R,1.5000X1.5000*%
%ADD147R,1.8500X1.8500*%
%ADD148C,1.8500*%
%ADD149R,1.2000X1.2000*%
%ADD150C,0.8000*%
%ADD151C,0.6000*%
%ADD152C,5.0000*%
%ADD153C,1.0000*%
%ADD154C,1.2700*%
G36*
X2748000Y2616000D02*
X2105000D01*
Y2989000D01*
X1921000D01*
Y3566000D01*
X2748000D01*
Y2616000D01*
D02*
G37*
G36*
X2714000Y2251242D02*
X2712739Y2249982D01*
X2545000Y2250000D01*
Y2585000D01*
X2714000D01*
Y2251242D01*
D02*
G37*
G36*
X2507328Y1990431D02*
X1927328D01*
Y2593431D01*
X2507328D01*
Y1990431D01*
D02*
G37*
G36*
X2713000Y1769242D02*
X2711740Y1767982D01*
X2544000Y1768000D01*
Y2103000D01*
X2713000D01*
Y1769242D01*
D02*
G37*
G36*
X2502000Y1766000D02*
X1928000D01*
Y1973000D01*
X2502000D01*
Y1766000D01*
D02*
G37*
G36*
X1905000D02*
X958000D01*
Y3566000D01*
X1905000D01*
Y1766000D01*
D02*
G37*
%LPC*%
G36*
X2488040Y3493460D02*
X2470040D01*
Y3475460D01*
X2488040D01*
Y3493460D01*
D02*
G37*
G36*
X2529840Y3493538D02*
X2527491Y3493228D01*
X2525301Y3492321D01*
X2523421Y3490879D01*
X2521979Y3488999D01*
X2521072Y3486809D01*
X2520762Y3484460D01*
X2521072Y3482111D01*
X2521979Y3479921D01*
X2523421Y3478041D01*
X2525301Y3476599D01*
X2527491Y3475692D01*
X2529840Y3475382D01*
X2532189Y3475692D01*
X2534379Y3476599D01*
X2536259Y3478041D01*
X2537702Y3479921D01*
X2538608Y3482111D01*
X2538918Y3484460D01*
X2538608Y3486809D01*
X2537702Y3488999D01*
X2536259Y3490879D01*
X2534379Y3492321D01*
X2532189Y3493228D01*
X2529840Y3493538D01*
D02*
G37*
G36*
X2517140Y3421258D02*
X2515091Y3420988D01*
X2513181Y3420197D01*
X2511541Y3418939D01*
X2510283Y3417299D01*
X2509492Y3415389D01*
X2509222Y3413340D01*
X2509492Y3411291D01*
X2510283Y3409381D01*
X2511541Y3407741D01*
X2513181Y3406483D01*
X2515091Y3405692D01*
X2517140Y3405422D01*
X2519189Y3405692D01*
X2521099Y3406483D01*
X2522739Y3407741D01*
X2523997Y3409381D01*
X2524788Y3411291D01*
X2525058Y3413340D01*
X2524788Y3415389D01*
X2523997Y3417299D01*
X2522739Y3418939D01*
X2521099Y3420197D01*
X2519189Y3420988D01*
X2517140Y3421258D01*
D02*
G37*
G36*
X2493010D02*
X2490961Y3420988D01*
X2489051Y3420197D01*
X2487411Y3418939D01*
X2486153Y3417299D01*
X2485362Y3415389D01*
X2485092Y3413340D01*
X2485362Y3411291D01*
X2486153Y3409381D01*
X2487411Y3407741D01*
X2489051Y3406483D01*
X2490961Y3405692D01*
X2493010Y3405422D01*
X2495059Y3405692D01*
X2496969Y3406483D01*
X2498609Y3407741D01*
X2499867Y3409381D01*
X2500658Y3411291D01*
X2500928Y3413340D01*
X2500658Y3415389D01*
X2499867Y3417299D01*
X2498609Y3418939D01*
X2496969Y3420197D01*
X2495059Y3420988D01*
X2493010Y3421258D01*
D02*
G37*
G36*
X2363470Y3385092D02*
X2361577Y3384843D01*
X2359814Y3384113D01*
X2358299Y3382951D01*
X2357137Y3381436D01*
X2356407Y3379673D01*
X2356158Y3377780D01*
X2356407Y3375887D01*
X2357137Y3374124D01*
X2358299Y3372609D01*
X2359814Y3371447D01*
X2361577Y3370717D01*
X2363470Y3370468D01*
X2365363Y3370717D01*
X2367126Y3371447D01*
X2368641Y3372609D01*
X2369803Y3374124D01*
X2370533Y3375887D01*
X2370783Y3377780D01*
X2370533Y3379673D01*
X2369803Y3381436D01*
X2368641Y3382951D01*
X2367126Y3384113D01*
X2365363Y3384843D01*
X2363470Y3385092D01*
D02*
G37*
G36*
X2424430Y3371123D02*
X2422537Y3370873D01*
X2420774Y3370143D01*
X2419259Y3368981D01*
X2418097Y3367466D01*
X2417367Y3365703D01*
X2417117Y3363810D01*
X2417367Y3361917D01*
X2418097Y3360154D01*
X2419259Y3358639D01*
X2420774Y3357477D01*
X2422537Y3356747D01*
X2424430Y3356497D01*
X2426323Y3356747D01*
X2428086Y3357477D01*
X2429601Y3358639D01*
X2430763Y3360154D01*
X2431493Y3361917D01*
X2431743Y3363810D01*
X2431493Y3365703D01*
X2430763Y3367466D01*
X2429601Y3368981D01*
X2428086Y3370143D01*
X2426323Y3370873D01*
X2424430Y3371123D01*
D02*
G37*
G36*
X2087880Y3362728D02*
X2085531Y3362418D01*
X2083341Y3361512D01*
X2081461Y3360069D01*
X2080019Y3358189D01*
X2079112Y3355999D01*
X2078802Y3353650D01*
X2079112Y3351300D01*
X2080019Y3349111D01*
X2081461Y3347231D01*
X2083341Y3345789D01*
X2085531Y3344882D01*
X2087880Y3344572D01*
X2090229Y3344882D01*
X2092419Y3345789D01*
X2094299Y3347231D01*
X2095741Y3349111D01*
X2096648Y3351300D01*
X2096958Y3353650D01*
X2096648Y3355999D01*
X2095741Y3358189D01*
X2094299Y3360069D01*
X2092419Y3361512D01*
X2090229Y3362418D01*
X2087880Y3362728D01*
D02*
G37*
G36*
X2062480D02*
X2060131Y3362418D01*
X2057941Y3361512D01*
X2056061Y3360069D01*
X2054619Y3358189D01*
X2053712Y3355999D01*
X2053402Y3353650D01*
X2053712Y3351300D01*
X2054619Y3349111D01*
X2056061Y3347231D01*
X2057941Y3345789D01*
X2060131Y3344882D01*
X2062480Y3344572D01*
X2064830Y3344882D01*
X2067019Y3345789D01*
X2068899Y3347231D01*
X2070341Y3349111D01*
X2071248Y3351300D01*
X2071558Y3353650D01*
X2071248Y3355999D01*
X2070341Y3358189D01*
X2068899Y3360069D01*
X2067019Y3361512D01*
X2064830Y3362418D01*
X2062480Y3362728D01*
D02*
G37*
G36*
X2269370Y3287760D02*
X2254370D01*
Y3272760D01*
X2269370D01*
Y3287760D01*
D02*
G37*
G36*
X2657000Y3268569D02*
X2654911Y3268294D01*
X2652965Y3267488D01*
X2651294Y3266206D01*
X2650012Y3264535D01*
X2649206Y3262589D01*
X2648931Y3260500D01*
X2649206Y3258412D01*
X2650012Y3256465D01*
X2651294Y3254794D01*
X2652965Y3253512D01*
X2654911Y3252706D01*
X2657000Y3252431D01*
X2659088Y3252706D01*
X2661035Y3253512D01*
X2662706Y3254794D01*
X2663988Y3256465D01*
X2664794Y3258412D01*
X2665069Y3260500D01*
X2664794Y3262589D01*
X2663988Y3264535D01*
X2662706Y3266206D01*
X2661035Y3267488D01*
X2659088Y3268294D01*
X2657000Y3268569D01*
D02*
G37*
G36*
X2261870Y3239025D02*
X2259912Y3238767D01*
X2258088Y3238011D01*
X2256521Y3236809D01*
X2255319Y3235242D01*
X2254563Y3233418D01*
X2254305Y3231460D01*
X2254563Y3229502D01*
X2255319Y3227678D01*
X2256521Y3226111D01*
X2258088Y3224909D01*
X2259912Y3224153D01*
X2261870Y3223895D01*
X2263828Y3224153D01*
X2265652Y3224909D01*
X2267219Y3226111D01*
X2268421Y3227678D01*
X2269177Y3229502D01*
X2269435Y3231460D01*
X2269177Y3233418D01*
X2268421Y3235242D01*
X2267219Y3236809D01*
X2265652Y3238011D01*
X2263828Y3238767D01*
X2261870Y3239025D01*
D02*
G37*
G36*
X2657000Y3213569D02*
X2654911Y3213294D01*
X2652965Y3212488D01*
X2651294Y3211206D01*
X2650012Y3209535D01*
X2649206Y3207589D01*
X2648931Y3205500D01*
X2649206Y3203412D01*
X2650012Y3201465D01*
X2651294Y3199794D01*
X2652965Y3198512D01*
X2654911Y3197706D01*
X2657000Y3197431D01*
X2659088Y3197706D01*
X2661035Y3198512D01*
X2662706Y3199794D01*
X2663988Y3201465D01*
X2664794Y3203412D01*
X2665069Y3205500D01*
X2664794Y3207589D01*
X2663988Y3209535D01*
X2662706Y3211206D01*
X2661035Y3212488D01*
X2659088Y3213294D01*
X2657000Y3213569D01*
D02*
G37*
G36*
X2122280Y3207710D02*
X2104280D01*
Y3189710D01*
X2122280D01*
Y3207710D01*
D02*
G37*
G36*
X2087880Y3207787D02*
X2085531Y3207478D01*
X2083341Y3206571D01*
X2081461Y3205129D01*
X2080019Y3203249D01*
X2079112Y3201060D01*
X2078802Y3198710D01*
X2079112Y3196360D01*
X2080019Y3194171D01*
X2081461Y3192291D01*
X2083341Y3190849D01*
X2085531Y3189942D01*
X2087880Y3189632D01*
X2090229Y3189942D01*
X2092419Y3190849D01*
X2094299Y3192291D01*
X2095741Y3194171D01*
X2096648Y3196360D01*
X2096958Y3198710D01*
X2096648Y3201060D01*
X2095741Y3203249D01*
X2094299Y3205129D01*
X2092419Y3206571D01*
X2090229Y3207478D01*
X2087880Y3207787D01*
D02*
G37*
G36*
X2062480D02*
X2060131Y3207478D01*
X2057941Y3206571D01*
X2056061Y3205129D01*
X2054619Y3203249D01*
X2053712Y3201060D01*
X2053402Y3198710D01*
X2053712Y3196360D01*
X2054619Y3194171D01*
X2056061Y3192291D01*
X2057941Y3190849D01*
X2060131Y3189942D01*
X2062480Y3189632D01*
X2064830Y3189942D01*
X2067019Y3190849D01*
X2068899Y3192291D01*
X2070341Y3194171D01*
X2071248Y3196360D01*
X2071558Y3198710D01*
X2071248Y3201060D01*
X2070341Y3203249D01*
X2068899Y3205129D01*
X2067019Y3206571D01*
X2064830Y3207478D01*
X2062480Y3207787D01*
D02*
G37*
G36*
X1972310Y3183658D02*
X1969961Y3183348D01*
X1967771Y3182441D01*
X1965891Y3180999D01*
X1964449Y3179119D01*
X1963542Y3176930D01*
X1963232Y3174580D01*
X1963542Y3172231D01*
X1964449Y3170041D01*
X1965461Y3168722D01*
X1965689Y3164404D01*
X1965754Y3164268D01*
Y3151817D01*
X1965686Y3151655D01*
X1965684Y3150816D01*
X1965625Y3148303D01*
X1965573Y3147623D01*
X1965562Y3147550D01*
X1964449Y3146099D01*
X1963542Y3143910D01*
X1963232Y3141560D01*
X1963542Y3139211D01*
X1964449Y3137021D01*
X1965891Y3135141D01*
X1967771Y3133699D01*
X1969961Y3132792D01*
X1972310Y3132482D01*
X1974659Y3132792D01*
X1976849Y3133699D01*
X1978168Y3134711D01*
X1980928Y3134856D01*
X2076422D01*
X2081324Y3129955D01*
Y3128750D01*
X2080019Y3127049D01*
X2079112Y3124860D01*
X2078802Y3122510D01*
X2079112Y3120161D01*
X2080019Y3117971D01*
X2081461Y3116091D01*
X2083341Y3114649D01*
X2085531Y3113742D01*
X2087880Y3113432D01*
X2090229Y3113742D01*
X2092419Y3114649D01*
X2094299Y3116091D01*
X2095741Y3117971D01*
X2096648Y3120161D01*
X2096958Y3122510D01*
X2096648Y3124860D01*
X2095741Y3127049D01*
X2094436Y3128750D01*
Y3132670D01*
X2094315Y3133586D01*
X2095285Y3134856D01*
X2137657Y3134857D01*
X2138806Y3135332D01*
X2139281Y3136480D01*
Y3158070D01*
X2138806Y3159218D01*
X2137657Y3159694D01*
X1978866D01*
Y3164323D01*
X1978934Y3164485D01*
X1978936Y3165324D01*
X1978995Y3167837D01*
X1979047Y3168517D01*
X1979058Y3168589D01*
X1980172Y3170041D01*
X1981078Y3172231D01*
X1981388Y3174580D01*
X1981078Y3176930D01*
X1980172Y3179119D01*
X1978729Y3180999D01*
X1976849Y3182441D01*
X1974659Y3183348D01*
X1972310Y3183658D01*
D02*
G37*
G36*
X2062480Y3131588D02*
X2060131Y3131278D01*
X2057941Y3130371D01*
X2056061Y3128929D01*
X2054619Y3127049D01*
X2053712Y3124860D01*
X2053402Y3122510D01*
X2053712Y3120161D01*
X2054619Y3117971D01*
X2056061Y3116091D01*
X2057941Y3114649D01*
X2060131Y3113742D01*
X2062480Y3113432D01*
X2064830Y3113742D01*
X2067019Y3114649D01*
X2068899Y3116091D01*
X2070341Y3117971D01*
X2071248Y3120161D01*
X2071558Y3122510D01*
X2071248Y3124860D01*
X2070341Y3127049D01*
X2068899Y3128929D01*
X2067019Y3130371D01*
X2064830Y3131278D01*
X2062480Y3131588D01*
D02*
G37*
G36*
X2037080D02*
X2034731Y3131278D01*
X2032541Y3130371D01*
X2030661Y3128929D01*
X2029219Y3127049D01*
X2028312Y3124860D01*
X2028002Y3122510D01*
X2028312Y3120161D01*
X2029219Y3117971D01*
X2030661Y3116091D01*
X2032541Y3114649D01*
X2034731Y3113742D01*
X2037080Y3113432D01*
X2039429Y3113742D01*
X2041619Y3114649D01*
X2043499Y3116091D01*
X2044942Y3117971D01*
X2045848Y3120161D01*
X2046158Y3122510D01*
X2045848Y3124860D01*
X2044942Y3127049D01*
X2043499Y3128929D01*
X2041619Y3130371D01*
X2039429Y3131278D01*
X2037080Y3131588D01*
D02*
G37*
G36*
X2623226Y3093209D02*
X2620876Y3092899D01*
X2618687Y3091993D01*
X2616807Y3090550D01*
X2615364Y3088670D01*
X2614458Y3086481D01*
X2614148Y3084131D01*
X2614458Y3081782D01*
X2615364Y3079593D01*
X2616807Y3077712D01*
X2618687Y3076270D01*
X2620876Y3075363D01*
X2623226Y3075054D01*
X2625575Y3075363D01*
X2627765Y3076270D01*
X2629645Y3077712D01*
X2631087Y3079593D01*
X2631994Y3081782D01*
X2632303Y3084131D01*
X2631994Y3086481D01*
X2631087Y3088670D01*
X2629645Y3090550D01*
X2627765Y3091993D01*
X2625575Y3092899D01*
X2623226Y3093209D01*
D02*
G37*
G36*
X2075180Y3077088D02*
X2073131Y3076818D01*
X2071221Y3076027D01*
X2069581Y3074769D01*
X2068323Y3073129D01*
X2067532Y3071219D01*
X2067262Y3069170D01*
X2067532Y3067121D01*
X2068323Y3065211D01*
X2069581Y3063571D01*
X2071221Y3062313D01*
X2073131Y3061522D01*
X2075180Y3061252D01*
X2077229Y3061522D01*
X2079139Y3062313D01*
X2080779Y3063571D01*
X2082037Y3065211D01*
X2082828Y3067121D01*
X2083098Y3069170D01*
X2082828Y3071219D01*
X2082037Y3073129D01*
X2080779Y3074769D01*
X2079139Y3076027D01*
X2077229Y3076818D01*
X2075180Y3077088D01*
D02*
G37*
G36*
X2517140Y3013588D02*
X2515091Y3013318D01*
X2513181Y3012527D01*
X2511541Y3011269D01*
X2510283Y3009629D01*
X2509492Y3007719D01*
X2509222Y3005670D01*
X2509492Y3003621D01*
X2510283Y3001711D01*
X2511541Y3000071D01*
X2513181Y2998813D01*
X2515091Y2998022D01*
X2517140Y2997752D01*
X2519189Y2998022D01*
X2521099Y2998813D01*
X2522739Y3000071D01*
X2523997Y3001711D01*
X2524788Y3003621D01*
X2525058Y3005670D01*
X2524788Y3007719D01*
X2523997Y3009629D01*
X2522739Y3011269D01*
X2521099Y3012527D01*
X2519189Y3013318D01*
X2517140Y3013588D01*
D02*
G37*
G36*
X2493010D02*
X2490961Y3013318D01*
X2489051Y3012527D01*
X2487411Y3011269D01*
X2486153Y3009629D01*
X2485362Y3007719D01*
X2485092Y3005670D01*
X2485362Y3003621D01*
X2486153Y3001711D01*
X2487411Y3000071D01*
X2489051Y2998813D01*
X2490961Y2998022D01*
X2493010Y2997752D01*
X2495059Y2998022D01*
X2496969Y2998813D01*
X2498609Y3000071D01*
X2499867Y3001711D01*
X2500658Y3003621D01*
X2500928Y3005670D01*
X2500658Y3007719D01*
X2499867Y3009629D01*
X2498609Y3011269D01*
X2496969Y3012527D01*
X2495059Y3013318D01*
X2493010Y3013588D01*
D02*
G37*
G36*
X2363470Y2982503D02*
X2361577Y2982253D01*
X2359814Y2981523D01*
X2358299Y2980361D01*
X2357137Y2978846D01*
X2356407Y2977083D01*
X2356158Y2975190D01*
X2356407Y2973297D01*
X2357137Y2971534D01*
X2358299Y2970019D01*
X2359814Y2968857D01*
X2361577Y2968127D01*
X2363470Y2967878D01*
X2365363Y2968127D01*
X2367126Y2968857D01*
X2368641Y2970019D01*
X2369803Y2971534D01*
X2370533Y2973297D01*
X2370783Y2975190D01*
X2370533Y2977083D01*
X2369803Y2978846D01*
X2368641Y2980361D01*
X2367126Y2981523D01*
X2365363Y2982253D01*
X2363470Y2982503D01*
D02*
G37*
G36*
X2424430Y2968533D02*
X2422537Y2968283D01*
X2420774Y2967553D01*
X2419259Y2966391D01*
X2418097Y2964876D01*
X2417367Y2963112D01*
X2417117Y2961220D01*
X2417367Y2959327D01*
X2418097Y2957564D01*
X2419259Y2956049D01*
X2420774Y2954887D01*
X2422537Y2954156D01*
X2424430Y2953907D01*
X2426323Y2954156D01*
X2428086Y2954887D01*
X2429601Y2956049D01*
X2430763Y2957564D01*
X2431493Y2959327D01*
X2431743Y2961220D01*
X2431493Y2963112D01*
X2430763Y2964876D01*
X2429601Y2966391D01*
X2428086Y2967553D01*
X2426323Y2968283D01*
X2424430Y2968533D01*
D02*
G37*
G36*
X2269370Y2885170D02*
X2254370D01*
Y2870170D01*
X2269370D01*
Y2885170D01*
D02*
G37*
G36*
X2657000Y2865979D02*
X2654911Y2865704D01*
X2652965Y2864898D01*
X2651294Y2863616D01*
X2650012Y2861945D01*
X2649206Y2859998D01*
X2648931Y2857910D01*
X2649206Y2855822D01*
X2650012Y2853875D01*
X2651294Y2852204D01*
X2652965Y2850922D01*
X2654911Y2850116D01*
X2657000Y2849841D01*
X2659088Y2850116D01*
X2661035Y2850922D01*
X2662706Y2852204D01*
X2663988Y2853875D01*
X2664794Y2855822D01*
X2665069Y2857910D01*
X2664794Y2859998D01*
X2663988Y2861945D01*
X2662706Y2863616D01*
X2661035Y2864898D01*
X2659088Y2865704D01*
X2657000Y2865979D01*
D02*
G37*
G36*
X2261870Y2836435D02*
X2259912Y2836177D01*
X2258088Y2835421D01*
X2256521Y2834219D01*
X2255319Y2832652D01*
X2254563Y2830828D01*
X2254305Y2828870D01*
X2254563Y2826912D01*
X2255319Y2825088D01*
X2256521Y2823521D01*
X2258088Y2822319D01*
X2259912Y2821563D01*
X2261870Y2821305D01*
X2263828Y2821563D01*
X2265652Y2822319D01*
X2267219Y2823521D01*
X2268421Y2825088D01*
X2269177Y2826912D01*
X2269435Y2828870D01*
X2269177Y2830828D01*
X2268421Y2832652D01*
X2267219Y2834219D01*
X2265652Y2835421D01*
X2263828Y2836177D01*
X2261870Y2836435D01*
D02*
G37*
G36*
X2657000Y2810979D02*
X2654911Y2810704D01*
X2652965Y2809898D01*
X2651294Y2808616D01*
X2650012Y2806945D01*
X2649206Y2804998D01*
X2648931Y2802910D01*
X2649206Y2800822D01*
X2650012Y2798875D01*
X2651294Y2797204D01*
X2652965Y2795922D01*
X2654911Y2795116D01*
X2657000Y2794841D01*
X2659088Y2795116D01*
X2661035Y2795922D01*
X2662706Y2797204D01*
X2663988Y2798875D01*
X2664794Y2800822D01*
X2665069Y2802910D01*
X2664794Y2804998D01*
X2663988Y2806945D01*
X2662706Y2808616D01*
X2661035Y2809898D01*
X2659088Y2810704D01*
X2657000Y2810979D01*
D02*
G37*
G36*
X2620702Y2690829D02*
X2618352Y2690520D01*
X2616163Y2689613D01*
X2614283Y2688170D01*
X2612840Y2686290D01*
X2611933Y2684101D01*
X2611624Y2681752D01*
X2611933Y2679402D01*
X2612840Y2677213D01*
X2614283Y2675333D01*
X2616163Y2673890D01*
X2618352Y2672983D01*
X2620702Y2672674D01*
X2623051Y2672983D01*
X2625240Y2673890D01*
X2627120Y2675333D01*
X2628563Y2677213D01*
X2629470Y2679402D01*
X2629779Y2681752D01*
X2629470Y2684101D01*
X2628563Y2686290D01*
X2627120Y2688170D01*
X2625240Y2689613D01*
X2623051Y2690520D01*
X2620702Y2690829D01*
D02*
G37*
%LPD*%
G36*
X1977513Y3169132D02*
X1977470Y3168956D01*
X1977433Y3168695D01*
X1977372Y3167918D01*
X1977312Y3165345D01*
X1977310Y3164490D01*
X1967310D01*
X1967060Y3169224D01*
X1977560D01*
X1977513Y3169132D01*
D02*
G37*
G36*
X2137563Y3157975D02*
X2137657Y3157747D01*
Y3136803D01*
X2137563Y3136575D01*
X2137335Y3136480D01*
X2095285Y3136480D01*
X2095285D01*
X2076450Y3136480D01*
X1980885D01*
X1977666Y3136310D01*
Y3136480D01*
X1972310D01*
Y3146916D01*
X1967060D01*
X1967108Y3147007D01*
X1967150Y3147184D01*
X1967188Y3147445D01*
X1967247Y3148222D01*
X1967307Y3150795D01*
X1967310Y3151650D01*
X1972310D01*
Y3158070D01*
X2137335D01*
X2137563Y3157975D01*
D02*
G37*
%LPC*%
G36*
X2054738Y2561699D02*
X2052388Y2561390D01*
X2050199Y2560483D01*
X2048498Y2559178D01*
X2029228D01*
X2027526Y2560483D01*
X2025337Y2561390D01*
X2022988Y2561699D01*
X2020638Y2561390D01*
X2018449Y2560483D01*
X2016748Y2559178D01*
X2007358D01*
Y2559231D01*
X1990358D01*
Y2559178D01*
X1986158D01*
X1984461Y2558954D01*
X1982880Y2558299D01*
X1981522Y2557257D01*
X1942152Y2517887D01*
X1941110Y2516529D01*
X1940455Y2514948D01*
X1940231Y2513251D01*
Y2123361D01*
X1940455Y2121664D01*
X1941110Y2120083D01*
X1942152Y2118726D01*
X2043752Y2017126D01*
X2045110Y2016084D01*
X2046691Y2015429D01*
X2048388Y2015205D01*
X2196978D01*
X2198674Y2015429D01*
X2200256Y2016084D01*
X2201613Y2017126D01*
X2209233Y2024745D01*
X2210275Y2026103D01*
X2210930Y2027684D01*
X2211154Y2029381D01*
Y2030944D01*
X2212327Y2031430D01*
X2226632Y2017126D01*
X2227990Y2016084D01*
X2229571Y2015429D01*
X2231268Y2015205D01*
X2378588D01*
X2380284Y2015429D01*
X2381866Y2016084D01*
X2383223Y2017126D01*
X2394653Y2028555D01*
X2395695Y2029913D01*
X2396350Y2031494D01*
X2396574Y2033191D01*
Y2039431D01*
X2399018D01*
Y2057431D01*
X2396574D01*
Y2069911D01*
X2399018D01*
Y2078640D01*
X2426673Y2106296D01*
X2427715Y2107653D01*
X2428370Y2109234D01*
X2428594Y2110931D01*
Y2343556D01*
X2452583Y2367545D01*
X2454038Y2367354D01*
X2456087Y2367623D01*
X2457997Y2368414D01*
X2459636Y2369673D01*
X2460895Y2371313D01*
X2461686Y2373222D01*
X2461955Y2375271D01*
X2461686Y2377321D01*
X2460895Y2379230D01*
X2459636Y2380870D01*
X2457997Y2382128D01*
X2456087Y2382919D01*
X2454038Y2383189D01*
X2451988Y2382919D01*
X2450079Y2382128D01*
X2449407Y2381613D01*
X2449341Y2381604D01*
X2447760Y2380949D01*
X2446402Y2379907D01*
X2417402Y2350907D01*
X2416360Y2349549D01*
X2415705Y2347968D01*
X2415482Y2346271D01*
Y2113647D01*
X2389746Y2087911D01*
X2381018D01*
Y2069911D01*
X2383461D01*
Y2057431D01*
X2381018D01*
Y2039431D01*
X2383461D01*
Y2035907D01*
X2375872Y2028318D01*
X2233983D01*
X2213646Y2048655D01*
X2213366Y2050781D01*
X2212459Y2052970D01*
X2211154Y2054671D01*
Y2072743D01*
X2211360Y2072902D01*
X2212803Y2074782D01*
X2213709Y2076971D01*
X2214019Y2079321D01*
X2213709Y2081670D01*
X2212803Y2083859D01*
X2211360Y2085739D01*
X2209480Y2087182D01*
X2207291Y2088089D01*
X2204941Y2088398D01*
X2202592Y2088089D01*
X2200402Y2087182D01*
X2198522Y2085739D01*
X2197080Y2083859D01*
X2196173Y2081670D01*
X2195863Y2079321D01*
X2196173Y2076971D01*
X2197080Y2074782D01*
X2198042Y2073528D01*
Y2054671D01*
X2196736Y2052970D01*
X2195829Y2050781D01*
X2195520Y2048431D01*
X2195829Y2046082D01*
X2196736Y2043893D01*
X2198042Y2042191D01*
Y2032097D01*
X2194262Y2028318D01*
X2051103D01*
X1953344Y2126077D01*
Y2510536D01*
X1988873Y2546065D01*
X2016748D01*
X2018449Y2544760D01*
X2020638Y2543853D01*
X2022988Y2543544D01*
X2025337Y2543853D01*
X2027526Y2544760D01*
X2029228Y2546065D01*
X2048498D01*
X2050199Y2544760D01*
X2052388Y2543853D01*
X2054738Y2543544D01*
X2057087Y2543853D01*
X2059276Y2544760D01*
X2061156Y2546203D01*
X2062599Y2548083D01*
X2063506Y2550272D01*
X2063815Y2552621D01*
X2063506Y2554971D01*
X2062599Y2557160D01*
X2061156Y2559040D01*
X2059276Y2560483D01*
X2057087Y2561390D01*
X2054738Y2561699D01*
D02*
G37*
G36*
X2292338Y2545111D02*
X2274338D01*
Y2527111D01*
X2276781D01*
Y2514631D01*
X2274338D01*
Y2496631D01*
X2292338D01*
Y2514631D01*
X2289894D01*
Y2527111D01*
X2292338D01*
Y2545111D01*
D02*
G37*
G36*
X2359538Y2545189D02*
X2357188Y2544880D01*
X2354999Y2543973D01*
X2353119Y2542530D01*
X2351676Y2540650D01*
X2350769Y2538461D01*
X2350460Y2536111D01*
X2350769Y2533762D01*
X2351676Y2531573D01*
X2352982Y2529871D01*
Y2511871D01*
X2351676Y2510170D01*
X2350769Y2507981D01*
X2350460Y2505631D01*
X2350769Y2503282D01*
X2351676Y2501093D01*
X2353119Y2499212D01*
X2354999Y2497770D01*
X2357188Y2496863D01*
X2359538Y2496554D01*
X2361887Y2496863D01*
X2364076Y2497770D01*
X2365957Y2499212D01*
X2367399Y2501093D01*
X2368306Y2503282D01*
X2368615Y2505631D01*
X2368306Y2507981D01*
X2367399Y2510170D01*
X2366094Y2511871D01*
Y2529871D01*
X2367399Y2531573D01*
X2368306Y2533762D01*
X2368615Y2536111D01*
X2368306Y2538461D01*
X2367399Y2540650D01*
X2365957Y2542530D01*
X2364076Y2543973D01*
X2361887Y2544880D01*
X2359538Y2545189D01*
D02*
G37*
G36*
X2334138D02*
X2331788Y2544880D01*
X2329599Y2543973D01*
X2327719Y2542530D01*
X2326276Y2540650D01*
X2325369Y2538461D01*
X2325060Y2536111D01*
X2325369Y2533762D01*
X2326276Y2531573D01*
X2327581Y2529871D01*
Y2511871D01*
X2326276Y2510170D01*
X2325369Y2507981D01*
X2325060Y2505631D01*
X2325369Y2503282D01*
X2326276Y2501093D01*
X2327719Y2499212D01*
X2329599Y2497770D01*
X2331788Y2496863D01*
X2334138Y2496554D01*
X2336487Y2496863D01*
X2338676Y2497770D01*
X2340556Y2499212D01*
X2341999Y2501093D01*
X2342906Y2503282D01*
X2343215Y2505631D01*
X2342906Y2507981D01*
X2341999Y2510170D01*
X2340694Y2511871D01*
Y2529871D01*
X2341999Y2531573D01*
X2342906Y2533762D01*
X2343215Y2536111D01*
X2342906Y2538461D01*
X2341999Y2540650D01*
X2340556Y2542530D01*
X2338676Y2543973D01*
X2336487Y2544880D01*
X2334138Y2545189D01*
D02*
G37*
G36*
X2308738D02*
X2306388Y2544880D01*
X2304199Y2543973D01*
X2302319Y2542530D01*
X2300876Y2540650D01*
X2299969Y2538461D01*
X2299660Y2536111D01*
X2299969Y2533762D01*
X2300876Y2531573D01*
X2302182Y2529871D01*
Y2511871D01*
X2300876Y2510170D01*
X2299969Y2507981D01*
X2299660Y2505631D01*
X2299969Y2503282D01*
X2300876Y2501093D01*
X2302319Y2499212D01*
X2304199Y2497770D01*
X2306388Y2496863D01*
X2308738Y2496554D01*
X2311087Y2496863D01*
X2313276Y2497770D01*
X2315157Y2499212D01*
X2316599Y2501093D01*
X2317506Y2503282D01*
X2317815Y2505631D01*
X2317506Y2507981D01*
X2316599Y2510170D01*
X2315294Y2511871D01*
Y2529871D01*
X2316599Y2531573D01*
X2317506Y2533762D01*
X2317815Y2536111D01*
X2317506Y2538461D01*
X2316599Y2540650D01*
X2315157Y2542530D01*
X2313276Y2543973D01*
X2311087Y2544880D01*
X2308738Y2545189D01*
D02*
G37*
G36*
X2166108Y2510591D02*
X2151108D01*
Y2495591D01*
X2166108D01*
Y2510591D01*
D02*
G37*
G36*
X2207408Y2510656D02*
X2205450Y2510398D01*
X2203625Y2509643D01*
X2202059Y2508440D01*
X2200856Y2506874D01*
X2200101Y2505049D01*
X2199843Y2503091D01*
X2200101Y2501134D01*
X2200856Y2499309D01*
X2202059Y2497742D01*
X2203625Y2496540D01*
X2205450Y2495784D01*
X2207408Y2495527D01*
X2209366Y2495784D01*
X2211190Y2496540D01*
X2212757Y2497742D01*
X2213959Y2499309D01*
X2214715Y2501134D01*
X2214972Y2503091D01*
X2214715Y2505049D01*
X2213959Y2506874D01*
X2212757Y2508440D01*
X2211190Y2509643D01*
X2209366Y2510398D01*
X2207408Y2510656D01*
D02*
G37*
G36*
X2063738Y2485421D02*
X2045738D01*
Y2482977D01*
X2031988D01*
Y2485421D01*
X2013988D01*
Y2467421D01*
X2031988D01*
Y2469865D01*
X2045738D01*
Y2467421D01*
X2063738D01*
Y2485421D01*
D02*
G37*
G36*
X2390018Y2464519D02*
X2387668Y2464210D01*
X2385479Y2463303D01*
X2383778Y2461997D01*
X2365778D01*
X2364076Y2463303D01*
X2361887Y2464210D01*
X2359538Y2464519D01*
X2357188Y2464210D01*
X2354999Y2463303D01*
X2353119Y2461860D01*
X2351676Y2459980D01*
X2350769Y2457791D01*
X2350460Y2455441D01*
X2350769Y2453092D01*
X2351676Y2450903D01*
X2353119Y2449023D01*
X2354999Y2447580D01*
X2357188Y2446673D01*
X2359538Y2446364D01*
X2361887Y2446673D01*
X2364076Y2447580D01*
X2365778Y2448885D01*
X2383778D01*
X2385479Y2447580D01*
X2387668Y2446673D01*
X2390018Y2446364D01*
X2392367Y2446673D01*
X2394556Y2447580D01*
X2396436Y2449023D01*
X2397879Y2450903D01*
X2398786Y2453092D01*
X2399095Y2455441D01*
X2398786Y2457791D01*
X2397879Y2459980D01*
X2396436Y2461860D01*
X2394556Y2463303D01*
X2392367Y2464210D01*
X2390018Y2464519D01*
D02*
G37*
G36*
X2054738Y2453749D02*
X2052388Y2453440D01*
X2050199Y2452533D01*
X2048498Y2451228D01*
X2029228D01*
X2027526Y2452533D01*
X2025337Y2453440D01*
X2022988Y2453749D01*
X2020638Y2453440D01*
X2018449Y2452533D01*
X2016569Y2451090D01*
X2015126Y2449210D01*
X2014219Y2447021D01*
X2013910Y2444671D01*
X2014219Y2442322D01*
X2015126Y2440133D01*
X2016569Y2438253D01*
X2018449Y2436810D01*
X2020638Y2435903D01*
X2022988Y2435594D01*
X2025337Y2435903D01*
X2027526Y2436810D01*
X2029228Y2438115D01*
X2048498D01*
X2050199Y2436810D01*
X2052388Y2435903D01*
X2054738Y2435594D01*
X2057087Y2435903D01*
X2059276Y2436810D01*
X2061156Y2438253D01*
X2062599Y2440133D01*
X2063506Y2442322D01*
X2063815Y2444671D01*
X2063506Y2447021D01*
X2062599Y2449210D01*
X2061156Y2451090D01*
X2059276Y2452533D01*
X2057087Y2453440D01*
X2054738Y2453749D01*
D02*
G37*
G36*
X2390018Y2439119D02*
X2387668Y2438810D01*
X2385479Y2437903D01*
X2383778Y2436597D01*
X2365778D01*
X2364076Y2437903D01*
X2361887Y2438810D01*
X2359538Y2439119D01*
X2357188Y2438810D01*
X2354999Y2437903D01*
X2353119Y2436460D01*
X2351676Y2434580D01*
X2350769Y2432391D01*
X2350460Y2430041D01*
X2350769Y2427692D01*
X2351676Y2425503D01*
X2353119Y2423622D01*
X2354999Y2422180D01*
X2357188Y2421273D01*
X2359538Y2420964D01*
X2361887Y2421273D01*
X2364076Y2422180D01*
X2365778Y2423485D01*
X2383778D01*
X2385479Y2422180D01*
X2387668Y2421273D01*
X2390018Y2420964D01*
X2392367Y2421273D01*
X2394556Y2422180D01*
X2396436Y2423622D01*
X2397879Y2425503D01*
X2398321Y2426570D01*
X2413788D01*
Y2419001D01*
X2432288D01*
Y2436001D01*
X2413788D01*
Y2433513D01*
X2398321D01*
X2397879Y2434580D01*
X2396436Y2436460D01*
X2394556Y2437903D01*
X2392367Y2438810D01*
X2390018Y2439119D01*
D02*
G37*
G36*
X2054738Y2428349D02*
X2052388Y2428040D01*
X2050199Y2427133D01*
X2048498Y2425827D01*
X2029228D01*
X2027526Y2427133D01*
X2025337Y2428040D01*
X2022988Y2428349D01*
X2020638Y2428040D01*
X2018449Y2427133D01*
X2016569Y2425690D01*
X2015126Y2423810D01*
X2014219Y2421621D01*
X2013910Y2419271D01*
X2014219Y2416922D01*
X2015126Y2414733D01*
X2016569Y2412852D01*
X2018449Y2411410D01*
X2020638Y2410503D01*
X2022988Y2410194D01*
X2025337Y2410503D01*
X2027526Y2411410D01*
X2029228Y2412715D01*
X2048498D01*
X2050199Y2411410D01*
X2052388Y2410503D01*
X2054738Y2410194D01*
X2057087Y2410503D01*
X2059276Y2411410D01*
X2061156Y2412852D01*
X2062599Y2414733D01*
X2063506Y2416922D01*
X2063815Y2419271D01*
X2063506Y2421621D01*
X2062599Y2423810D01*
X2061156Y2425690D01*
X2059276Y2427133D01*
X2057087Y2428040D01*
X2054738Y2428349D01*
D02*
G37*
G36*
X2432288Y2417001D02*
X2413788D01*
Y2408113D01*
X2398321D01*
X2397879Y2409180D01*
X2396436Y2411060D01*
X2394556Y2412503D01*
X2392367Y2413410D01*
X2390018Y2413719D01*
X2387668Y2413410D01*
X2385479Y2412503D01*
X2383778Y2411197D01*
X2365778D01*
X2364076Y2412503D01*
X2361887Y2413410D01*
X2359538Y2413719D01*
X2357188Y2413410D01*
X2354999Y2412503D01*
X2353119Y2411060D01*
X2351676Y2409180D01*
X2350769Y2406991D01*
X2350460Y2404641D01*
X2350769Y2402292D01*
X2351676Y2400103D01*
X2353119Y2398223D01*
X2354999Y2396780D01*
X2357188Y2395873D01*
X2359538Y2395564D01*
X2361887Y2395873D01*
X2364076Y2396780D01*
X2365778Y2398085D01*
X2383778D01*
X2385479Y2396780D01*
X2387668Y2395873D01*
X2390018Y2395564D01*
X2392367Y2395873D01*
X2394556Y2396780D01*
X2396436Y2398223D01*
X2397879Y2400103D01*
X2398321Y2401170D01*
X2413788D01*
Y2388521D01*
X2432288D01*
Y2400001D01*
Y2417001D01*
D02*
G37*
G36*
X2054738Y2402949D02*
X2052388Y2402640D01*
X2050199Y2401733D01*
X2048498Y2400428D01*
X2029228D01*
X2027526Y2401733D01*
X2025337Y2402640D01*
X2022988Y2402949D01*
X2020638Y2402640D01*
X2018449Y2401733D01*
X2016569Y2400290D01*
X2015126Y2398410D01*
X2014219Y2396221D01*
X2013910Y2393871D01*
X2014219Y2391522D01*
X2015126Y2389333D01*
X2016569Y2387453D01*
X2018449Y2386010D01*
X2020638Y2385103D01*
X2022988Y2384794D01*
X2025337Y2385103D01*
X2027526Y2386010D01*
X2029228Y2387315D01*
X2048498D01*
X2050199Y2386010D01*
X2052388Y2385103D01*
X2054738Y2384794D01*
X2057087Y2385103D01*
X2059276Y2386010D01*
X2061156Y2387453D01*
X2062599Y2389333D01*
X2063506Y2391522D01*
X2063815Y2393871D01*
X2063506Y2396221D01*
X2062599Y2398410D01*
X2061156Y2400290D01*
X2059276Y2401733D01*
X2057087Y2402640D01*
X2054738Y2402949D01*
D02*
G37*
G36*
X2399018Y2388241D02*
X2381018D01*
Y2385797D01*
X2368538D01*
Y2388241D01*
X2350538D01*
Y2370241D01*
X2368538D01*
Y2372685D01*
X2381018D01*
Y2370241D01*
X2399018D01*
Y2388241D01*
D02*
G37*
G36*
X2063738Y2377471D02*
X2045738D01*
Y2375027D01*
X2031988D01*
Y2377471D01*
X2013988D01*
Y2359471D01*
X2031988D01*
Y2361915D01*
X2045738D01*
Y2359471D01*
X2063738D01*
Y2377471D01*
D02*
G37*
G36*
X2399018Y2356491D02*
X2381018D01*
Y2354047D01*
X2368538D01*
Y2356491D01*
X2350538D01*
Y2338491D01*
X2368538D01*
Y2340935D01*
X2381018D01*
Y2338491D01*
X2399018D01*
Y2356491D01*
D02*
G37*
G36*
X2054738Y2347069D02*
X2052388Y2346760D01*
X2050199Y2345853D01*
X2048498Y2344547D01*
X2029228D01*
X2027526Y2345853D01*
X2025337Y2346760D01*
X2022988Y2347069D01*
X2020638Y2346760D01*
X2018449Y2345853D01*
X2016569Y2344410D01*
X2015126Y2342530D01*
X2014219Y2340341D01*
X2013910Y2337991D01*
X2014219Y2335642D01*
X2015126Y2333453D01*
X2016569Y2331573D01*
X2018449Y2330130D01*
X2020638Y2329223D01*
X2022988Y2328914D01*
X2025337Y2329223D01*
X2027526Y2330130D01*
X2029228Y2331435D01*
X2048498D01*
X2050199Y2330130D01*
X2052388Y2329223D01*
X2054738Y2328914D01*
X2057087Y2329223D01*
X2059276Y2330130D01*
X2061156Y2331573D01*
X2062599Y2333453D01*
X2063506Y2335642D01*
X2063815Y2337991D01*
X2063506Y2340341D01*
X2062599Y2342530D01*
X2061156Y2344410D01*
X2059276Y2345853D01*
X2057087Y2346760D01*
X2054738Y2347069D01*
D02*
G37*
G36*
X2390018Y2331169D02*
X2387668Y2330860D01*
X2385479Y2329953D01*
X2383778Y2328647D01*
X2365778D01*
X2364076Y2329953D01*
X2361887Y2330860D01*
X2359538Y2331169D01*
X2357188Y2330860D01*
X2354999Y2329953D01*
X2353119Y2328510D01*
X2351676Y2326630D01*
X2350769Y2324441D01*
X2350460Y2322091D01*
X2350769Y2319742D01*
X2351676Y2317553D01*
X2353119Y2315672D01*
X2354999Y2314230D01*
X2357188Y2313323D01*
X2359538Y2313014D01*
X2361887Y2313323D01*
X2364076Y2314230D01*
X2365778Y2315535D01*
X2383778D01*
X2385479Y2314230D01*
X2387668Y2313323D01*
X2390018Y2313014D01*
X2392367Y2313323D01*
X2394556Y2314230D01*
X2396436Y2315672D01*
X2397879Y2317553D01*
X2398786Y2319742D01*
X2399095Y2322091D01*
X2398786Y2324441D01*
X2397879Y2326630D01*
X2396436Y2328510D01*
X2394556Y2329953D01*
X2392367Y2330860D01*
X2390018Y2331169D01*
D02*
G37*
G36*
X2054738Y2321669D02*
X2052388Y2321360D01*
X2050199Y2320453D01*
X2048498Y2319147D01*
X2029228D01*
X2027526Y2320453D01*
X2025337Y2321360D01*
X2022988Y2321669D01*
X2020638Y2321360D01*
X2018449Y2320453D01*
X2016569Y2319010D01*
X2015126Y2317130D01*
X2014219Y2314941D01*
X2013910Y2312591D01*
X2014219Y2310242D01*
X2015126Y2308053D01*
X2016569Y2306172D01*
X2018449Y2304730D01*
X2020638Y2303823D01*
X2022988Y2303514D01*
X2025337Y2303823D01*
X2027526Y2304730D01*
X2029228Y2306035D01*
X2048498D01*
X2050199Y2304730D01*
X2052388Y2303823D01*
X2054738Y2303514D01*
X2057087Y2303823D01*
X2059276Y2304730D01*
X2061156Y2306172D01*
X2062599Y2308053D01*
X2063506Y2310242D01*
X2063815Y2312591D01*
X2063506Y2314941D01*
X2062599Y2317130D01*
X2061156Y2319010D01*
X2059276Y2320453D01*
X2057087Y2321360D01*
X2054738Y2321669D01*
D02*
G37*
G36*
X2090809Y2340611D02*
X2078788Y2328590D01*
X2087627Y2319751D01*
X2088664Y2320787D01*
X2089944Y2320271D01*
X2089945Y2320244D01*
X2090018Y2320077D01*
X2090270Y2318162D01*
X2091061Y2316252D01*
X2092319Y2314613D01*
X2093959Y2313354D01*
X2095868Y2312563D01*
X2097918Y2312294D01*
X2099967Y2312563D01*
X2101877Y2313354D01*
X2103516Y2314613D01*
X2104775Y2316252D01*
X2105565Y2318162D01*
X2105835Y2320211D01*
X2105565Y2322261D01*
X2104775Y2324170D01*
X2103516Y2325810D01*
X2101877Y2327068D01*
X2099967Y2327859D01*
X2098052Y2328111D01*
X2097885Y2328184D01*
X2097858Y2328185D01*
X2097342Y2329465D01*
X2099648Y2331772D01*
X2090809Y2340611D01*
D02*
G37*
G36*
X2390018Y2305769D02*
X2387668Y2305460D01*
X2385479Y2304553D01*
X2383778Y2303247D01*
X2365778D01*
X2364076Y2304553D01*
X2361887Y2305460D01*
X2359538Y2305769D01*
X2357188Y2305460D01*
X2354999Y2304553D01*
X2353119Y2303110D01*
X2351676Y2301230D01*
X2350769Y2299041D01*
X2350460Y2296691D01*
X2350769Y2294342D01*
X2351676Y2292153D01*
X2353119Y2290273D01*
X2354999Y2288830D01*
X2357188Y2287923D01*
X2359538Y2287614D01*
X2361887Y2287923D01*
X2364076Y2288830D01*
X2365778Y2290135D01*
X2383778D01*
X2385479Y2288830D01*
X2387668Y2287923D01*
X2390018Y2287614D01*
X2392367Y2287923D01*
X2394556Y2288830D01*
X2396436Y2290273D01*
X2397879Y2292153D01*
X2398786Y2294342D01*
X2399095Y2296691D01*
X2398786Y2299041D01*
X2397879Y2301230D01*
X2396436Y2303110D01*
X2394556Y2304553D01*
X2392367Y2305460D01*
X2390018Y2305769D01*
D02*
G37*
G36*
X2054738Y2296269D02*
X2052388Y2295960D01*
X2050199Y2295053D01*
X2048498Y2293748D01*
X2029228D01*
X2027526Y2295053D01*
X2025337Y2295960D01*
X2022988Y2296269D01*
X2020638Y2295960D01*
X2018449Y2295053D01*
X2016569Y2293610D01*
X2015126Y2291730D01*
X2014219Y2289541D01*
X2013910Y2287191D01*
X2014219Y2284842D01*
X2015126Y2282653D01*
X2016569Y2280773D01*
X2018449Y2279330D01*
X2020638Y2278423D01*
X2022988Y2278114D01*
X2025337Y2278423D01*
X2027526Y2279330D01*
X2029228Y2280635D01*
X2048498D01*
X2050199Y2279330D01*
X2052388Y2278423D01*
X2054738Y2278114D01*
X2057087Y2278423D01*
X2059276Y2279330D01*
X2061156Y2280773D01*
X2062599Y2282653D01*
X2063506Y2284842D01*
X2063815Y2287191D01*
X2063506Y2289541D01*
X2062599Y2291730D01*
X2061156Y2293610D01*
X2059276Y2295053D01*
X2057087Y2295960D01*
X2054738Y2296269D01*
D02*
G37*
G36*
X2390018Y2280369D02*
X2387668Y2280060D01*
X2385479Y2279153D01*
X2383778Y2277847D01*
X2365778D01*
X2364076Y2279153D01*
X2361887Y2280060D01*
X2359538Y2280369D01*
X2357188Y2280060D01*
X2354999Y2279153D01*
X2353119Y2277710D01*
X2351676Y2275830D01*
X2350769Y2273641D01*
X2350460Y2271291D01*
X2350769Y2268942D01*
X2351676Y2266753D01*
X2353119Y2264872D01*
X2354999Y2263430D01*
X2357188Y2262523D01*
X2359538Y2262214D01*
X2361887Y2262523D01*
X2364076Y2263430D01*
X2365778Y2264735D01*
X2383778D01*
X2385479Y2263430D01*
X2387668Y2262523D01*
X2390018Y2262214D01*
X2392367Y2262523D01*
X2394556Y2263430D01*
X2396436Y2264872D01*
X2397879Y2266753D01*
X2398786Y2268942D01*
X2399095Y2271291D01*
X2398786Y2273641D01*
X2397879Y2275830D01*
X2396436Y2277710D01*
X2394556Y2279153D01*
X2392367Y2280060D01*
X2390018Y2280369D01*
D02*
G37*
G36*
X2452248Y2296764D02*
X2449441Y2296395D01*
X2446826Y2295311D01*
X2444581Y2293588D01*
X2442858Y2291343D01*
X2441774Y2288728D01*
X2441405Y2285921D01*
X2441774Y2283115D01*
X2442858Y2280500D01*
X2444581Y2278254D01*
X2446826Y2276531D01*
X2449441Y2275448D01*
X2452248Y2275079D01*
X2455054Y2275448D01*
X2457669Y2276531D01*
X2459915Y2278254D01*
X2461638Y2280500D01*
X2462721Y2283115D01*
X2463090Y2285921D01*
X2462721Y2288728D01*
X2461638Y2291343D01*
X2459915Y2293588D01*
X2457669Y2295311D01*
X2455054Y2296395D01*
X2452248Y2296764D01*
D02*
G37*
G36*
X2063738Y2270791D02*
X2045738D01*
Y2268347D01*
X2031988D01*
Y2270791D01*
X2013988D01*
Y2252791D01*
X2031988D01*
Y2255235D01*
X2045738D01*
Y2252791D01*
X2063738D01*
Y2270791D01*
D02*
G37*
G36*
X2399018Y2248541D02*
X2381018D01*
Y2246097D01*
X2368538D01*
Y2248541D01*
X2350538D01*
Y2230541D01*
X2368538D01*
Y2232985D01*
X2381018D01*
Y2230541D01*
X2399018D01*
Y2248541D01*
D02*
G37*
G36*
X2054738Y2240389D02*
X2052388Y2240080D01*
X2050199Y2239173D01*
X2048498Y2237867D01*
X2029228D01*
X2027526Y2239173D01*
X2025337Y2240080D01*
X2022988Y2240389D01*
X2020638Y2240080D01*
X2018449Y2239173D01*
X2016569Y2237730D01*
X2015126Y2235850D01*
X2014219Y2233661D01*
X2013910Y2231311D01*
X2014219Y2228962D01*
X2015126Y2226773D01*
X2016569Y2224892D01*
X2018449Y2223450D01*
X2020638Y2222543D01*
X2022988Y2222234D01*
X2025337Y2222543D01*
X2027526Y2223450D01*
X2029228Y2224755D01*
X2048498D01*
X2050199Y2223450D01*
X2052388Y2222543D01*
X2054738Y2222234D01*
X2057087Y2222543D01*
X2059276Y2223450D01*
X2061156Y2224892D01*
X2062599Y2226773D01*
X2063506Y2228962D01*
X2063815Y2231311D01*
X2063506Y2233661D01*
X2062599Y2235850D01*
X2061156Y2237730D01*
X2059276Y2239173D01*
X2057087Y2240080D01*
X2054738Y2240389D01*
D02*
G37*
G36*
X2390018Y2223219D02*
X2387668Y2222910D01*
X2385479Y2222003D01*
X2383778Y2220697D01*
X2365778D01*
X2364076Y2222003D01*
X2361887Y2222910D01*
X2359538Y2223219D01*
X2357188Y2222910D01*
X2354999Y2222003D01*
X2353119Y2220560D01*
X2351676Y2218680D01*
X2350769Y2216491D01*
X2350460Y2214141D01*
X2350769Y2211792D01*
X2351676Y2209603D01*
X2353119Y2207722D01*
X2354999Y2206280D01*
X2357188Y2205373D01*
X2359538Y2205064D01*
X2361887Y2205373D01*
X2364076Y2206280D01*
X2365778Y2207585D01*
X2383778D01*
X2385479Y2206280D01*
X2387668Y2205373D01*
X2390018Y2205064D01*
X2392367Y2205373D01*
X2394556Y2206280D01*
X2396436Y2207722D01*
X2397879Y2209603D01*
X2398786Y2211792D01*
X2399095Y2214141D01*
X2398786Y2216491D01*
X2397879Y2218680D01*
X2396436Y2220560D01*
X2394556Y2222003D01*
X2392367Y2222910D01*
X2390018Y2223219D01*
D02*
G37*
G36*
X2054738Y2214989D02*
X2052388Y2214680D01*
X2050199Y2213773D01*
X2048498Y2212467D01*
X2029228D01*
X2027526Y2213773D01*
X2025337Y2214680D01*
X2022988Y2214989D01*
X2020638Y2214680D01*
X2018449Y2213773D01*
X2016569Y2212330D01*
X2015126Y2210450D01*
X2014219Y2208261D01*
X2013910Y2205911D01*
X2014219Y2203562D01*
X2015126Y2201373D01*
X2016569Y2199492D01*
X2018449Y2198050D01*
X2020638Y2197143D01*
X2022988Y2196834D01*
X2025337Y2197143D01*
X2027526Y2198050D01*
X2029228Y2199355D01*
X2048498D01*
X2050199Y2198050D01*
X2052388Y2197143D01*
X2054738Y2196834D01*
X2057087Y2197143D01*
X2059276Y2198050D01*
X2061156Y2199492D01*
X2062599Y2201373D01*
X2063506Y2203562D01*
X2063815Y2205911D01*
X2063506Y2208261D01*
X2062599Y2210450D01*
X2061156Y2212330D01*
X2059276Y2213773D01*
X2057087Y2214680D01*
X2054738Y2214989D01*
D02*
G37*
G36*
X2390018Y2197819D02*
X2387668Y2197510D01*
X2385479Y2196603D01*
X2383778Y2195297D01*
X2365778D01*
X2364076Y2196603D01*
X2361887Y2197510D01*
X2359538Y2197819D01*
X2357188Y2197510D01*
X2354999Y2196603D01*
X2353119Y2195160D01*
X2351676Y2193280D01*
X2350769Y2191091D01*
X2350460Y2188741D01*
X2350769Y2186392D01*
X2351676Y2184203D01*
X2353119Y2182323D01*
X2354999Y2180880D01*
X2357188Y2179973D01*
X2359538Y2179664D01*
X2361887Y2179973D01*
X2364076Y2180880D01*
X2365778Y2182185D01*
X2383778D01*
X2385479Y2180880D01*
X2387668Y2179973D01*
X2390018Y2179664D01*
X2392367Y2179973D01*
X2394556Y2180880D01*
X2396436Y2182323D01*
X2397879Y2184203D01*
X2398786Y2186392D01*
X2399095Y2188741D01*
X2398786Y2191091D01*
X2397879Y2193280D01*
X2396436Y2195160D01*
X2394556Y2196603D01*
X2392367Y2197510D01*
X2390018Y2197819D01*
D02*
G37*
G36*
X2054738Y2189589D02*
X2052388Y2189280D01*
X2050199Y2188373D01*
X2048498Y2187068D01*
X2029228D01*
X2027526Y2188373D01*
X2025337Y2189280D01*
X2022988Y2189589D01*
X2020638Y2189280D01*
X2018449Y2188373D01*
X2016569Y2186930D01*
X2015126Y2185050D01*
X2014219Y2182861D01*
X2013910Y2180511D01*
X2014219Y2178162D01*
X2015126Y2175973D01*
X2016569Y2174093D01*
X2018449Y2172650D01*
X2020638Y2171743D01*
X2022988Y2171434D01*
X2025337Y2171743D01*
X2027526Y2172650D01*
X2029228Y2173955D01*
X2048498D01*
X2050199Y2172650D01*
X2052388Y2171743D01*
X2054738Y2171434D01*
X2057087Y2171743D01*
X2059276Y2172650D01*
X2061156Y2174093D01*
X2062599Y2175973D01*
X2063506Y2178162D01*
X2063815Y2180511D01*
X2063506Y2182861D01*
X2062599Y2185050D01*
X2061156Y2186930D01*
X2059276Y2188373D01*
X2057087Y2189280D01*
X2054738Y2189589D01*
D02*
G37*
G36*
X2390018Y2172419D02*
X2387668Y2172110D01*
X2385479Y2171203D01*
X2383778Y2169897D01*
X2365778D01*
X2364076Y2171203D01*
X2361887Y2172110D01*
X2359538Y2172419D01*
X2357188Y2172110D01*
X2354999Y2171203D01*
X2353119Y2169760D01*
X2351676Y2167880D01*
X2350769Y2165691D01*
X2350460Y2163341D01*
X2350769Y2160992D01*
X2351676Y2158803D01*
X2353119Y2156922D01*
X2354999Y2155480D01*
X2357188Y2154573D01*
X2359538Y2154264D01*
X2361887Y2154573D01*
X2364076Y2155480D01*
X2365778Y2156785D01*
X2383778D01*
X2385479Y2155480D01*
X2387668Y2154573D01*
X2390018Y2154264D01*
X2392367Y2154573D01*
X2394556Y2155480D01*
X2396436Y2156922D01*
X2397879Y2158803D01*
X2398786Y2160992D01*
X2399095Y2163341D01*
X2398786Y2165691D01*
X2397879Y2167880D01*
X2396436Y2169760D01*
X2394556Y2171203D01*
X2392367Y2172110D01*
X2390018Y2172419D01*
D02*
G37*
G36*
X2063738Y2164111D02*
X2045738D01*
Y2161667D01*
X2031988D01*
Y2164111D01*
X2013988D01*
Y2146111D01*
X2031988D01*
Y2148555D01*
X2045738D01*
Y2146111D01*
X2063738D01*
Y2164111D01*
D02*
G37*
G36*
X2290141Y2088321D02*
X2272141D01*
Y2070321D01*
X2274241D01*
Y2057431D01*
X2271798D01*
Y2039431D01*
X2289798D01*
Y2057431D01*
X2287354D01*
Y2070321D01*
X2290141D01*
Y2088321D01*
D02*
G37*
G36*
X2339218Y2087989D02*
X2336868Y2087680D01*
X2334679Y2086773D01*
X2332799Y2085330D01*
X2331356Y2083450D01*
X2330449Y2081261D01*
X2330140Y2078911D01*
X2330449Y2076562D01*
X2331356Y2074373D01*
X2332661Y2072671D01*
Y2054671D01*
X2331356Y2052970D01*
X2330449Y2050781D01*
X2330140Y2048431D01*
X2330449Y2046082D01*
X2331356Y2043893D01*
X2332799Y2042012D01*
X2334679Y2040570D01*
X2336868Y2039663D01*
X2339218Y2039354D01*
X2341567Y2039663D01*
X2343756Y2040570D01*
X2345636Y2042012D01*
X2347079Y2043893D01*
X2347986Y2046082D01*
X2348295Y2048431D01*
X2347986Y2050781D01*
X2347079Y2052970D01*
X2345774Y2054671D01*
Y2072671D01*
X2347079Y2074373D01*
X2347986Y2076562D01*
X2348295Y2078911D01*
X2347986Y2081261D01*
X2347079Y2083450D01*
X2345636Y2085330D01*
X2343756Y2086773D01*
X2341567Y2087680D01*
X2339218Y2087989D01*
D02*
G37*
G36*
X2313818D02*
X2311468Y2087680D01*
X2309279Y2086773D01*
X2307399Y2085330D01*
X2305956Y2083450D01*
X2305049Y2081261D01*
X2304740Y2078911D01*
X2305049Y2076562D01*
X2305956Y2074373D01*
X2307262Y2072671D01*
Y2054671D01*
X2305956Y2052970D01*
X2305049Y2050781D01*
X2304740Y2048431D01*
X2305049Y2046082D01*
X2305956Y2043893D01*
X2307399Y2042012D01*
X2309279Y2040570D01*
X2311468Y2039663D01*
X2313818Y2039354D01*
X2316167Y2039663D01*
X2318356Y2040570D01*
X2320237Y2042012D01*
X2321679Y2043893D01*
X2322586Y2046082D01*
X2322895Y2048431D01*
X2322586Y2050781D01*
X2321679Y2052970D01*
X2320374Y2054671D01*
Y2072671D01*
X2321679Y2074373D01*
X2322586Y2076562D01*
X2322895Y2078911D01*
X2322586Y2081261D01*
X2321679Y2083450D01*
X2320237Y2085330D01*
X2318356Y2086773D01*
X2316167Y2087680D01*
X2313818Y2087989D01*
D02*
G37*
G36*
X2255741Y2088398D02*
X2253392Y2088089D01*
X2251202Y2087182D01*
X2249322Y2085739D01*
X2247880Y2083859D01*
X2246973Y2081670D01*
X2246664Y2079321D01*
X2246973Y2076971D01*
X2247880Y2074782D01*
X2248842Y2073528D01*
Y2054671D01*
X2247536Y2052970D01*
X2246629Y2050781D01*
X2246320Y2048431D01*
X2246629Y2046082D01*
X2247536Y2043893D01*
X2248979Y2042012D01*
X2250859Y2040570D01*
X2253048Y2039663D01*
X2255398Y2039354D01*
X2257747Y2039663D01*
X2259936Y2040570D01*
X2261817Y2042012D01*
X2263259Y2043893D01*
X2264166Y2046082D01*
X2264475Y2048431D01*
X2264166Y2050781D01*
X2263259Y2052970D01*
X2261954Y2054671D01*
Y2072743D01*
X2262160Y2072902D01*
X2263603Y2074782D01*
X2264509Y2076971D01*
X2264819Y2079321D01*
X2264509Y2081670D01*
X2263603Y2083859D01*
X2262160Y2085739D01*
X2260280Y2087182D01*
X2258091Y2088089D01*
X2255741Y2088398D01*
D02*
G37*
G36*
X2063738Y2086641D02*
X2045738D01*
Y2068641D01*
X2048181D01*
Y2056161D01*
X2045738D01*
Y2038161D01*
X2063738D01*
Y2056161D01*
X2061294D01*
Y2068641D01*
X2063738D01*
Y2086641D01*
D02*
G37*
G36*
X2130938Y2086719D02*
X2128588Y2086410D01*
X2126399Y2085503D01*
X2124519Y2084060D01*
X2123076Y2082180D01*
X2122169Y2079991D01*
X2121860Y2077641D01*
X2122169Y2075292D01*
X2123076Y2073103D01*
X2124382Y2071401D01*
Y2053401D01*
X2123076Y2051700D01*
X2122169Y2049511D01*
X2121860Y2047161D01*
X2122169Y2044812D01*
X2123076Y2042623D01*
X2124519Y2040742D01*
X2126399Y2039300D01*
X2128588Y2038393D01*
X2130938Y2038084D01*
X2133287Y2038393D01*
X2135476Y2039300D01*
X2137357Y2040742D01*
X2138799Y2042623D01*
X2139706Y2044812D01*
X2140015Y2047161D01*
X2139706Y2049511D01*
X2138799Y2051700D01*
X2137494Y2053401D01*
Y2071401D01*
X2138799Y2073103D01*
X2139706Y2075292D01*
X2140015Y2077641D01*
X2139706Y2079991D01*
X2138799Y2082180D01*
X2137357Y2084060D01*
X2135476Y2085503D01*
X2133287Y2086410D01*
X2130938Y2086719D01*
D02*
G37*
G36*
X2105538D02*
X2103188Y2086410D01*
X2100999Y2085503D01*
X2099119Y2084060D01*
X2097676Y2082180D01*
X2096769Y2079991D01*
X2096460Y2077641D01*
X2096769Y2075292D01*
X2097676Y2073103D01*
X2098981Y2071401D01*
Y2053401D01*
X2097676Y2051700D01*
X2096769Y2049511D01*
X2096460Y2047161D01*
X2096769Y2044812D01*
X2097676Y2042623D01*
X2099119Y2040742D01*
X2100999Y2039300D01*
X2103188Y2038393D01*
X2105538Y2038084D01*
X2107887Y2038393D01*
X2110076Y2039300D01*
X2111956Y2040742D01*
X2113399Y2042623D01*
X2114306Y2044812D01*
X2114615Y2047161D01*
X2114306Y2049511D01*
X2113399Y2051700D01*
X2112094Y2053401D01*
Y2071401D01*
X2113399Y2073103D01*
X2114306Y2075292D01*
X2114615Y2077641D01*
X2114306Y2079991D01*
X2113399Y2082180D01*
X2111956Y2084060D01*
X2110076Y2085503D01*
X2107887Y2086410D01*
X2105538Y2086719D01*
D02*
G37*
G36*
X2080138D02*
X2077788Y2086410D01*
X2075599Y2085503D01*
X2073719Y2084060D01*
X2072276Y2082180D01*
X2071369Y2079991D01*
X2071060Y2077641D01*
X2071369Y2075292D01*
X2072276Y2073103D01*
X2073582Y2071401D01*
Y2053401D01*
X2072276Y2051700D01*
X2071369Y2049511D01*
X2071060Y2047161D01*
X2071369Y2044812D01*
X2072276Y2042623D01*
X2073719Y2040742D01*
X2075599Y2039300D01*
X2077788Y2038393D01*
X2080138Y2038084D01*
X2082487Y2038393D01*
X2084676Y2039300D01*
X2086557Y2040742D01*
X2087999Y2042623D01*
X2088906Y2044812D01*
X2089215Y2047161D01*
X2088906Y2049511D01*
X2087999Y2051700D01*
X2086694Y2053401D01*
Y2071401D01*
X2087999Y2073103D01*
X2088906Y2075292D01*
X2089215Y2077641D01*
X2088906Y2079991D01*
X2087999Y2082180D01*
X2086557Y2084060D01*
X2084676Y2085503D01*
X2082487Y2086410D01*
X2080138Y2086719D01*
D02*
G37*
%LPD*%
G36*
X2094364Y2328641D02*
X2094217Y2328331D01*
X2094151Y2327993D01*
X2094165Y2327628D01*
X2094262Y2327235D01*
X2094276Y2327201D01*
X2094684Y2327037D01*
X2095256Y2326860D01*
X2095859Y2326724D01*
X2096493Y2326629D01*
X2097158Y2326574D01*
X2097854Y2326561D01*
X2091568Y2320275D01*
X2091555Y2320971D01*
X2091500Y2321636D01*
X2091405Y2322270D01*
X2091269Y2322873D01*
X2091092Y2323445D01*
X2090928Y2323853D01*
X2090894Y2323867D01*
X2090502Y2323963D01*
X2090136Y2323978D01*
X2089798Y2323912D01*
X2089488Y2323765D01*
X2089205Y2323536D01*
X2090442Y2324773D01*
X2090316Y2324976D01*
X2089975Y2325424D01*
X2089593Y2325842D01*
X2092287Y2328536D01*
X2092705Y2328154D01*
X2093153Y2327814D01*
X2093356Y2327687D01*
X2094593Y2328924D01*
X2094364Y2328641D01*
D02*
G37*
%LPC*%
G36*
X1691580Y3136228D02*
X1689231Y3135918D01*
X1687041Y3135012D01*
X1685161Y3133569D01*
X1683719Y3131689D01*
X1682812Y3129500D01*
X1682502Y3127150D01*
X1682812Y3124801D01*
X1683719Y3122611D01*
X1685161Y3120731D01*
X1687041Y3119289D01*
X1689231Y3118382D01*
X1691580Y3118073D01*
X1693929Y3118382D01*
X1696119Y3119289D01*
X1697999Y3120731D01*
X1699442Y3122611D01*
X1700348Y3124801D01*
X1700658Y3127150D01*
X1700348Y3129500D01*
X1699442Y3131689D01*
X1697999Y3133569D01*
X1696119Y3135012D01*
X1693929Y3135918D01*
X1691580Y3136228D01*
D02*
G37*
G36*
X1849060Y3134958D02*
X1846711Y3134648D01*
X1844521Y3133741D01*
X1842641Y3132299D01*
X1841199Y3130419D01*
X1840292Y3128229D01*
X1839982Y3125880D01*
X1840292Y3123531D01*
X1841199Y3121341D01*
X1842641Y3119461D01*
X1844521Y3118018D01*
X1846711Y3117112D01*
X1849060Y3116802D01*
X1851409Y3117112D01*
X1853599Y3118018D01*
X1855479Y3119461D01*
X1856922Y3121341D01*
X1857828Y3123531D01*
X1858138Y3125880D01*
X1857828Y3128229D01*
X1856922Y3130419D01*
X1855479Y3132299D01*
X1853599Y3133741D01*
X1851409Y3134648D01*
X1849060Y3134958D01*
D02*
G37*
G36*
X1355030D02*
X1352681Y3134648D01*
X1350491Y3133741D01*
X1348611Y3132299D01*
X1347169Y3130419D01*
X1346262Y3128229D01*
X1345952Y3125880D01*
X1346262Y3123531D01*
X1347169Y3121341D01*
X1348611Y3119461D01*
X1350491Y3118018D01*
X1352681Y3117112D01*
X1355030Y3116802D01*
X1357379Y3117112D01*
X1359569Y3118018D01*
X1361449Y3119461D01*
X1362892Y3121341D01*
X1363798Y3123531D01*
X1364108Y3125880D01*
X1363798Y3128229D01*
X1362892Y3130419D01*
X1361449Y3132299D01*
X1359569Y3133741D01*
X1357379Y3134648D01*
X1355030Y3134958D01*
D02*
G37*
G36*
X1503620Y3132418D02*
X1501271Y3132108D01*
X1499081Y3131201D01*
X1497201Y3129759D01*
X1495759Y3127879D01*
X1494852Y3125689D01*
X1494542Y3123340D01*
X1494852Y3120991D01*
X1495759Y3118801D01*
X1497201Y3116921D01*
X1499081Y3115479D01*
X1501271Y3114572D01*
X1503620Y3114262D01*
X1505970Y3114572D01*
X1508159Y3115479D01*
X1510039Y3116921D01*
X1511481Y3118801D01*
X1512388Y3120991D01*
X1512698Y3123340D01*
X1512388Y3125689D01*
X1511481Y3127879D01*
X1510039Y3129759D01*
X1508159Y3131201D01*
X1505970Y3132108D01*
X1503620Y3132418D01*
D02*
G37*
G36*
X1293388Y3155868D02*
X1222950D01*
X1221194Y3155519D01*
X1219706Y3154524D01*
X1193036Y3127854D01*
X1192041Y3126366D01*
X1191692Y3124610D01*
Y3050066D01*
X1191657Y3049987D01*
X1191632Y3048891D01*
X1191560Y3047970D01*
X1191447Y3047194D01*
X1191300Y3046571D01*
X1191135Y3046111D01*
X1190976Y3045814D01*
X1190855Y3045665D01*
X1190788Y3045614D01*
X1190743Y3045596D01*
X1190457Y3045562D01*
X1190312Y3045480D01*
X1189120D01*
Y3044174D01*
X1189027Y3043950D01*
X1189066Y3043855D01*
X1189039Y3043756D01*
X1189120Y3043611D01*
Y3030349D01*
X1189039Y3030204D01*
X1189066Y3030105D01*
X1189027Y3030010D01*
X1189120Y3029786D01*
Y3028480D01*
X1190312D01*
X1190457Y3028398D01*
X1190743Y3028364D01*
X1190788Y3028346D01*
X1190855Y3028296D01*
X1190976Y3028146D01*
X1191135Y3027850D01*
X1191300Y3027389D01*
X1191447Y3026766D01*
X1191560Y3025990D01*
X1191632Y3025069D01*
X1191657Y3023973D01*
X1191692Y3023894D01*
Y3001490D01*
X1191657Y3001413D01*
X1191636Y3000719D01*
X1191579Y3000112D01*
X1191485Y2999545D01*
X1191357Y2999016D01*
X1191196Y2998523D01*
X1191002Y2998064D01*
X1190776Y2997636D01*
X1190516Y2997235D01*
X1190223Y2996860D01*
X1189844Y2996455D01*
X1189794Y2996321D01*
X1188419Y2994529D01*
X1187512Y2992339D01*
X1187202Y2989990D01*
X1187512Y2987641D01*
X1188419Y2985451D01*
X1189861Y2983571D01*
X1191741Y2982129D01*
X1193931Y2981222D01*
X1196280Y2980912D01*
X1198630Y2981222D01*
X1200819Y2982129D01*
X1202699Y2983571D01*
X1204141Y2985451D01*
X1205048Y2987641D01*
X1205358Y2989990D01*
X1205048Y2992339D01*
X1204141Y2994529D01*
X1202766Y2996321D01*
X1202716Y2996455D01*
X1202338Y2996860D01*
X1202044Y2997236D01*
X1201785Y2997636D01*
X1201558Y2998064D01*
X1201364Y2998523D01*
X1201203Y2999016D01*
X1201075Y2999545D01*
X1200981Y3000112D01*
X1200924Y3000719D01*
X1200903Y3001413D01*
X1200868Y3001490D01*
Y3023915D01*
X1200904Y3023999D01*
X1200911Y3025108D01*
X1201029Y3027725D01*
X1201092Y3028289D01*
X1201123Y3028480D01*
X1201620D01*
Y3029786D01*
X1201713Y3030010D01*
X1201620Y3030235D01*
Y3043725D01*
X1201713Y3043950D01*
X1201620Y3044174D01*
Y3045480D01*
X1201158D01*
X1200911Y3048875D01*
X1200904Y3049961D01*
X1200868Y3050045D01*
Y3122710D01*
X1224850Y3146692D01*
X1291488D01*
X1292412Y3145768D01*
Y3106033D01*
X1291819Y3105146D01*
X1291392Y3103000D01*
X1291819Y3100854D01*
X1292412Y3099967D01*
Y3082310D01*
X1292761Y3080554D01*
X1293756Y3079066D01*
X1299716Y3073106D01*
X1301204Y3072111D01*
X1302960Y3071762D01*
X1371540D01*
X1373296Y3072111D01*
X1374784Y3073106D01*
X1384544Y3082866D01*
X1385539Y3084354D01*
X1385888Y3086110D01*
Y3136280D01*
X1395031Y3145422D01*
X1441348D01*
X1441882Y3144888D01*
Y3128071D01*
X1441756Y3127945D01*
X1440761Y3126456D01*
X1440412Y3124700D01*
Y3106033D01*
X1439819Y3105146D01*
X1439392Y3103000D01*
X1439819Y3100854D01*
X1440412Y3099967D01*
Y3087980D01*
X1440761Y3086224D01*
X1441756Y3084736D01*
X1458466Y3068026D01*
X1459954Y3067031D01*
X1461710Y3066682D01*
X1516320D01*
X1518076Y3067031D01*
X1519564Y3068026D01*
X1532264Y3080726D01*
X1533259Y3082214D01*
X1533608Y3083970D01*
Y3131600D01*
X1546160Y3144152D01*
X1629308D01*
X1629842Y3143618D01*
Y3112505D01*
X1629035Y3111965D01*
X1627819Y3110146D01*
X1627392Y3108000D01*
X1627819Y3105854D01*
X1628412Y3104967D01*
Y3101031D01*
X1628761Y3099275D01*
X1629756Y3097787D01*
X1650627Y3076916D01*
X1652115Y3075921D01*
X1653871Y3075572D01*
X1710630D01*
X1712386Y3075921D01*
X1713874Y3076916D01*
X1720344Y3083386D01*
X1721339Y3084874D01*
X1721688Y3086630D01*
Y3132400D01*
X1733441Y3144152D01*
X1784412D01*
Y3111033D01*
X1783819Y3110146D01*
X1783392Y3108000D01*
X1783819Y3105854D01*
X1785035Y3104035D01*
X1786854Y3102819D01*
X1789000Y3102392D01*
X1791146Y3102819D01*
X1792965Y3104035D01*
X1794181Y3105854D01*
X1794608Y3108000D01*
X1794181Y3110146D01*
X1793588Y3111033D01*
Y3146570D01*
X1793239Y3148326D01*
X1792244Y3149814D01*
X1790074Y3151984D01*
X1788586Y3152979D01*
X1786830Y3153328D01*
X1731540D01*
X1729784Y3152979D01*
X1728296Y3151984D01*
X1713856Y3137544D01*
X1712861Y3136056D01*
X1712512Y3134300D01*
Y3088531D01*
X1708730Y3084748D01*
X1655771D01*
X1637588Y3102931D01*
Y3104967D01*
X1638181Y3105854D01*
X1638608Y3108000D01*
X1638589Y3108095D01*
X1638669Y3108215D01*
X1639018Y3109971D01*
Y3145518D01*
X1638669Y3147274D01*
X1637674Y3148763D01*
X1634453Y3151984D01*
X1632964Y3152979D01*
X1631208Y3153328D01*
X1544260D01*
X1542504Y3152979D01*
X1541016Y3151984D01*
X1525776Y3136744D01*
X1524781Y3135256D01*
X1524432Y3133500D01*
Y3085870D01*
X1514420Y3075858D01*
X1463611D01*
X1449588Y3089880D01*
Y3099967D01*
X1450181Y3100854D01*
X1450608Y3103000D01*
X1450181Y3105146D01*
X1449588Y3106033D01*
Y3122800D01*
X1449714Y3122926D01*
X1450709Y3124414D01*
X1451058Y3126170D01*
Y3146788D01*
X1450709Y3148544D01*
X1449714Y3150032D01*
X1446492Y3153254D01*
X1445004Y3154249D01*
X1443248Y3154598D01*
X1393130D01*
X1391374Y3154249D01*
X1389886Y3153254D01*
X1378056Y3141424D01*
X1377061Y3139936D01*
X1376712Y3138180D01*
Y3088011D01*
X1369640Y3080938D01*
X1304861D01*
X1301588Y3084211D01*
Y3099967D01*
X1302181Y3100854D01*
X1302608Y3103000D01*
X1302181Y3105146D01*
X1301588Y3106033D01*
Y3147668D01*
X1301239Y3149424D01*
X1300244Y3150912D01*
X1296633Y3154524D01*
X1295144Y3155519D01*
X1293388Y3155868D01*
D02*
G37*
G36*
X1160720Y2999068D02*
X1158371Y2998758D01*
X1156181Y2997852D01*
X1154301Y2996409D01*
X1152859Y2994529D01*
X1151952Y2992339D01*
X1151642Y2989990D01*
X1151952Y2987641D01*
X1152859Y2985451D01*
X1154301Y2983571D01*
X1156181Y2982129D01*
X1158371Y2981222D01*
X1160720Y2980912D01*
X1163070Y2981222D01*
X1165259Y2982129D01*
X1167139Y2983571D01*
X1168581Y2985451D01*
X1169488Y2987641D01*
X1169798Y2989990D01*
X1169488Y2992339D01*
X1168581Y2994529D01*
X1167139Y2996409D01*
X1165259Y2997852D01*
X1163070Y2998758D01*
X1160720Y2999068D01*
D02*
G37*
G36*
X1794000Y2511124D02*
X1794000Y2511124D01*
X1700100D01*
X1700100Y2511124D01*
X1699019Y2510909D01*
X1698103Y2510297D01*
X1698103Y2510297D01*
X1643846Y2456040D01*
X1642500Y2456308D01*
X1640354Y2455881D01*
X1638535Y2454665D01*
X1637319Y2452846D01*
X1636892Y2450700D01*
X1637319Y2448554D01*
X1638535Y2446735D01*
X1640354Y2445519D01*
X1642500Y2445092D01*
X1644646Y2445519D01*
X1646465Y2446735D01*
X1647681Y2448554D01*
X1648108Y2450700D01*
X1647840Y2452046D01*
X1701270Y2505476D01*
X1792830D01*
X1815076Y2483230D01*
Y2357770D01*
X1806030Y2348724D01*
X1713870D01*
X1675097Y2387497D01*
X1674181Y2388109D01*
X1673100Y2388324D01*
X1673100Y2388324D01*
X1572470D01*
X1536846Y2423948D01*
X1535930Y2424560D01*
X1534849Y2424775D01*
X1534849Y2424775D01*
X1504098D01*
X1481194Y2447679D01*
X1481142Y2447826D01*
X1480920Y2448073D01*
X1480769Y2448281D01*
X1480630Y2448521D01*
X1480502Y2448797D01*
X1480390Y2449111D01*
X1480293Y2449467D01*
X1480216Y2449866D01*
X1480159Y2450307D01*
X1480127Y2450792D01*
X1480119Y2451357D01*
X1480027Y2451569D01*
X1479828Y2453080D01*
X1479173Y2454662D01*
X1478131Y2456019D01*
X1476774Y2457061D01*
X1475192Y2457716D01*
X1473495Y2457940D01*
X1471799Y2457716D01*
X1470217Y2457061D01*
X1468860Y2456019D01*
X1467818Y2454662D01*
X1467163Y2453080D01*
X1466939Y2451384D01*
X1467163Y2449687D01*
X1467818Y2448105D01*
X1468860Y2446748D01*
X1470217Y2445706D01*
X1471799Y2445051D01*
X1473310Y2444852D01*
X1473522Y2444760D01*
X1474087Y2444752D01*
X1474571Y2444720D01*
X1475013Y2444663D01*
X1475412Y2444586D01*
X1475768Y2444489D01*
X1476082Y2444377D01*
X1476358Y2444249D01*
X1476598Y2444110D01*
X1476806Y2443959D01*
X1477053Y2443737D01*
X1477200Y2443685D01*
X1500931Y2419954D01*
X1500931Y2419954D01*
X1501847Y2419342D01*
X1502928Y2419127D01*
X1533679D01*
X1569303Y2383503D01*
X1569303Y2383503D01*
X1570219Y2382891D01*
X1571300Y2382676D01*
X1671930D01*
X1710703Y2343903D01*
X1710703Y2343903D01*
X1711619Y2343291D01*
X1712700Y2343076D01*
X1712700Y2343076D01*
X1807200D01*
X1807200Y2343076D01*
X1808281Y2343291D01*
X1809197Y2343903D01*
X1819897Y2354603D01*
X1819897Y2354603D01*
X1820509Y2355519D01*
X1820724Y2356600D01*
X1820724Y2356600D01*
Y2484400D01*
X1820724Y2484400D01*
X1820509Y2485481D01*
X1819897Y2486397D01*
X1819897Y2486397D01*
X1795997Y2510297D01*
X1795081Y2510909D01*
X1794000Y2511124D01*
D02*
G37*
G36*
X1799000Y2483198D02*
X1795000D01*
X1792650Y2482888D01*
X1790461Y2481981D01*
X1788581Y2480539D01*
X1787139Y2478659D01*
X1786232Y2476470D01*
X1785922Y2474120D01*
X1786232Y2471770D01*
X1787139Y2469581D01*
X1788581Y2467701D01*
X1790461Y2466259D01*
X1792650Y2465352D01*
X1795000Y2465042D01*
X1799000D01*
X1801349Y2465352D01*
X1803539Y2466259D01*
X1805419Y2467701D01*
X1806862Y2469581D01*
X1807768Y2471770D01*
X1808078Y2474120D01*
X1807768Y2476470D01*
X1806862Y2478659D01*
X1805419Y2480539D01*
X1803539Y2481981D01*
X1801349Y2482888D01*
X1799000Y2483198D01*
D02*
G37*
G36*
X1769000D02*
X1765000D01*
X1762651Y2482888D01*
X1760461Y2481981D01*
X1758581Y2480539D01*
X1757139Y2478659D01*
X1756232Y2476470D01*
X1755922Y2474120D01*
X1756232Y2471770D01*
X1757139Y2469581D01*
X1758581Y2467701D01*
X1760461Y2466259D01*
X1762651Y2465352D01*
X1765000Y2465042D01*
X1769000D01*
X1771349Y2465352D01*
X1773539Y2466259D01*
X1775419Y2467701D01*
X1776862Y2469581D01*
X1777768Y2471770D01*
X1778078Y2474120D01*
X1777768Y2476470D01*
X1776862Y2478659D01*
X1775419Y2480539D01*
X1773539Y2481981D01*
X1771349Y2482888D01*
X1769000Y2483198D01*
D02*
G37*
G36*
X1799000Y2457798D02*
X1795000D01*
X1792650Y2457488D01*
X1790461Y2456581D01*
X1788581Y2455139D01*
X1787139Y2453259D01*
X1786232Y2451069D01*
X1785922Y2448720D01*
X1786232Y2446371D01*
X1787139Y2444181D01*
X1788581Y2442301D01*
X1790461Y2440858D01*
X1792650Y2439952D01*
X1795000Y2439642D01*
X1799000D01*
X1801349Y2439952D01*
X1803539Y2440858D01*
X1805419Y2442301D01*
X1806862Y2444181D01*
X1807768Y2446371D01*
X1808078Y2448720D01*
X1807768Y2451069D01*
X1806862Y2453259D01*
X1805419Y2455139D01*
X1803539Y2456581D01*
X1801349Y2457488D01*
X1799000Y2457798D01*
D02*
G37*
G36*
X1769000D02*
X1765000D01*
X1762651Y2457488D01*
X1760461Y2456581D01*
X1758581Y2455139D01*
X1757139Y2453259D01*
X1756232Y2451069D01*
X1755922Y2448720D01*
X1756232Y2446371D01*
X1757139Y2444181D01*
X1758581Y2442301D01*
X1760461Y2440858D01*
X1762651Y2439952D01*
X1765000Y2439642D01*
X1769000D01*
X1771349Y2439952D01*
X1773539Y2440858D01*
X1775419Y2442301D01*
X1776862Y2444181D01*
X1777768Y2446371D01*
X1778078Y2448720D01*
X1777768Y2451069D01*
X1776862Y2453259D01*
X1775419Y2455139D01*
X1773539Y2456581D01*
X1771349Y2457488D01*
X1769000Y2457798D01*
D02*
G37*
G36*
X1799000Y2432398D02*
X1795000D01*
X1792650Y2432088D01*
X1790461Y2431181D01*
X1788581Y2429739D01*
X1787139Y2427859D01*
X1786232Y2425670D01*
X1785922Y2423320D01*
X1786232Y2420970D01*
X1787139Y2418781D01*
X1788581Y2416901D01*
X1790461Y2415459D01*
X1792650Y2414552D01*
X1795000Y2414242D01*
X1799000D01*
X1801349Y2414552D01*
X1803539Y2415459D01*
X1805419Y2416901D01*
X1806862Y2418781D01*
X1807768Y2420970D01*
X1808078Y2423320D01*
X1807768Y2425670D01*
X1806862Y2427859D01*
X1805419Y2429739D01*
X1803539Y2431181D01*
X1801349Y2432088D01*
X1799000Y2432398D01*
D02*
G37*
G36*
X1769000D02*
X1765000D01*
X1762651Y2432088D01*
X1760461Y2431181D01*
X1758581Y2429739D01*
X1757139Y2427859D01*
X1756232Y2425670D01*
X1755922Y2423320D01*
X1756232Y2420970D01*
X1757139Y2418781D01*
X1758581Y2416901D01*
X1760461Y2415459D01*
X1762651Y2414552D01*
X1765000Y2414242D01*
X1769000D01*
X1771349Y2414552D01*
X1773539Y2415459D01*
X1775419Y2416901D01*
X1776862Y2418781D01*
X1777768Y2420970D01*
X1778078Y2423320D01*
X1777768Y2425670D01*
X1776862Y2427859D01*
X1775419Y2429739D01*
X1773539Y2431181D01*
X1771349Y2432088D01*
X1769000Y2432398D01*
D02*
G37*
G36*
X1799000Y2406998D02*
X1795000D01*
X1792650Y2406688D01*
X1790461Y2405781D01*
X1788581Y2404339D01*
X1787139Y2402459D01*
X1786232Y2400269D01*
X1785922Y2397920D01*
X1786232Y2395571D01*
X1787139Y2393381D01*
X1788581Y2391501D01*
X1790461Y2390058D01*
X1792650Y2389152D01*
X1795000Y2388842D01*
X1799000D01*
X1801349Y2389152D01*
X1803539Y2390058D01*
X1805419Y2391501D01*
X1806862Y2393381D01*
X1807768Y2395571D01*
X1808078Y2397920D01*
X1807768Y2400269D01*
X1806862Y2402459D01*
X1805419Y2404339D01*
X1803539Y2405781D01*
X1801349Y2406688D01*
X1799000Y2406998D01*
D02*
G37*
G36*
X1769000D02*
X1765000D01*
X1762651Y2406688D01*
X1760461Y2405781D01*
X1758581Y2404339D01*
X1757139Y2402459D01*
X1756232Y2400269D01*
X1755922Y2397920D01*
X1756232Y2395571D01*
X1757139Y2393381D01*
X1758581Y2391501D01*
X1760461Y2390058D01*
X1762651Y2389152D01*
X1765000Y2388842D01*
X1769000D01*
X1771349Y2389152D01*
X1773539Y2390058D01*
X1775419Y2391501D01*
X1776862Y2393381D01*
X1777768Y2395571D01*
X1778078Y2397920D01*
X1777768Y2400269D01*
X1776862Y2402459D01*
X1775419Y2404339D01*
X1773539Y2405781D01*
X1771349Y2406688D01*
X1769000Y2406998D01*
D02*
G37*
G36*
X1231100Y2389478D02*
X1228751Y2389168D01*
X1226561Y2388262D01*
X1224681Y2386819D01*
X1223239Y2384939D01*
X1222332Y2382749D01*
X1222022Y2380400D01*
X1222332Y2378051D01*
X1223239Y2375861D01*
X1224681Y2373981D01*
X1226561Y2372539D01*
X1228751Y2371632D01*
X1231100Y2371322D01*
X1233449Y2371632D01*
X1235639Y2372539D01*
X1237519Y2373981D01*
X1238961Y2375861D01*
X1239868Y2378051D01*
X1240178Y2380400D01*
X1239868Y2382749D01*
X1238961Y2384939D01*
X1237519Y2386819D01*
X1235639Y2388262D01*
X1233449Y2389168D01*
X1231100Y2389478D01*
D02*
G37*
G36*
X1413500Y2437616D02*
X1411803Y2437393D01*
X1410222Y2436738D01*
X1408864Y2435696D01*
X1407822Y2434338D01*
X1407167Y2432757D01*
X1406944Y2431060D01*
X1407167Y2429363D01*
X1407822Y2427782D01*
X1408864Y2426424D01*
X1410222Y2425382D01*
X1411803Y2424727D01*
X1413314Y2424528D01*
X1413527Y2424437D01*
X1414091Y2424429D01*
X1414576Y2424396D01*
X1415017Y2424340D01*
X1415416Y2424262D01*
X1415772Y2424166D01*
X1416087Y2424053D01*
X1416362Y2423926D01*
X1416602Y2423787D01*
X1416810Y2423636D01*
X1417058Y2423413D01*
X1417204Y2423362D01*
X1465263Y2375303D01*
X1465263Y2375303D01*
X1466179Y2374691D01*
X1467260Y2374476D01*
X1467260Y2374476D01*
X1500100D01*
X1500100Y2374476D01*
X1501181Y2374691D01*
X1502097Y2375303D01*
X1508319Y2381525D01*
X1509185Y2381225D01*
X1509561Y2380971D01*
X1509767Y2379403D01*
X1510422Y2377822D01*
X1511464Y2376464D01*
X1512822Y2375422D01*
X1514403Y2374767D01*
X1516100Y2374544D01*
X1517797Y2374767D01*
X1519378Y2375422D01*
X1520539Y2376313D01*
X1520748Y2376386D01*
X1520884Y2376506D01*
X1520971Y2376565D01*
X1521104Y2376635D01*
X1521286Y2376709D01*
X1521520Y2376781D01*
X1521806Y2376846D01*
X1522122Y2376897D01*
X1522974Y2376968D01*
X1523460Y2376977D01*
X1523563Y2377022D01*
X1525411D01*
X1544790Y2357642D01*
X1545666Y2356721D01*
X1545666Y2356721D01*
X1549936Y2353074D01*
X1554724Y2350140D01*
X1559912Y2347991D01*
X1565373Y2346680D01*
X1569728Y2346337D01*
X1570971Y2346240D01*
X1570971Y2346240D01*
Y2346272D01*
X1570971Y2346272D01*
X1578490D01*
X1578591Y2346227D01*
X1579494Y2346205D01*
X1580240Y2346144D01*
X1580859Y2346048D01*
X1581344Y2345927D01*
X1581688Y2345796D01*
X1581891Y2345681D01*
X1581975Y2345609D01*
X1581988Y2345590D01*
X1581990Y2345585D01*
X1582017Y2345347D01*
X1582100Y2345198D01*
Y2344000D01*
X1583406D01*
X1583631Y2343907D01*
X1583720Y2343944D01*
X1583813Y2343917D01*
X1583963Y2344000D01*
X1597237D01*
X1597386Y2343917D01*
X1597480Y2343944D01*
X1597569Y2343907D01*
X1597794Y2344000D01*
X1599100D01*
Y2344576D01*
X1599882Y2345038D01*
X1600800Y2344484D01*
Y2343900D01*
X1602106D01*
X1602330Y2343807D01*
X1602417Y2343843D01*
X1602506Y2343816D01*
X1602659Y2343900D01*
X1615941D01*
X1616094Y2343816D01*
X1616183Y2343843D01*
X1616270Y2343807D01*
X1616494Y2343900D01*
X1617800D01*
Y2345102D01*
X1617884Y2345255D01*
X1617912Y2345519D01*
X1617924Y2345551D01*
X1617948Y2345585D01*
X1618035Y2345664D01*
X1618236Y2345783D01*
X1618575Y2345917D01*
X1619054Y2346042D01*
X1619668Y2346141D01*
X1620409Y2346204D01*
X1621311Y2346227D01*
X1621411Y2346272D01*
X1665829D01*
X1666012Y2346308D01*
X1669999Y2345915D01*
X1674009Y2344699D01*
X1677705Y2342724D01*
X1680802Y2340181D01*
X1680906Y2340027D01*
X1700618Y2320314D01*
X1701502Y2319402D01*
X1701502Y2319402D01*
X1704606Y2316854D01*
X1708148Y2314961D01*
X1711991Y2313795D01*
X1715988Y2313401D01*
Y2313422D01*
X1764012D01*
X1764108Y2313378D01*
X1765092Y2313340D01*
X1765458Y2313300D01*
X1765794Y2313246D01*
X1766080Y2313181D01*
X1766314Y2313109D01*
X1766496Y2313035D01*
X1766629Y2312965D01*
X1766716Y2312906D01*
X1766852Y2312786D01*
X1767061Y2312713D01*
X1768222Y2311822D01*
X1769803Y2311167D01*
X1771500Y2310944D01*
X1773197Y2311167D01*
X1774778Y2311822D01*
X1776136Y2312864D01*
X1777178Y2314222D01*
X1777833Y2315803D01*
X1778056Y2317500D01*
X1777833Y2319197D01*
X1777178Y2320778D01*
X1776136Y2322136D01*
X1774778Y2323178D01*
X1773197Y2323833D01*
X1771500Y2324056D01*
X1769803Y2323833D01*
X1768222Y2323178D01*
X1767061Y2322287D01*
X1766852Y2322214D01*
X1766716Y2322094D01*
X1766629Y2322035D01*
X1766496Y2321965D01*
X1766314Y2321892D01*
X1766080Y2321820D01*
X1765794Y2321754D01*
X1765478Y2321703D01*
X1764626Y2321632D01*
X1764140Y2321623D01*
X1764037Y2321578D01*
X1715988D01*
X1715815Y2321544D01*
X1712787Y2321943D01*
X1709805Y2323178D01*
X1708225Y2324390D01*
X1707284Y2325184D01*
X1706404Y2326064D01*
X1686673Y2345794D01*
X1686682Y2345803D01*
X1683163Y2348809D01*
X1679218Y2351227D01*
X1674942Y2352997D01*
X1670442Y2354078D01*
X1665829Y2354441D01*
Y2354428D01*
X1621406D01*
X1621304Y2354473D01*
X1620394Y2354493D01*
X1619636Y2354547D01*
X1619001Y2354632D01*
X1618498Y2354742D01*
X1618137Y2354861D01*
X1617923Y2354966D01*
X1617891Y2354990D01*
X1617879Y2355079D01*
X1617800Y2355217D01*
Y2356400D01*
X1616494D01*
X1616270Y2356493D01*
X1616167Y2356451D01*
X1616060Y2356479D01*
X1615922Y2356400D01*
X1602679D01*
X1602540Y2356479D01*
X1602433Y2356451D01*
X1602330Y2356493D01*
X1602106Y2356400D01*
X1600800D01*
Y2356104D01*
X1599859Y2355491D01*
X1599100Y2355932D01*
Y2356500D01*
X1597794D01*
X1597569Y2356593D01*
X1597472Y2356553D01*
X1597369Y2356581D01*
X1597227Y2356500D01*
X1583973D01*
X1583831Y2356581D01*
X1583728Y2356553D01*
X1583631Y2356593D01*
X1583406Y2356500D01*
X1582100D01*
Y2355312D01*
X1582019Y2355170D01*
X1582002Y2355027D01*
X1581947Y2354984D01*
X1581738Y2354875D01*
X1581383Y2354752D01*
X1580886Y2354639D01*
X1580256Y2354550D01*
X1579502Y2354493D01*
X1578594Y2354473D01*
X1578493Y2354428D01*
X1570971D01*
X1570839Y2354402D01*
X1566648Y2354732D01*
X1562431Y2355744D01*
X1558425Y2357404D01*
X1554727Y2359670D01*
X1551531Y2362400D01*
X1551456Y2362512D01*
X1529984Y2383984D01*
X1528661Y2384868D01*
X1527100Y2385178D01*
X1527100Y2385178D01*
X1523588D01*
X1523493Y2385222D01*
X1522508Y2385260D01*
X1522142Y2385300D01*
X1521806Y2385354D01*
X1521520Y2385420D01*
X1521286Y2385492D01*
X1521104Y2385565D01*
X1520971Y2385635D01*
X1520884Y2385694D01*
X1520748Y2385814D01*
X1520539Y2385887D01*
X1520254Y2386106D01*
X1520685Y2387376D01*
X1542630D01*
X1552830Y2377176D01*
X1552562Y2375830D01*
X1552989Y2373684D01*
X1554205Y2371865D01*
X1556024Y2370649D01*
X1558170Y2370222D01*
X1560316Y2370649D01*
X1562135Y2371865D01*
X1563351Y2373684D01*
X1563778Y2375830D01*
X1563351Y2377976D01*
X1562135Y2379795D01*
X1560316Y2381011D01*
X1558170Y2381438D01*
X1556824Y2381170D01*
X1545797Y2392197D01*
X1544881Y2392809D01*
X1543800Y2393024D01*
X1543800Y2393024D01*
X1513000D01*
X1511919Y2392809D01*
X1511003Y2392197D01*
X1511003Y2392197D01*
X1498930Y2380124D01*
X1468430D01*
X1421198Y2427356D01*
X1421147Y2427502D01*
X1420925Y2427749D01*
X1420773Y2427958D01*
X1420634Y2428198D01*
X1420507Y2428473D01*
X1420394Y2428788D01*
X1420298Y2429144D01*
X1420220Y2429543D01*
X1420164Y2429984D01*
X1420131Y2430469D01*
X1420123Y2431033D01*
X1420032Y2431246D01*
X1419833Y2432757D01*
X1419178Y2434338D01*
X1418136Y2435696D01*
X1416778Y2436738D01*
X1415197Y2437393D01*
X1413500Y2437616D01*
D02*
G37*
G36*
X1231300Y2358678D02*
X1228951Y2358368D01*
X1226761Y2357462D01*
X1224881Y2356019D01*
X1223439Y2354139D01*
X1222532Y2351949D01*
X1222222Y2349600D01*
X1222532Y2347251D01*
X1223439Y2345061D01*
X1224881Y2343181D01*
X1226761Y2341739D01*
X1228951Y2340832D01*
X1231300Y2340522D01*
X1233650Y2340832D01*
X1235839Y2341739D01*
X1237719Y2343181D01*
X1239162Y2345061D01*
X1240068Y2347251D01*
X1240378Y2349600D01*
X1240068Y2351949D01*
X1239162Y2354139D01*
X1237719Y2356019D01*
X1235839Y2357462D01*
X1233650Y2358368D01*
X1231300Y2358678D01*
D02*
G37*
G36*
X1633800Y2250924D02*
X1633800Y2250924D01*
X1404600D01*
X1404600Y2250924D01*
X1403519Y2250709D01*
X1402603Y2250097D01*
X1402603Y2250097D01*
X1396703Y2244197D01*
X1396091Y2243281D01*
X1395876Y2242200D01*
X1395876Y2242200D01*
Y2177781D01*
X1394606Y2177412D01*
X1393478Y2178278D01*
X1391897Y2178933D01*
X1390200Y2179156D01*
X1388503Y2178933D01*
X1386922Y2178278D01*
X1385564Y2177236D01*
X1384522Y2175878D01*
X1383867Y2174297D01*
X1383644Y2172600D01*
X1383867Y2170903D01*
X1384522Y2169322D01*
X1385564Y2167964D01*
X1386922Y2166922D01*
X1388503Y2166267D01*
X1390200Y2166044D01*
X1391897Y2166267D01*
X1393478Y2166922D01*
X1394606Y2167788D01*
X1395876Y2167419D01*
Y2126800D01*
X1395876Y2126800D01*
X1396091Y2125719D01*
X1396703Y2124803D01*
X1408903Y2112603D01*
X1409819Y2111991D01*
X1410900Y2111776D01*
X1410900Y2111776D01*
X1487400D01*
X1487400Y2111776D01*
X1488481Y2111991D01*
X1489397Y2112603D01*
X1553154Y2176360D01*
X1554500Y2176092D01*
X1556646Y2176519D01*
X1558465Y2177735D01*
X1559681Y2179554D01*
X1560108Y2181700D01*
X1559681Y2183846D01*
X1558465Y2185665D01*
X1556646Y2186881D01*
X1554500Y2187308D01*
X1552354Y2186881D01*
X1550535Y2185665D01*
X1549319Y2183846D01*
X1548892Y2181700D01*
X1549160Y2180354D01*
X1486230Y2117424D01*
X1412070D01*
X1401524Y2127970D01*
Y2241030D01*
X1405770Y2245276D01*
X1632630D01*
X1640740Y2237166D01*
X1640792Y2236905D01*
X1641404Y2235989D01*
X1644784Y2232609D01*
X1644784Y2232609D01*
X1644784Y2232609D01*
X1672440Y2204953D01*
X1672440Y2204953D01*
X1673356Y2204341D01*
X1674437Y2204126D01*
X1702980D01*
X1722302Y2184804D01*
X1722353Y2184658D01*
X1722576Y2184411D01*
X1722727Y2184202D01*
X1722866Y2183963D01*
X1722993Y2183687D01*
X1723106Y2183372D01*
X1723202Y2183016D01*
X1723280Y2182617D01*
X1723336Y2182176D01*
X1723369Y2181691D01*
X1723377Y2181127D01*
X1723468Y2180914D01*
X1723667Y2179403D01*
X1724322Y2177822D01*
X1725364Y2176464D01*
X1726722Y2175422D01*
X1728303Y2174767D01*
X1730000Y2174544D01*
X1731697Y2174767D01*
X1733278Y2175422D01*
X1734636Y2176464D01*
X1735678Y2177822D01*
X1736333Y2179403D01*
X1736556Y2181100D01*
X1736333Y2182797D01*
X1735678Y2184378D01*
X1734636Y2185736D01*
X1733278Y2186778D01*
X1731697Y2187433D01*
X1730186Y2187632D01*
X1729973Y2187723D01*
X1729409Y2187731D01*
X1728924Y2187764D01*
X1728483Y2187820D01*
X1728084Y2187898D01*
X1727728Y2187994D01*
X1727413Y2188107D01*
X1727138Y2188234D01*
X1726898Y2188374D01*
X1726689Y2188524D01*
X1726442Y2188747D01*
X1726296Y2188798D01*
X1706147Y2208947D01*
X1705231Y2209559D01*
X1704150Y2209774D01*
X1704150Y2209774D01*
X1675607D01*
X1648778Y2236603D01*
X1648778Y2236603D01*
X1646062Y2239319D01*
X1646010Y2239580D01*
X1645398Y2240496D01*
X1635797Y2250097D01*
X1634881Y2250709D01*
X1633800Y2250924D01*
D02*
G37*
G36*
X1288600Y2233879D02*
X1286219Y2233565D01*
X1284001Y2232646D01*
X1282096Y2231185D01*
X1280634Y2229279D01*
X1279715Y2227061D01*
X1279401Y2224680D01*
Y2214520D01*
X1279715Y2212139D01*
X1280634Y2209921D01*
X1282096Y2208016D01*
X1284001Y2206554D01*
X1286219Y2205635D01*
X1288600Y2205321D01*
X1290981Y2205635D01*
X1293199Y2206554D01*
X1295105Y2208016D01*
X1296566Y2209921D01*
X1297485Y2212139D01*
X1297799Y2214520D01*
Y2224680D01*
X1297485Y2227061D01*
X1296566Y2229279D01*
X1295105Y2231185D01*
X1293199Y2232646D01*
X1290981Y2233565D01*
X1288600Y2233879D01*
D02*
G37*
G36*
X1421100Y2220978D02*
X1417100D01*
X1414751Y2220668D01*
X1412561Y2219762D01*
X1410681Y2218319D01*
X1409239Y2216439D01*
X1408332Y2214250D01*
X1408022Y2211900D01*
X1408332Y2209550D01*
X1409239Y2207361D01*
X1410681Y2205481D01*
X1412561Y2204039D01*
X1414751Y2203132D01*
X1417100Y2202822D01*
X1421100D01*
X1423450Y2203132D01*
X1425639Y2204039D01*
X1427519Y2205481D01*
X1428961Y2207361D01*
X1429868Y2209550D01*
X1430178Y2211900D01*
X1429868Y2214250D01*
X1428961Y2216439D01*
X1427519Y2218319D01*
X1425639Y2219762D01*
X1423450Y2220668D01*
X1421100Y2220978D01*
D02*
G37*
G36*
X1640000Y2261608D02*
X1637854Y2261181D01*
X1636035Y2259965D01*
X1634819Y2258146D01*
X1634392Y2256000D01*
X1634819Y2253854D01*
X1636035Y2252035D01*
X1637854Y2250819D01*
X1640000Y2250392D01*
X1642146Y2250819D01*
X1643965Y2252035D01*
X1644377Y2252652D01*
X1645842Y2252764D01*
X1662703Y2235903D01*
X1662703Y2235903D01*
X1663619Y2235291D01*
X1664700Y2235076D01*
X1684842D01*
X1684842Y2235076D01*
X1685923Y2235291D01*
X1686839Y2235903D01*
X1697612Y2246676D01*
X1740230D01*
X1778602Y2208304D01*
X1778653Y2208158D01*
X1778876Y2207910D01*
X1779027Y2207702D01*
X1779166Y2207462D01*
X1779293Y2207187D01*
X1779406Y2206872D01*
X1779503Y2206516D01*
X1779580Y2206117D01*
X1779636Y2205676D01*
X1779669Y2205191D01*
X1779677Y2204627D01*
X1779768Y2204414D01*
X1779967Y2202903D01*
X1780622Y2201322D01*
X1781664Y2199964D01*
X1783022Y2198922D01*
X1784603Y2198267D01*
X1786300Y2198044D01*
X1787997Y2198267D01*
X1789578Y2198922D01*
X1790936Y2199964D01*
X1791978Y2201322D01*
X1792633Y2202903D01*
X1792856Y2204600D01*
X1792633Y2206297D01*
X1791978Y2207878D01*
X1790936Y2209236D01*
X1789578Y2210278D01*
X1787997Y2210933D01*
X1786486Y2211132D01*
X1786273Y2211223D01*
X1785709Y2211231D01*
X1785224Y2211264D01*
X1784783Y2211320D01*
X1784384Y2211398D01*
X1784028Y2211494D01*
X1783713Y2211607D01*
X1783438Y2211734D01*
X1783198Y2211873D01*
X1782990Y2212025D01*
X1782742Y2212247D01*
X1782596Y2212298D01*
X1743397Y2251497D01*
X1742481Y2252109D01*
X1741400Y2252324D01*
X1741400Y2252324D01*
X1696530D01*
X1696419Y2252348D01*
X1695392Y2253410D01*
X1695456Y2253900D01*
X1695233Y2255597D01*
X1694578Y2257178D01*
X1693536Y2258536D01*
X1692178Y2259578D01*
X1690597Y2260233D01*
X1688900Y2260456D01*
X1687203Y2260233D01*
X1685622Y2259578D01*
X1684264Y2258536D01*
X1683222Y2257178D01*
X1682567Y2255597D01*
X1682344Y2253900D01*
X1682567Y2252203D01*
X1683222Y2250622D01*
X1684264Y2249264D01*
X1685622Y2248222D01*
X1687203Y2247567D01*
X1688543Y2247391D01*
X1689142Y2246194D01*
X1683672Y2240724D01*
X1665870D01*
X1648597Y2257997D01*
X1647681Y2258609D01*
X1646600Y2258824D01*
X1646600Y2258824D01*
X1644728D01*
X1643965Y2259965D01*
X1642146Y2261181D01*
X1640000Y2261608D01*
D02*
G37*
G36*
X1421100Y2195578D02*
X1417100D01*
X1414751Y2195268D01*
X1412561Y2194362D01*
X1410681Y2192919D01*
X1409239Y2191039D01*
X1408332Y2188849D01*
X1408022Y2186500D01*
X1408332Y2184151D01*
X1409239Y2181961D01*
X1410681Y2180081D01*
X1412561Y2178639D01*
X1414751Y2177732D01*
X1417100Y2177422D01*
X1421100D01*
X1423450Y2177732D01*
X1425639Y2178639D01*
X1427519Y2180081D01*
X1428961Y2181961D01*
X1429868Y2184151D01*
X1430178Y2186500D01*
X1429868Y2188849D01*
X1428961Y2191039D01*
X1427519Y2192919D01*
X1425639Y2194362D01*
X1423450Y2195268D01*
X1421100Y2195578D01*
D02*
G37*
G36*
Y2170178D02*
X1417100D01*
X1414751Y2169868D01*
X1412561Y2168961D01*
X1410681Y2167519D01*
X1409239Y2165639D01*
X1408332Y2163450D01*
X1408022Y2161100D01*
X1408332Y2158750D01*
X1409239Y2156561D01*
X1410681Y2154681D01*
X1412561Y2153239D01*
X1414751Y2152332D01*
X1417100Y2152022D01*
X1421100D01*
X1423450Y2152332D01*
X1425639Y2153239D01*
X1427519Y2154681D01*
X1428961Y2156561D01*
X1429868Y2158750D01*
X1430178Y2161100D01*
X1429868Y2163450D01*
X1428961Y2165639D01*
X1427519Y2167519D01*
X1425639Y2168961D01*
X1423450Y2169868D01*
X1421100Y2170178D01*
D02*
G37*
G36*
Y2144778D02*
X1417100D01*
X1414751Y2144468D01*
X1412561Y2143562D01*
X1410681Y2142119D01*
X1409239Y2140239D01*
X1408332Y2138049D01*
X1408022Y2135700D01*
X1408332Y2133351D01*
X1409239Y2131161D01*
X1410681Y2129281D01*
X1412561Y2127839D01*
X1414751Y2126932D01*
X1417100Y2126622D01*
X1421100D01*
X1423450Y2126932D01*
X1425639Y2127839D01*
X1427519Y2129281D01*
X1428961Y2131161D01*
X1429868Y2133351D01*
X1430178Y2135700D01*
X1429868Y2138049D01*
X1428961Y2140239D01*
X1427519Y2142119D01*
X1425639Y2143562D01*
X1423450Y2144468D01*
X1421100Y2144778D01*
D02*
G37*
%LPD*%
G36*
X1199288Y3048810D02*
X1199572Y3044909D01*
X1199677Y3044489D01*
X1199798Y3044189D01*
X1199936Y3044009D01*
X1200090Y3043950D01*
X1190651D01*
X1191150Y3044009D01*
X1191597Y3044189D01*
X1191992Y3044489D01*
X1192334Y3044909D01*
X1192623Y3045450D01*
X1192859Y3046110D01*
X1193043Y3046890D01*
X1193175Y3047790D01*
X1193254Y3048810D01*
X1193280Y3049950D01*
X1199280D01*
X1199288Y3048810D01*
D02*
G37*
G36*
X1199936Y3029951D02*
X1199798Y3029771D01*
X1199677Y3029471D01*
X1199572Y3029051D01*
X1199482Y3028510D01*
X1199410Y3027851D01*
X1199288Y3025150D01*
X1199280Y3024011D01*
X1193280D01*
X1193254Y3025150D01*
X1193175Y3026170D01*
X1193043Y3027071D01*
X1192859Y3027851D01*
X1192623Y3028510D01*
X1192334Y3029051D01*
X1191992Y3029471D01*
X1191597Y3029771D01*
X1191150Y3029951D01*
X1190651Y3030010D01*
X1200090D01*
X1199936Y3029951D01*
D02*
G37*
G36*
X1199303Y3000617D02*
X1199370Y2999903D01*
X1199482Y2999221D01*
X1199640Y2998571D01*
X1199843Y2997953D01*
X1200090Y2997368D01*
X1200383Y2996814D01*
X1200720Y2996293D01*
X1201103Y2995803D01*
X1201530Y2995346D01*
X1191030D01*
X1191458Y2995803D01*
X1191840Y2996293D01*
X1192178Y2996814D01*
X1192470Y2997368D01*
X1192718Y2997953D01*
X1192920Y2998571D01*
X1193077Y2999221D01*
X1193190Y2999903D01*
X1193258Y3000617D01*
X1193280Y3001364D01*
X1199280D01*
X1199303Y3000617D01*
D02*
G37*
G36*
X1478504Y2450726D02*
X1478543Y2450151D01*
X1478612Y2449609D01*
X1478710Y2449100D01*
X1478839Y2448624D01*
X1478998Y2448181D01*
X1479187Y2447771D01*
X1479406Y2447395D01*
X1479655Y2447051D01*
X1479934Y2446741D01*
X1478138Y2444945D01*
X1477828Y2445224D01*
X1477484Y2445473D01*
X1477107Y2445692D01*
X1476698Y2445881D01*
X1476255Y2446040D01*
X1475779Y2446169D01*
X1475270Y2446267D01*
X1474728Y2446336D01*
X1474153Y2446375D01*
X1473546Y2446384D01*
X1478495Y2451333D01*
X1478504Y2450726D01*
D02*
G37*
G36*
X1418508Y2430402D02*
X1418547Y2429827D01*
X1418616Y2429285D01*
X1418715Y2428776D01*
X1418844Y2428301D01*
X1419003Y2427858D01*
X1419192Y2427448D01*
X1419411Y2427071D01*
X1419660Y2426728D01*
X1419939Y2426417D01*
X1418143Y2424621D01*
X1417832Y2424900D01*
X1417489Y2425149D01*
X1417112Y2425368D01*
X1416702Y2425557D01*
X1416259Y2425716D01*
X1415784Y2425845D01*
X1415275Y2425944D01*
X1414733Y2426013D01*
X1414158Y2426051D01*
X1413550Y2426060D01*
X1418500Y2431010D01*
X1418508Y2430402D01*
D02*
G37*
G36*
X1519885Y2384410D02*
X1520135Y2384240D01*
X1520421Y2384090D01*
X1520743Y2383960D01*
X1521101Y2383850D01*
X1521495Y2383760D01*
X1521924Y2383690D01*
X1522390Y2383640D01*
X1523430Y2383600D01*
Y2378600D01*
X1522892Y2378590D01*
X1521924Y2378510D01*
X1521495Y2378440D01*
X1521101Y2378350D01*
X1520743Y2378240D01*
X1520421Y2378110D01*
X1520135Y2377960D01*
X1519885Y2377790D01*
X1519671Y2377600D01*
Y2384600D01*
X1519885Y2384410D01*
D02*
G37*
G36*
X1583631Y2345531D02*
X1583580Y2345971D01*
X1583430Y2346366D01*
X1583181Y2346714D01*
X1582831Y2347015D01*
X1582381Y2347270D01*
X1581830Y2347479D01*
X1581181Y2347641D01*
X1580430Y2347757D01*
X1579581Y2347827D01*
X1578631Y2347850D01*
Y2352850D01*
X1579581Y2352871D01*
X1580430Y2352935D01*
X1581181Y2353041D01*
X1581830Y2353189D01*
X1582381Y2353380D01*
X1582831Y2353613D01*
X1583181Y2353889D01*
X1583430Y2354207D01*
X1583580Y2354567D01*
X1583631Y2354970D01*
Y2345531D01*
D02*
G37*
G36*
X1616320Y2354486D02*
X1616470Y2354142D01*
X1616720Y2353840D01*
X1617070Y2353577D01*
X1617520Y2353355D01*
X1618069Y2353173D01*
X1618719Y2353032D01*
X1619469Y2352931D01*
X1620320Y2352870D01*
X1621270Y2352850D01*
Y2347850D01*
X1620320Y2347826D01*
X1619469Y2347753D01*
X1618719Y2347632D01*
X1618069Y2347463D01*
X1617520Y2347245D01*
X1617070Y2346979D01*
X1616720Y2346664D01*
X1616470Y2346302D01*
X1616320Y2345890D01*
X1616270Y2345430D01*
Y2354870D01*
X1616320Y2354486D01*
D02*
G37*
G36*
X1597619Y2354567D02*
X1597769Y2354207D01*
X1598020Y2353889D01*
X1598369Y2353613D01*
X1598819Y2353380D01*
X1599370Y2353189D01*
X1599972Y2353052D01*
X1600531Y2353173D01*
X1601080Y2353355D01*
X1601530Y2353577D01*
X1601880Y2353840D01*
X1602130Y2354142D01*
X1602280Y2354486D01*
X1602330Y2354870D01*
Y2352855D01*
X1602569Y2352850D01*
Y2347850D01*
X1602330Y2347844D01*
Y2345430D01*
X1602280Y2345890D01*
X1602130Y2346302D01*
X1601880Y2346664D01*
X1601530Y2346979D01*
X1601080Y2347245D01*
X1600531Y2347463D01*
X1599931Y2347619D01*
X1599370Y2347479D01*
X1598819Y2347270D01*
X1598369Y2347015D01*
X1598020Y2346714D01*
X1597769Y2346366D01*
X1597619Y2345971D01*
X1597569Y2345531D01*
Y2347844D01*
X1597330Y2347850D01*
Y2352850D01*
X1597569Y2352855D01*
Y2354970D01*
X1597619Y2354567D01*
D02*
G37*
G36*
X1767929Y2314000D02*
X1767715Y2314190D01*
X1767465Y2314360D01*
X1767179Y2314510D01*
X1766857Y2314640D01*
X1766499Y2314750D01*
X1766105Y2314840D01*
X1765676Y2314910D01*
X1765210Y2314960D01*
X1764170Y2315000D01*
Y2320000D01*
X1764708Y2320010D01*
X1765676Y2320090D01*
X1766105Y2320160D01*
X1766499Y2320250D01*
X1766857Y2320360D01*
X1767179Y2320490D01*
X1767465Y2320640D01*
X1767715Y2320810D01*
X1767929Y2321000D01*
Y2314000D01*
D02*
G37*
G36*
X1725668Y2187260D02*
X1726011Y2187011D01*
X1726388Y2186792D01*
X1726798Y2186603D01*
X1727241Y2186444D01*
X1727716Y2186315D01*
X1728225Y2186216D01*
X1728767Y2186147D01*
X1729342Y2186109D01*
X1729950Y2186100D01*
X1725000Y2181150D01*
X1724991Y2181758D01*
X1724953Y2182333D01*
X1724884Y2182875D01*
X1724785Y2183384D01*
X1724656Y2183860D01*
X1724497Y2184302D01*
X1724308Y2184712D01*
X1724089Y2185089D01*
X1723840Y2185432D01*
X1723561Y2185743D01*
X1725357Y2187539D01*
X1725668Y2187260D01*
D02*
G37*
G36*
X1781968Y2210760D02*
X1782311Y2210511D01*
X1782688Y2210292D01*
X1783098Y2210103D01*
X1783541Y2209944D01*
X1784016Y2209815D01*
X1784525Y2209716D01*
X1785067Y2209647D01*
X1785642Y2209609D01*
X1786250Y2209600D01*
X1781300Y2204650D01*
X1781292Y2205258D01*
X1781253Y2205833D01*
X1781184Y2206375D01*
X1781085Y2206884D01*
X1780956Y2207359D01*
X1780797Y2207802D01*
X1780608Y2208212D01*
X1780389Y2208589D01*
X1780140Y2208932D01*
X1779861Y2209243D01*
X1781657Y2211039D01*
X1781968Y2210760D01*
D02*
G37*
D13*
X1445000Y3087980D02*
Y3103000D01*
Y3124700D01*
X1446470Y3126170D01*
X1445000Y3087980D02*
X1461710Y3071270D01*
X1516320D01*
X1786830Y3148740D02*
X1789000Y3146570D01*
Y3108000D02*
Y3146570D01*
X1633000Y3101031D02*
Y3108541D01*
Y3101031D02*
X1653871Y3080160D01*
X1633000Y3108541D02*
X1634430Y3109971D01*
Y3145518D01*
X1293388Y3151280D02*
X1297000Y3147668D01*
Y3082310D02*
Y3147668D01*
Y3082310D02*
X1302960Y3076350D01*
X1196280Y2989990D02*
Y3124610D01*
X1446470Y3126170D02*
Y3146788D01*
X1653871Y3080160D02*
X1710630D01*
X1631208Y3148740D02*
X1634430Y3145518D01*
X1544260Y3148740D02*
X1631208D01*
X1529020Y3133500D02*
X1544260Y3148740D01*
X1529020Y3083970D02*
Y3133500D01*
X1516320Y3071270D02*
X1529020Y3083970D01*
X1302960Y3076350D02*
X1371540D01*
X1196280Y3124610D02*
X1222950Y3151280D01*
X1293388D01*
X1443248Y3150010D02*
X1446470Y3146788D01*
X1393130Y3150010D02*
X1443248D01*
X1710630Y3080160D02*
X1717100Y3086630D01*
Y3134300D01*
X1731540Y3148740D02*
X1786830D01*
X1717100Y3134300D02*
X1731540Y3148740D01*
X1381300Y3086110D02*
Y3138180D01*
X1393130Y3150010D01*
X1371540Y3076350D02*
X1381300Y3086110D01*
D16*
X1704400Y2322300D02*
G03*
X1715988Y2317500I11588J11588D01*
G01*
X1683790Y2342910D02*
G03*
X1665829Y2350350I-17960J-17960D01*
G01*
X1548572Y2359628D02*
G03*
X1570971Y2350350I22399J22399D01*
G01*
X1715988Y2317500D02*
X1771500D01*
X1683790Y2342910D02*
X1704400Y2322300D01*
X1609300Y2350350D02*
X1665829D01*
X1570971D02*
X1609300D01*
X1527100Y2381100D02*
X1548572Y2359628D01*
X1516100Y2381100D02*
X1527100D01*
D17*
X1794000Y2508300D02*
X1817900Y2484400D01*
X1700100Y2508300D02*
X1794000D01*
X1646600Y2256000D02*
X1664700Y2237900D01*
X1640000Y2256000D02*
X1646600D01*
X1150500Y2027500D02*
Y2051500D01*
Y2027500D02*
X1151000Y2027000D01*
X1150000Y2052000D02*
X1150500Y2051500D01*
X1500100Y2377300D02*
X1513000Y2390200D01*
X1467260Y2377300D02*
X1500100D01*
X1413500Y2431060D02*
X1467260Y2377300D01*
X1684842Y2237900D02*
X1696442Y2249500D01*
X1741400D02*
X1786300Y2204600D01*
X1696442Y2249500D02*
X1741400D01*
X1487400Y2114600D02*
X1554500Y2181700D01*
X1410900Y2114600D02*
X1487400D01*
X1704150Y2206950D02*
X1730000Y2181100D01*
X1398700Y2126800D02*
X1410900Y2114600D01*
X1398700Y2126800D02*
Y2242200D01*
X1642500Y2450700D02*
X1700100Y2508300D01*
X1712700Y2345900D02*
X1807200D01*
X1673100Y2385500D02*
X1712700Y2345900D01*
X1571300Y2385500D02*
X1673100D01*
X1534849Y2421951D02*
X1571300Y2385500D01*
X1502928Y2421951D02*
X1534849D01*
X1473495Y2451384D02*
X1502928Y2421951D01*
X1398700Y2242200D02*
X1404600Y2248100D01*
X1543800Y2390200D02*
X1558170Y2375830D01*
X1513000Y2390200D02*
X1543800D01*
X1664700Y2237900D02*
X1684842D01*
X1807200Y2345900D02*
X1817900Y2356600D01*
Y2484400D01*
X1633800Y2248100D02*
X1643401Y2238499D01*
X1404600Y2248100D02*
X1633800D01*
X1643401Y2237986D02*
Y2238499D01*
Y2237986D02*
X1646781Y2234606D01*
X1646781D01*
X1674437Y2206950D01*
X1704150D01*
D22*
X1140400Y3403375D02*
D03*
Y3491005D02*
D03*
D24*
X2670815Y1793766D02*
D03*
X2583185D02*
D03*
X2671815Y2275766D02*
D03*
X2584185D02*
D03*
X1728815Y2016900D02*
D03*
X1641185D02*
D03*
X1472285Y2616100D02*
D03*
X1559915D02*
D03*
X1560135Y2838606D02*
D03*
X1472505D02*
D03*
X1721425Y3541000D02*
D03*
X1809055D02*
D03*
X1553760D02*
D03*
X1641390D02*
D03*
D25*
X2423038Y2408501D02*
D03*
Y2427501D02*
D03*
Y2378021D02*
D03*
Y2397021D02*
D03*
D29*
X1195370Y3036980D02*
D03*
X1176870D02*
D03*
X2150470Y3144100D02*
D03*
X2131970D02*
D03*
D30*
X1609300Y2350150D02*
D03*
Y2331650D02*
D03*
X1590600Y2368750D02*
D03*
Y2350250D02*
D03*
X1998858Y2534481D02*
D03*
Y2552981D02*
D03*
D40*
X2089218Y2330181D02*
D03*
X2076137Y2343262D02*
D03*
D127*
X2338470Y3377780D02*
D03*
Y2975190D02*
D03*
D128*
X2363470Y3377780D02*
D03*
X2424430Y3363810D02*
D03*
Y2961220D02*
D03*
X2363470Y2975190D02*
D03*
D129*
X2424430Y3388810D02*
D03*
Y2986220D02*
D03*
D136*
X2087353Y2330776D02*
Y2330905D01*
Y2330776D02*
X2097918Y2320211D01*
X1989968Y2550441D02*
X1990878Y2551351D01*
X2255398Y2078977D02*
X2255741Y2079321D01*
X2280798Y2078977D02*
X2281141Y2079321D01*
X2390018Y2430041D02*
X2421768D01*
X2390018Y2404641D02*
X2420448D01*
X2424308Y2408501D01*
D137*
X2451038Y2375271D02*
X2454038D01*
X2422038Y2346271D02*
X2451038Y2375271D01*
X2422038Y2110931D02*
Y2346271D01*
X2390018Y2078911D02*
X2422038Y2110931D01*
X1946788Y2513251D02*
X1986158Y2552621D01*
X2390018Y2033191D02*
Y2048431D01*
X2378588Y2021761D02*
X2390018Y2033191D01*
Y2048431D02*
Y2078911D01*
X2204598Y2048431D02*
Y2078977D01*
X2204941Y2079321D01*
X2022988Y2552621D02*
X2054738D01*
X2255398Y2048431D02*
Y2078977D01*
X2280798Y2048431D02*
Y2078977D01*
X2313818Y2048431D02*
Y2078911D01*
X2339218Y2048431D02*
Y2078911D01*
X2359538Y2163341D02*
X2390018D01*
X2359538Y2188741D02*
X2390018D01*
X2359538Y2214141D02*
X2390018D01*
X2359538Y2239541D02*
X2390018D01*
X2359538Y2271291D02*
X2390018D01*
X2359538Y2296691D02*
X2390018D01*
X2359538Y2322091D02*
X2390018D01*
X2359538Y2347491D02*
X2390018D01*
X2359538Y2379241D02*
X2390018D01*
X2359538Y2404641D02*
X2390018D01*
X2359538Y2430041D02*
X2390018D01*
X2359538Y2455441D02*
X2390018D01*
X2359538Y2505631D02*
Y2536111D01*
X2334138Y2505631D02*
Y2536111D01*
X2308738Y2505631D02*
Y2536111D01*
X2283338Y2505631D02*
Y2536111D01*
X2130938Y2047161D02*
Y2077641D01*
X2105538Y2047161D02*
Y2077641D01*
X2080138Y2047161D02*
Y2077641D01*
X2054738Y2047161D02*
Y2077641D01*
X1946788Y2123361D02*
Y2513251D01*
X2204598Y2029381D02*
Y2048431D01*
X2231268Y2021761D02*
X2378588D01*
X2204598Y2048431D02*
X2231268Y2021761D01*
X2022988Y2155111D02*
X2054738D01*
X2022988Y2180511D02*
X2054738D01*
X2022988Y2205911D02*
X2054738D01*
X2022988Y2231311D02*
X2054738D01*
X2022988Y2261791D02*
X2054738D01*
X2022988Y2287191D02*
X2054738D01*
X2022988Y2312591D02*
X2054738D01*
X2022988Y2337991D02*
X2054738D01*
X2022988Y2368471D02*
X2054738D01*
X2022988Y2393871D02*
X2054738D01*
X2022988Y2419271D02*
X2054738D01*
X2022988Y2444671D02*
X2054738D01*
X2022988Y2476421D02*
X2054738D01*
X1986158Y2552621D02*
X2022988D01*
X2048388Y2021761D02*
X2196978D01*
X1946788Y2123361D02*
X2048388Y2021761D01*
X2196978D02*
X2204598Y2029381D01*
X2078990Y3141560D02*
X2087880Y3132670D01*
Y3122510D02*
Y3132670D01*
X1972310Y3141560D02*
Y3174580D01*
Y3141560D02*
X2078990D01*
D138*
X1849060Y3125880D02*
D03*
X1231100Y2380400D02*
D03*
X1231300Y2349600D02*
D03*
X1355030Y3125880D02*
D03*
X1503620Y3123340D02*
D03*
X1691580Y3127150D02*
D03*
X1196280Y2989990D02*
D03*
X1160720D02*
D03*
X2080138Y2077641D02*
D03*
X2105538D02*
D03*
X2130938D02*
D03*
X2359538Y2505631D02*
D03*
X2334138D02*
D03*
X2308738D02*
D03*
X2054738Y2393871D02*
D03*
Y2419271D02*
D03*
Y2444671D02*
D03*
Y2180511D02*
D03*
Y2205911D02*
D03*
Y2231311D02*
D03*
Y2287191D02*
D03*
Y2312591D02*
D03*
Y2337991D02*
D03*
Y2501821D02*
D03*
Y2527221D02*
D03*
Y2552621D02*
D03*
X2359538Y2404641D02*
D03*
Y2430041D02*
D03*
Y2455441D02*
D03*
X2390018Y2322091D02*
D03*
Y2296691D02*
D03*
Y2271291D02*
D03*
Y2214141D02*
D03*
Y2188741D02*
D03*
Y2163341D02*
D03*
X2255398Y2048431D02*
D03*
X2229998D02*
D03*
X2204598D02*
D03*
X2359538Y2536111D02*
D03*
X2334138D02*
D03*
X2308738D02*
D03*
X2255741Y2079321D02*
D03*
X2230341D02*
D03*
X2204941D02*
D03*
X2364618Y2078911D02*
D03*
X2339218D02*
D03*
X2313818D02*
D03*
X2022988Y2501821D02*
D03*
Y2527221D02*
D03*
Y2552621D02*
D03*
Y2393871D02*
D03*
Y2419271D02*
D03*
Y2444671D02*
D03*
X2080138Y2047161D02*
D03*
X2105538D02*
D03*
X2130938D02*
D03*
X2364618Y2048431D02*
D03*
X2339218D02*
D03*
X2313818D02*
D03*
X2359538Y2214141D02*
D03*
Y2188741D02*
D03*
Y2163341D02*
D03*
X2022988Y2287191D02*
D03*
Y2312591D02*
D03*
Y2337991D02*
D03*
X2359538Y2271291D02*
D03*
Y2296691D02*
D03*
Y2322091D02*
D03*
X2390018Y2404641D02*
D03*
Y2430041D02*
D03*
Y2455441D02*
D03*
X2022988Y2180511D02*
D03*
Y2205911D02*
D03*
Y2231311D02*
D03*
X2504440Y3484460D02*
D03*
X2529840D02*
D03*
X2555240D02*
D03*
X2062480Y3353650D02*
D03*
X2087880D02*
D03*
X2113280D02*
D03*
X2087880Y3198710D02*
D03*
X2062480D02*
D03*
X2037080D02*
D03*
X2113280Y3122510D02*
D03*
X2087880D02*
D03*
X2062480D02*
D03*
X2037080D02*
D03*
X1972310Y3174580D02*
D03*
Y3141560D02*
D03*
X2646102Y2681752D02*
D03*
X2620702D02*
D03*
X2623226Y3084131D02*
D03*
X2648626D02*
D03*
D139*
X1849060Y3100480D02*
D03*
X1231100Y2405800D02*
D03*
X1231300Y2324200D02*
D03*
X1355030Y3100480D02*
D03*
X1503620Y3097940D02*
D03*
X1691580Y3101750D02*
D03*
X1196280Y2964590D02*
D03*
X1160720D02*
D03*
X2054738Y2368471D02*
D03*
Y2155111D02*
D03*
Y2261791D02*
D03*
Y2476421D02*
D03*
X2359538Y2379241D02*
D03*
X2390018Y2347491D02*
D03*
Y2239541D02*
D03*
X2022988Y2476421D02*
D03*
Y2368471D02*
D03*
X2359538Y2239541D02*
D03*
X2022988Y2261791D02*
D03*
X2359538Y2347491D02*
D03*
X2390018Y2379241D02*
D03*
X2022988Y2155111D02*
D03*
X2113280Y3198710D02*
D03*
D140*
X2657000Y2802910D02*
D03*
Y2857910D02*
D03*
Y3205500D02*
D03*
Y3260500D02*
D03*
D141*
X1767000Y2372520D02*
D03*
Y2397920D02*
D03*
Y2423320D02*
D03*
Y2448720D02*
D03*
Y2474120D02*
D03*
X1797000Y2372520D02*
D03*
Y2397920D02*
D03*
Y2423320D02*
D03*
Y2448720D02*
D03*
Y2474120D02*
D03*
X1419100Y2135700D02*
D03*
Y2161100D02*
D03*
Y2186500D02*
D03*
Y2211900D02*
D03*
Y2237300D02*
D03*
D142*
X1339000Y2219600D02*
D03*
D143*
X1288600D02*
D03*
D144*
X2158608Y2503091D02*
D03*
D145*
X2207408D02*
D03*
X2261870Y3231460D02*
D03*
Y2828870D02*
D03*
D146*
X2054738Y2077641D02*
D03*
X2283338Y2505631D02*
D03*
X2280798Y2048431D02*
D03*
X2283338Y2536111D02*
D03*
X2281141Y2079321D02*
D03*
X2390018Y2078911D02*
D03*
X2054738Y2047161D02*
D03*
X2390018Y2048431D02*
D03*
X2479040Y3484460D02*
D03*
X2037080Y3353650D02*
D03*
X1946910Y3174580D02*
D03*
Y3141560D02*
D03*
D147*
X2452248Y2235121D02*
D03*
D148*
Y2285921D02*
D03*
D149*
X2261870Y3280260D02*
D03*
Y2877670D02*
D03*
D150*
X1550092Y1950473D02*
D03*
X1095584Y3102006D02*
D03*
X1307092Y1968560D02*
D03*
X1010527Y3173364D02*
D03*
X1118092Y1950473D02*
D03*
X1077560Y3183006D02*
D03*
X1095584Y2058005D02*
D03*
X1262092Y1950473D02*
D03*
X1169475Y3507774D02*
D03*
X1077560Y2355005D02*
D03*
X1010527Y2903363D02*
D03*
X1745924Y2033927D02*
D03*
X1316092Y1950473D02*
D03*
X1223475Y3471663D02*
D03*
X1385763Y3507629D02*
D03*
X1239681Y1865416D02*
D03*
X1719613Y2081895D02*
D03*
X1345326Y3404630D02*
D03*
X1059473Y3246006D02*
D03*
Y2652005D02*
D03*
X1489000Y3361000D02*
D03*
X1010527Y2075363D02*
D03*
X1104276Y1883862D02*
D03*
X1059473Y2670005D02*
D03*
X1627693Y1975523D02*
D03*
X1618020Y2059896D02*
D03*
X1419681Y1901528D02*
D03*
X1077560Y2103005D02*
D03*
X992440Y2048362D02*
D03*
X1047018Y1880630D02*
D03*
X1425316Y3415652D02*
D03*
X992440Y3344364D02*
D03*
X1419681Y1865416D02*
D03*
X974416Y3263364D02*
D03*
X1103416Y3488942D02*
D03*
X1158681Y1883440D02*
D03*
X997413Y1970572D02*
D03*
X992440Y2426363D02*
D03*
X1095584Y3030006D02*
D03*
X992440Y2210363D02*
D03*
X1059473Y3318006D02*
D03*
X1095584Y3228006D02*
D03*
X1563681Y1901528D02*
D03*
X992440Y3128363D02*
D03*
X1095584Y2868005D02*
D03*
X992440Y2156363D02*
D03*
X1010527Y3227364D02*
D03*
X1295475Y3507774D02*
D03*
X1478092Y1950473D02*
D03*
X1660527Y2004714D02*
D03*
X1610331Y1883739D02*
D03*
X1192326Y3386606D02*
D03*
X974416Y3353364D02*
D03*
X1095584Y2022005D02*
D03*
X1367476Y3507774D02*
D03*
X1026256Y1894332D02*
D03*
X974416Y2831363D02*
D03*
X1156326Y3422718D02*
D03*
X1300326Y3386606D02*
D03*
X974416Y3137363D02*
D03*
X1149681Y1901527D02*
D03*
X992440Y2822363D02*
D03*
X1347681Y1865416D02*
D03*
X1115476Y3471719D02*
D03*
X1709473Y2013328D02*
D03*
X1280092Y1950473D02*
D03*
X1010527Y2939363D02*
D03*
X974532Y2000469D02*
D03*
X992440Y2894363D02*
D03*
X1577092Y1968560D02*
D03*
X1379092D02*
D03*
X1059473Y3048006D02*
D03*
X1077560Y2913005D02*
D03*
X1205475Y3507774D02*
D03*
X1239681Y1901527D02*
D03*
X1581681Y1865416D02*
D03*
X1372326Y3422718D02*
D03*
X1370092Y1950473D02*
D03*
X992440Y2966363D02*
D03*
X1527681Y1865416D02*
D03*
X1010527Y3029363D02*
D03*
Y2021362D02*
D03*
X974416Y2597363D02*
D03*
X1061694Y1913624D02*
D03*
X1365681Y1901528D02*
D03*
X1059473Y2274005D02*
D03*
X992440Y2138363D02*
D03*
X1336326Y3386606D02*
D03*
X1415092Y1968560D02*
D03*
X1650833Y2075284D02*
D03*
X1545681Y1865416D02*
D03*
X974416Y3227363D02*
D03*
X1572681Y1883440D02*
D03*
X992440Y2102363D02*
D03*
X1059473Y3210006D02*
D03*
X974416Y2903363D02*
D03*
X1709709Y1907293D02*
D03*
X1190092Y1950473D02*
D03*
X1385475Y3471519D02*
D03*
X1520395Y3444810D02*
D03*
X1095584Y3336006D02*
D03*
X1532092Y1950473D02*
D03*
X1029001Y1916655D02*
D03*
X1131681Y1865416D02*
D03*
X1282326Y3386606D02*
D03*
X1095584Y2652005D02*
D03*
X992440Y2750363D02*
D03*
X1630359Y2104740D02*
D03*
X983920Y1952988D02*
D03*
X1013309Y3439602D02*
D03*
X1219325Y3404630D02*
D03*
X1044018Y3468790D02*
D03*
X1352092Y1950473D02*
D03*
X1651265Y1891287D02*
D03*
X1095584Y2382005D02*
D03*
X1702527Y1960193D02*
D03*
X1496092Y1950473D02*
D03*
X992440Y2462363D02*
D03*
X1217092Y1968560D02*
D03*
X1318326Y3386606D02*
D03*
X1059473Y3120006D02*
D03*
Y2706005D02*
D03*
X1077560Y2931006D02*
D03*
X1500681Y1883440D02*
D03*
X1077560Y2157005D02*
D03*
X1286476Y3489750D02*
D03*
X1630986Y1885876D02*
D03*
X1059473Y2922006D02*
D03*
X1095584Y3156006D02*
D03*
X1096674Y3470513D02*
D03*
X1468493Y3443896D02*
D03*
X974416Y2057363D02*
D03*
X1172092Y1950473D02*
D03*
X1298092D02*
D03*
X1077560Y3039006D02*
D03*
Y2805005D02*
D03*
X1397092Y1968560D02*
D03*
X1010527Y3011363D02*
D03*
X1354326Y3386606D02*
D03*
X1095584Y2724005D02*
D03*
X1257681Y1865416D02*
D03*
X1077560Y2481005D02*
D03*
X1059473Y2850005D02*
D03*
X1062568Y3459384D02*
D03*
X974416Y2039362D02*
D03*
X992440Y2066362D02*
D03*
X974416Y2435363D02*
D03*
X1102348Y3421899D02*
D03*
X1010527Y2399363D02*
D03*
X974416Y2795363D02*
D03*
X1059473Y2076005D02*
D03*
X1077560Y3309006D02*
D03*
X1327326Y3404630D02*
D03*
X992440Y2390363D02*
D03*
X1264326Y3422718D02*
D03*
X1077560Y2823005D02*
D03*
X992440Y2516363D02*
D03*
X1010527Y2291363D02*
D03*
X1095584Y2706005D02*
D03*
X974416Y2345363D02*
D03*
X1232476Y3489750D02*
D03*
X1437681Y1901528D02*
D03*
X1404731Y3506977D02*
D03*
X1059473Y3156006D02*
D03*
X1185681Y1865416D02*
D03*
X1059473Y2454005D02*
D03*
Y2526005D02*
D03*
X1723916Y2118992D02*
D03*
X1059473Y2148005D02*
D03*
X992440Y3254363D02*
D03*
X1454468Y3455178D02*
D03*
X1480172Y3430198D02*
D03*
X1451092Y1968560D02*
D03*
X1082324Y3485578D02*
D03*
X1095584Y2490005D02*
D03*
X1077560Y3147006D02*
D03*
X1010527Y2147363D02*
D03*
Y2813363D02*
D03*
X1095584Y2580005D02*
D03*
X992440Y2570363D02*
D03*
X1095584Y2328005D02*
D03*
X1077560Y2067005D02*
D03*
X992440Y2084362D02*
D03*
X1367476Y3471663D02*
D03*
X1077560Y2445005D02*
D03*
X974416Y3299363D02*
D03*
Y3011363D02*
D03*
X1691970Y2135159D02*
D03*
X974416Y2489363D02*
D03*
Y2993363D02*
D03*
X1289092Y1968560D02*
D03*
X1095584Y2166005D02*
D03*
X1275681Y1901527D02*
D03*
X1105867Y1970879D02*
D03*
X1010527Y2597363D02*
D03*
X974416Y2813363D02*
D03*
X1010527Y2111363D02*
D03*
X1081043Y3381918D02*
D03*
X1059473Y2058005D02*
D03*
X974416Y2561363D02*
D03*
X1059473Y2616005D02*
D03*
X1095584Y3210006D02*
D03*
X1077560Y2319005D02*
D03*
X1010527Y2453363D02*
D03*
X1059473Y2886006D02*
D03*
X1010527Y2867363D02*
D03*
X1660614Y2022714D02*
D03*
X1010527Y3137363D02*
D03*
X1361092Y1968560D02*
D03*
X1059473Y3030005D02*
D03*
X1264325Y3386606D02*
D03*
X1095584Y2598005D02*
D03*
X1275681Y1865416D02*
D03*
X1095584Y3138006D02*
D03*
X1259475Y3471663D02*
D03*
X974416Y3281364D02*
D03*
X975344Y3391116D02*
D03*
X1059473Y2976006D02*
D03*
Y2022005D02*
D03*
X1077560Y2535005D02*
D03*
X1095584Y3300006D02*
D03*
X974416Y2165363D02*
D03*
X1241475Y3507774D02*
D03*
X1010527Y2669363D02*
D03*
Y2651363D02*
D03*
X1095584Y2994006D02*
D03*
X1509595Y3423857D02*
D03*
X1010527Y3263364D02*
D03*
X1059473Y2796005D02*
D03*
X1010527Y2741363D02*
D03*
Y2957363D02*
D03*
X1077560Y2985005D02*
D03*
X1005266Y3459212D02*
D03*
X1388092Y1950473D02*
D03*
X1518681Y1883440D02*
D03*
X1095584Y2526005D02*
D03*
X974416Y2291363D02*
D03*
X1095584Y2364005D02*
D03*
X974416Y3155363D02*
D03*
X1113681Y1901527D02*
D03*
X1095584Y2274005D02*
D03*
X1536681Y1883440D02*
D03*
X992440Y3200363D02*
D03*
X1709473Y1995328D02*
D03*
X1078140Y1906309D02*
D03*
X1010527Y2975363D02*
D03*
X1541092Y1968560D02*
D03*
X1010527Y2687363D02*
D03*
X1002507Y3420959D02*
D03*
X974416Y2741363D02*
D03*
X1095584Y2112005D02*
D03*
Y2040005D02*
D03*
X1077560Y3003006D02*
D03*
X1010527Y2219363D02*
D03*
X1331476Y3507774D02*
D03*
X1059473Y2580005D02*
D03*
X1077560Y2949006D02*
D03*
X1491681Y1865416D02*
D03*
X1354326Y3422718D02*
D03*
X1059473Y2760005D02*
D03*
X1077560Y3237006D02*
D03*
X1210325Y3422718D02*
D03*
X1413717Y3487930D02*
D03*
X1471363Y3464585D02*
D03*
X1095584Y2346005D02*
D03*
X980550Y3415334D02*
D03*
X1079156Y3466373D02*
D03*
X1095584Y3012006D02*
D03*
X1343092Y1968560D02*
D03*
X1010527Y2723363D02*
D03*
X1668211Y1919386D02*
D03*
X1469092Y1968560D02*
D03*
X1059473Y3102006D02*
D03*
X1471294Y3487130D02*
D03*
X1061578Y3389882D02*
D03*
X1070425Y1970226D02*
D03*
X1059473Y2004005D02*
D03*
X1010527Y2237363D02*
D03*
Y3245363D02*
D03*
X1709907Y2031322D02*
D03*
X1070200Y1871082D02*
D03*
X1491681Y1901528D02*
D03*
X1340476Y3489750D02*
D03*
X1059473Y2832006D02*
D03*
X1010527Y2417363D02*
D03*
X1077560Y2211005D02*
D03*
X1563681Y1865416D02*
D03*
X974416Y2867363D02*
D03*
X1625413Y2080391D02*
D03*
X1600386Y1865423D02*
D03*
X1095584Y2940005D02*
D03*
X974416Y3065363D02*
D03*
X1077560Y2121005D02*
D03*
X992440Y2174363D02*
D03*
X1638372Y2053248D02*
D03*
X1077560Y2031005D02*
D03*
X1311681Y1865416D02*
D03*
X992440Y3038363D02*
D03*
X974416Y2687363D02*
D03*
X1059473Y2436005D02*
D03*
X992440Y3056363D02*
D03*
X1203681Y1865416D02*
D03*
X992469Y2011638D02*
D03*
X1660241Y2143382D02*
D03*
X1169475Y3471663D02*
D03*
X992440Y2930363D02*
D03*
X1682211Y1930700D02*
D03*
X1023157Y3476339D02*
D03*
X1347681Y1901527D02*
D03*
X992440Y3002363D02*
D03*
X1376548Y3489678D02*
D03*
X1401681Y1865416D02*
D03*
X974416Y2759363D02*
D03*
X1300326Y3422718D02*
D03*
X1473681Y1901528D02*
D03*
X1077560Y2625005D02*
D03*
X1010527Y2165363D02*
D03*
X1095584Y3369887D02*
D03*
X1004797Y1951020D02*
D03*
X1059473Y2220005D02*
D03*
X1010527Y2003362D02*
D03*
X1095584Y2634005D02*
D03*
X1011412Y3389342D02*
D03*
X992440Y3272364D02*
D03*
X1027477Y3455691D02*
D03*
X1604092Y1950473D02*
D03*
X1707792Y1977406D02*
D03*
X1504969Y3456773D02*
D03*
X1095584Y2292005D02*
D03*
X1669891Y1879073D02*
D03*
X1010527Y2561363D02*
D03*
Y2057363D02*
D03*
X1257681Y1901527D02*
D03*
X1365681Y1865416D02*
D03*
X1349476Y3507774D02*
D03*
X1533000Y3428000D02*
D03*
X1095584Y2796005D02*
D03*
X1494644Y3419494D02*
D03*
X1705388Y2066985D02*
D03*
X1226092Y1950473D02*
D03*
X1077560Y3093006D02*
D03*
X1095584Y2472005D02*
D03*
X974416Y2651363D02*
D03*
X1246326Y3422718D02*
D03*
X1138326Y3422804D02*
D03*
X1259475Y3507774D02*
D03*
X1282326Y3422718D02*
D03*
X1374681Y1883440D02*
D03*
X992440Y3290363D02*
D03*
X974416Y2669363D02*
D03*
X1010527Y2327363D02*
D03*
X1601983Y1969093D02*
D03*
X1122681Y1883440D02*
D03*
X992440Y3020363D02*
D03*
X1201326Y3404630D02*
D03*
X992440Y2318363D02*
D03*
X974416Y2219363D02*
D03*
X992440Y2408363D02*
D03*
Y2768363D02*
D03*
X1554681Y1883440D02*
D03*
X974416Y2543363D02*
D03*
X1136266Y1968560D02*
D03*
X1442092Y1950473D02*
D03*
X974416Y2021362D02*
D03*
Y2129363D02*
D03*
Y3317364D02*
D03*
X1700000Y2084160D02*
D03*
X1329681Y1901527D02*
D03*
X1136092Y1950473D02*
D03*
X1059473Y2094005D02*
D03*
Y2112005D02*
D03*
X1383681Y1901528D02*
D03*
X1059473Y3138006D02*
D03*
X1670383Y1900087D02*
D03*
X1015359Y1932866D02*
D03*
X1095584Y3174006D02*
D03*
X1394859Y3489284D02*
D03*
X1095584Y2904005D02*
D03*
X992440Y2732363D02*
D03*
X1277476Y3507774D02*
D03*
X974416Y3245363D02*
D03*
X1095584Y2886006D02*
D03*
X1059473Y2814005D02*
D03*
Y2346005D02*
D03*
X1726638Y1985101D02*
D03*
X1100105Y1951169D02*
D03*
X1568092Y1950473D02*
D03*
X974416Y2309363D02*
D03*
X1008513Y1911624D02*
D03*
X1077560Y2085005D02*
D03*
X1237326Y3404630D02*
D03*
X1455681Y1865416D02*
D03*
X1095584Y2850005D02*
D03*
Y3192006D02*
D03*
X1062445Y3478810D02*
D03*
X1095584Y2562005D02*
D03*
X1622043Y1951798D02*
D03*
X1410681Y1883440D02*
D03*
X1059473Y2400005D02*
D03*
Y2130005D02*
D03*
X1403464Y3470887D02*
D03*
X1034129Y3437510D02*
D03*
X1023311Y3423123D02*
D03*
X1133476Y3471576D02*
D03*
X1163092Y1968560D02*
D03*
X1059473Y2778005D02*
D03*
X1131681Y1901527D02*
D03*
X1295475Y3471663D02*
D03*
X1373000Y3405000D02*
D03*
X1059473Y2202005D02*
D03*
X1010527Y2579363D02*
D03*
X1077560Y2751005D02*
D03*
X1509681Y1901528D02*
D03*
X992440Y2696363D02*
D03*
X1401681Y1901528D02*
D03*
X1140681Y1883440D02*
D03*
X1059473Y2742005D02*
D03*
X1010527Y2543363D02*
D03*
X1088367Y3505656D02*
D03*
X1635437Y1904814D02*
D03*
X1077560Y2499005D02*
D03*
X1514092Y1950473D02*
D03*
X992440Y2480363D02*
D03*
X1194681Y1883440D02*
D03*
X1221681Y1865416D02*
D03*
X1095584Y2544005D02*
D03*
X992440Y2804363D02*
D03*
X974416Y2093363D02*
D03*
X990636Y3438498D02*
D03*
X992440Y2300363D02*
D03*
X1059473Y2166005D02*
D03*
X1293681Y1901527D02*
D03*
X1095584Y2616005D02*
D03*
X1523092Y1968560D02*
D03*
X1010527Y2183363D02*
D03*
X974416Y2615363D02*
D03*
X992440Y3308364D02*
D03*
X1255326Y3404630D02*
D03*
X1077560Y2787005D02*
D03*
X1174325Y3386606D02*
D03*
X1178475Y3489750D02*
D03*
X992440Y2786363D02*
D03*
X1059473Y3228006D02*
D03*
X1010527Y3191364D02*
D03*
Y3083363D02*
D03*
X1077560Y2373005D02*
D03*
X1277476Y3471663D02*
D03*
X1010527Y2849363D02*
D03*
X992440Y2840363D02*
D03*
Y2228363D02*
D03*
X1077560Y2769005D02*
D03*
X1322475Y3489750D02*
D03*
X1221681Y1901527D02*
D03*
X1010527Y3335363D02*
D03*
X1641839Y2090877D02*
D03*
X1095584Y2760005D02*
D03*
X974416Y3209363D02*
D03*
X974416Y2363363D02*
D03*
X1059473Y3372006D02*
D03*
X1509681Y1865416D02*
D03*
X1187476Y3507774D02*
D03*
X1167681Y1865416D02*
D03*
X1187476Y3471663D02*
D03*
X1599681Y1901528D02*
D03*
X1010527Y2993363D02*
D03*
X992440Y2534363D02*
D03*
X1223475Y3507774D02*
D03*
X1268475Y3489750D02*
D03*
X1464681Y1883440D02*
D03*
X1059473Y3336006D02*
D03*
X1248681Y1883440D02*
D03*
X1390323Y3422378D02*
D03*
X1059473Y2868005D02*
D03*
Y2634005D02*
D03*
X1559092Y1968560D02*
D03*
X974416Y2255363D02*
D03*
X1077560Y3273006D02*
D03*
X1428681Y1883440D02*
D03*
X1586092Y1950473D02*
D03*
X974416Y2975363D02*
D03*
X1077560Y2517005D02*
D03*
X1084518Y1886474D02*
D03*
X1077560Y2607005D02*
D03*
X1737059Y1949631D02*
D03*
X1095584Y3084006D02*
D03*
X1010527Y2525363D02*
D03*
X992440Y2660363D02*
D03*
X1010527Y2039362D02*
D03*
X974416Y2075363D02*
D03*
X1623567Y1866251D02*
D03*
X1672927Y2130612D02*
D03*
X1167681Y1901527D02*
D03*
X992440Y2444363D02*
D03*
X1482681Y1883440D02*
D03*
X1712646Y2137712D02*
D03*
X974416Y2849363D02*
D03*
X1077560Y2967006D02*
D03*
Y3201006D02*
D03*
Y3291006D02*
D03*
X1059473Y3012006D02*
D03*
X1095584Y2202005D02*
D03*
X1703284Y2118400D02*
D03*
X1077560Y2697005D02*
D03*
Y2643005D02*
D03*
X974416Y3101364D02*
D03*
Y2453363D02*
D03*
X1077560Y2409005D02*
D03*
X1228326Y3422718D02*
D03*
X1010527Y3047363D02*
D03*
X1095584Y2094005D02*
D03*
X1059473Y2418005D02*
D03*
X1652347Y1970331D02*
D03*
X1095584Y2742005D02*
D03*
X974416Y3083363D02*
D03*
X993513Y1991273D02*
D03*
X992440Y3074363D02*
D03*
X1077560Y2139005D02*
D03*
X1010527Y3119363D02*
D03*
X1077560Y2733005D02*
D03*
Y2229005D02*
D03*
X992440Y2912363D02*
D03*
X1095584Y2400005D02*
D03*
X1059473Y2184005D02*
D03*
Y2292005D02*
D03*
X1250475Y3489750D02*
D03*
X1403051Y3401951D02*
D03*
X1096959Y1997495D02*
D03*
X974416Y2237363D02*
D03*
X974416Y2327363D02*
D03*
X1077560Y2661005D02*
D03*
X1085334Y3416023D02*
D03*
X1273326Y3404630D02*
D03*
X1185681Y1901527D02*
D03*
X974416Y2705363D02*
D03*
X1581681Y1901528D02*
D03*
X1010527Y2435363D02*
D03*
X1095584Y2184005D02*
D03*
X1433092Y1968560D02*
D03*
X992440Y3146364D02*
D03*
X1010527Y3281364D02*
D03*
X1095584Y2922006D02*
D03*
X1016734Y1968062D02*
D03*
X1545681Y1901528D02*
D03*
X1077560Y2049005D02*
D03*
X1356681Y1883440D02*
D03*
X1739844Y2077795D02*
D03*
X1095584Y2454005D02*
D03*
X1042976Y3489719D02*
D03*
X1059473Y3084006D02*
D03*
Y2562005D02*
D03*
X1077560Y2679005D02*
D03*
X1311681Y1901527D02*
D03*
X1687782Y1912148D02*
D03*
X1010527Y2363363D02*
D03*
X992440Y2858363D02*
D03*
X1313476Y3471663D02*
D03*
X1638721Y1958570D02*
D03*
X1015648Y3406837D02*
D03*
X1714782Y1945310D02*
D03*
X1045461Y1903103D02*
D03*
X1499795Y3438050D02*
D03*
X1425307Y3504813D02*
D03*
X1095584Y2670005D02*
D03*
Y3246006D02*
D03*
X1199092Y1968560D02*
D03*
X1302681Y1883440D02*
D03*
X1010527Y3353364D02*
D03*
X992440Y2552363D02*
D03*
X1059473Y2508005D02*
D03*
X1077560Y2337005D02*
D03*
X1095584Y2436005D02*
D03*
X1617678Y1901879D02*
D03*
X1059473Y3282006D02*
D03*
X992440Y2948363D02*
D03*
X974416Y2417363D02*
D03*
X1059473Y2958006D02*
D03*
X1077560Y2301005D02*
D03*
X1491128Y3472032D02*
D03*
X1465265Y3383101D02*
D03*
X1077560Y2553005D02*
D03*
X1602545Y2081709D02*
D03*
X1077560Y3057006D02*
D03*
X992440Y3218364D02*
D03*
X1010527Y2921363D02*
D03*
X1059473Y2994006D02*
D03*
X992440Y2606363D02*
D03*
X1113681Y1865416D02*
D03*
X1205475Y3471663D02*
D03*
X1406092Y1950473D02*
D03*
X1010527Y2507363D02*
D03*
X1077560Y3075006D02*
D03*
X1095584Y3048006D02*
D03*
X992440Y2984363D02*
D03*
X1708609Y2049276D02*
D03*
X1120326Y3422804D02*
D03*
X1010527Y3371364D02*
D03*
X1095584Y2238005D02*
D03*
X1077560Y3255006D02*
D03*
X992440Y3164363D02*
D03*
X974416Y3335363D02*
D03*
X1059473Y2688005D02*
D03*
X1683666Y2116167D02*
D03*
X1059473Y2238005D02*
D03*
X1077560Y2391005D02*
D03*
X1338681Y1883440D02*
D03*
X1151475Y3471663D02*
D03*
X974416Y3371364D02*
D03*
X1077560Y2193005D02*
D03*
X992440Y2642363D02*
D03*
X1095584Y2130005D02*
D03*
X1077560Y3021006D02*
D03*
X974416Y2147363D02*
D03*
X1235092Y1968560D02*
D03*
X1244092Y1950473D02*
D03*
X1010527Y2255363D02*
D03*
X1724525Y2062455D02*
D03*
X1059473Y2364005D02*
D03*
X1690909Y1891300D02*
D03*
X1358476Y3489750D02*
D03*
X1059473Y3174006D02*
D03*
X1743745Y1974034D02*
D03*
X1095584Y2220005D02*
D03*
X1077560Y3111006D02*
D03*
X1433628Y3483865D02*
D03*
X1077560Y3165006D02*
D03*
X1590858Y1883442D02*
D03*
X992440Y2354363D02*
D03*
Y2264363D02*
D03*
X1010527Y2759363D02*
D03*
X1077560Y2571005D02*
D03*
X1505092Y1968560D02*
D03*
X1733101Y2098595D02*
D03*
X1486211Y3450749D02*
D03*
X1077560Y2715005D02*
D03*
X974416Y2183363D02*
D03*
X1059473Y3300006D02*
D03*
X992440Y2714363D02*
D03*
X1010527Y3101364D02*
D03*
X1246326Y3386606D02*
D03*
X1383681Y1865416D02*
D03*
X1010527Y3209363D02*
D03*
X1077560Y3353475D02*
D03*
X1095584Y3264006D02*
D03*
Y3120006D02*
D03*
X1176681Y1883440D02*
D03*
X1349476Y3471663D02*
D03*
X1077560Y2427005D02*
D03*
X1725550Y1927058D02*
D03*
X992440Y3236364D02*
D03*
X974416Y2201363D02*
D03*
X1174325Y3422718D02*
D03*
X974416Y2723363D02*
D03*
X1228326Y3386606D02*
D03*
X1438542Y3463565D02*
D03*
X1095584Y3282006D02*
D03*
X992440Y3110363D02*
D03*
X974416Y2579363D02*
D03*
X1062135Y1986203D02*
D03*
X1095584Y2976006D02*
D03*
X1149681Y1865416D02*
D03*
X1230681Y1883440D02*
D03*
X1077560Y3327006D02*
D03*
X994396Y1931386D02*
D03*
X1487092Y1968560D02*
D03*
X1693879Y1944407D02*
D03*
X974416Y2777363D02*
D03*
X974416Y2471363D02*
D03*
X1047448Y3449619D02*
D03*
X1095175Y3398428D02*
D03*
X1192326Y3422718D02*
D03*
X1077560Y2265005D02*
D03*
X974416Y3029363D02*
D03*
X1046938Y1923934D02*
D03*
X1083318Y1957664D02*
D03*
X1095584Y2418005D02*
D03*
X1208092Y1950473D02*
D03*
X1647231Y1870683D02*
D03*
X974416Y3119363D02*
D03*
X1095584Y2076005D02*
D03*
X974416Y2399363D02*
D03*
X1453408Y3476008D02*
D03*
X1077560Y2841006D02*
D03*
X1059473Y2328005D02*
D03*
X1652450Y1910693D02*
D03*
X1010527Y3317364D02*
D03*
X1304476Y3489750D02*
D03*
X992440Y2120363D02*
D03*
Y2282363D02*
D03*
X1010527Y2129363D02*
D03*
X1077560Y2283005D02*
D03*
X992440Y2246363D02*
D03*
Y2372363D02*
D03*
X1424092Y1950473D02*
D03*
X1059473Y2040005D02*
D03*
X1253092Y1968560D02*
D03*
X992440Y2624363D02*
D03*
Y3362364D02*
D03*
Y2030363D02*
D03*
X995707Y3400662D02*
D03*
X1095584Y3318006D02*
D03*
X974416Y2273363D02*
D03*
X1408302Y3421529D02*
D03*
X1010527Y3065363D02*
D03*
Y2309363D02*
D03*
X1059473Y3066006D02*
D03*
X974416Y2921363D02*
D03*
X974416Y3191364D02*
D03*
X1010527Y2345363D02*
D03*
X1077560Y2175005D02*
D03*
X1059473Y2940005D02*
D03*
X1010527Y2831363D02*
D03*
X1266681Y1883440D02*
D03*
X1210326Y3386606D02*
D03*
X1095584Y2814005D02*
D03*
X1010527Y2471363D02*
D03*
X974416Y3047363D02*
D03*
X1309326Y3404630D02*
D03*
X1421356Y3468918D02*
D03*
X1059473Y2544005D02*
D03*
X1455681Y1901528D02*
D03*
X1271092Y1968560D02*
D03*
X1095584Y3066006D02*
D03*
X1291326Y3404630D02*
D03*
X1241476Y3471663D02*
D03*
X1010527Y2489363D02*
D03*
X1064253Y1892882D02*
D03*
X1059473Y2472005D02*
D03*
X1010527Y3299364D02*
D03*
X1437681Y1865416D02*
D03*
X1059473Y2490005D02*
D03*
X1336326Y3422718D02*
D03*
X1077560Y2589005D02*
D03*
X1660414Y2040713D02*
D03*
X1154091Y1950473D02*
D03*
X974416Y2957363D02*
D03*
X1390000Y3391000D02*
D03*
X1293681Y1865416D02*
D03*
X1094047Y1866278D02*
D03*
X1183326Y3404630D02*
D03*
X1065136Y3499651D02*
D03*
X1692805Y2100659D02*
D03*
X1059473Y2382005D02*
D03*
X1325092Y1968560D02*
D03*
X1077560Y2877006D02*
D03*
X1095584Y2778005D02*
D03*
X977146Y1975862D02*
D03*
X1010527Y2615363D02*
D03*
X1059473Y2256005D02*
D03*
X992440Y2678363D02*
D03*
X1181092Y1968560D02*
D03*
X1070885Y3405290D02*
D03*
X1059473Y3192006D02*
D03*
X1010527Y2705363D02*
D03*
X1077560Y2247005D02*
D03*
X1095584Y2148005D02*
D03*
X1334092Y1950473D02*
D03*
X1010527Y2381363D02*
D03*
X1313475Y3507774D02*
D03*
X1095584Y2688005D02*
D03*
X1712483Y2100616D02*
D03*
X1059473Y2598005D02*
D03*
X1034377Y1936826D02*
D03*
X1077560Y3219006D02*
D03*
X1473681Y1865416D02*
D03*
X1392681Y1883440D02*
D03*
X1214475Y3489750D02*
D03*
X1527681Y1901528D02*
D03*
X974416Y2939363D02*
D03*
X1095584Y2256005D02*
D03*
X974416Y2633363D02*
D03*
X1077560Y2859005D02*
D03*
X1203681Y1901527D02*
D03*
X1024248Y1951706D02*
D03*
X1010527Y2633363D02*
D03*
X992440Y3092363D02*
D03*
X1095584Y2508005D02*
D03*
X1010527Y2093363D02*
D03*
X1446681Y1883440D02*
D03*
X974416Y2381363D02*
D03*
X1010527Y2201363D02*
D03*
Y2795363D02*
D03*
X1460092Y1950473D02*
D03*
X1077560Y2895005D02*
D03*
X992440Y3326364D02*
D03*
X1095700Y1902351D02*
D03*
X1320681Y1883440D02*
D03*
X992440Y3182363D02*
D03*
X1329681Y1865416D02*
D03*
X1077560Y2463005D02*
D03*
X1059473Y2310005D02*
D03*
X1702863Y1927347D02*
D03*
X992440Y2588363D02*
D03*
X1449281Y3498043D02*
D03*
X992440Y2498363D02*
D03*
X1059473Y3264006D02*
D03*
X1657070Y2058400D02*
D03*
X1331476Y3471663D02*
D03*
X1059473Y2904005D02*
D03*
X1722811Y1965310D02*
D03*
X974416Y3173364D02*
D03*
X1077560Y3129006D02*
D03*
X1078569Y2006932D02*
D03*
X992440Y2192363D02*
D03*
X1010527Y3155363D02*
D03*
X992440Y2876363D02*
D03*
X1011970Y1985420D02*
D03*
X1010527Y2273363D02*
D03*
X1284681Y1883440D02*
D03*
X1744137Y2055736D02*
D03*
X974416Y2111362D02*
D03*
X1212681Y1883440D02*
D03*
X974416Y2525363D02*
D03*
X1059473Y3354006D02*
D03*
X992893Y3380797D02*
D03*
X1095584Y2832006D02*
D03*
X974416Y2507363D02*
D03*
X1318326Y3422718D02*
D03*
X1010527Y2777363D02*
D03*
Y2885363D02*
D03*
X1196475Y3489750D02*
D03*
X1095584Y2958006D02*
D03*
X974416Y2885363D02*
D03*
X1059473Y2724005D02*
D03*
X992440Y2336363D02*
D03*
X1095584Y2310005D02*
D03*
X1086435Y1982529D02*
D03*
X2640000Y3012000D02*
D03*
X2590000D02*
D03*
X1443975Y2297483D02*
D03*
X1479622Y2301030D02*
D03*
X1468970Y2352457D02*
D03*
X1442741Y2228309D02*
D03*
X1359556Y2382025D02*
D03*
X1397444Y2384935D02*
D03*
X1435412Y2383378D02*
D03*
X1646727Y2323685D02*
D03*
X1663907Y2289791D02*
D03*
X1267063Y2212147D02*
D03*
X1240193Y2239017D02*
D03*
X1225965Y2274253D02*
D03*
X1252022Y2453912D02*
D03*
X1287535Y2467435D02*
D03*
X1617555Y2564804D02*
D03*
X1443790Y2503291D02*
D03*
X1408059Y2490356D02*
D03*
X1378865Y2466031D02*
D03*
X1371502Y2503311D02*
D03*
X1337748Y2520765D02*
D03*
X1299748D02*
D03*
X1261748D02*
D03*
X1227336Y2504646D02*
D03*
X1200466Y2477776D02*
D03*
X1174942Y2449624D02*
D03*
X1172635Y2411694D02*
D03*
Y2373694D02*
D03*
Y2335694D02*
D03*
Y2297694D02*
D03*
Y2259694D02*
D03*
X1181134Y2222656D02*
D03*
X1208004Y2195786D02*
D03*
X1234874Y2168916D02*
D03*
X1265396Y2146280D02*
D03*
X1303394Y2145935D02*
D03*
X1341394D02*
D03*
X1368790Y2119601D02*
D03*
X1395358Y2092432D02*
D03*
X1429394Y2075535D02*
D03*
X1467133Y2071084D02*
D03*
X1501424Y2054709D02*
D03*
X1539424D02*
D03*
X1574544Y2069219D02*
D03*
X1727731Y2128951D02*
D03*
X1765730D02*
D03*
X1797475Y2149838D02*
D03*
X1791283Y2224941D02*
D03*
X1769440Y2277730D02*
D03*
X1805546Y2289579D02*
D03*
X1837599Y2309989D02*
D03*
X1852315Y2345024D02*
D03*
Y2383024D02*
D03*
Y2421024D02*
D03*
X1852565Y2459023D02*
D03*
X1843972Y2496038D02*
D03*
X1813604Y2518881D02*
D03*
X1775605Y2519265D02*
D03*
X1741896Y2536806D02*
D03*
X1668000Y2665000D02*
D03*
X1618000D02*
D03*
X1818000D02*
D03*
X1768000D02*
D03*
X1718000D02*
D03*
X1684000Y2794000D02*
D03*
X1634000D02*
D03*
X1834000D02*
D03*
X1784000D02*
D03*
X1734000D02*
D03*
X1746000Y2703000D02*
D03*
X1796000D02*
D03*
X1846000D02*
D03*
X1646000D02*
D03*
X1696000D02*
D03*
X1716000Y2746000D02*
D03*
X1766000D02*
D03*
X1816000D02*
D03*
X1666000D02*
D03*
X1232000D02*
D03*
X1382000D02*
D03*
X1332000D02*
D03*
X1282000D02*
D03*
X1262000Y2703000D02*
D03*
X1212000D02*
D03*
X1412000D02*
D03*
X1362000D02*
D03*
X1312000D02*
D03*
X1300000Y2794000D02*
D03*
X1350000D02*
D03*
X1400000D02*
D03*
X1200000D02*
D03*
X1250000D02*
D03*
X1284000Y2665000D02*
D03*
X1334000D02*
D03*
X1384000D02*
D03*
X1184000D02*
D03*
X1234000D02*
D03*
X1831000Y2180000D02*
D03*
X1826000Y2248000D02*
D03*
X1833000Y2113000D02*
D03*
X1809000Y2006000D02*
D03*
X1787000Y2033000D02*
D03*
X1790000Y2089000D02*
D03*
X1314800Y2471600D02*
D03*
X1376000Y2362000D02*
D03*
X1319000Y2379000D02*
D03*
X1267000Y2277000D02*
D03*
X1703000Y2294000D02*
D03*
X1662000Y2307000D02*
D03*
X1517000Y2101000D02*
D03*
X1632407Y2527452D02*
D03*
X1673407Y2535452D02*
D03*
X1693407Y2522452D02*
D03*
X1670407Y2507452D02*
D03*
X1653407Y2489452D02*
D03*
X1635407Y2472452D02*
D03*
X1651407Y2539452D02*
D03*
X1498296Y2097295D02*
D03*
X1540000Y2092000D02*
D03*
X1572296Y2115295D02*
D03*
X1562296Y2161295D02*
D03*
X1538296Y2139295D02*
D03*
X1521000Y2120000D02*
D03*
X1489000Y2153000D02*
D03*
X1509000Y2181100D02*
D03*
X1476300Y2042829D02*
D03*
X1576300D02*
D03*
X1551000Y2259000D02*
D03*
X1673000Y2273000D02*
D03*
X1650000Y2375000D02*
D03*
X1529000Y2355000D02*
D03*
X1606000Y2538000D02*
D03*
X1589000D02*
D03*
X1612000Y2098000D02*
D03*
X1595000D02*
D03*
X1695000Y2177000D02*
D03*
X1666618Y2177100D02*
D03*
X1739000Y2165000D02*
D03*
X1705000Y2233000D02*
D03*
X1664000Y2230000D02*
D03*
X1689000Y2458000D02*
D03*
X1676000Y2433000D02*
D03*
X1505000Y2458000D02*
D03*
X1535000Y2453000D02*
D03*
X1463000Y2467000D02*
D03*
X1459000Y2416000D02*
D03*
X1494000Y2400000D02*
D03*
X1538000Y2401000D02*
D03*
D03*
X1800000Y2550000D02*
D03*
X1701000Y2553000D02*
D03*
X1726000Y2588000D02*
D03*
X1776000D02*
D03*
X1626000D02*
D03*
X1676000D02*
D03*
X1347000Y2576000D02*
D03*
X1397000D02*
D03*
X1247000D02*
D03*
X1297000D02*
D03*
X1373000Y2524000D02*
D03*
X1423000D02*
D03*
X1223000D02*
D03*
X1214000Y2159000D02*
D03*
X1272000Y2127000D02*
D03*
X1322000D02*
D03*
X1222000D02*
D03*
X1297000Y2087000D02*
D03*
X1347000D02*
D03*
X1197000D02*
D03*
X1247000D02*
D03*
X1324000Y2043000D02*
D03*
X1374000D02*
D03*
X1424000D02*
D03*
X1224000D02*
D03*
X1274000D02*
D03*
X1170653Y2178181D02*
D03*
Y2127182D02*
D03*
Y2490181D02*
D03*
X1140000Y2416000D02*
D03*
Y2366000D02*
D03*
Y2467000D02*
D03*
Y2518000D02*
D03*
Y2155000D02*
D03*
Y2105000D02*
D03*
Y2206000D02*
D03*
Y2257000D02*
D03*
Y2307000D02*
D03*
X1874000Y2134000D02*
D03*
Y2084000D02*
D03*
Y2185000D02*
D03*
Y2236000D02*
D03*
Y2286000D02*
D03*
Y2380000D02*
D03*
Y2330000D02*
D03*
Y2431000D02*
D03*
Y2482000D02*
D03*
Y2532000D02*
D03*
X1273000Y2626000D02*
D03*
X1223000D02*
D03*
X1423000D02*
D03*
X1373000D02*
D03*
X1323000D02*
D03*
X1651000Y2628000D02*
D03*
X1601000D02*
D03*
X1801000D02*
D03*
X1751000D02*
D03*
X1701000D02*
D03*
X1355000Y3037000D02*
D03*
X1372000Y3006000D02*
D03*
X1679000Y3039000D02*
D03*
X1657000Y3004000D02*
D03*
X1501000Y3052000D02*
D03*
X1535000Y3051000D02*
D03*
X1784000Y2932000D02*
D03*
X1772000Y2892000D02*
D03*
X1702000Y2834000D02*
D03*
X1752000D02*
D03*
X1802000D02*
D03*
X1602000D02*
D03*
X1652000D02*
D03*
X1676000Y2861000D02*
D03*
X1626000D02*
D03*
X1726000D02*
D03*
X1778000D02*
D03*
X1238000Y2945000D02*
D03*
X1238000Y2888000D02*
D03*
X1288000D02*
D03*
X1262000Y2915000D02*
D03*
X1414000Y2863000D02*
D03*
X1362000D02*
D03*
X1262000D02*
D03*
X1312000D02*
D03*
X1819000Y3018000D02*
D03*
Y2967000D02*
D03*
Y2916000D02*
D03*
X1852000Y3046000D02*
D03*
Y2995000D02*
D03*
Y2944000D02*
D03*
X1886000Y2916000D02*
D03*
Y2967000D02*
D03*
Y3018000D02*
D03*
Y3068000D02*
D03*
Y3118000D02*
D03*
X1858000Y3548000D02*
D03*
Y3498000D02*
D03*
Y3447000D02*
D03*
Y3245000D02*
D03*
Y3296000D02*
D03*
Y3346000D02*
D03*
Y3396000D02*
D03*
X1886000Y3522000D02*
D03*
Y3472000D02*
D03*
Y3422000D02*
D03*
Y3371000D02*
D03*
Y3169000D02*
D03*
Y3220000D02*
D03*
Y3270000D02*
D03*
Y3320000D02*
D03*
X1638714Y3293193D02*
D03*
X1662714Y3364193D02*
D03*
Y3314193D02*
D03*
Y3264193D02*
D03*
X1681714Y3391193D02*
D03*
Y3341193D02*
D03*
Y3291193D02*
D03*
Y3541193D02*
D03*
Y3491193D02*
D03*
Y3441193D02*
D03*
X1500000Y3508000D02*
D03*
X1515000Y3480000D02*
D03*
X1204000Y3533000D02*
D03*
X1304000D02*
D03*
X1254000D02*
D03*
X1454000D02*
D03*
X1504000D02*
D03*
X1404000D02*
D03*
X1354000D02*
D03*
X1154000D02*
D03*
X1821000Y3125000D02*
D03*
X1667000Y3128000D02*
D03*
X1480000Y3126000D02*
D03*
X1330000Y3124000D02*
D03*
X1395000Y3286000D02*
D03*
X1438000Y3307000D02*
D03*
X1362000Y3268000D02*
D03*
X1356000Y3239000D02*
D03*
X1216000Y3357000D02*
D03*
X1188000Y3320000D02*
D03*
X1181000Y3270000D02*
D03*
Y3219000D02*
D03*
Y3118000D02*
D03*
Y3168000D02*
D03*
X1129000Y3555000D02*
D03*
X1135000Y3168000D02*
D03*
Y3118000D02*
D03*
Y3068000D02*
D03*
Y3017000D02*
D03*
Y3219000D02*
D03*
X1598000Y2006000D02*
D03*
X1548000D02*
D03*
X1298000D02*
D03*
X1248000D02*
D03*
X1448000D02*
D03*
X1498000D02*
D03*
X1398000D02*
D03*
X1348000D02*
D03*
X1135000Y3270000D02*
D03*
Y3320000D02*
D03*
Y3370000D02*
D03*
X1528997Y3554774D02*
D03*
X1288000Y2836000D02*
D03*
X1238000D02*
D03*
X1438000D02*
D03*
X1388000D02*
D03*
X1338000D02*
D03*
X1329000Y3555000D02*
D03*
X1379000D02*
D03*
X1479000D02*
D03*
X1429000D02*
D03*
X1229000D02*
D03*
X1279000D02*
D03*
X1179000D02*
D03*
X2504000Y2944000D02*
D03*
Y3339000D02*
D03*
X2536916Y3394981D02*
D03*
X2536512Y3432979D02*
D03*
X2545903Y3469800D02*
D03*
X2533641Y3505767D02*
D03*
X2103294Y3214939D02*
D03*
X2126427Y3184792D02*
D03*
X2046417Y3103042D02*
D03*
X2054855Y3065990D02*
D03*
X2086249Y3044579D02*
D03*
X2124019Y3040407D02*
D03*
X2162019D02*
D03*
X2200019D02*
D03*
X2238019D02*
D03*
X2276019D02*
D03*
X2314019D02*
D03*
X2352019D02*
D03*
X2390019D02*
D03*
X2428019D02*
D03*
X2465720Y3035644D02*
D03*
X2473734Y2998498D02*
D03*
X2504000Y3027000D02*
D03*
X2223309Y3072533D02*
D03*
X2185309D02*
D03*
X2147309D02*
D03*
X2109601Y3077237D02*
D03*
X2190000Y3098000D02*
D03*
X2158553Y3123958D02*
D03*
Y3161958D02*
D03*
X2154000Y3224000D02*
D03*
X2119465Y3258200D02*
D03*
X2426495Y3500523D02*
D03*
X2388495D02*
D03*
X2350495D02*
D03*
X2312495D02*
D03*
X2274495D02*
D03*
X2236495D02*
D03*
X2198495Y3500396D02*
D03*
X2165362Y3481789D02*
D03*
X2150557Y3446792D02*
D03*
Y3408792D02*
D03*
Y3370792D02*
D03*
Y3332792D02*
D03*
Y3294792D02*
D03*
Y3256792D02*
D03*
X2188254Y3154359D02*
D03*
X2215124Y3127489D02*
D03*
X2241994Y3100619D02*
D03*
X2269707Y3074619D02*
D03*
X2537900Y2974407D02*
D03*
X2536553Y3012383D02*
D03*
X2526726Y3049090D02*
D03*
X2500596Y3076681D02*
D03*
X2466659Y3093777D02*
D03*
X2428661Y3094123D02*
D03*
X2390661D02*
D03*
X2352661D02*
D03*
X2314661D02*
D03*
X2279503Y3108543D02*
D03*
X2252633Y3135414D02*
D03*
X2225763Y3162284D02*
D03*
X2198893Y3189154D02*
D03*
X2182881Y3223616D02*
D03*
X2182683Y3261615D02*
D03*
Y3299615D02*
D03*
Y3337615D02*
D03*
Y3375615D02*
D03*
Y3413615D02*
D03*
X2182906Y3451614D02*
D03*
X2216999Y3468397D02*
D03*
X2254999D02*
D03*
X2292999D02*
D03*
X2330999D02*
D03*
X2368999D02*
D03*
X2406999D02*
D03*
X2444999D02*
D03*
X2469124Y3439037D02*
D03*
X2476170Y3401696D02*
D03*
X2505000Y3432000D02*
D03*
X2490195Y3505600D02*
D03*
X1588000Y3310000D02*
D03*
X1530615Y3248177D02*
D03*
X1523817Y3259857D02*
D03*
X1537413Y3236496D02*
D03*
X1547539Y3219526D02*
D03*
X1561901Y3201456D02*
D03*
X1579937Y3193390D02*
D03*
X1619403Y3221194D02*
D03*
X1629783Y3233297D02*
D03*
X1626467Y3251349D02*
D03*
X1617675Y3267865D02*
D03*
X1608587Y3283403D02*
D03*
X1599494Y3298951D02*
D03*
X1530408Y3284530D02*
D03*
X1548482Y3253397D02*
D03*
X1557570Y3237859D02*
D03*
X1566657Y3222321D02*
D03*
X1578596Y3208850D02*
D03*
X1614420Y3234750D02*
D03*
X1606606Y3250965D02*
D03*
X1597518Y3266503D02*
D03*
X1588431Y3282040D02*
D03*
X1579343Y3297578D02*
D03*
X1570235Y3313104D02*
D03*
X1477000Y3373000D02*
D03*
X1449711Y3323494D02*
D03*
X1428374Y3295629D02*
D03*
X1419374Y3280041D02*
D03*
X1409702Y3263011D02*
D03*
X1400934Y3241825D02*
D03*
X1402386Y3222164D02*
D03*
X1445526Y3200504D02*
D03*
X1475473Y3208783D02*
D03*
X1485671Y3224634D02*
D03*
X1494682Y3240240D02*
D03*
X1457539Y3309967D02*
D03*
X1448538Y3294379D02*
D03*
X1439538Y3278791D02*
D03*
X1430537Y3263203D02*
D03*
X1421536Y3247615D02*
D03*
X1415405Y3230691D02*
D03*
X1455053Y3211231D02*
D03*
X1465507Y3225884D02*
D03*
X1474508Y3241472D02*
D03*
X1483508Y3257060D02*
D03*
X1373000Y3390000D02*
D03*
X1292000Y3375000D02*
D03*
X1269022Y3364818D02*
D03*
X1255816Y3348979D02*
D03*
X1245178Y3331489D02*
D03*
X1237062Y3312604D02*
D03*
X1231747Y3292825D02*
D03*
X1229243Y3273252D02*
D03*
X1228652Y3254517D02*
D03*
X1229495Y3233110D02*
D03*
X1234161Y3211720D02*
D03*
X1245963Y3197748D02*
D03*
X1297986Y3198833D02*
D03*
X1309433Y3215970D02*
D03*
X1313603Y3236689D02*
D03*
X1314502Y3261873D02*
D03*
X1320156Y3288723D02*
D03*
X1336493Y3301418D02*
D03*
X1356930Y3303510D02*
D03*
X1375841Y3304058D02*
D03*
X1396484Y3305947D02*
D03*
X1417435Y3311268D02*
D03*
X1436804Y3320764D02*
D03*
X1468012Y3357199D02*
D03*
X1394862Y3373725D02*
D03*
X1377059Y3371072D02*
D03*
X1359064Y3370617D02*
D03*
X1341070Y3370163D02*
D03*
X1323076Y3369709D02*
D03*
X1305199Y3367608D02*
D03*
X1289117Y3359523D02*
D03*
X1276413Y3346771D02*
D03*
X1265887Y3332169D02*
D03*
X1257486Y3316250D02*
D03*
X1251398Y3299311D02*
D03*
X1247886Y3281657D02*
D03*
X1246738Y3263694D02*
D03*
Y3245693D02*
D03*
X1247089Y3227697D02*
D03*
X1288646Y3211153D02*
D03*
X1295352Y3227857D02*
D03*
X1295683Y3245854D02*
D03*
Y3263854D02*
D03*
X1297440Y3281768D02*
D03*
X1303290Y3298791D02*
D03*
X1312810Y3314068D02*
D03*
X1329459Y3320909D02*
D03*
X1347453Y3321364D02*
D03*
X1365447Y3321818D02*
D03*
X1383440Y3322319D02*
D03*
X1401295Y3324599D02*
D03*
X1418296Y3330512D02*
D03*
X1433714Y3339803D02*
D03*
X1446945Y3352007D02*
D03*
X1457458Y3366617D02*
D03*
X1537016Y3511963D02*
D03*
X1537016Y3493963D02*
D03*
X1537016Y3475963D02*
D03*
X1536788Y3442379D02*
D03*
X1547000Y3407000D02*
D03*
X1498663Y3259734D02*
D03*
X1513000Y3247000D02*
D03*
X1618745Y3319163D02*
D03*
X1629970Y3337577D02*
D03*
X1639229Y3356761D02*
D03*
X1646653Y3376563D02*
D03*
X1652348Y3397068D02*
D03*
X1656185Y3418310D02*
D03*
X1657892Y3438821D02*
D03*
X1658184Y3457395D02*
D03*
X1658184Y3475396D02*
D03*
X1658184Y3493395D02*
D03*
X1658184Y3511395D02*
D03*
X1555040Y3502963D02*
D03*
Y3484963D02*
D03*
X1554919Y3458568D02*
D03*
X1551980Y3425592D02*
D03*
X1541000Y3386000D02*
D03*
X1502731Y3283730D02*
D03*
X1516014Y3275483D02*
D03*
X1597591Y3320816D02*
D03*
X1608613Y3337098D02*
D03*
X1618093Y3354362D02*
D03*
X1625857Y3372353D02*
D03*
X1631979Y3390963D02*
D03*
X1636434Y3410152D02*
D03*
X1639050Y3429497D02*
D03*
X1640015Y3448252D02*
D03*
X1640160Y3466395D02*
D03*
Y3484395D02*
D03*
Y3502395D02*
D03*
X1573189Y3547963D02*
D03*
X1573127Y3529963D02*
D03*
Y3511963D02*
D03*
Y3493963D02*
D03*
Y3475963D02*
D03*
Y3457963D02*
D03*
X1572869Y3439965D02*
D03*
X1570728Y3422092D02*
D03*
X1566462Y3404605D02*
D03*
X1560012Y3387800D02*
D03*
X1551689Y3371840D02*
D03*
X1541323Y3357125D02*
D03*
X1516505Y3291129D02*
D03*
X1577274Y3323805D02*
D03*
X1588066Y3338211D02*
D03*
X1597560Y3353503D02*
D03*
X1605499Y3369658D02*
D03*
X1611928Y3386471D02*
D03*
X1616866Y3403780D02*
D03*
X1620212Y3421466D02*
D03*
X1621785Y3439398D02*
D03*
X1622072Y3457395D02*
D03*
Y3475396D02*
D03*
Y3493395D02*
D03*
Y3511395D02*
D03*
Y3529395D02*
D03*
X1621961Y3547395D02*
D03*
X1704656Y3502696D02*
D03*
X1704656Y3484696D02*
D03*
X1704656Y3466696D02*
D03*
X1704656Y3448696D02*
D03*
X1704656Y3430696D02*
D03*
X1704656Y3412696D02*
D03*
X1704656Y3394696D02*
D03*
X1704656Y3376696D02*
D03*
X1704656Y3358696D02*
D03*
X1704656Y3340696D02*
D03*
X1704656Y3322696D02*
D03*
X1704656Y3304696D02*
D03*
X1704656Y3286696D02*
D03*
X1704656Y3268696D02*
D03*
X1704656Y3250696D02*
D03*
X1705806Y3223655D02*
D03*
X1710397Y3205907D02*
D03*
X1720385Y3189258D02*
D03*
X1737782Y3179944D02*
D03*
X1824357Y3220712D02*
D03*
X1825824Y3241395D02*
D03*
X1825824Y3259395D02*
D03*
X1825824Y3277395D02*
D03*
X1825824Y3295395D02*
D03*
X1825824Y3313395D02*
D03*
X1825824Y3331395D02*
D03*
X1825824Y3349395D02*
D03*
X1825824Y3367395D02*
D03*
X1825824Y3385395D02*
D03*
X1825824Y3403395D02*
D03*
X1825824Y3421395D02*
D03*
X1825824Y3439395D02*
D03*
X1825824Y3457395D02*
D03*
X1825824Y3475395D02*
D03*
X1825824Y3493395D02*
D03*
X1825824Y3511395D02*
D03*
X1722680Y3493696D02*
D03*
Y3475696D02*
D03*
Y3457696D02*
D03*
Y3439696D02*
D03*
Y3421696D02*
D03*
Y3403696D02*
D03*
Y3385696D02*
D03*
Y3367696D02*
D03*
Y3349696D02*
D03*
Y3331696D02*
D03*
Y3313696D02*
D03*
Y3295696D02*
D03*
Y3277696D02*
D03*
Y3259696D02*
D03*
X1722968Y3239432D02*
D03*
X1725707Y3218915D02*
D03*
X1734839Y3203619D02*
D03*
X1800316Y3210349D02*
D03*
X1807092Y3231736D02*
D03*
X1807799Y3250395D02*
D03*
Y3268395D02*
D03*
Y3286395D02*
D03*
Y3304395D02*
D03*
Y3322395D02*
D03*
Y3340395D02*
D03*
Y3358395D02*
D03*
Y3376395D02*
D03*
Y3394395D02*
D03*
Y3412395D02*
D03*
Y3430395D02*
D03*
Y3448395D02*
D03*
Y3466395D02*
D03*
Y3484395D02*
D03*
Y3502395D02*
D03*
X1740854Y3556696D02*
D03*
Y3538696D02*
D03*
X1740767Y3520696D02*
D03*
Y3502696D02*
D03*
Y3484696D02*
D03*
Y3466696D02*
D03*
Y3448696D02*
D03*
Y3430696D02*
D03*
Y3412696D02*
D03*
Y3394696D02*
D03*
Y3376696D02*
D03*
Y3358696D02*
D03*
Y3340696D02*
D03*
Y3322696D02*
D03*
Y3304696D02*
D03*
Y3286696D02*
D03*
Y3268696D02*
D03*
Y3250696D02*
D03*
Y3232696D02*
D03*
X1745274Y3215269D02*
D03*
X1788349Y3223447D02*
D03*
X1789712Y3241395D02*
D03*
Y3259395D02*
D03*
Y3277395D02*
D03*
Y3295395D02*
D03*
Y3313395D02*
D03*
Y3331395D02*
D03*
Y3349395D02*
D03*
Y3367395D02*
D03*
Y3385395D02*
D03*
Y3403395D02*
D03*
Y3421395D02*
D03*
Y3439395D02*
D03*
Y3457395D02*
D03*
Y3475395D02*
D03*
Y3493395D02*
D03*
Y3511395D02*
D03*
Y3529395D02*
D03*
X1789626Y3547395D02*
D03*
X1572524Y2359816D02*
D03*
X1512834Y2352457D02*
D03*
X1494834D02*
D03*
X1437747Y2353482D02*
D03*
X1413689Y2348518D02*
D03*
X1436936Y2279398D02*
D03*
X1463580Y2281347D02*
D03*
X1488622Y2282943D02*
D03*
X1506622D02*
D03*
X1524622D02*
D03*
X1542622D02*
D03*
X1561000Y2279000D02*
D03*
X1637304Y2280570D02*
D03*
X1631738Y2305122D02*
D03*
X1575788Y2335663D02*
D03*
X1557834Y2334370D02*
D03*
X1539834D02*
D03*
X1521834D02*
D03*
X1503834D02*
D03*
X1485834D02*
D03*
X1467834D02*
D03*
X1449834D02*
D03*
X1432393Y2338821D02*
D03*
X1425978Y2297130D02*
D03*
X1461622Y2301030D02*
D03*
X1497622D02*
D03*
X1515622D02*
D03*
X1533622D02*
D03*
X1551622D02*
D03*
X1569622D02*
D03*
X1583832Y2289982D02*
D03*
X1583040Y2272000D02*
D03*
X1622000Y2332000D02*
D03*
X1617555Y2277535D02*
D03*
X1616821Y2295520D02*
D03*
X1609728Y2312063D02*
D03*
X1620541Y2364937D02*
D03*
X1574713Y3102915D02*
D03*
X1567065Y3082755D02*
D03*
X1561820Y3059332D02*
D03*
X1548203Y3032796D02*
D03*
X1533000Y3013000D02*
D03*
X1515937Y2971311D02*
D03*
X1567321Y2955277D02*
D03*
X1601000Y2966000D02*
D03*
X1613977Y2977122D02*
D03*
X1625804Y2993516D02*
D03*
X1635477Y3011183D02*
D03*
X1642946Y3029934D02*
D03*
X1648075Y3049456D02*
D03*
X1650728Y3068292D02*
D03*
X1585822Y3088906D02*
D03*
X1583993Y3070999D02*
D03*
X1577000Y3047000D02*
D03*
X1569000Y3031000D02*
D03*
X1559000Y3016000D02*
D03*
X1547000Y3002000D02*
D03*
X1534000Y2989000D02*
D03*
X1517000Y3028000D02*
D03*
X1581039Y2968030D02*
D03*
X1593657Y2980868D02*
D03*
X1605166Y2994708D02*
D03*
X1614885Y3009858D02*
D03*
X1622615Y3026114D02*
D03*
X1628424Y3043151D02*
D03*
X1631967Y3060799D02*
D03*
X1633436Y3078739D02*
D03*
X1380696Y3056377D02*
D03*
X1385022Y3036597D02*
D03*
X1391816Y3017489D02*
D03*
X1400994Y2999443D02*
D03*
X1412286Y2982791D02*
D03*
X1517000Y2992000D02*
D03*
X1500006Y3013153D02*
D03*
X1483000Y3035000D02*
D03*
X1465586Y3061039D02*
D03*
X1397000Y3108000D02*
D03*
X1397690Y3086992D02*
D03*
X1397039Y3069004D02*
D03*
X1399686Y3051200D02*
D03*
X1404453Y3033842D02*
D03*
X1411477Y3017270D02*
D03*
X1420509Y3001700D02*
D03*
X1431463Y2987417D02*
D03*
X1469576Y2949170D02*
D03*
X1499716Y2987863D02*
D03*
X1486988Y3000591D02*
D03*
X1474260Y3013319D02*
D03*
X1462470Y3026920D02*
D03*
X1453572Y3042567D02*
D03*
X1447895Y3059648D02*
D03*
X1540793Y2892558D02*
D03*
X1744025Y3120251D02*
D03*
X1729551Y3104382D02*
D03*
X1721302Y3076151D02*
D03*
X1713824Y3045025D02*
D03*
X1699209Y3017435D02*
D03*
X1678691Y2993688D02*
D03*
X1654464Y2978061D02*
D03*
X1632000Y2972000D02*
D03*
X1578151Y2887740D02*
D03*
X1596151D02*
D03*
X1614256Y2887741D02*
D03*
X1633299Y2887906D02*
D03*
X1653491Y2889362D02*
D03*
X1673728Y2893456D02*
D03*
X1693078Y2900494D02*
D03*
X1711143Y2910264D02*
D03*
X1727260Y2922127D02*
D03*
X1741396Y2935202D02*
D03*
X1754602Y2949294D02*
D03*
X1766916Y2964553D02*
D03*
X1777866Y2980971D02*
D03*
X1787168Y2998343D02*
D03*
X1794731Y3016438D02*
D03*
X1800649Y3035237D02*
D03*
X1804748Y3054508D02*
D03*
X1806948Y3073752D02*
D03*
X1741287Y3091241D02*
D03*
X1739943Y3073291D02*
D03*
X1736995Y3055534D02*
D03*
X1731667Y3038340D02*
D03*
X1724335Y3021902D02*
D03*
X1714943Y3006546D02*
D03*
X1703671Y2992513D02*
D03*
X1691080Y2979649D02*
D03*
X1677529Y2967801D02*
D03*
X1661560Y2959494D02*
D03*
X1644069Y2955247D02*
D03*
X1626075Y2954773D02*
D03*
X1608075D02*
D03*
X1590075D02*
D03*
X1551200Y2907159D02*
D03*
X1569151Y2905828D02*
D03*
X1587151D02*
D03*
X1605151D02*
D03*
X1623151D02*
D03*
X1641150Y2906037D02*
D03*
X1659030Y2908114D02*
D03*
X1676407Y2912806D02*
D03*
X1692874Y2920075D02*
D03*
X1708148Y2929600D02*
D03*
X1721881Y2941236D02*
D03*
X1734601Y2953972D02*
D03*
X1746566Y2967419D02*
D03*
X1757294Y2981873D02*
D03*
X1766657Y2997247D02*
D03*
X1774389Y3013501D02*
D03*
X1780652Y3030377D02*
D03*
X1785338Y3047756D02*
D03*
X1788273Y3065515D02*
D03*
X1789572Y3083468D02*
D03*
X1241786Y3106943D02*
D03*
X1231819Y3088979D02*
D03*
X1229353Y3067346D02*
D03*
X1231502Y3047814D02*
D03*
X1235471Y3028473D02*
D03*
X1241281Y3009668D02*
D03*
X1248825Y2991533D02*
D03*
X1258061Y2974081D02*
D03*
X1268916Y2957654D02*
D03*
X1281207Y2942411D02*
D03*
X1295118Y2928072D02*
D03*
X1310793Y2915161D02*
D03*
X1328129Y2904359D02*
D03*
X1346799Y2895998D02*
D03*
X1366387Y2890329D02*
D03*
X1386107Y2887334D02*
D03*
X1404850Y2886499D02*
D03*
X1422879Y2886470D02*
D03*
X1440879Y2886470D02*
D03*
X1460007Y2886541D02*
D03*
X1446810Y2971590D02*
D03*
X1420123D02*
D03*
X1387979Y2974058D02*
D03*
X1361729Y2984791D02*
D03*
X1340365Y3005443D02*
D03*
X1324653Y3032217D02*
D03*
X1313526Y3059967D02*
D03*
X1252172Y3095404D02*
D03*
X1246774Y3078232D02*
D03*
X1247871Y3060266D02*
D03*
X1250561Y3042468D02*
D03*
X1254941Y3025009D02*
D03*
X1261041Y3008074D02*
D03*
X1268623Y2991748D02*
D03*
X1277718Y2976215D02*
D03*
X1288329Y2961675D02*
D03*
X1300191Y2948137D02*
D03*
X1313199Y2935696D02*
D03*
X1327747Y2925095D02*
D03*
X1343523Y2916429D02*
D03*
X1360394Y2910155D02*
D03*
X1377945Y2906160D02*
D03*
X1395879Y2904615D02*
D03*
X1413879Y2904557D02*
D03*
X1431879D02*
D03*
X1449879D02*
D03*
X1467879D02*
D03*
X1485738Y2906803D02*
D03*
X1455810Y2953503D02*
D03*
X1437810D02*
D03*
X1419810D02*
D03*
X1401810D02*
D03*
X1383853Y2954745D02*
D03*
X1366551Y2959709D02*
D03*
X1350812Y2968443D02*
D03*
X1337167Y2980183D02*
D03*
X1325317Y2993731D02*
D03*
X1315188Y3008611D02*
D03*
X1307045Y3024664D02*
D03*
X1301083Y3041648D02*
D03*
X1297215Y3059228D02*
D03*
X1455516Y2804852D02*
D03*
X1455516Y2786852D02*
D03*
X1455516Y2768853D02*
D03*
X1455516Y2750852D02*
D03*
X1455516Y2732852D02*
D03*
X1455516Y2714852D02*
D03*
X1455516Y2696852D02*
D03*
X1455516Y2678852D02*
D03*
X1455516Y2660852D02*
D03*
X1456082Y2583471D02*
D03*
X1459581Y2561748D02*
D03*
X1465625Y2540145D02*
D03*
X1473989Y2519971D02*
D03*
X1484806Y2500285D02*
D03*
X1595047Y2553022D02*
D03*
X1584662Y2569627D02*
D03*
X1577214Y2591728D02*
D03*
X1576684Y2658558D02*
D03*
X1576684Y2676558D02*
D03*
X1576684Y2694558D02*
D03*
X1576684Y2712558D02*
D03*
X1576684Y2730558D02*
D03*
X1576684Y2748558D02*
D03*
X1576684Y2766558D02*
D03*
Y2802425D02*
D03*
X1473760Y2876906D02*
D03*
X1473540Y2795852D02*
D03*
Y2777852D02*
D03*
Y2759852D02*
D03*
Y2741852D02*
D03*
Y2723852D02*
D03*
Y2705852D02*
D03*
Y2687852D02*
D03*
Y2669852D02*
D03*
Y2651852D02*
D03*
X1475450Y2576275D02*
D03*
X1479667Y2556642D02*
D03*
X1486115Y2537673D02*
D03*
X1494715Y2519562D02*
D03*
X1573893Y2552855D02*
D03*
X1563997Y2575133D02*
D03*
X1558660Y2649558D02*
D03*
Y2667558D02*
D03*
Y2685558D02*
D03*
Y2703558D02*
D03*
Y2721558D02*
D03*
Y2739558D02*
D03*
Y2757558D02*
D03*
X1558660Y2784525D02*
D03*
X1558795Y2884792D02*
D03*
X1491848Y2894851D02*
D03*
Y2876851D02*
D03*
Y2858851D02*
D03*
X1491628Y2840852D02*
D03*
Y2822852D02*
D03*
Y2804852D02*
D03*
Y2786852D02*
D03*
Y2768853D02*
D03*
Y2750852D02*
D03*
Y2732852D02*
D03*
Y2714852D02*
D03*
Y2696852D02*
D03*
Y2678852D02*
D03*
Y2660852D02*
D03*
Y2642852D02*
D03*
Y2624852D02*
D03*
X1491714Y2606852D02*
D03*
X1491790Y2588853D02*
D03*
X1494472Y2571053D02*
D03*
X1499111Y2553661D02*
D03*
X1505848Y2536970D02*
D03*
X1514322Y2521089D02*
D03*
X1524692Y2506377D02*
D03*
X1536550Y2492834D02*
D03*
X1552828Y2485151D02*
D03*
X1562468Y2537445D02*
D03*
X1552695Y2552561D02*
D03*
X1545572Y2569091D02*
D03*
X1541298Y2586577D02*
D03*
X1540486Y2604558D02*
D03*
X1540573Y2622558D02*
D03*
Y2640558D02*
D03*
Y2658558D02*
D03*
Y2676558D02*
D03*
Y2694558D02*
D03*
Y2712558D02*
D03*
Y2730558D02*
D03*
Y2748558D02*
D03*
Y2766558D02*
D03*
Y2784558D02*
D03*
Y2802558D02*
D03*
X1540706Y2820558D02*
D03*
Y2838558D02*
D03*
X1540793Y2856558D02*
D03*
Y2874558D02*
D03*
X2612656Y2075732D02*
D03*
X2607000Y2058000D02*
D03*
X2580182Y2056600D02*
D03*
X2567547Y2025880D02*
D03*
X2566416Y2005770D02*
D03*
X2566416Y1987770D02*
D03*
X2566416Y1969770D02*
D03*
X2566416Y1951770D02*
D03*
X2566416Y1933770D02*
D03*
X2566416Y1915770D02*
D03*
X2566416Y1897770D02*
D03*
X2566416Y1879770D02*
D03*
X2566416Y1861770D02*
D03*
X2566416Y1843770D02*
D03*
X2566416Y1825770D02*
D03*
X2687584Y1828957D02*
D03*
X2687584Y1846957D02*
D03*
X2687584Y1864957D02*
D03*
X2687584Y1882957D02*
D03*
X2687584Y1900957D02*
D03*
X2687584Y1918957D02*
D03*
X2687584Y1936957D02*
D03*
X2687584Y1954957D02*
D03*
X2687584Y1972957D02*
D03*
X2687584Y1990957D02*
D03*
X2687325Y2013272D02*
D03*
X2685078Y2031883D02*
D03*
X2677319Y2049463D02*
D03*
X2632640Y2056929D02*
D03*
X2661051Y2060982D02*
D03*
X2642000Y2074000D02*
D03*
X2590815Y2036469D02*
D03*
X2584990Y2015291D02*
D03*
X2584440Y1996770D02*
D03*
X2584440Y1978770D02*
D03*
Y1960770D02*
D03*
Y1942770D02*
D03*
Y1924770D02*
D03*
Y1906770D02*
D03*
Y1888770D02*
D03*
Y1870770D02*
D03*
Y1852770D02*
D03*
Y1834770D02*
D03*
X2669560Y1837957D02*
D03*
Y1855957D02*
D03*
Y1873957D02*
D03*
Y1891957D02*
D03*
Y1909957D02*
D03*
Y1927957D02*
D03*
Y1945957D02*
D03*
Y1963957D02*
D03*
Y1981957D02*
D03*
X2669495Y2001038D02*
D03*
X2668220Y2020665D02*
D03*
X2661103Y2037073D02*
D03*
X2612055Y2039626D02*
D03*
X2603595Y2023738D02*
D03*
X2602527Y2005770D02*
D03*
Y1987770D02*
D03*
Y1969770D02*
D03*
Y1951770D02*
D03*
Y1933770D02*
D03*
Y1915770D02*
D03*
Y1897770D02*
D03*
Y1879770D02*
D03*
Y1861770D02*
D03*
Y1843770D02*
D03*
Y1825770D02*
D03*
Y1807770D02*
D03*
X2602614Y1789770D02*
D03*
X2603000Y1773000D02*
D03*
X2651386Y1774957D02*
D03*
Y1792957D02*
D03*
X2651472Y1810957D02*
D03*
Y1828957D02*
D03*
Y1846957D02*
D03*
Y1864957D02*
D03*
Y1882957D02*
D03*
Y1900957D02*
D03*
Y1918957D02*
D03*
Y1936957D02*
D03*
Y1954957D02*
D03*
Y1972957D02*
D03*
Y1990957D02*
D03*
Y2008957D02*
D03*
X2649322Y2026828D02*
D03*
X1445000Y3103000D02*
D03*
X1297000D02*
D03*
X1640000Y2256000D02*
D03*
X1789000Y3108000D02*
D03*
X1633000D02*
D03*
X1852947Y2895527D02*
D03*
X1853947Y2846527D02*
D03*
X1830947Y2882527D02*
D03*
X1873947Y2883528D02*
D03*
X1832400Y2858676D02*
D03*
X1873400Y2859676D02*
D03*
X1176947Y2891527D02*
D03*
X1177947Y2842527D02*
D03*
X1154947Y2878528D02*
D03*
X1197947Y2879527D02*
D03*
X1156400Y2854676D02*
D03*
X1197400Y2855676D02*
D03*
X1851947Y2619528D02*
D03*
X1852947Y2570527D02*
D03*
X1829947Y2606527D02*
D03*
X1872947Y2607527D02*
D03*
X1831400Y2582676D02*
D03*
X1872400Y2583676D02*
D03*
X1178947Y2604528D02*
D03*
X1179947Y2555527D02*
D03*
X1156947Y2591527D02*
D03*
X1199947Y2592527D02*
D03*
X1158400Y2567676D02*
D03*
X1199400Y2568676D02*
D03*
X1171947Y2067527D02*
D03*
X1172947Y2018527D02*
D03*
X1149947Y2054527D02*
D03*
X1192947Y2055527D02*
D03*
X1151400Y2030676D02*
D03*
X1192400Y2031676D02*
D03*
X1849947Y2062527D02*
D03*
X1850947Y2013527D02*
D03*
X1827947Y2049527D02*
D03*
X1870947Y2050527D02*
D03*
X1829400Y2025676D02*
D03*
X1870400Y2026676D02*
D03*
X1973947Y3534527D02*
D03*
X1974947Y3485527D02*
D03*
X1951947Y3521527D02*
D03*
X1994947Y3522527D02*
D03*
X1953400Y3497676D02*
D03*
X1994400Y3498676D02*
D03*
X2690947Y3515527D02*
D03*
X2691947Y3466527D02*
D03*
X2668947Y3502527D02*
D03*
X2711947Y3503528D02*
D03*
X2670400Y3478676D02*
D03*
X2711400Y3479676D02*
D03*
X2699947Y3034527D02*
D03*
X2700947Y2985527D02*
D03*
X2677947Y3021527D02*
D03*
X2720947Y3022527D02*
D03*
X2679400Y2997676D02*
D03*
X2720400Y2998676D02*
D03*
X2167947Y2703528D02*
D03*
X2168947Y2654527D02*
D03*
X2145947Y2690527D02*
D03*
X2188947Y2691527D02*
D03*
X2147400Y2666676D02*
D03*
X2188400Y2667676D02*
D03*
X2456947Y2568528D02*
D03*
X2457947Y2519527D02*
D03*
X2434947Y2555527D02*
D03*
X2477947Y2556527D02*
D03*
X2436400Y2531676D02*
D03*
X2477400Y2532676D02*
D03*
X1978947Y2064527D02*
D03*
X1979947Y2015527D02*
D03*
X1956947Y2051527D02*
D03*
X1999947Y2052527D02*
D03*
X1958400Y2027676D02*
D03*
X1999400Y2028676D02*
D03*
X1598000Y2482000D02*
D03*
X1642500Y2450700D02*
D03*
X1554500Y2181700D02*
D03*
X1558170Y2375830D02*
D03*
X1602900Y2149600D02*
D03*
D151*
X1592425Y2205470D02*
D03*
X1614425D02*
D03*
X1603425D02*
D03*
X1586575Y2438230D02*
D03*
X1608575Y2427230D02*
D03*
X1597575D02*
D03*
X1586575D02*
D03*
X1608575Y2438230D02*
D03*
X1597575D02*
D03*
X1608575Y2449230D02*
D03*
X1597575D02*
D03*
X1586575D02*
D03*
X1614425Y2183470D02*
D03*
X1603425D02*
D03*
X1592425D02*
D03*
X1614425Y2194470D02*
D03*
X1603425D02*
D03*
X1592425D02*
D03*
X1515000Y3329000D02*
D03*
D152*
X1852947Y2871527D02*
D03*
X1176947Y2867527D02*
D03*
X1851947Y2595527D02*
D03*
X1178947Y2580528D02*
D03*
X1171947Y2043527D02*
D03*
X1849947Y2038527D02*
D03*
X1973947Y3510527D02*
D03*
X2690947Y3491527D02*
D03*
X2699947Y3010527D02*
D03*
X2167947Y2679527D02*
D03*
X2456947Y2544527D02*
D03*
X1978947Y2040527D02*
D03*
D153*
X1730000Y2181100D02*
D03*
X1473495Y2451384D02*
D03*
X1413500Y2431060D02*
D03*
X1516100Y2381100D02*
D03*
X1688900Y2253900D02*
D03*
X1390200Y2172600D02*
D03*
X1771500Y2317500D02*
D03*
X1786300Y2204600D02*
D03*
D154*
X2454038Y2375271D02*
D03*
X2097918Y2320211D02*
D03*
X2517140Y3413340D02*
D03*
X2493010D02*
D03*
X2075180Y3069170D02*
D03*
X2517140Y3005670D02*
D03*
X2493010D02*
D03*
M02*
