M48
;Layer_Color=9474304
;FILE_FORMAT=4:4
METRIC,LZ
;TYPE=PLATED
T01F00S00C0.4000
T02F00S00C0.5000
T03F00S00C0.6500
T04F00S00C0.7000
T05F00S00C0.7112
T06F00S00C0.8000
T07F00S00C0.9000
T08F00S00C1.0000
T09F00S00C1.1000
T10F00S00C4.0000
;TYPE=NON_PLATED
T11F00S00C1.3000
%
T01
X01008513Y01911624
X01029001Y01916655
X01026256Y01894332
X01045461Y01903103
X01046938Y01923934
X01061694Y01913624
X01064253Y01892882
X01084518Y01886474
X01104276Y01883862
X01122681Y0188344
X01140681Y0188344
X01158681
X01176681
X01167681Y01865416
X01185681Y01865416
X01149681
X01131681Y01865416
X01113681
X01094047Y01866278
X010702Y01871082
X01047018Y0188063
X0107814Y01906309
X010957Y01902351
X01113681Y01901527
X01131681
X01149681
X01167681
X01185681
X01190092Y01950473
X01172092
X01154091
X01136092
X01118092
X01100105Y01951169
X01083318Y01957664
X01070425Y01970226
X01086435Y01982529
X01105867Y01970879
X01136266Y0196856
X01163092Y0196856
X01181092
X01016734Y01968062
X00997413Y01970572
X00977146Y01975862
X0098392Y01952988
X01004797Y0195102
X01024248Y01951706
X01034377Y01936826
X01015359Y01932866
X00994396Y01931386
X01208092Y01950473
X01226092
X01244092
X01262092
X01280092
X01298092
X01316092
X01334092
X01352092
X01370092Y01950473
X01388092
X01406092
X01424092
X01442092
X01460092
X01478092
X01496092
X01514092
X01532092
X01550092
X01568092
X01586092
X01577092Y0196856
X01559092
X01541092
X01523092
X01505092
X01487092
X01469092
X01451092
X01433092
X01415092
X01397092
X01379092
X01361092Y0196856
X01343092
X01325092
X01307092
X01289092
X01271092
X01253092
X01235092
X01217092
X01199092
X01203681Y01901527
X01221681
X01239681
X01257681
X01275681
X01293681
X01311681
X01329681
X01347681
X01365681Y01901528
X01383681
X01401681
X01419681
X01437681
X01455681
X01473681
X01491681
X01509681
X01527681
X01545681
X01563681
X01581681
X01572681Y0188344
X01554681
X01536681
X01518681
X01500681
X01482681
X01464681
X01446681
X01428681
X01410681
X01392681
X01374681
X01356681
X01338681Y0188344
X01320681
X01302681
X01284681
X01266681
X01248681
X01230681
X01212681
X01194681
X01203681Y01865416
X01221681Y01865416
X01239681Y01865416
X01257681Y01865416
X01275681Y01865416
X01293681Y01865416
X01311681Y01865416
X01329681Y01865416
X01347681Y01865416
X01365681
X01383681Y01865416
X01401681Y01865416
X01419681Y01865416
X01437681Y01865416
X01455681Y01865416
X01473681Y01865416
X01491681Y01865416
X01509681Y01865416
X01527681Y01865416
X01545681Y01865416
X01563681Y01865416
X01581681Y01865416
X01600386Y01865423
X01623567Y01866251
X01630986Y01885876
X01610331Y01883739
X01590858Y01883442
X01599681Y01901528
X01617678Y01901879
X01635437Y01904814
X0165245Y01910693
X01651265Y01891287
X01647231Y01870683
X01669891Y01879073
X01670383Y01900087
X01668211Y01919386
X01682211Y019307
X01702863Y01927347
X0172555Y01927058
X01714782Y0194531
X01693879Y01944407
X01702527Y01960193
X01707792Y01977406
X01722811Y0196531
X01743745Y01974034
X01737059Y01949631
X01709709Y01907293
X01687782Y01912148
X01690909Y018913
X01652347Y01970331
X01638721Y0195857
X01622043Y01951798
X01604092Y01950473
X01601983Y01969093
X01627693Y01975523
X02566416Y0196977
X02566416Y0195177
X02566416Y0193377
X02566416Y0191577
X02566416Y0189777
X02566416Y0187977
X02566416Y0186177
X02566416Y0184377
X02566416Y0182577
X0258444Y0183477
Y0185277
Y0187077
Y0188877
Y0190677
Y0192477
Y0194277
Y0196077
Y0197877
X02602527Y0196977
Y0195177
Y0193377
Y0191577
Y0189777
Y0187977
Y0186177
Y0184377
Y0182577
Y0180777
X02602614Y0178977
X02603Y01773
X02651386Y01774957
Y01792957
X02651472Y01810957
Y01828957
Y01846957
Y01864957
Y01882957
Y01900957
Y01918957
Y01936957
Y01954957
Y01972957
X0266956Y01963957
Y01945957
Y01927957
Y01909957
Y01891957
Y01873957
Y01855957
Y01837957
X02687584Y01828957
X02687584Y01846957
X02687584Y01864957
X02687584Y01882957
X02687584Y01900957
X02687584Y01918957
X02687584Y01936957
X02687584Y01954957
X02687584Y01972957
X0266956Y01981957
X02669495Y02001038
X0266822Y02020665
X02661103Y02037073
X02649322Y02026828
X02651472Y02008957
Y01990957
X02687584Y01990957
X02687325Y02013272
X02685078Y02031883
X02677319Y02049463
X02661051Y02060982
X02642Y02074
X0263264Y02056929
X02607Y02058
X02612656Y02075732
X02612055Y02039626
X02603595Y02023738
X02602527Y0200577
Y0198777
X0258444Y0199677
X0258499Y02015291
X02590815Y02036469
X02580182Y020566
X02567547Y0202588
X02566416Y0200577
X02566416Y0198777
X019994Y02028676
X01999947Y02052527
X01978947Y02064527
X01956947Y02051527
X019584Y02027676
X01979947Y02015527
X018704Y02026676
X01870947Y02050527
X01849947Y02062527
X01827947Y02049527
X018294Y02025676
X01850947Y02013527
X01809Y02006
X01787Y02033
X01745924Y02033927
X01744137Y02055736
X01724525Y02062455
X01705388Y02066985
X01708609Y02049276
X01709907Y02031322
X01709473Y02013328
Y01995328
X01726638Y01985101
X01660527Y02004714
X01660614Y02022714
X01660414Y02040713
X0165707Y020584
X01650833Y02075284
X01641839Y02090877
X01630359Y0210474
X01612Y02098
X01595
X01602545Y02081709
X01625413Y02080391
X0161802Y02059896
X01638372Y02053248
X01598Y02006
X016029Y021496
X01603425Y0218347
X01614425
Y0219447
Y0220547
X01603425
X01592425
Y0219447
Y0218347
X01603425Y0219447
X01666618Y021771
X01695Y02177
X0169197Y02135159
X01712646Y02137712
X01727731Y02128951
X01723916Y02118992
X01703284Y021184
X01683666Y02116167
X01692805Y02100659
X01712483Y02100616
X01733101Y02098595
X01739844Y02077795
X01719613Y02081895
X017Y0208416
X01672927Y02130612
X01660241Y02143382
X01664Y0223
X01705Y02233
X01703Y02294
X01663907Y02289791
X01662Y02307
X01646727Y02323685
X01622Y02332
X01609728Y02312063
X01616821Y0229552
X01617555Y02277535
X01637304Y0228057
X0164Y02256
X01673Y02273
X01631738Y02305122
X01620541Y02364937
X0165Y02375
X0176944Y0227773
X01805546Y02289579
X01837599Y02309989
X01852315Y02345024
X01874Y0233
Y02286
Y02236
Y02185
X01831Y0218
X01797475Y02149838
X0176573Y02128951
X01739Y02165
X01791283Y02224941
X01826Y02248
X01833Y02113
X01874Y02134
Y02084
X0179Y02089
X01874Y0238
X0155817Y0237583
X01572524Y02359816
X01575788Y02335663
X01557834Y0233437
X01539834
X01521834
X01503834
X01485834
X01467834
X01449834
X01432393Y02338821
X01437747Y02353482
X01413689Y02348518
X01376Y02362
X01319Y02379
X01267Y02277
X01225965Y02274253
X01240193Y02239017
X01267063Y02212147
X01265396Y0214628
X01272Y02127
X01322
X01303394Y02145935
X01341394
X0136879Y02119601
X01395358Y02092432
X01429394Y02075535
X01424Y02043
X01374
X01324
X01274
X01224
X011924Y02031676
X01192947Y02055527
X01197Y02087
X01247
X01297
X01347
X01348Y02006
X01298
X01248
X01222Y02127
X01214Y02159
X01234874Y02168916
X01208004Y02195786
X01442741Y02228309
X01436936Y02279398
X01443975Y02297483
X01425978Y0229713
X01461622Y0230103
X01479622
X01497622
X01515622
X01533622
X01551622
X01569622
X01583832Y02289982
X0158304Y02272
X01561Y02279
X01542622Y02282943
X01524622
X01506622
X01488622
X0146358Y02281347
X0146897Y02352457
X01494834
X01512834
X01529Y02355
X01551Y02259
X015545Y021817
X01562296Y02161295
X01538296Y02139295
X01521Y0212
X01517Y02101
X01498296Y02097295
X01501424Y02054709
X014763Y02042829
X01467133Y02071084
X01448Y02006
X01498
X01548
X01539424Y02054709
X0154Y02092
X01572296Y02115295
X01574544Y02069219
X015763Y02042829
X01489Y02153
X01509Y021811
X01398Y02006
X01172947Y02018527
X011514Y02030676
X01149947Y02054527
X01171947Y02067527
X01170653Y02127182
Y02178181
X0114Y02155
Y02105
X01095584Y02112005
Y02094005
Y02076005
Y02058005
Y02040005
Y02022005
X01096959Y01997495
X01078569Y02006932
X01059473Y02004005
Y02022005
Y02040005
Y02058005
Y02076005
Y02094005
Y02112005
Y02130005
Y02148005
Y02166005
Y02184005
Y02202005
Y02220005
Y02238005
Y02256005
Y02274005
Y02292005
Y02310005
Y02328005
Y02346005
Y02364005
X0107756Y02355005
Y02373005
X01095584Y02364005
Y02346005
Y02328005
Y02310005
Y02292005
Y02274005
Y02256005
Y02238005
Y02220005
Y02202005
Y02184005
Y02166005
Y02148005
Y02130005
X0107756Y02139005
Y02157005
Y02175005
Y02193005
Y02211005
Y02229005
Y02247005
Y02265005
Y02283005
Y02301005
Y02319005
Y02337005
X01010527Y02345363
Y02327363
Y02309363
Y02291363
Y02273363
Y02255363
Y02237363
Y02219363
Y02201363
Y02183363
Y02165363
Y02147363
Y02129363
Y02111363
Y02093363
Y02075363
Y02057363
Y02039362
Y02021362
Y02003362
X0101197Y0198542
X00993513Y01991273
X00992469Y02011638
X0099244Y02030363
Y02048362
Y02066362
Y02084362
Y02102363
Y02120363
Y02138363
Y02156363
Y02174363
Y02192363
Y02210363
Y02228363
Y02246363
Y02264363
Y02282363
Y02300363
Y02318363
Y02336363
Y02354363
Y02372363
X00974416Y02363363
X00974416Y02345363
X00974416Y02327363
X00974416Y02309363
X00974416Y02291363
X00974416Y02273363
X00974416Y02255363
X00974416Y02237363
X00974416Y02219363
X00974416Y02201363
X00974416Y02183363
X00974416Y02165363
X00974416Y02147363
X00974416Y02129363
X00974416Y02111362
X00974416Y02093363
X00974416Y02075363
X00974416Y02057363
X00974416Y02039362
X00974416Y02021362
X00974532Y02000469
X01062135Y01986203
X0107756Y02031005
Y02049005
Y02067005
Y02085005
Y02103005
Y02121005
X0114Y02206
Y02257
X01172635Y02259694
Y02297694
Y02335694
Y02373694
X0114Y02366
Y02307
X01181134Y02222656
X01010527Y02363363
Y02381363
Y02399363
Y02417363
Y02435363
Y02453363
Y02471363
Y02489363
Y02507363
Y02525363
Y02543363
Y02561363
Y02579363
Y02597363
Y02615363
Y02633363
Y02651363
Y02669363
Y02687363
Y02705363
Y02723363
Y02741363
Y02759363
Y02777363
X0099244Y02768363
Y02750363
Y02732363
Y02714363
Y02696363
Y02678363
Y02660363
Y02642363
Y02624363
Y02606363
Y02588363
Y02570363
Y02552363
Y02534363
Y02516363
Y02498363
Y02480363
Y02462363
Y02444363
Y02426363
Y02408363
Y02390363
X00974416Y02399363
X00974416Y02381363
Y02417363
X00974416Y02435363
X00974416Y02453363
X00974416Y02471363
X00974416Y02489363
X00974416Y02507363
X00974416Y02525363
X00974416Y02543363
X00974416Y02561363
X00974416Y02579363
X00974416Y02597363
X00974416Y02615363
X00974416Y02633363
X00974416Y02651363
X00974416Y02669363
X00974416Y02687363
X00974416Y02705363
X00974416Y02723363
X00974416Y02741363
X00974416Y02759363
X00974416Y02777363
X01059473Y02778005
Y02760005
Y02742005
Y02724005
Y02706005
Y02688005
Y02670005
Y02652005
Y02634005
Y02616005
Y02598005
Y02580005
Y02562005
Y02544005
Y02526005
Y02508005
Y02490005
Y02472005
Y02454005
Y02436005
Y02418005
Y02400005
Y02382005
X0107756Y02391005
Y02409005
Y02427005
Y02445005
Y02463005
Y02481005
Y02499005
Y02517005
Y02535005
Y02553005
Y02571005
Y02589005
Y02607005
Y02625005
Y02643005
Y02661005
Y02679005
Y02697005
Y02715005
Y02733005
Y02751005
Y02769005
X01095584Y02760005
Y02742005
Y02724005
Y02706005
Y02688005
Y02670005
Y02652005
Y02634005
Y02616005
Y02598005
Y02580005
Y02562005
Y02544005
Y02526005
Y02508005
Y02490005
Y02472005
Y02454005
Y02436005
Y02418005
Y02400005
Y02382005
X0114Y02416
X01172635Y02411694
X01174942Y02449624
X01170653Y02490181
X0114Y02467
Y02518
X011584Y02567676
X01156947Y02591527
X01178947Y02604528
X01179947Y02555527
X01184Y02665
X01095584Y02778005
X01232Y02746
X01282
X01332
X01382
X01362Y02703
X01412
X01455516Y02696852
X01455516Y02714852
X01455516Y02732852
X01455516Y02750852
X01455516Y02768853
X0147354Y02777852
Y02759852
Y02741852
Y02723852
Y02705852
Y02687852
Y02669852
Y02651852
X01455516Y02660852
X01455516Y02678852
X01491628Y02678852
Y02696852
Y02714852
Y02732852
Y02750852
Y02768853
X01540573Y02766558
Y02748558
Y02730558
Y02712558
Y02694558
Y02676558
Y02658558
Y02640558
Y02622558
X01540486Y02604558
X01541298Y02586577
X01545572Y02569091
X01552695Y02552561
X01573893Y02552855
X01562468Y02537445
X01563997Y02575133
X01584662Y02569627
X01577214Y02591728
X01576684Y02658558
X01576684Y02676558
X01576684Y02694558
X01576684Y02712558
X01576684Y02730558
X01576684Y02748558
X01576684Y02766558
X0155866Y02757558
Y02739558
Y02721558
Y02703558
Y02685558
Y02667558
Y02649558
X01491628Y02642852
Y02660852
Y02624852
X01491714Y02606852
X0149179Y02588853
X01494472Y02571053
X01499111Y02553661
X01479667Y02556642
X0147545Y02576275
X01456082Y02583471
X01459581Y02561748
X01465625Y02540145
X01486115Y02537673
X01505848Y0253697
X01514322Y02521089
X01494715Y02519562
X01473989Y02519971
X01484806Y02500285
X0144379Y02503291
X01423Y02524
X01408059Y02490356
X01371502Y02503311
X01373Y02524
X01337748Y02520765
X01299748
X01261748
X01223Y02524
X01227336Y02504646
X01200466Y02477776
X01252022Y02453912
X01287535Y02467435
X013148Y024716
X01378865Y02466031
X01463Y02467
X01505Y02458
X01535Y02453
X0153655Y02492834
X01552828Y02485151
X01524692Y02506377
X01538Y02401
X01494Y024
X01459Y02416
X01435412Y02383378
X01397444Y02384935
X01359556Y02382025
X01347Y02576
X01397
X01373Y02626
X01384Y02665
X01334
X01323Y02626
X01273
X01284Y02665
X01234
X01223Y02626
X01199947Y02592527
X011994Y02568676
X01247Y02576
X01297
X01312Y02703
X01262
X01212
X01423Y02626
X01586575Y0244923
Y0243823
Y0242723
X01597575
X01608575
Y0243823
X01597575
Y0244923
X01608575
X016425Y024507
X01635407Y02472452
X01653407Y02489452
X01670407Y02507452
X01673407Y02535452
X01651407Y02539452
X01632407Y02527452
X01606Y02538
X01589
X01595047Y02553022
X01617555Y02564804
X01626Y02588
X01676
X01726
X01776
X018314Y02582676
X01829947Y02606527
X01851947Y02619528
X01872947Y02607527
X018724Y02583676
X01852947Y02570527
X01874Y02532
Y02482
X01843972Y02496038
X01852565Y02459023
X01852315Y02421024
X01874Y02431
X01852315Y02383024
X01813604Y02518881
X01775605Y02519265
X01741896Y02536806
X01701Y02553
X01693407Y02522452
X01689Y02458
X01676Y02433
X01598Y02482
X01601Y02628
X01651
X01701
X01751
X01801
X01818Y02665
X01768
X01718
X01668
X01618
X01646Y02703
X01696
X01746
X01796
X01846
X01816Y02746
X01766
X01716
X01666
X018Y0255
X021474Y02666676
X02145947Y02690527
X02167947Y02703528
X02188947Y02691527
X021884Y02667676
X02168947Y02654527
X02434947Y02555527
X024364Y02531676
X02457947Y02519527
X024774Y02532676
X02477947Y02556527
X02456947Y02568528
X02504Y02944
X025379Y02974407
X02536553Y03012383
X02526726Y0304909
X02504Y03027
X0246572Y03035644
X02428019Y03040407
X02390019
X02390661Y03094123
X02428661
X02466659Y03093777
X02500596Y03076681
X02473734Y02998498
X0259Y03012
X0264
X02677947Y03021527
X026794Y02997676
X02700947Y02985527
X027204Y02998676
X02720947Y03022527
X02699947Y03034527
X02352019Y03040407
X02314019
X02276019
X02238019
X02200019
X02162019
X02124019
X02086249Y03044579
X02054855Y0306599
X02046417Y03103042
X02109601Y03077237
X02147309Y03072533
X02185309
X0219Y03098
X02215124Y03127489
X02252633Y03135414
X02241994Y03100619
X02279503Y03108543
X02269707Y03074619
X02223309Y03072533
X02225763Y03162284
X02188254Y03154359
X02158553Y03161958
Y03123958
X02314661Y03094123
X02352661
X01886Y03118
Y03068
Y03018
Y02967
Y02916
X01873947Y02883528
X018734Y02859676
X01853947Y02846527
X018324Y02858676
X01830947Y02882527
X01852947Y02895527
X01852Y02944
Y02995
Y03046
X01804748Y03054508
X01806948Y03073752
X01788273Y03065515
X01789572Y03083468
X01789Y03108
X01821Y03125
X01744025Y03120251
X01729551Y03104382
X01741287Y03091241
X01739943Y03073291
X01736995Y03055534
X01731667Y0303834
X01724335Y03021902
X01714943Y03006546
X01703671Y02992513
X0169108Y02979649
X01677529Y02967801
X0166156Y02959494
X01644069Y02955247
X01626075Y02954773
X01608075
X01590075
X01601Y02966
X01593657Y02980868
X01613977Y02977122
X01632Y02972
X01625804Y02993516
X01605166Y02994708
X01614885Y03009858
X01635477Y03011183
X01642946Y03029934
X01622615Y03026114
X01628424Y03043151
X01631967Y03060799
X01633436Y03078739
X01650728Y03068292
X01648075Y03049456
X01679Y03039
X01713824Y03045025
X01721302Y03076151
X01699209Y03017435
X01678691Y02993688
X01657Y03004
X01654464Y02978061
X0165903Y02908114
X0164115Y02906037
X01623151Y02905828
X01605151
X01596151Y0288774
X01614256Y02887741
X01633299Y02887906
X01653491Y02889362
X01673728Y02893456
X01676407Y02912806
X01692874Y02920075
X01693078Y02900494
X01711143Y02910264
X01708148Y029296
X01721881Y02941236
X0172726Y02922127
X01741396Y02935202
X01734601Y02953972
X01754602Y02949294
X01746566Y02967419
X01766916Y02964553
X01757294Y02981873
X01777866Y02980971
X01787168Y02998343
X01766657Y02997247
X01774389Y03013501
X01780652Y03030377
X01785338Y03047756
X01800649Y03035237
X01794731Y03016438
X01819Y03018
Y02967
Y02916
X01784Y02932
X01772Y02892
X01778Y02861
X01802Y02834
X01752
X01702
X01652
X01602
X01626Y02861
X01676
X01726
X01734Y02794
X01684
X01634
X01784
X01834
X01886Y03169
X01667Y03128
X01633Y03108
X01574713Y03102915
X01585822Y03088906
X01583993Y03070999
X01567065Y03082755
X0156182Y03059332
X01577Y03047
X01569Y03031
X01548203Y03032796
X01559Y03016
X01547Y03002
X01533Y03013
X01534Y02989
X01517Y02992
X01499716Y02987863
X01486988Y03000591
X0147426Y03013319
X0146247Y0302692
X01453572Y03042567
X01447895Y03059648
X01465586Y03061039
X01483Y03035
X01501Y03052
X01535Y03051
X01517Y03028
X01500006Y03013153
X01515937Y02971311
X01567321Y02955277
X01581039Y0296803
X01587151Y02905828
X01569151
X015512Y02907159
X01540793Y02892558
Y02874558
Y02856558
X01540706Y02838558
Y02820558
X01540573Y02802558
Y02784558
X0155866Y02784525
X01576684Y02802425
X01578151Y0288774
X01558795Y02884792
X01491848Y02876851
Y02894851
X01485738Y02906803
X01467879Y02904557
X01449879
X01431879
X01413879
X01395879Y02904615
X01377945Y0290616
X01360394Y02910155
X01343523Y02916429
X01346799Y02895998
X01366387Y02890329
X01386107Y02887334
X0140485Y02886499
X01422879Y0288647
X01440879Y0288647
X01460007Y02886541
X0147376Y02876906
X01491848Y02858851
X01491628Y02840852
Y02822852
Y02804852
Y02786852
X0147354Y02795852
X01455516Y02786852
X01455516Y02804852
X01438Y02836
X01388
X01338
X01288
X01238
X01262Y02863
X01238Y02888
X01197947Y02879527
X011974Y02855676
X012Y02794
X0125
X013
X0135
X014
X01414Y02863
X01362
X01312
X01288Y02888
X01295118Y02928072
X01300191Y02948137
X01281207Y02942411
X01288329Y02961675
X01268916Y02957654
X01258061Y02974081
X01277718Y02976215
X01268623Y02991748
X01248825Y02991533
X01241281Y03009668
X01261041Y03008074
X01254941Y03025009
X01250561Y03042468
X01247871Y03060266
X01246774Y03078232
X01252172Y03095404
X01241786Y03106943
X01231819Y03088979
X01229353Y03067346
X01231502Y03047814
X01235471Y03028473
X01307045Y03024664
X01301083Y03041648
X01297215Y03059228
X01313526Y03059967
X01324653Y03032217
X01315188Y03008611
X01325317Y02993731
X01337167Y02980183
X01350812Y02968443
X01366551Y02959709
X01383853Y02954745
X0140181Y02953503
X0141981
X0143781
X0145581
X01469576Y0294917
X0144681Y0297159
X01420123
X01412286Y02982791
X01431463Y02987417
X01420509Y030017
X01400994Y02999443
X01391816Y03017489
X01411477Y0301727
X01404453Y03033842
X01399686Y030512
X01397039Y03069004
X0139769Y03086992
X01397Y03108
X01445Y03103
X0148Y03126
X0133Y03124
X01297Y03103
X01355Y03037
X01385022Y03036597
X01380696Y03056377
X01372Y03006
X01361729Y02984791
X01387979Y02974058
X01340365Y03005443
X01327747Y02925095
X01328129Y02904359
X01310793Y02915161
X01313199Y02935696
X01262Y02915
X01238Y02945
X01176947Y02891527
X01154947Y02878528
X011564Y02854676
X01177947Y02842527
X01095584Y02850005
Y02868005
Y02886006
Y02904005
Y02922006
Y02940005
Y02958006
Y02976006
Y02994006
Y03012006
Y03030006
Y03048006
Y03066006
Y03084006
Y03102006
Y03120006
Y03138006
Y03156006
Y03174006
X0107756Y03165006
Y03147006
Y03129006
Y03111006
Y03093006
Y03075006
Y03057006
Y03039006
Y03021006
Y03003006
Y02985005
Y02967006
Y02949006
Y02931006
Y02913005
Y02895005
Y02877006
Y02859005
Y02841006
Y02823005
Y02805005
Y02787005
X01095584Y02796005
Y02814005
Y02832006
X01059473
Y02850005
Y02868005
Y02886006
Y02904005
Y02922006
Y02940005
Y02958006
Y02976006
Y02994006
Y03012006
Y03030005
Y03048006
Y03066006
Y03084006
Y03102006
Y03120006
Y03138006
Y03156006
Y03174006
X01010527Y03173364
Y03155363
Y03137363
Y03119363
Y03101364
Y03083363
Y03065363
Y03047363
Y03029363
Y03011363
Y02993363
Y02975363
Y02957363
Y02939363
Y02921363
Y02903363
Y02885363
Y02867363
Y02849363
Y02831363
Y02813363
Y02795363
X0099244Y02804363
Y02822363
Y02840363
Y02858363
Y02876363
Y02894363
Y02912363
Y02930363
Y02948363
Y02966363
Y02984363
Y03002363
Y03020363
Y03038363
Y03056363
Y03074363
Y03092363
Y03110363
Y03128363
Y03146364
Y03164363
X00974416Y03155363
X00974416Y03137363
X00974416Y03119363
X00974416Y03101364
X00974416Y03083363
X00974416Y03065363
X00974416Y03047363
X00974416Y03029363
X00974416Y03011363
X00974416Y02993363
X00974416Y02975363
X00974416Y02957363
X00974416Y02939363
X00974416Y02921363
X00974416Y02903363
X00974416Y02885363
X00974416Y02867363
X00974416Y02849363
X00974416Y02831363
X00974416Y02813363
X00974416Y02795363
X0099244Y02786363
X01059473Y02796005
Y02814005
X01135Y03017
Y03068
Y03118
X01181
Y03168
X01135
X00974416Y03173364
X00974416Y03191364
X00974416Y03209363
X00974416Y03227363
X00974416Y03245363
X00974416Y03263364
X00974416Y03281364
X00974416Y03299363
X00974416Y03317364
X00974416Y03335363
X00974416Y03353364
X00974416Y03371364
X00975344Y03391116
X00992893Y03380797
X0099244Y03362364
Y03344364
Y03326364
Y03308364
Y03290363
Y03272364
Y03254363
Y03236364
Y03218364
Y03200363
Y03182363
X01010527Y03191364
Y03209363
Y03227364
Y03245363
Y03263364
Y03281364
Y03299364
Y03317364
Y03335363
Y03353364
Y03371364
X01011412Y03389342
X01015648Y03406837
X01023311Y03423123
X01002507Y03420959
X00995707Y03400662
X0098055Y03415334
X00990636Y03438498
X01013309Y03439602
X01034129Y0343751
X01027477Y03455691
X01023157Y03476339
X01044018Y0346879
X01042976Y03489719
X01062445Y0347881
X01062568Y03459384
X01079156Y03466373
X01096674Y03470513
X01115476Y03471719
X01133476Y03471576
X01151475Y03471663
X01169475
X01187476
X01178475Y0348975
X01169475Y03507774
X01187476
X01179Y03555
X01154Y03533
X01129Y03555
X01088367Y03505656
X01082324Y03485578
X01103416Y03488942
X01065136Y03499651
X01047448Y03449619
X01005266Y03459212
X01070885Y0340529
X01061578Y03389882
X01059473Y03372006
Y03354006
Y03336006
Y03318006
Y03300006
Y03282006
Y03264006
Y03246006
Y03228006
Y03210006
Y03192006
X0107756Y03183006
Y03201006
Y03219006
Y03237006
Y03255006
Y03273006
Y03291006
Y03309006
Y03327006
Y03353475
X01081043Y03381918
X01095584Y03369887
X01095175Y03398428
X01085334Y03416023
X01102348Y03421899
X01120326Y03422804
X01138326
X01156326Y03422718
X01174325
X01183326Y0340463
X01174325Y03386606
X01135Y0337
Y0332
X01095584Y03318006
Y03336006
Y03300006
Y03282006
Y03264006
Y03246006
Y03228006
Y03210006
Y03192006
X01135Y03219
X01181
Y0327
X01135
X01188Y0332
X01237062Y03312604
X01257486Y0331625
X01251398Y03299311
X01247886Y03281657
X01246738Y03263694
Y03245693
X01247089Y03227697
X01229495Y0323311
X01228652Y03254517
X01229243Y03273252
X01231747Y03292825
X01245178Y03331489
X01265887Y03332169
X01276413Y03346771
X01255816Y03348979
X01269022Y03364818
X01289117Y03359523
X01292Y03375
X01300326Y03386606
X01282326Y03386606
X01264325Y03386606
X01246326Y03386606
X01228326Y03386606
X01210326Y03386606
X01192326Y03386606
X01201326Y0340463
X01219325
X01237326
X01255326
X01273326
X01291326
X01309326
X01327326
X01345326
X01336326Y03386606
X01318326Y03386606
X01323076Y03369709
X0134107Y03370163
X01359064Y03370617
X01377059Y03371072
X01394862Y03373725
X0139Y03391
X01373Y0339
Y03405
X01372326Y03422718
X01354326
X01336326
X01318326
X01300326
X01282326
X01264326
X01246326
X01228326
X01210325
X01192326
X01205475Y03471663
X01223475
X01241476
X01259475
X01277476
X01295475
X01313476
X01331476
X01349476
X01367476
X01385475Y03471519
X01403464Y03470887
X01421356Y03468918
X01438542Y03463565
X01454468Y03455178
X01453408Y03476008
X01449281Y03498043
X01433628Y03483865
X01413717Y0348793
X01394859Y03489284
X01376548Y03489678
X01358476Y0348975
X01340476
X01322475
X01304476
X01286476
X01268475
X01250475
X01232476
X01214475
X01196475
X01205475Y03507774
X01223475
X01241475
X01259475
X01277476
X01295475
X01313475
X01331476
X01349476
X01367476
X01385763Y03507629
X01404731Y03506977
X01425307Y03504813
X01404Y03533
X01379Y03555
X01354Y03533
X01329Y03555
X01304Y03533
X01279Y03555
X01254Y03533
X01229Y03555
X01204Y03533
X01216Y03357
X01305199Y03367608
X0131281Y03314068
X01329459Y03320909
X01347453Y03321364
X01365447Y03321818
X0138344Y03322319
X01401295Y03324599
X01418296Y03330512
X01417435Y03311268
X01438Y03307
X01436804Y03320764
X01449711Y03323494
X01457539Y03309967
X01448538Y03294379
X01428374Y03295629
X01419374Y03280041
X01439538Y03278791
X01430537Y03263203
X01409702Y03263011
X01421536Y03247615
X01415405Y03230691
X01402386Y03222164
X01400934Y03241825
X01356Y03239
X01362Y03268
X0135693Y0330351
X01375841Y03304058
X01396484Y03305947
X01395Y03286
X01336493Y03301418
X01320156Y03288723
X0130329Y03298791
X0129744Y03281768
X01295683Y03263854
Y03245854
X01295352Y03227857
X01288646Y03211153
X01297986Y03198833
X01309433Y0321597
X01313603Y03236689
X01314502Y03261873
X01234161Y0321172
X01245963Y03197748
X01445526Y03200504
X01455053Y03211231
X01475473Y03208783
X01485671Y03224634
X01465507Y03225884
X01474508Y03241472
X01494682Y0324024
X01498663Y03259734
X01483508Y0325706
X01513Y03247
X01530615Y03248177
X01537413Y03236496
X0155757Y03237859
X01548482Y03253397
X01523817Y03259857
X01516014Y03275483
X01516505Y03291129
X01530408Y0328453
X01502731Y0328373
X01515Y03329
X01541323Y03357125
X01551689Y0337184
X01560012Y033878
X01541Y03386
X01547Y03407
X01566462Y03404605
X01570728Y03422092
X01572869Y03439965
X01573127Y03457963
Y03475963
Y03493963
Y03511963
Y03529963
X01573189Y03547963
X01528997Y03554774
X01504Y03533
X015Y03508
X01537016Y03511963
X01537016Y03493963
X01537016Y03475963
X01515Y0348
X01491128Y03472032
X01486211Y03450749
X01468493Y03443896
X01471363Y03464585
X01471294Y0348713
X01454Y03533
X01479Y03555
X01429
X01425316Y03415652
X01408302Y03421529
X01390323Y03422378
X01403051Y03401951
X01354326Y03386606
X01465265Y03383101
X01477Y03373
X01489Y03361
X01468012Y03357199
X01457458Y03366617
X01446945Y03352007
X01433714Y03339803
X01480172Y03430198
X01494644Y03419494
X01509595Y03423857
X01499795Y0343805
X01504969Y03456773
X01520395Y0344481
X01536788Y03442379
X01533Y03428
X0155198Y03425592
X01554919Y03458568
X0155504Y03484963
Y03502963
X01577274Y03323805
X01570235Y03313104
X01579343Y03297578
X01566657Y03222321
X01547539Y03219526
X01561901Y03201456
X01578596Y0320885
X01579937Y0319339
X01619403Y03221194
X0161442Y0323475
X01629783Y03233297
X01626467Y03251349
X01606606Y03250965
X01597518Y03266503
X01617675Y03267865
X01608587Y03283403
X01588431Y0328204
X01599494Y03298951
X01588Y0331
X01597591Y03320816
X01618745Y03319163
X01608613Y03337098
X01588066Y03338211
X0159756Y03353503
X01618093Y03354362
X01639229Y03356761
X01646653Y03376563
X01625857Y03372353
X01605499Y03369658
X01611928Y03386471
X01616866Y0340378
X01620212Y03421466
X01621785Y03439398
X01622072Y03457395
Y03475396
Y03493395
Y03511395
Y03529395
X01621961Y03547395
X0164016Y03502395
Y03484395
Y03466395
X01640015Y03448252
X0163905Y03429497
X01636434Y03410152
X01631979Y03390963
X01652348Y03397068
X01656185Y0341831
X01657892Y03438821
X01658184Y03457395
X01658184Y03475396
X01658184Y03493395
X01658184Y03511395
X01681714Y03491193
X01704656Y03484696
X01704656Y03502696
X0172268Y03493696
Y03475696
Y03457696
Y03439696
Y03421696
Y03403696
Y03385696
Y03367696
Y03349696
Y03331696
Y03313696
Y03295696
Y03277696
Y03259696
X01722968Y03239432
X01725707Y03218915
X01745274Y03215269
X01740767Y03232696
Y03250696
Y03268696
Y03286696
Y03304696
Y03322696
Y03340696
Y03358696
Y03376696
Y03394696
Y03412696
Y03430696
Y03448696
Y03466696
Y03484696
Y03502696
Y03520696
X01740854Y03538696
Y03556696
X01789626Y03547395
X01789712Y03529395
Y03511395
Y03493395
Y03475395
Y03457395
Y03439395
Y03421395
Y03403395
Y03385395
Y03367395
Y03349395
Y03331395
Y03313395
Y03295395
Y03277395
Y03259395
Y03241395
X01788349Y03223447
X01800316Y03210349
X01807092Y03231736
X01807799Y03250395
Y03268395
Y03286395
Y03304395
Y03322395
Y03340395
Y03358395
Y03376395
Y03394395
Y03412395
Y03430395
Y03448395
Y03466395
Y03484395
Y03502395
X01825824Y03493395
X01825824Y03511395
Y03475395
X01825824Y03457395
X01825824Y03439395
X01825824Y03421395
X01825824Y03403395
X01825824Y03385395
X01825824Y03367395
X01825824Y03349395
X01825824Y03331395
X01825824Y03313395
X01825824Y03295395
X01825824Y03277395
X01825824Y03259395
X01825824Y03241395
X01824357Y03220712
X01858Y03245
Y03296
Y03346
Y03396
Y03447
Y03498
Y03548
X01886Y03522
Y03472
Y03422
Y03371
Y0332
Y0327
Y0322
X01734839Y03203619
X01737782Y03179944
X01720385Y03189258
X01710397Y03205907
X01705806Y03223655
X01704656Y03250696
X01704656Y03268696
X01704656Y03286696
X01704656Y03304696
X01704656Y03322696
X01704656Y03340696
X01704656Y03358696
X01704656Y03376696
X01704656Y03394696
X01704656Y03412696
X01704656Y03430696
X01704656Y03448696
X01704656Y03466696
X01681714Y03441193
Y03391193
X01662714Y03364193
X01681714Y03341193
X01662714Y03314193
X01681714Y03291193
X01638714Y03293193
X01662714Y03264193
X0162997Y03337577
X01681714Y03541193
X01951947Y03521527
X019534Y03497676
X01974947Y03485527
X01973947Y03534527
X01994947Y03522527
X019944Y03498676
X02165362Y03481789
X02182906Y03451614
X02150557Y03446792
Y03408792
X02182683Y03413615
Y03375615
X02150557Y03370792
Y03332792
X02182683Y03337615
Y03299615
X02150557Y03294792
Y03256792
X02119465Y032582
X02103294Y03214939
X02126427Y03184792
X02154Y03224
X02182881Y03223616
X02182683Y03261615
X02198893Y03189154
X02216999Y03468397
X02254999
X02292999
X02330999
X02368999
X02350495Y03500523
X02312495
X02274495
X02236495
X02198495Y03500396
X02388495Y03500523
X02426495
X02444999Y03468397
X02406999
X02469124Y03439037
X02505Y03432
X02536512Y03432979
X02536916Y03394981
X0247617Y03401696
X02504Y03339
X02545903Y034698
X02533641Y03505767
X02490195Y035056
X02668947Y03502527
X026704Y03478676
X02691947Y03466527
X027114Y03479676
X02711947Y03503528
X02690947Y03515527
T02
X0173Y021811
X017863Y022046
X017715Y023175
X016889Y022539
X015161Y023811
X013902Y021726
X014135Y0243106
X01473495Y02451384
T03
X0242443Y0296122
Y0298622
X0236347Y0297519
X0233847
Y0337778
X0236347
X0242443Y0338881
Y0336381
T04
X02158608Y02503091
X02207408
X0226187Y0282887
Y0287767
Y0323146
Y0328026
T05
X02454038Y02375271
X02097918Y02320211
X0249301Y0300567
X0251714
X0207518Y0306917
X0249301Y0341334
X0251714
T06
X012886Y022196
X01339
T07
X02390018Y02048431
Y02078911
Y02163341
Y02188741
Y02214141
Y02239541
Y02271291
Y02296691
Y02322091
Y02347491
Y02379241
X02359538
Y02347491
Y02322091
Y02296691
Y02271291
Y02239541
Y02214141
Y02188741
Y02163341
X02364618Y02078911
X02339218
X02313818
Y02048431
X02339218
X02364618
X02280798
X02255398
X02229998
X02204598
X02204941Y02079321
X02230341
X02255741
X02281141
X02130938Y02077641
X02105538
X02080138
X02054738
Y02047161
X02080138
X02105538
X02130938
X02054738Y02155111
Y02180511
Y02205911
Y02231311
Y02261791
Y02287191
Y02312591
Y02337991
Y02368471
X02022988
Y02337991
Y02312591
Y02287191
Y02261791
Y02231311
Y02205911
Y02180511
Y02155111
X01797Y0237252
X01767
X014191Y022373
Y022119
Y021865
Y021611
Y021357
X012313Y023242
Y023496
X012311Y023804
Y024058
X01767Y0239792
Y0242332
Y0244872
Y0247412
X01797
Y0244872
Y0242332
Y0239792
X02022988Y02393871
Y02419271
Y02444671
X02054738
Y02419271
Y02393871
Y02476421
Y02501821
Y02527221
Y02552621
X02022988
Y02527221
Y02501821
Y02476421
X02283338Y02505631
X02308738
X02334138
X02359538
Y02536111
X02334138
X02308738
X02283338
X02359538Y02455441
Y02430041
Y02404641
X02390018
Y02430041
Y02455441
X0211328Y0312251
X0208788
X0206248
X0203708
X0197231Y0314156
X0194691
Y0317458
X0197231
X0184906Y0312588
Y0310048
X0169158Y0310175
Y0312715
X0150362Y0312334
Y0309794
X0135503Y0310048
Y0312588
X0119628Y0298999
Y0296459
X0116072
Y0298999
X0203708Y0319871
X0206248
X0208788
X0211328
Y0335365
X0208788
X0206248
X0203708
X0247904Y0348446
X0250444
X0252984
X0255524
T08
X02620702Y02681752
X02646102
X02648626Y03084131
X02623226
T09
X02452248Y02235121
Y02285921
T10
X01849947Y02038527
X01978947Y02040527
X01171947Y02043527
X01178947Y02580528
X01851947Y02595527
X02167947Y02679527
X02456947Y02544527
X02699947Y03010527
X01852947Y02871527
X01176947Y02867527
X01973947Y03510527
X02690947Y03491527
T11
X02657Y0280291
Y0285791
Y032055
Y032605
M30
